<?xml version="1.0"?>
<svg xmlns="http://www.w3.org/2000/svg" id="Layer_35" enable-background="new 0 0 64 64" height="512px" viewBox="0 0 64 64" width="512px" class=""><g><path d="m50.355 25.648c-.815-2.193-2.907-3.648-5.247-3.648-2.445 0-4.607 1.587-5.34 3.919l-3.641 11.584c.594 1.433 1.308 2.497 2.367 2.497 3.25 0 3.25-10 6.499-10 3.252 0 3.252 10 6.504 10 1.34 0 2.127-1.697 2.818-3.693z" fill="#f0bc5e" data-original="#F0BC5E" class="active-path" style="fill:#00B8BA" data-old_color="#f0bc5e"/><path d="m19 16c0-2.943 2.121-5.386 4.916-5.897l.003-.004c-.424-2.331-2.465-4.099-4.919-4.099-.446 0-.869.077-1.281.186-.769-2.427-3.038-4.186-5.719-4.186-3.314 0-6 2.686-6 6 0 .341.028.676.083 1.001l.008.008c-.031-.001-.06-.009-.091-.009-2.209 0-4 1.791-4 4s1.791 4 4 4h13.084l.005-.007c-.054-.324-.089-.654-.089-.993z" fill="#f0bc5e" data-original="#F0BC5E" class="active-path" style="fill:#00B8BA" data-old_color="#f0bc5e"/><path d="m51.292 25.3c-.85-2.289-2.914-3.902-5.292-4.231v-6.365l15.876-5.67-15.69-6.034h-2.186v18.095c-2.417.406-4.43 2.121-5.186 4.524l-5.032 16.011c-.315-1.052-.963-1.989-1.876-2.641l-4.787-3.419 1.683-7.57h2.876c3.046 0 5.787-1.691 7.152-4.415l3.804-7.587c.24-.477.366-1.012.366-1.546 0-1.904-1.548-3.452-3.485-3.452-1.315 0-2.499.731-3.087 1.908l-3.217 6.434c-.511 1.023-1.539 1.658-2.683 1.658h-.638c1.3-1.272 2.11-3.042 2.11-5 0-3.86-3.14-7-7-7s-7 3.14-7 7c0 1.958.81 3.728 2.11 5h-.522c-3.792 0-7.381 2.006-9.368 5.235l-4.725 7.678c-.324.525-.495 1.13-.495 1.749 0 .476.104.928.285 1.338h-4.285v14h12.666l-1.545 6.381c-.08.333-.121.674-.121 1.014v.292c0 2.378 1.935 4.313 4.312 4.313 2.027 0 3.802-1.44 4.22-3.424l3.265-15.509 2.203 1.468v9.465c0 2.206 1.794 4 4 4h33v-2.18zm-5.292-20.229 10.124 3.894-10.124 3.616zm-26 10.929c0-2.757 2.243-5 5-5s5 2.243 5 5-2.243 5-5 5-5-2.243-5-5zm-3.954 21h-4.224l4.948-7.776c.243-.382.573-.688.955-.898zm.336 2-.04.081c-1.209 2.417-3.639 3.919-6.342 3.919s-5.133-1.502-6.341-3.919l-.041-.081h4.72.378zm-13.382 2.682c1.702 2.075 4.232 3.318 7 3.318s5.298-1.243 7-3.318v7.318h-14zm25 13.318v-9.465c0-.67-.333-1.292-.891-1.664l-2.806-1.871h-2.114l-3.613 17.164c-.225 1.064-1.177 1.836-2.264 1.836-1.274 0-2.312-1.038-2.312-2.312v-.292c0-.183.022-.366.065-.544l1.659-6.852h3.276v-14h-.917l2.129-11h-1.212c-1.596 0-3.061.804-3.917 2.15l-5.237 8.23c-.248.389-.67.62-1.13.62h-.378c-.737 0-1.338-.601-1.338-1.338 0-.248.068-.49.198-.701l4.725-7.678c1.626-2.642 4.563-4.283 7.665-4.283h10.94c1.906 0 3.62-1.059 4.472-2.764l3.217-6.434c.247-.494.745-.802 1.331-.802.8 0 1.452.651 1.452 1.452 0 .225-.053.45-.154.65l-3.804 7.587c-1.023 2.042-3.079 3.311-5.363 3.311h-4.481l-2.318 10.429 5.864 4.188c.786.562 1.256 1.475 1.256 2.442v11.941c0 1.103-.897 2-2 2s-2-.897-2-2zm5.444 2c.344-.591.556-1.268.556-2v-7.392l6.722-21.39c.606-1.925 2.368-3.218 4.386-3.218 1.912 0 3.644 1.204 4.31 2.997l11.515 31.003z" data-original="#000000" class="" style="fill:#00A5A7" data-old_color="#000000"/><path d="m56 53h2v2h-2z" data-original="#000000" class="" style="fill:#00A5A7" data-old_color="#000000"/><path d="m52 53h2v2h-2z" data-original="#000000" class="" style="fill:#00A5A7" data-old_color="#000000"/><path d="m48 53h2v2h-2z" data-original="#000000" class="" style="fill:#00A5A7" data-old_color="#000000"/></g> </svg>
