<?xml version="1.0"?>
<svg xmlns="http://www.w3.org/2000/svg" id="Line_cutting_stroke_Ex" data-name="Line cutting stroke Ex" width="512" height="512" viewBox="0 0 512 512"><g><path d="M432,72a24,24,0,1,0-24,24A24.0272,24.0272,0,0,0,432,72Zm-32,0a8,8,0,1,1,8,8A8.0092,8.0092,0,0,1,400,72Z"/><path d="M480,408H336V264H320V468a28.0314,28.0314,0,0,0,28,28H468a28.0314,28.0314,0,0,0,28-28V368H480Zm0,60a12.0134,12.0134,0,0,1-12,12H348a12.0134,12.0134,0,0,1-12-12V424H480Z"/><path d="M463.42,162.54A17.965,17.965,0,0,0,464,158V130a17.9969,17.9969,0,0,0-8-14.96V34a18.0206,18.0206,0,0,0-18-18H378a18.0206,18.0206,0,0,0-18,18V56h16V34a2.0023,2.0023,0,0,1,2-2h60a2.0023,2.0023,0,0,1,2,2v78H376V72H360v43.04A17.9969,17.9969,0,0,0,352,130v28a17.9728,17.9728,0,0,0,.5753,4.522,47.7894,47.7894,0,0,0-13.3844,7.0825l9.6113,12.791A31.7169,31.7169,0,0,1,368,176h80a32.0364,32.0364,0,0,1,32,32v24H392v16h88V352h16V208A48.0847,48.0847,0,0,0,463.42,162.54ZM448,158a2.0023,2.0023,0,0,1-2,2H370a2.0023,2.0023,0,0,1-2-2V130a2.0023,2.0023,0,0,1,2-2h76a2.0023,2.0023,0,0,1,2,2Z"/><path d="M424,272H392a8,8,0,0,0-8,8v24H360a8,8,0,0,0-8,8v32a8,8,0,0,0,8,8h24v24a8,8,0,0,0,8,8h32a8,8,0,0,0,8-8V352h24a8,8,0,0,0,8-8V312a8,8,0,0,0-8-8H432V280A8,8,0,0,0,424,272Zm24,48v16H424a8,8,0,0,0-8,8v24H400V344a8,8,0,0,0-8-8H368V320h24a8,8,0,0,0,8-8V288h16v24a8,8,0,0,0,8,8Z"/><path d="M199.1115,404.2026l11.8-11.8-11.3135-11.3144-11.8006,11.8008A47.7468,47.7468,0,0,0,168,384.6672V368H152v16.6672a47.7468,47.7468,0,0,0-19.7975,8.2215l-11.8006-11.8008-11.3135,11.3144,11.8,11.8A47.7509,47.7509,0,0,0,112.6672,424H96v16h16.6672a47.7509,47.7509,0,0,0,8.2213,19.7974l-11.8,11.8,11.3135,11.3144,11.8006-11.8008A47.7468,47.7468,0,0,0,152,479.3328V496h16V479.3328a47.7468,47.7468,0,0,0,19.7975-8.2215l11.8006,11.8008,11.3135-11.3144-11.8-11.8A47.7509,47.7509,0,0,0,207.3328,440H224V424H207.3328A47.7509,47.7509,0,0,0,199.1115,404.2026ZM128,432a31.9894,31.9894,0,0,1,48.2469-27.5608l-43.8078,43.8076A31.8057,31.8057,0,0,1,128,432Zm32,32a31.8064,31.8064,0,0,1-16.2469-4.4392l43.8078-43.8076A31.9894,31.9894,0,0,1,160,464Z"/><path d="M86.9876,384H96V368H86.9876a31.82,31.82,0,0,0-3.4267-8.2468l6.38-6.38L78.6274,342.0586l-6.38,6.3806A31.8124,31.8124,0,0,0,64,345.0125V336H48v9.0125a31.8124,31.8124,0,0,0-8.2469,3.4267l-6.3805-6.3806L22.0591,353.373l6.38,6.38A31.82,31.82,0,0,0,25.0124,368H16v16h9.0124a31.82,31.82,0,0,0,3.4267,8.2468l-6.38,6.38,11.3135,11.3144,6.3805-6.3806A31.8124,31.8124,0,0,0,48,406.9875V416H64v-9.0125a31.8124,31.8124,0,0,0,8.2469-3.4267l6.38,6.3806L89.9409,398.627l-6.38-6.38A31.82,31.82,0,0,0,86.9876,384ZM56,392a16,16,0,1,1,16-16A16.0183,16.0183,0,0,1,56,392Z"/><path d="M291.5608,343.7532l6.38-6.38-11.3135-11.3144-6.3806,6.3806A31.8089,31.8089,0,0,0,272,329.0125V320H256v9.0125a31.8124,31.8124,0,0,0-8.2469,3.4267l-6.38-6.3806L230.0591,337.373l6.38,6.38A31.82,31.82,0,0,0,233.0124,352H224v16h9.0124a31.82,31.82,0,0,0,3.4267,8.2468l-6.38,6.38,11.3135,11.3144,6.38-6.3806A31.8124,31.8124,0,0,0,256,390.9875V400h16v-9.0125a31.8089,31.8089,0,0,0,8.2468-3.4267l6.3806,6.3806,11.3135-11.3144-6.38-6.38A31.8132,31.8132,0,0,0,294.9875,368H304V352h-9.0125A31.8132,31.8132,0,0,0,291.5608,343.7532ZM264,376a16,16,0,1,1,16-16A16.0183,16.0183,0,0,1,264,376Z"/><path d="M285.2383,193.7061A120.2274,120.2274,0,0,0,261.6748,93.0049a8,8,0,0,0-11.8989-.6533L92.3521,249.7754a8,8,0,0,0,.6533,11.8994,120.03,120.03,0,0,0,186.42-49.0488l-14.8516-5.9531A104.0567,104.0567,0,0,1,110.248,254.5068L133.53,231.2246A71.5042,71.5042,0,0,0,160,239.56V256h16V239.5581a71.6663,71.6663,0,0,0,36.9183-15.3259l11.6505,11.6506,11.3135-11.3144-11.65-11.65A71.6666,71.6666,0,0,0,239.5582,176H256V160H239.56a71.5009,71.5009,0,0,0-8.3352-26.4692l23.2828-23.2828A102.7387,102.7387,0,0,1,272,168a104.6876,104.6876,0,0,1-2.3936,22.2939ZM168,224a55.8213,55.8213,0,0,1-22.5283-4.7158l73.8125-73.8125A56.0293,56.0293,0,0,1,168,224Z"/><path d="M168,320a152.5935,152.5935,0,0,0,129.2617-72H368a8,8,0,0,0,6.4-12.8L319.894,162.5244A151.9949,151.9949,0,0,0,62.8667,58.2227L73.9351,69.7773a135.9941,135.9941,0,0,1,230.0322,95.6573,7.9949,7.9949,0,0,0,1.5986,4.6523L352,232H292.7305a8,8,0,0,0-6.9248,3.9941A136.52,136.52,0,0,1,168,304C93.0093,304,32,242.99,32,168A136.3043,136.3043,0,0,1,62.2183,82.5156L49.7808,72.4512A152.3532,152.3532,0,0,0,16,168C16,251.8135,84.187,320,168,320Z"/><path d="M236.6421,69.5674A120.0037,120.0037,0,0,0,69.5674,236.6416a7.9973,7.9973,0,0,0,5.8569,3.3877c.2344.0215.4688.0312.7022.0312a8.0026,8.0026,0,0,0,5.6562-2.3427L237.7173,81.7832a8.0007,8.0007,0,0,0-1.0752-12.2158ZM113.9966,182.876a56.048,56.048,0,0,1,68.8794-68.8789ZM195.4428,101.43A70.77,70.77,0,0,0,176,96.4355V80H160V96.4419a71.6663,71.6663,0,0,0-36.9183,15.3259l-11.65-11.6506-11.3135,11.3144,11.65,11.65A71.6666,71.6666,0,0,0,96.4418,160H80v16H96.4355a70.7824,70.7824,0,0,0,4.9949,19.4426L77.5361,219.3369A104.0246,104.0246,0,0,1,219.3369,77.5361Z"/></g></svg>
