<?xml version="1.0" encoding="utf-8"?>
<!-- Generator: Adobe Illustrator 23.0.3, SVG Export Plug-In . SVG Version: 6.00 Build 0)  -->
<svg version="1.1" id="Layer_1" xmlns="http://www.w3.org/2000/svg" xmlns:xlink="http://www.w3.org/1999/xlink" x="0px" y="0px"
	 viewBox="0 0 258.2 258.2" style="enable-background:new 0 0 258.2 258.2;" xml:space="preserve">
<style type="text/css">
	.st0{fill:#FFFFFF;}
</style>
<g>
	<path class="st0" d="M129.1,0C57.79,0,0,57.79,0,129.1c0,71.31,57.79,129.1,129.1,129.1s129.1-57.8,129.1-129.1
		C258.2,57.79,200.41,0,129.1,0z M138.84,238.26v-8.68c0-5.39-4.36-9.74-9.74-9.74c-5.39,0-9.74,4.36-9.74,9.74v8.68
		c-52.78-4.67-94.91-46.9-99.44-99.72h8.4c5.38,0,9.74-4.36,9.74-9.74c0-5.39-4.36-9.74-9.74-9.74h-8.35
		c4.8-52.54,46.82-94.45,99.39-99.11v8.07c0,5.39,4.36,9.74,9.74,9.74c5.39,0,9.74-4.36,9.74-9.74v-8.07
		c52.58,4.66,94.59,46.57,99.39,99.11h-8.35c-5.39,0-9.74,4.36-9.74,9.74c0,5.39,4.36,9.74,9.74,9.74h8.4
		C233.75,191.36,191.62,233.58,138.84,238.26z"/>
	<path class="st0" d="M187.14,66.21l-57.71,60.48c-0.11,0-0.22-0.02-0.33-0.02c-0.72,0-1.43,0.07-2.11,0.21l-48.3-36.5
		c-3.2-2.4-7.78-1.79-10.22,1.45c-2.43,3.2-1.81,7.8,1.43,10.24l48.29,36.48c0.47,5.62,5.17,10.05,10.91,10.05
		c6.05,0,10.96-4.91,10.96-10.96c0-0.29-0.02-0.57-0.04-0.86l57.7-60.48c2.78-2.93,2.68-7.54-0.25-10.33
		C194.57,63.16,189.94,63.29,187.14,66.21z"/>
</g>
</svg>
