<?xml version="1.0" encoding="utf-8"?>
<!-- Generator: Adobe Illustrator 23.0.3, SVG Export Plug-In . SVG Version: 6.00 Build 0)  -->
<svg version="1.1" id="Layer_1" xmlns="http://www.w3.org/2000/svg" xmlns:xlink="http://www.w3.org/1999/xlink" x="0px" y="0px"
	 viewBox="0 0 336.61 290.53" style="enable-background:new 0 0 336.61 290.53;" xml:space="preserve">
<style type="text/css">
	.st0{opacity:0.3;fill:#007D7E;}
	.st1{fill:#007D7E;}
	.st2{fill:#00676A;}
	.st3{fill:#00A5A7;}
	.st4{fill:#013E3F;}
	.st5{opacity:0.7;fill:url(#SVGID_1_);}
	.st6{fill:none;stroke:#5BC5C1;stroke-width:4;stroke-miterlimit:10;}
	.st7{opacity:0.5;fill:none;stroke:#5BC5C1;stroke-width:4;stroke-miterlimit:10;}
	.st8{fill:none;stroke:#5BC5C1;stroke-width:4;stroke-linecap:round;stroke-linejoin:round;}
	.st9{fill:none;stroke:#5BC5C1;stroke-width:4;stroke-linecap:round;stroke-linejoin:round;stroke-dasharray:0.4312,8.6245;}
	.st10{fill:none;stroke:#5BC5C1;stroke-width:4;stroke-linecap:round;stroke-linejoin:round;stroke-dasharray:0.4171,8.3426;}
	.st11{fill:#57C5CE;}
	.st12{opacity:0.68;fill:url(#SVGID_2_);}
	.st13{fill:#BCBDC2;}
	.st14{opacity:0.35;fill:#57C5CE;}
	.st15{fill:#005254;}
	.st16{fill:#FFFFFF;}
	.st17{opacity:0.68;fill:url(#SVGID_3_);}
	.st18{fill:none;}
	.st19{font-family:'BourbonGrotesque-Regular';}
	.st20{font-size:10px;}
</style>
<ellipse class="st0" cx="163.79" cy="284.75" rx="94.88" ry="5.78"/>
<g>
	<path class="st1" d="M189.69,264.66l-1.81-25.46h-48.45l-1.82,25.64c-0.2,2.86-1,5.61-2.3,8.08h56.76
		C190.72,270.41,189.9,267.59,189.69,264.66z"/>
</g>
<path class="st2" d="M202.26,272.92h-77.13c-1.01,0-1.83,0.86-1.83,1.92v5.6c0,1.06,0.82,1.92,1.83,1.92h77.13
	c1.01,0,1.83-0.86,1.83-1.92v-5.6C204.1,273.78,203.28,272.92,202.26,272.92z"/>
<g>
	<polyline class="st1" points="188.32,245.37 139,245.37 138.03,259.04 189.17,258.68 	"/>
</g>
<path class="st3" d="M38.27,220.81v16.27c0,4.56,3.54,8.25,7.9,8.25h235.17c4.36,0,7.9-3.69,7.9-8.25v-16.27H38.27z"/>
<path class="st4" d="M281.34,64.72H46.17c-4.36,0-7.9,3.69-7.9,8.25v147.84h250.97V72.98C289.24,68.42,285.7,64.72,281.34,64.72z"/>
<rect x="48.65" y="75.1" class="st2" width="229.3" height="135.34"/>
<linearGradient id="SVGID_1_" gradientUnits="userSpaceOnUse" x1="263.3514" y1="130.3996" x2="191.6014" y2="188.2174">
	<stop  offset="0" style="stop-color:#FFFFFF"/>
	<stop  offset="0.9859" style="stop-color:#FFFFFF;stop-opacity:0"/>
</linearGradient>
<polygon class="st5" points="218.05,75.1 88.5,210.44 277.95,210.44 277.95,75.1 "/>
<g>
	<line class="st6" x1="299.46" y1="5.56" x2="310.58" y2="5.56"/>
	<line class="st6" x1="305.02" y1="0" x2="305.02" y2="11.12"/>
</g>
<g>
	<line class="st6" x1="0" y1="185.33" x2="11.12" y2="185.33"/>
	<line class="st6" x1="5.56" y1="179.77" x2="5.56" y2="190.89"/>
</g>
<g>
	<line class="st6" x1="325.49" y1="202.85" x2="336.61" y2="202.85"/>
	<line class="st6" x1="331.05" y1="197.29" x2="331.05" y2="208.41"/>
</g>
<g>
	<line class="st6" x1="70.3" y1="11.64" x2="81.42" y2="11.64"/>
	<line class="st6" x1="75.86" y1="6.08" x2="75.86" y2="17.2"/>
</g>
<circle class="st7" cx="22.94" cy="264.73" r="4.38"/>
<circle class="st7" cx="319.73" cy="81.79" r="4.38"/>
<circle class="st7" cx="192.99" cy="50.65" r="4.38"/>
<g>
	<g>
		<line class="st8" x1="30.61" y1="133.1" x2="30.61" y2="133.3"/>
		<line class="st9" x1="30.61" y1="141.92" x2="30.61" y2="173.83"/>
		<polyline class="st8" points="30.61,178.14 30.61,178.34 30.81,178.34 		"/>
		<line class="st10" x1="39.15" y1="178.34" x2="96.3" y2="178.34"/>
		<line class="st8" x1="100.47" y1="178.34" x2="100.67" y2="178.34"/>
	</g>
</g>
<path class="st11" d="M51.19,130.66H20.24c-9.39,0-17-7.61-17-17V45.49c0-9.39,7.61-17,17-17h30.95c9.39,0,17,7.61,17,17v68.17
	C68.19,123.05,60.58,130.66,51.19,130.66z"/>
<g>
	<path class="st2" d="M68.19,42.97V40.9c0-6.85-5.55-12.41-12.41-12.41H15.65c-6.85,0-12.41,5.55-12.41,12.41v2.07H68.19z"/>
	<linearGradient id="SVGID_2_" gradientUnits="userSpaceOnUse" x1="6.1963" y1="35.7313" x2="65.2341" y2="35.7313">
		<stop  offset="0.2157" style="stop-color:#FFFFFF"/>
		<stop  offset="0.9867" style="stop-color:#FFFFFF;stop-opacity:0"/>
	</linearGradient>
	<path class="st12" d="M6.2,40.05c0.43-4.83,4.5-8.64,9.45-8.64h40.14c4.95,0,9.02,3.8,9.45,8.64H6.2z"/>
</g>
<g>
	<rect x="9.08" y="51.36" class="st3" width="52.18" height="9.12"/>
	
		<rect x="33.53" y="32.75" transform="matrix(-1.836970e-16 1 -1 -1.836970e-16 91.0893 20.7535)" class="st13" width="3.28" height="46.34"/>
</g>
<g>
	<rect x="9.08" y="67.05" class="st3" width="52.18" height="9.12"/>
	
		<rect x="33.53" y="48.44" transform="matrix(-1.836970e-16 1 -1 -1.836970e-16 106.7799 36.4441)" class="st13" width="3.28" height="46.34"/>
</g>
<g>
	<rect x="9.08" y="82.74" class="st3" width="52.18" height="9.12"/>
	
		<rect x="33.53" y="64.13" transform="matrix(-1.836970e-16 1 -1 -1.836970e-16 122.4705 52.1347)" class="st13" width="3.28" height="46.34"/>
</g>
<path class="st2" d="M56.48,112.89H13.15c-2.24,0-4.05-1.81-4.05-4.05v-5.79c0-2.24,1.81-4.05,4.05-4.05h43.33
	c2.24,0,4.05,1.81,4.05,4.05v5.79C60.53,111.08,58.72,112.89,56.48,112.89z"/>
<g>
	<path class="st13" d="M24.8,121.03c0-1.18,0.96-2.14,2.14-2.14s2.14,0.96,2.14,2.14c0,1.18-0.96,2.14-2.14,2.14
		S24.8,122.21,24.8,121.03z"/>
	<path class="st13" d="M32.95,121.03c0-1.18,0.96-2.14,2.14-2.14c1.18,0,2.14,0.96,2.14,2.14c0,1.18-0.96,2.14-2.14,2.14
		C33.91,123.17,32.95,122.21,32.95,121.03z"/>
	<path class="st13" d="M41.1,121.03c0-1.18,0.96-2.14,2.14-2.14c1.18,0,2.14,0.96,2.14,2.14c0,1.18-0.96,2.14-2.14,2.14
		C42.06,123.17,41.1,122.21,41.1,121.03z"/>
</g>
<path class="st14" d="M37.04,42.11c-11.55,0-20.94-9.39-20.94-20.94S25.49,0.23,37.04,0.23s20.94,9.39,20.94,20.94
	S48.58,42.11,37.04,42.11z"/>
<path class="st11" d="M37.04,39.19c-9.94,0-18.02-8.08-18.02-18.02c0-9.94,8.08-18.02,18.02-18.02c9.94,0,18.02,8.08,18.02,18.02
	C55.05,31.1,46.97,39.19,37.04,39.19z"/>
<circle class="st15" cx="37.04" cy="21.17" r="15.1"/>
<g>
	<path class="st16" d="M30.24,28.16h14.19c-0.32-2.71-2.3-4.9-4.9-5.54c1.68-0.82,2.84-2.53,2.84-4.53c0-2.78-2.25-5.03-5.03-5.03
		c-2.78,0-5.03,2.25-5.03,5.03c0,1.99,1.16,3.71,2.84,4.53C32.54,23.26,30.56,25.45,30.24,28.16z"/>
</g>
<g>
	<path class="st3" d="M85.28,140.97l-6.11-6.11l4.36-2.52c0.34-0.2,0.54-0.57,0.51-0.96c-0.03-0.39-0.28-0.73-0.64-0.88l-19.43-7.75
		c-0.38-0.15-0.82-0.06-1.11,0.23c-0.29,0.29-0.38,0.72-0.23,1.11l7.75,19.43c0.15,0.37,0.49,0.62,0.88,0.64
		c0.39,0.03,0.77-0.17,0.96-0.51l2.52-4.36l6.11,6.11c0.19,0.19,0.45,0.3,0.73,0.3c0.27,0,0.53-0.11,0.73-0.3l2.98-2.98
		C85.68,142.02,85.68,141.37,85.28,140.97L85.28,140.97z M85.28,140.97"/>
</g>
<path class="st3" d="M58.3,116.58c-0.51-0.51-1.33-0.51-1.84,0c-0.51,0.51-0.51,1.33,0,1.84l2.89,2.89
	c0.25,0.25,0.59,0.38,0.92,0.38c0.33,0,0.66-0.13,0.92-0.38c0.51-0.51,0.51-1.33,0-1.84L58.3,116.58z M58.3,116.58"/>
<path class="st3" d="M59.28,125.56c0-0.72-0.58-1.3-1.3-1.3H53.9c-0.72,0-1.3,0.58-1.3,1.3c0,0.72,0.58,1.3,1.3,1.3h4.08
	C58.7,126.86,59.28,126.28,59.28,125.56L59.28,125.56z M59.28,125.56"/>
<path class="st3" d="M60.59,131.4c0.51-0.51,0.51-1.33,0-1.84c-0.51-0.51-1.33-0.51-1.84,0l0,0l-2.89,2.89
	c-0.51,0.51-0.51,1.33,0,1.84c0.25,0.25,0.59,0.38,0.92,0.38c0.33,0,0.66-0.13,0.92-0.38 M58.75,129.57"/>
<path class="st3" d="M65.44,119.4c0.72,0,1.3-0.58,1.3-1.3v-4.08c0-0.72-0.58-1.3-1.3-1.3c-0.72,0-1.3,0.58-1.3,1.3v4.08
	C64.14,118.81,64.72,119.4,65.44,119.4L65.44,119.4z M65.44,119.4"/>
<path class="st3" d="M70.36,121.09c0.33,0,0.67-0.13,0.92-0.38l2.88-2.89c0.51-0.51,0.51-1.33,0-1.84c-0.51-0.51-1.33-0.51-1.84,0
	l-2.89,2.89c-0.51,0.51-0.51,1.33,0,1.84C69.7,120.96,70.03,121.09,70.36,121.09L70.36,121.09z M70.36,121.09"/>
<path class="st16" d="M210.41,195.09h-93.3c-9.64,0-17.46-7.82-17.46-17.46v-67.02c0-9.64,7.82-17.46,17.46-17.46h93.3
	c9.64,0,17.46,7.82,17.46,17.46v67.02C227.87,187.28,220.05,195.09,210.41,195.09z"/>
<g>
	<path class="st3" d="M206.48,161.64h-85.46c-2.57,0-4.66-2.09-4.66-4.66v-7.41c0-2.57,2.09-4.66,4.66-4.66h85.46
		c2.57,0,4.66,2.09,4.66,4.66v7.41C211.14,159.56,209.06,161.64,206.48,161.64z"/>
	<g>
		<circle class="st13" cx="124.82" cy="153.45" r="2.27"/>
		<circle class="st13" cx="133.43" cy="153.45" r="2.27"/>
		<circle class="st13" cx="142.04" cy="153.45" r="2.27"/>
		<circle class="st13" cx="150.65" cy="153.45" r="2.27"/>
		<circle class="st13" cx="159.26" cy="153.45" r="2.27"/>
		<circle class="st13" cx="167.87" cy="153.45" r="2.27"/>
		<circle class="st13" cx="176.48" cy="153.45" r="2.27"/>
		<circle class="st13" cx="185.09" cy="153.45" r="2.27"/>
		<path class="st13" d="M191.43,153.45c0-1.25,1.01-2.27,2.27-2.27c1.25,0,2.27,1.01,2.27,2.27c0,1.25-1.01,2.27-2.27,2.27
			C192.45,155.71,191.43,154.7,191.43,153.45z"/>
		<path class="st13" d="M200.04,153.45c0-1.25,1.01-2.27,2.27-2.27c1.25,0,2.27,1.01,2.27,2.27c0,1.25-1.01,2.27-2.27,2.27
			C201.06,155.71,200.04,154.7,200.04,153.45z"/>
	</g>
</g>
<g>
	<path class="st3" d="M206.48,138.55h-85.46c-2.57,0-4.66-2.09-4.66-4.66v-7.41c0-2.57,2.09-4.66,4.66-4.66h85.46
		c2.57,0,4.66,2.09,4.66,4.66v7.41C211.14,136.46,209.06,138.55,206.48,138.55z"/>
	<path class="st3" d="M203.39,132.15h-79.66c-1.03,0-1.86-0.83-1.86-1.86v-1.03c0-1.03,0.83-1.86,1.86-1.86h79.66
		c1.03,0,1.86,0.83,1.86,1.86v1.03C205.26,131.31,204.42,132.15,203.39,132.15z"/>
</g>
<path class="st2" d="M188.02,185.51H138.2c-2.57,0-4.66-2.09-4.66-4.66v-6.66c0-2.57,2.09-4.66,4.66-4.66h49.82
	c2.57,0,4.66,2.09,4.66,4.66v6.66C192.68,183.42,190.6,185.51,188.02,185.51z"/>
<path class="st2" d="M227.87,111.87v-5.98c0-7.04-5.71-12.74-12.74-12.74H112.38c-7.04,0-12.74,5.71-12.74,12.74v5.98H227.87z"/>
<linearGradient id="SVGID_3_" gradientUnits="userSpaceOnUse" x1="102.5613" y1="102.5115" x2="154.6825" y2="102.5115">
	<stop  offset="0.2157" style="stop-color:#FFFFFF"/>
	<stop  offset="0.9867" style="stop-color:#FFFFFF;stop-opacity:0"/>
</linearGradient>
<path class="st17" d="M159.09,96.07h-46.71c-5.42,0-9.82,4.41-9.82,9.82v3.06h43.65L159.09,96.07z"/>
<g>
	<g>
		<path class="st16" d="M108.51,103.15c0-1.25,1.01-2.27,2.27-2.27c1.25,0,2.27,1.01,2.27,2.27c0,1.25-1.01,2.27-2.27,2.27
			C109.52,105.41,108.51,104.4,108.51,103.15z"/>
		<path class="st16" d="M117.12,103.15c0-1.25,1.01-2.27,2.27-2.27c1.25,0,2.27,1.01,2.27,2.27c0,1.25-1.01,2.27-2.27,2.27
			C118.13,105.41,117.12,104.4,117.12,103.15z"/>
		<path class="st16" d="M125.73,103.15c0-1.25,1.01-2.27,2.27-2.27c1.25,0,2.27,1.01,2.27,2.27c0,1.25-1.01,2.27-2.27,2.27
			C126.74,105.41,125.73,104.4,125.73,103.15z"/>
	</g>
	<g>
		<rect x="202.31" y="99.29" class="st16" width="13.37" height="1.59"/>
		<rect x="202.31" y="103.15" class="st16" width="13.37" height="1.59"/>
		<rect x="202.31" y="107" class="st16" width="13.37" height="1.59"/>
	</g>
</g>
<ellipse transform="matrix(0.159 -0.9873 0.9873 0.159 41.7447 243.8691)" class="st15" cx="164.02" cy="97.43" rx="16.99" ry="16.99"/>
<g>
	<path class="st16" d="M156.37,105.3h15.97c-0.36-3.05-2.59-5.52-5.52-6.24c1.89-0.92,3.2-2.85,3.2-5.09c0-3.13-2.54-5.66-5.66-5.66
		s-5.66,2.54-5.66,5.66c0,2.24,1.31,4.17,3.2,5.09C158.97,99.78,156.74,102.25,156.37,105.3z"/>
</g>
<circle class="st14" cx="228.75" cy="192.82" r="22.26"/>
<circle class="st11" cx="228.75" cy="192.82" r="12.89"/>
<g>
	<g>
		<path class="st15" d="M284.54,190.25c-1.06,0.99-1.87,2.16-2.42,3.42c-3.75-1.78-8.36-1.23-11.56,1.76
			c-1.19,1.11-2.06,2.44-2.6,3.86c-3.55-1.26-7.66-0.56-10.58,2.17c-0.86,0.8-1.55,1.72-2.07,2.71l-7.86-8.42
			c-3.94-4.22-10.55-4.47-14.74-0.56c-4.19,3.91-4.39,10.52-0.46,14.74l28.29,30.31l-11.31-1.15c-0.08-0.01-0.16-0.01-0.24-0.02
			c-2.78-0.1-5.43,0.89-7.48,2.78l-0.04,0.04c-2.03,1.9-3.2,4.45-3.3,7.21c-0.17,4.86,3.18,8.72,9.17,10.59
			c7.76,2.42,15.5,4.31,22.33,5.98c4.99,1.22,9.71,2.37,13.42,3.49c3.22,0.98,12.94,4.82,13.04,4.86c1.26,0.5,2.7,0.23,3.69-0.7
			l32.49-30.33c1.12-1.04,1.43-2.68,0.78-4.07c-1.15-2.45-11.43-24.12-17.45-30.57l-16.37-17.54
			C295.34,186.59,288.73,186.34,284.54,190.25L284.54,190.25z M289.22,200.19"/>
	</g>
</g>
<path class="st16" d="M289.22,200.19c-1.29-1.39-1.24-3.54,0.11-4.81c1.36-1.27,3.51-1.17,4.8,0.22l16.37,17.54
	c4,4.29,11.47,18.89,15.13,26.46l-28.99,27.05c-3.14-1.22-8.96-3.47-11.51-4.24c-3.9-1.18-8.7-2.35-13.79-3.59
	c-6.73-1.64-14.35-3.5-21.9-5.86c-1.97-0.62-4.31-1.75-4.24-3.64c0.03-0.88,0.42-1.7,1.08-2.32c0.65-0.6,1.49-0.92,2.37-0.92
	l20.49,2.09c1.46,0.15,2.85-0.62,3.5-1.93c0.65-1.31,0.42-2.89-0.58-3.96l-34.67-37.15c-1.29-1.38-1.24-3.54,0.11-4.8
	c1.36-1.27,3.51-1.17,4.8,0.22l22.39,23.99c1.32,1.42,3.55,1.49,4.97,0.17c1.42-1.32,1.5-3.55,0.17-4.97l-7.78-8.33
	c-1.29-1.38-1.24-3.54,0.12-4.8c1.36-1.27,3.51-1.17,4.8,0.22l10.91,11.69c1.33,1.42,3.55,1.5,4.97,0.17
	c1.42-1.33,1.5-3.55,0.17-4.97l-7.78-8.33c-1.29-1.38-1.24-3.54,0.11-4.8c1.36-1.27,3.51-1.17,4.8,0.22l10.91,11.69
	c1.32,1.42,3.55,1.5,4.97,0.17c1.42-1.33,1.5-3.55,0.17-4.97L289.22,200.19L289.22,200.19z"/>
<rect x="18.99" y="102.44" class="st18" width="33.45" height="7.01"/>
<text transform="matrix(1 0 0 1 18.9916 109.421)" class="st16 st19 st20">Email</text>
<rect x="138.45" y="174.01" class="st18" width="50.09" height="7.01"/>
<text transform="matrix(1 0 0 1 138.4526 180.9942)"><tspan x="0" y="0" class="st16 st19 st20">con</tspan><tspan x="22.74" y="0" class="st16 st19 st20">-</tspan></text>
</svg>
