<?xml version="1.0"?>
<svg xmlns="http://www.w3.org/2000/svg" id="Capa_1" enable-background="new 0 0 512.002 512.002" height="512px" viewBox="0 0 512.002 512.002" width="512px"><g><g><g><g><path d="m315.56 127.695v-15.802c0-16.405-11.645-30.141-27.102-33.377v-68.514c0-5.523-4.477-10-10-10h-75.649c-5.523 0-10 4.477-10 10v68.515c-15.457 3.236-27.102 16.972-27.102 33.377v15.802c-23.582.081-42.742 19.29-42.742 42.891v298.523c0 23.651 19.241 42.892 42.892 42.892h149.553c23.651 0 42.892-19.241 42.892-42.892v-119.981c0-5.523-4.477-10-10-10s-10 4.477-10 10v119.981c0 12.623-10.27 22.892-22.892 22.892h-149.554c-12.623 0-22.892-10.27-22.892-22.892v-298.524c0-12.623 10.27-22.892 22.892-22.892h149.554c12.623 0 22.892 10.27 22.892 22.892v88.13c0 5.523 4.477 10 10 10s10-4.477 10-10v-88.13c0-23.601-19.16-42.81-42.742-42.891zm-102.752-107.693h55.649v24.088c-.633-.126-1.288-.192-1.958-.192h-10.63c-5.523 0-10 4.477-10 10s4.477 10 10 10h10.63c.67 0 1.325-.066 1.958-.192v14.089h-55.649zm-27.102 107.692v-15.801c0-7.774 6.324-14.099 14.098-14.099h81.657c7.774 0 14.098 6.325 14.098 14.099v15.801z" data-original="#000000" class="active-path" data-old_color="#000000" fill="#00A5A7"/><path d="m356.62 298.551c-2.429-3.549-6.901-5.248-11.063-4.055-3.969 1.138-6.865 4.678-7.22 8.79-.359 4.151 2.051 8.215 5.841 9.926 3.752 1.693 8.283.88 11.192-2.04 3.347-3.359 3.84-8.669 1.25-12.621z" data-original="#000000" class="active-path" data-old_color="#000000" fill="#00A5A7"/><path d="m304.059 239.049c0-5.523-4.477-10-10-10h-16.475v-16.476c0-5.523-4.477-10-10-10h-53.902c-5.523 0-10 4.477-10 10v16.476h-16.476c-5.523 0-10 4.477-10 10v53.902c0 5.523 4.477 10 10 10h16.476v16.476c0 5.523 4.477 10 10 10h53.902c5.523 0 10-4.477 10-10v-16.476h16.475c5.523 0 10-4.477 10-10zm-20 43.902h-16.475c-5.523 0-10 4.477-10 10v16.476h-33.902v-16.476c0-5.523-4.477-10-10-10h-16.476v-33.902h16.476c5.523 0 10-4.477 10-10v-16.476h33.902v16.476c0 5.523 4.477 10 10 10h16.475z" data-original="#000000" class="active-path" data-old_color="#000000" fill="#00A5A7"/><path d="m379.037 42.409h-17.543c-5.523 0-10 4.477-10 10s4.477 10 10 10h17.543c5.523 0 10-4.477 10-10s-4.477-10-10-10z" data-original="#000000" class="active-path" data-old_color="#000000" fill="#00A5A7"/><path d="m341.504 30.004c1.679 0 3.38-.423 4.943-1.314l17.543-10c4.798-2.735 6.471-8.842 3.735-13.64-2.735-4.798-8.842-6.471-13.64-3.735l-17.543 10c-4.798 2.735-6.471 8.842-3.735 13.64 1.844 3.234 5.221 5.049 8.697 5.049z" data-original="#000000" class="active-path" data-old_color="#000000" fill="#00A5A7"/><path d="m363.99 86.128-17.543-10c-4.799-2.735-10.905-1.063-13.64 3.735s-1.063 10.905 3.735 13.64l17.543 10c1.563.891 3.264 1.314 4.943 1.314 3.475 0 6.853-1.814 8.697-5.05 2.735-4.797 1.063-10.904-3.735-13.639z" data-original="#000000" class="active-path" data-old_color="#000000" fill="#00A5A7"/><path d="m294.059 362.127h-106.852c-5.523 0-10 4.477-10 10v40.492c0 5.523 4.477 10 10 10h106.853c5.523 0 10-4.477 10-10v-40.492c-.001-5.523-4.478-10-10.001-10zm-10 40.492h-86.853v-20.492h86.853z" data-original="#000000" class="active-path" data-old_color="#000000" fill="#00A5A7"/></g></g></g></g> </svg>
