<?xml version="1.0" encoding="utf-8"?>
<!-- Generator: Adobe Illustrator 23.0.3, SVG Export Plug-In . SVG Version: 6.00 Build 0)  -->
<svg version="1.1" id="Layer_1" xmlns="http://www.w3.org/2000/svg" xmlns:xlink="http://www.w3.org/1999/xlink" x="0px" y="0px"
	 viewBox="0 0 98.88 134.91" style="enable-background:new 0 0 98.88 134.91;" xml:space="preserve">
<style type="text/css">
	.st0{fill:#00A5A7;}
	.st1{opacity:0.29;}
	.st2{opacity:0.31;}
</style>
<g>
	<g>
		<path class="st0" d="M83.33,0H15.56C6.97,0,0,6.97,0,15.56v103.79c0,8.58,6.97,15.56,15.56,15.56h67.77
			c8.57,0,15.56-6.97,15.56-15.56V15.56C98.88,6.97,91.9,0,83.33,0z M94.13,119.35c0,5.96-4.85,10.81-10.81,10.81H15.56
			c-5.97,0-10.82-4.85-10.82-10.81V15.56c0-5.97,4.85-10.81,10.82-10.81h67.77c5.96,0,10.81,4.84,10.81,10.81V119.35z"/>
	</g>
	<g>
		<path class="st0" d="M26.67,0v12.46c0,0.39,0.04,0.79,0.1,1.17c0.55,3.29,3.41,5.8,6.86,5.8h31.62c3.44,0,6.3-2.5,6.85-5.8
			c0.07-0.38,0.11-0.77,0.11-1.17V0H26.67z M67.46,12.46c0,0.43-0.12,0.83-0.34,1.17c-0.38,0.63-1.08,1.04-1.87,1.04H33.63
			c-0.8,0-1.49-0.42-1.87-1.04c-0.22-0.33-0.34-0.74-0.34-1.17V4.75h36.04V12.46z"/>
	</g>
	<g>
		<path class="st0" d="M67.46,11.25v1.22c0,0.43-0.12,0.83-0.34,1.17h16.1v106.13H15.66V13.63h16.11c-0.22-0.33-0.34-0.74-0.34-1.17
			v-1.22H13.29v110.88h72.3V11.25H67.46z"/>
	</g>
	<g>
		<path class="st0" d="M29.56,37.39h-5.11c-2.38,0-4.31-1.94-4.31-4.31v-5.11c0-2.38,1.94-4.31,4.31-4.31h5.11
			c2.38,0,4.31,1.94,4.31,4.31v5.11C33.87,35.46,31.94,37.39,29.56,37.39z M24.44,26.03c-1.07,0-1.94,0.87-1.94,1.94v5.11
			c0,1.07,0.87,1.94,1.94,1.94h5.11c1.07,0,1.94-0.87,1.94-1.94v-5.11c0-1.07-0.87-1.94-1.94-1.94H24.44z"/>
	</g>
	<g>
		<path class="st0" d="M76.82,45.34H22.05c-0.66,0-1.19-0.53-1.19-1.19s0.53-1.19,1.19-1.19h54.77c0.66,0,1.19,0.53,1.19,1.19
			S77.48,45.34,76.82,45.34z"/>
	</g>
	<g>
		<path class="st0" d="M76.82,53.84H22.05c-0.66,0-1.19-0.53-1.19-1.19s0.53-1.19,1.19-1.19h54.77c0.66,0,1.19,0.53,1.19,1.19
			S77.48,53.84,76.82,53.84z"/>
	</g>
	<g>
		<path class="st0" d="M76.82,62.34H22.05c-0.66,0-1.19-0.53-1.19-1.19s0.53-1.19,1.19-1.19h54.77c0.66,0,1.19,0.53,1.19,1.19
			S77.48,62.34,76.82,62.34z"/>
	</g>
	<g>
		<path class="st0" d="M76.82,70.84H22.05c-0.66,0-1.19-0.53-1.19-1.19c0-0.66,0.53-1.19,1.19-1.19h54.77
			c0.66,0,1.19,0.53,1.19,1.19C78.01,70.31,77.48,70.84,76.82,70.84z"/>
	</g>
	<g>
		<path class="st0" d="M76.82,79.34H22.05c-0.66,0-1.19-0.53-1.19-1.19c0-0.66,0.53-1.19,1.19-1.19h54.77
			c0.66,0,1.19,0.53,1.19,1.19C78.01,78.81,77.48,79.34,76.82,79.34z"/>
	</g>
	<g>
		<path class="st0" d="M76.82,87.84H22.05c-0.66,0-1.19-0.53-1.19-1.19c0-0.66,0.53-1.19,1.19-1.19h54.77
			c0.66,0,1.19,0.53,1.19,1.19C78.01,87.31,77.48,87.84,76.82,87.84z"/>
	</g>
	<g>
		<g class="st1">
			<polygon class="st0" points="59.57,110.2 53.45,109.5 55.91,103.86 53.45,98.21 59.57,97.52 63.23,92.57 66.9,97.52 73.01,98.21 
				70.56,103.86 73.01,109.5 66.9,110.2 63.23,115.15 			"/>
		</g>
		<g class="st2">
			
				<ellipse transform="matrix(0.9999 -0.0103 0.0103 0.9999 -1.07 0.6591)" class="st0" cx="63.23" cy="103.86" rx="5.34" ry="5.34"/>
		</g>
		<g>
			<path class="st0" d="M66.39,103.77c0,1.75-1.42,3.17-3.17,3.17c-1.75,0-3.17-1.42-3.17-3.17c0-1.75,1.42-3.17,3.17-3.17
				C64.97,100.6,66.39,102.02,66.39,103.77z M66.16,103.77c0-1.62-1.32-2.94-2.94-2.94c-1.62,0-2.94,1.32-2.94,2.94
				c0,1.62,1.32,2.94,2.94,2.94C64.84,106.71,66.16,105.39,66.16,103.77z"/>
		</g>
		<g>
			<path class="st0" d="M59.57,110.2l-6.12-0.69l2.46-5.65l-2.46-5.65l6.12-0.69l3.66-4.95l3.66,4.95l6.12,0.69l-2.46,5.65
				l2.46,5.65l-6.12,0.69l-3.66,4.95L59.57,110.2z M59.69,97.72l-5.93,0.67l2.38,5.47l-2.38,5.47l5.93,0.67l3.55,4.8l3.55-4.8
				l5.93-0.67l-2.38-5.47l2.38-5.47l-5.93-0.67l-3.55-4.8L59.69,97.72z"/>
		</g>
		<g>
			<path class="st0" d="M63.23,109.41c-3.06,0-5.55-2.49-5.55-5.55s2.49-5.55,5.55-5.55c3.06,0,5.55,2.49,5.55,5.55
				S66.29,109.41,63.23,109.41z M63.23,98.52c-2.95,0-5.34,2.39-5.34,5.34c0,2.95,2.39,5.34,5.34,5.34s5.34-2.39,5.34-5.34
				C68.57,100.91,66.18,98.52,63.23,98.52z"/>
		</g>
		<g>
			<g>
				<g>
					<path class="st0" d="M66.79,97.55l-0.9,1.54c0.04,0.03,0.08,0.06,0.11,0.08l0.91-1.56C66.87,97.6,66.83,97.58,66.79,97.55z"/>
				</g>
			</g>
			<g>
				<g>
					<path class="st0" d="M66.42,97.14l-0.8,1.78c0.04,0.02,0.08,0.04,0.11,0.06l0.78-1.73C66.48,97.22,66.45,97.18,66.42,97.14z"/>
				</g>
			</g>
			<g>
				<g>
					<path class="st0" d="M66.07,96.69l-0.73,2.09c0.04,0.02,0.07,0.03,0.11,0.05l0.71-2.03C66.13,96.76,66.1,96.73,66.07,96.69z"/>
				</g>
			</g>
			<g>
				<g>
					<path class="st0" d="M65.72,96.21l-0.66,2.45c0.03,0.01,0.07,0.03,0.1,0.04l0.64-2.38C65.78,96.28,65.75,96.25,65.72,96.21z"/>
				</g>
			</g>
			<g>
				<g>
					<path class="st0" d="M65.38,95.71C65.38,95.71,65.38,95.71,65.38,95.71l-0.6,2.85c0.03,0.01,0.06,0.02,0.09,0.03l0.58-2.78
						C65.43,95.78,65.4,95.75,65.38,95.71z"/>
				</g>
			</g>
			<g>
				<g>
					<path class="st0" d="M64.94,95.75c0.03,0,0.06,0.01,0.08,0.03l0.07-0.44c-0.02-0.03-0.05-0.06-0.07-0.09L64.94,95.75
						C64.94,95.75,64.94,95.75,64.94,95.75z"/>
				</g>
				<g>
					<path class="st0" d="M64.94,96.03c-0.02,0-0.03,0-0.05-0.01l-0.39,2.47c0.03,0.01,0.05,0.01,0.08,0.02l0.39-2.49
						C64.97,96.02,64.96,96.03,64.94,96.03z"/>
				</g>
			</g>
			<g>
				<g>
					<path class="st0" d="M64.66,94.79l-0.42,3.64c0.02,0,0.05,0.01,0.07,0.01l0.41-3.57C64.7,94.84,64.68,94.81,64.66,94.79z"/>
				</g>
			</g>
			<g>
				<g>
					<path class="st0" d="M64.17,95.91l-0.2,2.47c0.02,0,0.04,0.01,0.06,0.01l0.2-2.46C64.21,95.93,64.19,95.92,64.17,95.91z"/>
				</g>
				<g>
					<path class="st0" d="M64.25,95.66l0.1-1.26c-0.02-0.02-0.04-0.05-0.06-0.07l-0.11,1.36C64.21,95.67,64.23,95.66,64.25,95.66z"
						/>
				</g>
			</g>
			<g>
				<g>
					<path class="st0" d="M63.94,94.98l0.05-1.09c-0.01-0.02-0.02-0.04-0.04-0.05l-0.01,0l-0.06,1.17
						C63.9,95,63.91,94.99,63.94,94.98z"/>
				</g>
				<g>
					<path class="st0" d="M63.87,95.19l-0.05,1.1c0.02,0,0.03,0.01,0.05,0.02l0.05-1.08C63.9,95.23,63.89,95.21,63.87,95.19z"/>
				</g>
				<g>
					<path class="st0" d="M63.81,96.59l-0.09,1.76c0.02,0,0.03,0,0.05,0l0.09-1.78C63.84,96.58,63.82,96.59,63.81,96.59z"/>
				</g>
			</g>
			<g>
				<g>
					<path class="st0" d="M63.6,94.24l0.02-0.86l-0.04,0l-0.02,0.87C63.57,94.24,63.59,94.24,63.6,94.24z"/>
				</g>
				<g>
					<path class="st0" d="M63.56,95.64C63.56,95.64,63.57,95.64,63.56,95.64l0.03-1.12c-0.01,0-0.03,0-0.04-0.01l-0.03,1.14
						C63.54,95.64,63.55,95.64,63.56,95.64z"/>
				</g>
				<g>
					<path class="st0" d="M63.5,97.18c0.01,0,0.02,0,0.03,0.01l0.03-1.27c-0.01,0-0.03,0-0.04-0.01L63.5,97.18
						C63.49,97.18,63.5,97.18,63.5,97.18z"/>
				</g>
				<g>
					<path class="st0" d="M63.5,97.46c0,0-0.01,0-0.01,0l-0.02,0.88c0.01,0,0.03,0,0.04,0l0.02-0.88
						C63.52,97.46,63.51,97.46,63.5,97.46z"/>
				</g>
			</g>
			<g>
				<g>
					<path class="st0" d="M60.56,99.06l-0.88-1.51c-0.01,0.01-0.01,0.02-0.02,0.02c-0.02,0.04-0.06,0.06-0.09,0.06l0.89,1.52
						C60.48,99.12,60.52,99.09,60.56,99.06z"/>
				</g>
			</g>
			<g>
				<g>
					<path class="st0" d="M60.83,98.89l-0.82-1.82c-0.03,0.04-0.06,0.08-0.09,0.12l0.79,1.76C60.76,98.93,60.8,98.91,60.83,98.89z"
						/>
				</g>
			</g>
			<g>
				<g>
					<path class="st0" d="M61.13,98.77l-0.75-2.15c-0.03,0.04-0.06,0.07-0.09,0.11l0.73,2.09C61.05,98.79,61.09,98.78,61.13,98.77z"
						/>
				</g>
			</g>
			<g>
				<g>
					<path class="st0" d="M61.41,98.67l-0.68-2.5c-0.03,0.03-0.06,0.07-0.08,0.1l0.66,2.43C61.35,98.69,61.38,98.68,61.41,98.67z"/>
				</g>
			</g>
			<g>
				<g>
					<path class="st0" d="M61.69,98.59l-0.6-2.88c-0.01,0.01-0.02,0.02-0.02,0.03c-0.02,0.02-0.04,0.05-0.05,0.07l0.59,2.81
						C61.63,98.6,61.66,98.6,61.69,98.59z"/>
				</g>
			</g>
			<g>
				<g>
					<path class="st0" d="M61.97,98.52l-0.52-3.29c-0.02,0.03-0.05,0.06-0.07,0.09l0.51,3.21C61.91,98.53,61.94,98.53,61.97,98.52z"
						/>
				</g>
			</g>
			<g>
				<g>
					<path class="st0" d="M62.24,98.47l-0.43-3.71l0,0c-0.02,0.03-0.04,0.05-0.06,0.08l0.42,3.65
						C62.19,98.48,62.21,98.47,62.24,98.47z"/>
				</g>
			</g>
			<g>
				<g>
					<path class="st0" d="M62.23,95.18c0,0,0.01,0,0.01,0l-0.07-0.89l-0.04,0c-0.01,0.01-0.02,0.02-0.02,0.03l0.07,0.86
						C62.19,95.18,62.21,95.18,62.23,95.18z"/>
				</g>
				<g>
					<path class="st0" d="M62.5,98.43l-0.24-2.98c-0.01,0-0.01,0-0.02,0c-0.01,0.01-0.03,0.01-0.04,0.02l0.24,2.96
						C62.46,98.44,62.48,98.43,62.5,98.43z"/>
				</g>
			</g>
			<g>
				<g>
					<path class="st0" d="M62.53,94.47c0.01,0,0.02,0,0.03,0.01l-0.03-0.64l-0.05,0l0.03,0.64C62.51,94.48,62.52,94.47,62.53,94.47z
						"/>
				</g>
				<g>
					<path class="st0" d="M62.58,95.77c0.01,0,0.03,0,0.04,0.01l-0.05-1.04c-0.01,0-0.03,0.01-0.05,0.01c0,0,0,0,0,0l0.05,1.02
						C62.58,95.77,62.58,95.77,62.58,95.77z"/>
				</g>
				<g>
					<path class="st0" d="M62.75,98.4l-0.04-0.83c0,0-0.01,0-0.01,0c-0.02,0-0.03,0-0.04-0.01l0.04,0.84
						C62.72,98.4,62.74,98.4,62.75,98.4z"/>
				</g>
				<g>
					<path class="st0" d="M62.7,97.29l-0.06-1.25c-0.01,0.01-0.03,0.01-0.05,0.01l0.06,1.25C62.66,97.3,62.68,97.29,62.7,97.29z"/>
				</g>
			</g>
			<g>
				<g>
					<path class="st0" d="M62.92,94.72l-0.03-1.34l-0.04,0l0.03,1.33C62.89,94.71,62.91,94.72,62.92,94.72z"/>
				</g>
				<g>
					<path class="st0" d="M62.89,94.99l0.02,0.83c0.01,0,0.02-0.01,0.04-0.01l-0.02-0.83C62.91,94.99,62.9,94.99,62.89,94.99z"/>
				</g>
				<g>
					<path class="st0" d="M62.95,96.09c-0.01,0-0.02,0-0.04-0.01l0.02,0.75c0,0,0,0,0,0c0.01,0,0.03,0,0.04,0.01L62.95,96.09
						C62.95,96.09,62.95,96.09,62.95,96.09z"/>
				</g>
				<g>
					<path class="st0" d="M63,98.38l-0.03-1.28c-0.01,0-0.02,0.01-0.04,0.01l0.03,1.28C62.98,98.39,62.99,98.38,63,98.38z"/>
				</g>
			</g>
			<g>
				<g>
					<path class="st0" d="M63.25,93.58v-0.66h-0.03v0.66C63.23,93.58,63.24,93.58,63.25,93.58z"/>
				</g>
				<g>
					<path class="st0" d="M63.22,93.85v0.69c0,0,0.01,0,0.01,0c0.01,0,0.01,0,0.01,0v-0.69C63.24,93.85,63.23,93.85,63.22,93.85z"/>
				</g>
				<g>
					<path class="st0" d="M63.23,94.82c-0.01,0-0.01,0-0.01,0v0.48c0.01,0,0.02,0,0.03,0.01v-0.48
						C63.24,94.82,63.24,94.82,63.23,94.82z"/>
				</g>
				<g>
					<path class="st0" d="M63.22,95.57v0.54c0.01,0,0.01,0,0.02,0c0,0,0.01,0,0.01,0v-0.54C63.24,95.57,63.23,95.57,63.22,95.57z"/>
				</g>
				<g>
					<path class="st0" d="M63.23,97.39c0.01,0,0.01,0,0.01,0v-1.01c0,0-0.01,0-0.01,0c-0.01,0-0.01,0-0.02,0v1.01
						C63.23,97.39,63.23,97.39,63.23,97.39z"/>
				</g>
				<g>
					<path class="st0" d="M63.23,97.67c-0.01,0-0.01,0-0.01,0v0.64h0.03v-0.64C63.24,97.67,63.24,97.67,63.23,97.67z"/>
				</g>
			</g>
		</g>
		<g>
			<g>
				<g>
					<path class="st0" d="M59.63,97.58l0.88,1.55c0.04-0.02,0.09-0.04,0.13-0.06l-0.89-1.57C59.71,97.53,59.67,97.56,59.63,97.58z"
						/>
				</g>
			</g>
			<g>
				<g>
					<path class="st0" d="M59.09,97.7l1.14,1.58c0.04-0.02,0.07-0.04,0.11-0.07l-1.11-1.54C59.19,97.69,59.14,97.69,59.09,97.7z"/>
				</g>
			</g>
			<g>
				<g>
					<path class="st0" d="M58.52,97.77l1.45,1.68c0.03-0.02,0.06-0.05,0.1-0.07l-1.4-1.63C58.61,97.76,58.57,97.77,58.52,97.77z"/>
				</g>
			</g>
			<g>
				<g>
					<path class="st0" d="M57.93,97.83l1.79,1.8c0.03-0.02,0.06-0.04,0.08-0.07l-1.74-1.75C58.02,97.83,57.98,97.83,57.93,97.83z"/>
				</g>
			</g>
			<g>
				<g>
					<path class="st0" d="M57.33,97.89C57.33,97.89,57.33,97.89,57.33,97.89l2.17,1.94c0.02-0.02,0.05-0.04,0.07-0.06l-2.12-1.89
						C57.41,97.88,57.37,97.88,57.33,97.89z"/>
				</g>
			</g>
			<g>
				<g>
					<path class="st0" d="M57.14,98.28c0.02-0.03,0.04-0.04,0.06-0.05l-0.35-0.28c-0.04,0.01-0.08,0.01-0.11,0.02L57.14,98.28
						C57.14,98.28,57.14,98.28,57.14,98.28z"/>
				</g>
				<g>
					<path class="st0" d="M57.39,98.42c-0.01,0.02-0.02,0.03-0.03,0.04l1.94,1.57c0.02-0.02,0.04-0.04,0.06-0.06l-1.96-1.58
						C57.39,98.4,57.39,98.41,57.39,98.42z"/>
				</g>
			</g>
			<g>
				<g>
					<path class="st0" d="M56.17,98.04l2.94,2.18c0.02-0.02,0.03-0.04,0.05-0.05l-2.89-2.14C56.24,98.03,56.2,98.04,56.17,98.04z"/>
				</g>
			</g>
			<g>
				<g>
					<path class="st0" d="M56.89,99.02l2.04,1.41c0.01-0.02,0.03-0.03,0.04-0.05l-2.03-1.4C56.93,99.01,56.91,99.02,56.89,99.02z"/>
				</g>
				<g>
					<path class="st0" d="M56.72,98.83l-1.04-0.72c-0.03,0-0.06,0.01-0.09,0.01l1.12,0.77C56.71,98.88,56.71,98.85,56.72,98.83z"/>
				</g>
			</g>
			<g>
				<g>
					<path class="st0" d="M55.97,98.77l-0.91-0.59c-0.02,0-0.04,0-0.06,0l-0.01,0.01l0.99,0.64C55.97,98.81,55.97,98.79,55.97,98.77
						z"/>
				</g>
				<g>
					<path class="st0" d="M56.13,98.93l0.92,0.6c0.01-0.01,0.03-0.02,0.04-0.03l-0.9-0.58C56.17,98.92,56.15,98.93,56.13,98.93z"/>
				</g>
				<g>
					<path class="st0" d="M57.3,99.68l1.48,0.96c0.01-0.01,0.02-0.03,0.03-0.04l-1.5-0.97C57.31,99.65,57.31,99.67,57.3,99.68z"/>
				</g>
			</g>
			<g>
				<g>
					<path class="st0" d="M55.17,98.69l-0.74-0.45l-0.02,0.03l0.74,0.45C55.15,98.71,55.16,98.7,55.17,98.69z"/>
				</g>
				<g>
					<path class="st0" d="M56.36,99.42C56.36,99.42,56.36,99.42,56.36,99.42l-0.96-0.59c-0.01,0.01-0.02,0.02-0.03,0.03l0.97,0.59
						C56.35,99.44,56.35,99.43,56.36,99.42z"/>
				</g>
				<g>
					<path class="st0" d="M57.66,100.25c0.01-0.01,0.02-0.02,0.02-0.03l-1.09-0.66c-0.01,0.01-0.02,0.02-0.03,0.03L57.66,100.25
						C57.66,100.25,57.66,100.25,57.66,100.25z"/>
				</g>
				<g>
					<path class="st0" d="M57.9,100.39C57.9,100.39,57.9,100.39,57.9,100.39l0.74,0.46c0.01-0.01,0.01-0.02,0.02-0.03l-0.75-0.46
						C57.91,100.37,57.91,100.38,57.9,100.39z"/>
				</g>
			</g>
			<g>
				<g>
					<path class="st0" d="M57.82,103.73l-1.75,0.01c0,0.01,0.01,0.02,0.01,0.03c0.02,0.04,0.02,0.08,0.01,0.11l1.76-0.01
						C57.83,103.83,57.82,103.78,57.82,103.73z"/>
				</g>
			</g>
			<g>
				<g>
					<path class="st0" d="M57.81,103.41l-1.99-0.2c0.02,0.05,0.04,0.09,0.06,0.14l1.92,0.19C57.8,103.49,57.8,103.45,57.81,103.41z"
						/>
				</g>
			</g>
			<g>
				<g>
					<path class="st0" d="M57.85,103.09l-2.24-0.43c0.02,0.04,0.03,0.09,0.05,0.13l2.17,0.41
						C57.83,103.17,57.84,103.13,57.85,103.09z"/>
				</g>
			</g>
			<g>
				<g>
					<path class="st0" d="M57.91,102.8l-2.51-0.66c0.02,0.04,0.03,0.08,0.05,0.12l2.44,0.65C57.89,102.87,57.9,102.83,57.91,102.8z"
						/>
				</g>
			</g>
			<g>
				<g>
					<path class="st0" d="M57.98,102.51l-2.8-0.92c0.01,0.01,0.01,0.02,0.02,0.04c0.01,0.03,0.02,0.05,0.03,0.08l2.72,0.9
						C57.96,102.57,57.97,102.54,57.98,102.51z"/>
				</g>
			</g>
			<g>
				<g>
					<path class="st0" d="M58.05,102.24l-3.11-1.19c0.02,0.04,0.03,0.07,0.05,0.11l3.03,1.17
						C58.04,102.29,58.05,102.27,58.05,102.24z"/>
				</g>
			</g>
			<g>
				<g>
					<path class="st0" d="M58.15,101.98l-3.43-1.49l0,0c0.01,0.03,0.03,0.06,0.04,0.09l3.37,1.46
						C58.13,102.03,58.14,102.01,58.15,101.98z"/>
				</g>
			</g>
			<g>
				<g>
					<path class="st0" d="M55.29,100.35C55.29,100.34,55.3,100.34,55.29,100.35l-0.8-0.39l-0.02,0.03c0.01,0.01,0.01,0.02,0.02,0.04
						l0.78,0.37C55.28,100.38,55.28,100.36,55.29,100.35z"/>
				</g>
				<g>
					<path class="st0" d="M58.24,101.74l-2.7-1.28c0,0.01,0,0.01-0.01,0.02c0,0.01,0,0.03,0,0.05l2.68,1.28
						C58.23,101.78,58.24,101.76,58.24,101.74z"/>
				</g>
			</g>
			<g>
				<g>
					<path class="st0" d="M54.83,99.73c0.01-0.01,0.01-0.02,0.02-0.03l-0.57-0.29l-0.02,0.04l0.57,0.29
						C54.83,99.75,54.83,99.74,54.83,99.73z"/>
				</g>
				<g>
					<path class="st0" d="M55.98,100.33c0.01-0.01,0.02-0.02,0.03-0.03l-0.92-0.47c0,0.01-0.01,0.03-0.02,0.04c0,0,0,0,0,0
						l0.91,0.47C55.98,100.34,55.98,100.34,55.98,100.33z"/>
				</g>
				<g>
					<path class="st0" d="M58.35,101.5l-0.74-0.38c0,0,0,0.01,0,0.01c-0.01,0.01-0.02,0.02-0.03,0.03l0.75,0.38
						C58.33,101.53,58.34,101.52,58.35,101.5z"/>
				</g>
				<g>
					<path class="st0" d="M57.36,101l-1.12-0.57c0,0.02-0.01,0.03-0.02,0.05l1.12,0.57C57.34,101.03,57.35,101.01,57.36,101z"/>
				</g>
			</g>
			<g>
				<g>
					<path class="st0" d="M55.24,99.52l-1.18-0.64l-0.02,0.03l1.17,0.64C55.22,99.54,55.23,99.53,55.24,99.52z"/>
				</g>
				<g>
					<path class="st0" d="M55.46,99.68l0.72,0.4c0-0.01,0.01-0.02,0.01-0.04l-0.72-0.4C55.47,99.66,55.46,99.67,55.46,99.68z"/>
				</g>
				<g>
					<path class="st0" d="M56.44,100.18c-0.01,0.01-0.02,0.02-0.02,0.03l0.66,0.36c0,0,0,0,0,0c0.01-0.01,0.02-0.02,0.03-0.03
						L56.44,100.18C56.44,100.18,56.44,100.18,56.44,100.18z"/>
				</g>
				<g>
					<path class="st0" d="M58.45,101.28l-1.12-0.61c0,0.01-0.01,0.02-0.01,0.04l1.12,0.61C58.44,101.3,58.45,101.29,58.45,101.28z"
						/>
				</g>
			</g>
			<g>
				<g>
					<path class="st0" d="M54.42,98.66l-0.57-0.33l-0.01,0.02l0.57,0.33C54.41,98.68,54.41,98.67,54.42,98.66z"/>
				</g>
				<g>
					<path class="st0" d="M54.63,98.82l0.6,0.35c0,0,0-0.01,0-0.01c0,0,0.01-0.01,0.01-0.01l-0.6-0.34
						C54.65,98.81,54.64,98.81,54.63,98.82z"/>
				</g>
				<g>
					<path class="st0" d="M55.48,99.29c0,0-0.01,0.01-0.01,0.01l0.41,0.24c0.01-0.01,0.01-0.01,0.02-0.02l-0.42-0.24
						C55.48,99.28,55.48,99.29,55.48,99.29z"/>
				</g>
				<g>
					<path class="st0" d="M56.13,99.68l0.47,0.27c0-0.01,0-0.01,0.01-0.02c0,0,0,0,0.01-0.01l-0.47-0.27
						C56.13,99.66,56.13,99.67,56.13,99.68z"/>
				</g>
				<g>
					<path class="st0" d="M57.71,100.58c0,0,0.01-0.01,0.01-0.01l-0.88-0.51c0,0,0,0.01,0,0.01c0,0.01-0.01,0.01-0.01,0.01
						l0.88,0.51C57.71,100.59,57.71,100.59,57.71,100.58z"/>
				</g>
				<g>
					<path class="st0" d="M57.95,100.72c0,0-0.01,0.01-0.01,0.01l0.55,0.32l0.01-0.02l-0.55-0.32
						C57.96,100.71,57.96,100.72,57.95,100.72z"/>
				</g>
			</g>
		</g>
		<g>
			<g>
				<g>
					<path class="st0" d="M56.07,103.8l1.78,0.01c0-0.05,0.01-0.09,0.02-0.14l-1.8-0.01C56.07,103.7,56.07,103.75,56.07,103.8z"/>
				</g>
			</g>
			<g>
				<g>
					<path class="st0" d="M55.9,104.32l1.94-0.2c0-0.04,0-0.09,0-0.13l-1.88,0.19C55.94,104.23,55.92,104.28,55.9,104.32z"/>
				</g>
			</g>
			<g>
				<g>
					<path class="st0" d="M55.69,104.85l2.18-0.41c0-0.04-0.01-0.08-0.01-0.12l-2.11,0.4C55.72,104.77,55.7,104.81,55.69,104.85z"/>
				</g>
			</g>
			<g>
				<g>
					<path class="st0" d="M55.44,105.4l2.46-0.65c-0.01-0.04-0.01-0.07-0.02-0.11l-2.38,0.63C55.48,105.31,55.46,105.35,55.44,105.4
						z"/>
				</g>
			</g>
			<g>
				<g>
					<path class="st0" d="M55.18,105.94C55.18,105.94,55.18,105.94,55.18,105.94l2.77-0.91c-0.01-0.03-0.01-0.06-0.02-0.09
						l-2.69,0.89C55.22,105.87,55.2,105.9,55.18,105.94z"/>
				</g>
			</g>
			<g>
				<g>
					<path class="st0" d="M55.43,106.3c-0.02-0.03-0.02-0.05-0.02-0.08L55,106.38c-0.01,0.04-0.03,0.07-0.04,0.11L55.43,106.3
						C55.44,106.3,55.43,106.3,55.43,106.3z"/>
				</g>
				<g>
					<path class="st0" d="M55.68,106.16c0.01,0.02,0.01,0.03,0.02,0.05l2.33-0.9c-0.01-0.03-0.01-0.05-0.02-0.08l-2.35,0.9
						C55.66,106.14,55.67,106.15,55.68,106.16z"/>
				</g>
			</g>
			<g>
				<g>
					<path class="st0" d="M54.74,107.03l3.36-1.46c-0.01-0.02-0.02-0.05-0.02-0.07l-3.3,1.43C54.77,106.96,54.76,107,54.74,107.03z"
						/>
				</g>
			</g>
			<g>
				<g>
					<path class="st0" d="M55.95,106.89l2.24-1.07c-0.01-0.02-0.01-0.04-0.02-0.06l-2.22,1.06
						C55.96,106.85,55.96,106.87,55.95,106.89z"/>
				</g>
				<g>
					<path class="st0" d="M55.7,106.94l-1.14,0.54c-0.01,0.03-0.02,0.06-0.04,0.09l1.23-0.58C55.73,106.97,55.72,106.96,55.7,106.94
						z"/>
				</g>
			</g>
			<g>
				<g>
					<path class="st0" d="M55.27,107.56l-0.97,0.5c-0.01,0.02-0.02,0.04-0.03,0.06l0.01,0.01l1.05-0.54
						C55.31,107.58,55.29,107.57,55.27,107.56z"/>
				</g>
				<g>
					<path class="st0" d="M55.49,107.5l0.98-0.5c-0.01-0.02-0.01-0.04-0.01-0.05l-0.96,0.49C55.5,107.46,55.5,107.48,55.49,107.5z"
						/>
				</g>
				<g>
					<path class="st0" d="M56.73,106.87l1.57-0.81c-0.01-0.02-0.01-0.03-0.02-0.05l-1.59,0.82
						C56.71,106.84,56.72,106.85,56.73,106.87z"/>
				</g>
			</g>
			<g>
				<g>
					<path class="st0" d="M54.8,108.22l-0.76,0.41l0.02,0.03l0.76-0.42C54.82,108.24,54.81,108.23,54.8,108.22z"/>
				</g>
				<g>
					<path class="st0" d="M56.03,107.55C56.03,107.55,56.03,107.55,56.03,107.55l-0.99,0.53c0.01,0.01,0.01,0.03,0.01,0.04l1-0.55
						C56.04,107.57,56.03,107.56,56.03,107.55z"/>
				</g>
				<g>
					<path class="st0" d="M57.4,106.84c-0.01-0.01-0.01-0.02-0.01-0.03l-1.12,0.61c0.01,0.01,0.01,0.03,0.01,0.04L57.4,106.84
						C57.4,106.84,57.4,106.84,57.4,106.84z"/>
				</g>
				<g>
					<path class="st0" d="M57.64,106.7c0,0,0,0.01,0,0.01l0.77-0.42c-0.01-0.01-0.01-0.02-0.02-0.03l-0.77,0.42
						C57.63,106.68,57.64,106.69,57.64,106.7z"/>
				</g>
			</g>
			<g>
				<g>
					<path class="st0" d="M60.49,108.44l-0.87,1.52c0.01,0,0.02,0,0.03,0c0.05,0,0.08,0.02,0.1,0.05l0.87-1.53
						C60.58,108.47,60.54,108.46,60.49,108.44z"/>
				</g>
			</g>
			<g>
				<g>
					<path class="st0" d="M60.21,108.29l-1.17,1.62c0.05,0.01,0.1,0.01,0.15,0.02l1.13-1.57C60.28,108.34,60.24,108.31,60.21,108.29
						z"/>
				</g>
			</g>
			<g>
				<g>
					<path class="st0" d="M59.96,108.1l-1.49,1.73c0.05,0.01,0.09,0.01,0.14,0.02l1.44-1.68C60.02,108.15,59.99,108.12,59.96,108.1z
						"/>
				</g>
			</g>
			<g>
				<g>
					<path class="st0" d="M59.73,107.9l-1.83,1.84c0.04,0.01,0.09,0.01,0.13,0.02l1.78-1.79C59.78,107.94,59.75,107.92,59.73,107.9z
						"/>
				</g>
			</g>
			<g>
				<g>
					<path class="st0" d="M59.52,107.69l-2.2,1.96c0.01,0,0.03,0,0.04,0c0.03,0,0.06,0.01,0.09,0.01l2.14-1.91
						C59.56,107.74,59.54,107.72,59.52,107.69z"/>
				</g>
			</g>
			<g>
				<g>
					<path class="st0" d="M59.32,107.49l-2.59,2.09c0.04,0,0.08,0.01,0.12,0.01l2.53-2.04C59.36,107.53,59.34,107.51,59.32,107.49z"
						/>
				</g>
			</g>
			<g>
				<g>
					<path class="st0" d="M59.14,107.28l-3,2.23l0,0c0.03,0,0.07,0.01,0.1,0.01l2.95-2.19C59.18,107.32,59.16,107.3,59.14,107.28z"
						/>
				</g>
			</g>
			<g>
				<g>
					<path class="st0" d="M56.3,108.94c0,0,0-0.01,0-0.01l-0.73,0.5l0.02,0.03c0.01,0,0.03,0,0.04,0l0.71-0.49
						C56.32,108.96,56.31,108.95,56.3,108.94z"/>
				</g>
				<g>
					<path class="st0" d="M58.98,107.08l-2.46,1.69c0,0,0.01,0.01,0.01,0.01c0.01,0.01,0.03,0.01,0.04,0.03l2.45-1.69
						C59.01,107.11,58.99,107.09,58.98,107.08z"/>
				</g>
			</g>
			<g>
				<g>
					<path class="st0" d="M55.54,109.03c-0.01-0.01-0.01-0.02-0.01-0.03l-0.54,0.35l0.03,0.04l0.53-0.34
						C55.55,109.04,55.54,109.04,55.54,109.03z"/>
				</g>
				<g>
					<path class="st0" d="M56.63,108.33c-0.01-0.01-0.01-0.03-0.01-0.04l-0.87,0.56c0.01,0.01,0.02,0.02,0.03,0.04c0,0,0,0,0,0
						L56.63,108.33C56.64,108.34,56.64,108.34,56.63,108.33z"/>
				</g>
				<g>
					<path class="st0" d="M58.83,106.87l-0.7,0.45c0,0,0.01,0,0.01,0.01c0.01,0.01,0.01,0.03,0.01,0.04l0.71-0.46
						C58.85,106.9,58.84,106.88,58.83,106.87z"/>
				</g>
				<g>
					<path class="st0" d="M57.89,107.47l-1.05,0.68c0.01,0.01,0.02,0.02,0.03,0.04l1.05-0.68C57.92,107.5,57.9,107.49,57.89,107.47z
						"/>
				</g>
			</g>
			<g>
				<g>
					<path class="st0" d="M55.56,108.57l-1.15,0.7l0.02,0.03l1.14-0.69C55.56,108.59,55.56,108.58,55.56,108.57z"/>
				</g>
				<g>
					<path class="st0" d="M55.81,108.46l0.7-0.43c-0.01-0.01-0.02-0.02-0.03-0.03l-0.7,0.43C55.79,108.44,55.8,108.45,55.81,108.46z
						"/>
				</g>
				<g>
					<path class="st0" d="M56.73,107.86c0.01,0.01,0.01,0.02,0.01,0.03l0.64-0.39c0,0,0,0,0,0c-0.01-0.01-0.01-0.02-0.01-0.04
						L56.73,107.86C56.72,107.86,56.72,107.86,56.73,107.86z"/>
				</g>
				<g>
					<path class="st0" d="M58.69,106.66l-1.09,0.67c0.01,0.01,0.02,0.02,0.03,0.03l1.09-0.66C58.7,106.68,58.69,106.67,58.69,106.66
						z"/>
				</g>
			</g>
			<g>
				<g>
					<path class="st0" d="M54.4,108.85l-0.57,0.33l0.01,0.02l0.57-0.33C54.41,108.87,54.41,108.86,54.4,108.85z"/>
				</g>
				<g>
					<path class="st0" d="M54.65,108.74l0.6-0.35c0,0-0.01-0.01-0.01-0.01c0,0,0-0.01,0-0.01l-0.6,0.34
						C54.64,108.73,54.65,108.73,54.65,108.74z"/>
				</g>
				<g>
					<path class="st0" d="M55.48,108.25c0,0,0,0.01,0,0.01l0.41-0.24c0-0.01-0.01-0.02-0.01-0.03l-0.42,0.24
						C55.48,108.24,55.48,108.24,55.48,108.25z"/>
				</g>
				<g>
					<path class="st0" d="M56.14,107.88l0.47-0.27c0-0.01-0.01-0.01-0.01-0.01c0,0,0-0.01,0-0.01l-0.47,0.27
						C56.13,107.87,56.14,107.87,56.14,107.88z"/>
				</g>
				<g>
					<path class="st0" d="M57.71,106.96c0,0,0-0.01,0-0.01l-0.88,0.51c0,0,0,0,0.01,0.01c0,0.01,0,0.01,0.01,0.02l0.88-0.51
						C57.72,106.96,57.71,106.96,57.71,106.96z"/>
				</g>
				<g>
					<path class="st0" d="M57.96,106.82c0,0,0,0.01,0,0.01l0.55-0.32l-0.01-0.02l-0.55,0.32C57.95,106.81,57.95,106.81,57.96,106.82
						z"/>
				</g>
			</g>
		</g>
		<g>
			<g>
				<g>
					<path class="st0" d="M59.67,109.99l0.9-1.54c-0.04-0.03-0.08-0.06-0.11-0.08l-0.91,1.56
						C59.59,109.94,59.64,109.96,59.67,109.99z"/>
				</g>
			</g>
			<g>
				<g>
					<path class="st0" d="M60.05,110.4l0.8-1.78c-0.04-0.02-0.08-0.04-0.11-0.06l-0.78,1.73C59.99,110.32,60.02,110.36,60.05,110.4z
						"/>
				</g>
			</g>
			<g>
				<g>
					<path class="st0" d="M60.4,110.85l0.73-2.09c-0.04-0.02-0.07-0.03-0.11-0.05l-0.71,2.03C60.34,110.78,60.37,110.81,60.4,110.85
						z"/>
				</g>
			</g>
			<g>
				<g>
					<path class="st0" d="M60.75,111.33l0.66-2.45c-0.03-0.01-0.07-0.03-0.1-0.04l-0.64,2.38
						C60.69,111.25,60.72,111.29,60.75,111.33z"/>
				</g>
			</g>
			<g>
				<g>
					<path class="st0" d="M61.09,111.83C61.09,111.83,61.09,111.83,61.09,111.83l0.6-2.85c-0.03-0.01-0.06-0.02-0.09-0.03
						l-0.58,2.78C61.04,111.76,61.07,111.79,61.09,111.83z"/>
				</g>
			</g>
			<g>
				<g>
					<path class="st0" d="M61.53,111.79c-0.03,0-0.06-0.01-0.08-0.03l-0.07,0.44c0.02,0.03,0.05,0.06,0.07,0.09L61.53,111.79
						C61.53,111.79,61.53,111.79,61.53,111.79z"/>
				</g>
				<g>
					<path class="st0" d="M61.53,111.51c0.02,0,0.03,0,0.05,0.01l0.39-2.47c-0.03-0.01-0.05-0.01-0.08-0.02l-0.39,2.49
						C61.5,111.51,61.51,111.51,61.53,111.51z"/>
				</g>
			</g>
			<g>
				<g>
					<path class="st0" d="M61.81,112.75l0.42-3.64c-0.02,0-0.05-0.01-0.07-0.01l-0.41,3.57C61.77,112.7,61.79,112.72,61.81,112.75z"
						/>
				</g>
			</g>
			<g>
				<g>
					<path class="st0" d="M62.3,111.63l0.2-2.47c-0.02,0-0.04-0.01-0.06-0.01l-0.2,2.46C62.26,111.61,62.28,111.62,62.3,111.63z"/>
				</g>
				<g>
					<path class="st0" d="M62.21,111.88l-0.1,1.26c0.02,0.02,0.04,0.05,0.06,0.07l0.11-1.36C62.26,111.87,62.24,111.87,62.21,111.88
						z"/>
				</g>
			</g>
			<g>
				<g>
					<path class="st0" d="M62.53,112.56l-0.05,1.09c0.01,0.02,0.02,0.04,0.04,0.05l0.01,0l0.06-1.17
						C62.57,112.54,62.55,112.55,62.53,112.56z"/>
				</g>
				<g>
					<path class="st0" d="M62.59,112.34l0.05-1.1c-0.02,0-0.03-0.01-0.05-0.02l-0.05,1.08C62.57,112.31,62.58,112.33,62.59,112.34z"
						/>
				</g>
				<g>
					<path class="st0" d="M62.66,110.95l0.09-1.76c-0.02,0-0.03,0-0.05,0l-0.09,1.78C62.63,110.96,62.65,110.95,62.66,110.95z"/>
				</g>
			</g>
			<g>
				<g>
					<path class="st0" d="M62.87,113.3l-0.02,0.86l0.04,0l0.02-0.87C62.9,113.29,62.88,113.3,62.87,113.3z"/>
				</g>
				<g>
					<path class="st0" d="M62.91,111.9C62.9,111.9,62.9,111.9,62.91,111.9l-0.03,1.12c0.01,0,0.03,0,0.04,0.01l0.03-1.14
						C62.93,111.9,62.92,111.9,62.91,111.9z"/>
				</g>
				<g>
					<path class="st0" d="M62.97,110.36c-0.01,0-0.02,0-0.03-0.01l-0.03,1.27c0.01,0,0.03,0,0.04,0.01L62.97,110.36
						C62.97,110.36,62.97,110.36,62.97,110.36z"/>
				</g>
				<g>
					<path class="st0" d="M62.97,110.08c0,0,0.01,0,0.01,0L63,109.2c-0.01,0-0.03,0-0.04,0l-0.02,0.88
						C62.95,110.08,62.96,110.08,62.97,110.08z"/>
				</g>
			</g>
			<g>
				<g>
					<path class="st0" d="M65.91,108.48l0.88,1.51c0.01-0.01,0.01-0.02,0.02-0.03c0.02-0.04,0.06-0.06,0.09-0.06l-0.89-1.52
						C65.98,108.42,65.95,108.45,65.91,108.48z"/>
				</g>
			</g>
			<g>
				<g>
					<path class="st0" d="M65.63,108.65l0.82,1.82c0.03-0.04,0.06-0.08,0.09-0.12l-0.79-1.76
						C65.71,108.61,65.67,108.63,65.63,108.65z"/>
				</g>
			</g>
			<g>
				<g>
					<path class="st0" d="M65.34,108.77l0.75,2.15c0.03-0.04,0.06-0.07,0.09-0.11l-0.73-2.09
						C65.42,108.75,65.38,108.76,65.34,108.77z"/>
				</g>
			</g>
			<g>
				<g>
					<path class="st0" d="M65.06,108.87l0.68,2.5c0.03-0.03,0.06-0.07,0.08-0.1l-0.66-2.43C65.12,108.85,65.09,108.86,65.06,108.87z
						"/>
				</g>
			</g>
			<g>
				<g>
					<path class="st0" d="M64.78,108.95l0.6,2.88c0.01-0.01,0.02-0.02,0.02-0.03c0.02-0.02,0.04-0.05,0.05-0.07l-0.59-2.81
						C64.84,108.94,64.81,108.94,64.78,108.95z"/>
				</g>
			</g>
			<g>
				<g>
					<path class="st0" d="M64.5,109.02l0.52,3.29c0.02-0.03,0.05-0.06,0.07-0.09L64.58,109C64.56,109.01,64.53,109.01,64.5,109.02z"
						/>
				</g>
			</g>
			<g>
				<g>
					<path class="st0" d="M64.23,109.07l0.43,3.71l0,0c0.02-0.03,0.04-0.05,0.06-0.08l-0.42-3.65
						C64.28,109.06,64.26,109.07,64.23,109.07z"/>
				</g>
			</g>
			<g>
				<g>
					<path class="st0" d="M64.24,112.36c0,0-0.01,0-0.01,0l0.07,0.89l0.04,0c0.01-0.01,0.02-0.02,0.02-0.03l-0.07-0.86
						C64.28,112.35,64.26,112.36,64.24,112.36z"/>
				</g>
				<g>
					<path class="st0" d="M63.97,109.11l0.24,2.98c0.01,0,0.01,0,0.02,0c0.01-0.01,0.03-0.01,0.04-0.02l-0.24-2.96
						C64.01,109.1,63.99,109.1,63.97,109.11z"/>
				</g>
			</g>
			<g>
				<g>
					<path class="st0" d="M63.94,113.07c-0.01,0-0.02,0-0.03-0.01l0.03,0.64l0.05,0l-0.03-0.64
						C63.95,113.06,63.95,113.07,63.94,113.07z"/>
				</g>
				<g>
					<path class="st0" d="M63.88,111.77c-0.01,0-0.03,0-0.04-0.01l0.05,1.04c0.01,0,0.03-0.01,0.05-0.01c0,0,0,0,0,0l-0.05-1.02
						C63.89,111.77,63.89,111.77,63.88,111.77z"/>
				</g>
				<g>
					<path class="st0" d="M63.72,109.14l0.04,0.83c0,0,0.01,0,0.01,0c0.02,0,0.03,0,0.04,0.01l-0.04-0.84
						C63.75,109.13,63.73,109.13,63.72,109.14z"/>
				</g>
				<g>
					<path class="st0" d="M63.77,110.25l0.06,1.25c0.01-0.01,0.03-0.01,0.05-0.01l-0.06-1.25
						C63.81,110.24,63.79,110.24,63.77,110.25z"/>
				</g>
			</g>
			<g>
				<g>
					<path class="st0" d="M63.55,112.82l0.03,1.34l0.04,0l-0.03-1.33C63.58,112.82,63.56,112.82,63.55,112.82z"/>
				</g>
				<g>
					<path class="st0" d="M63.58,112.55l-0.02-0.83c-0.01,0-0.02,0.01-0.04,0.01l0.02,0.83C63.56,112.55,63.57,112.55,63.58,112.55z
						"/>
				</g>
				<g>
					<path class="st0" d="M63.52,111.45c0.01,0,0.02,0,0.04,0.01l-0.02-0.75c0,0,0,0,0,0c-0.01,0-0.03,0-0.04-0.01L63.52,111.45
						C63.52,111.45,63.52,111.45,63.52,111.45z"/>
				</g>
				<g>
					<path class="st0" d="M63.47,109.16l0.03,1.28c0.01,0,0.02-0.01,0.04-0.01l-0.03-1.28C63.49,109.15,63.48,109.15,63.47,109.16z"
						/>
				</g>
			</g>
			<g>
				<g>
					<path class="st0" d="M63.22,113.96v0.66h0.03v-0.66C63.24,113.96,63.23,113.96,63.22,113.96z"/>
				</g>
				<g>
					<path class="st0" d="M63.25,113.69V113c0,0-0.01,0-0.01,0c-0.01,0-0.01,0-0.01,0v0.69C63.23,113.69,63.24,113.69,63.25,113.69z
						"/>
				</g>
				<g>
					<path class="st0" d="M63.24,112.72c0.01,0,0.01,0,0.01,0v-0.48c-0.01,0-0.02,0-0.03-0.01v0.48
						C63.23,112.72,63.23,112.72,63.24,112.72z"/>
				</g>
				<g>
					<path class="st0" d="M63.25,111.97v-0.54c-0.01,0-0.01,0-0.02,0c0,0-0.01,0-0.01,0v0.54
						C63.23,111.97,63.24,111.97,63.25,111.97z"/>
				</g>
				<g>
					<path class="st0" d="M63.24,110.15c-0.01,0-0.01,0-0.01,0v1.01c0,0,0.01,0,0.01,0c0.01,0,0.01,0,0.02,0v-1.01
						C63.24,110.14,63.24,110.15,63.24,110.15z"/>
				</g>
				<g>
					<path class="st0" d="M63.24,109.87c0.01,0,0.01,0,0.01,0v-0.64h-0.03v0.64C63.23,109.87,63.23,109.87,63.24,109.87z"/>
				</g>
			</g>
		</g>
		<g>
			<g>
				<g>
					<path class="st0" d="M66.84,109.96l-0.88-1.55c-0.04,0.02-0.09,0.04-0.13,0.06l0.89,1.57C66.75,110,66.8,109.98,66.84,109.96z"
						/>
				</g>
			</g>
			<g>
				<g>
					<path class="st0" d="M67.38,109.84l-1.14-1.58c-0.04,0.02-0.07,0.04-0.11,0.07l1.11,1.54
						C67.28,109.85,67.33,109.85,67.38,109.84z"/>
				</g>
			</g>
			<g>
				<g>
					<path class="st0" d="M67.95,109.76l-1.45-1.68c-0.03,0.02-0.06,0.05-0.1,0.07l1.4,1.63C67.86,109.78,67.9,109.77,67.95,109.76z
						"/>
				</g>
			</g>
			<g>
				<g>
					<path class="st0" d="M68.54,109.71l-1.79-1.8c-0.03,0.02-0.06,0.04-0.08,0.07l1.74,1.75
						C68.45,109.71,68.49,109.71,68.54,109.71z"/>
				</g>
			</g>
			<g>
				<g>
					<path class="st0" d="M69.14,109.65C69.14,109.65,69.14,109.65,69.14,109.65l-2.17-1.94c-0.02,0.02-0.05,0.04-0.07,0.06
						l2.12,1.89C69.06,109.66,69.1,109.66,69.14,109.65z"/>
				</g>
			</g>
			<g>
				<g>
					<path class="st0" d="M69.33,109.26c-0.02,0.03-0.04,0.04-0.06,0.05l0.35,0.28c0.04-0.01,0.08-0.01,0.11-0.02L69.33,109.26
						C69.33,109.26,69.33,109.26,69.33,109.26z"/>
				</g>
				<g>
					<path class="st0" d="M69.08,109.12c0.01-0.02,0.02-0.03,0.03-0.04l-1.94-1.57c-0.02,0.02-0.04,0.04-0.06,0.06l1.96,1.58
						C69.07,109.14,69.08,109.13,69.08,109.12z"/>
				</g>
			</g>
			<g>
				<g>
					<path class="st0" d="M70.3,109.49l-2.94-2.18c-0.02,0.02-0.03,0.04-0.05,0.05l2.89,2.14C70.23,109.5,70.27,109.5,70.3,109.49z"
						/>
				</g>
			</g>
			<g>
				<g>
					<path class="st0" d="M69.58,108.51l-2.04-1.41c-0.01,0.02-0.03,0.03-0.04,0.05l2.03,1.4
						C69.54,108.53,69.56,108.52,69.58,108.51z"/>
				</g>
				<g>
					<path class="st0" d="M69.75,108.71l1.04,0.72c0.03,0,0.06-0.01,0.09-0.01l-1.12-0.77C69.76,108.66,69.76,108.68,69.75,108.71z"
						/>
				</g>
			</g>
			<g>
				<g>
					<path class="st0" d="M70.5,108.77l0.91,0.59c0.02,0,0.04,0,0.06,0l0.01-0.01l-0.99-0.64C70.5,108.73,70.5,108.75,70.5,108.77z"
						/>
				</g>
				<g>
					<path class="st0" d="M70.34,108.61l-0.92-0.6c-0.01,0.01-0.03,0.02-0.04,0.03l0.9,0.58C70.3,108.62,70.32,108.61,70.34,108.61z
						"/>
				</g>
				<g>
					<path class="st0" d="M69.17,107.85l-1.48-0.96c-0.01,0.01-0.02,0.03-0.03,0.04l1.5,0.97
						C69.16,107.89,69.16,107.87,69.17,107.85z"/>
				</g>
			</g>
			<g>
				<g>
					<path class="st0" d="M71.3,108.85l0.74,0.45l0.02-0.03l-0.74-0.45C71.31,108.82,71.31,108.84,71.3,108.85z"/>
				</g>
				<g>
					<path class="st0" d="M70.11,108.12C70.11,108.12,70.11,108.12,70.11,108.12l0.96,0.59c0.01-0.01,0.02-0.02,0.03-0.03
						l-0.97-0.59C70.12,108.1,70.12,108.11,70.11,108.12z"/>
				</g>
				<g>
					<path class="st0" d="M68.81,107.29c-0.01,0.01-0.02,0.02-0.02,0.03l1.09,0.66c0.01-0.01,0.02-0.02,0.03-0.03L68.81,107.29
						C68.81,107.29,68.81,107.29,68.81,107.29z"/>
				</g>
				<g>
					<path class="st0" d="M68.56,107.15C68.57,107.15,68.57,107.15,68.56,107.15l-0.74-0.46c-0.01,0.01-0.01,0.02-0.02,0.03
						l0.75,0.46C68.56,107.17,68.56,107.16,68.56,107.15z"/>
				</g>
			</g>
			<g>
				<g>
					<path class="st0" d="M68.65,103.81l1.75-0.01c0-0.01-0.01-0.02-0.01-0.03c-0.02-0.04-0.02-0.08-0.01-0.11l-1.76,0.01
						C68.63,103.71,68.64,103.76,68.65,103.81z"/>
				</g>
			</g>
			<g>
				<g>
					<path class="st0" d="M68.66,104.13l1.99,0.2c-0.02-0.05-0.04-0.09-0.06-0.14L68.67,104C68.67,104.04,68.66,104.09,68.66,104.13
						z"/>
				</g>
			</g>
			<g>
				<g>
					<path class="st0" d="M68.62,104.44l2.24,0.43c-0.02-0.04-0.03-0.09-0.05-0.13l-2.17-0.41
						C68.64,104.37,68.63,104.41,68.62,104.44z"/>
				</g>
			</g>
			<g>
				<g>
					<path class="st0" d="M68.56,104.74l2.51,0.66c-0.02-0.04-0.03-0.08-0.05-0.12l-2.44-0.65
						C68.58,104.67,68.57,104.71,68.56,104.74z"/>
				</g>
			</g>
			<g>
				<g>
					<path class="st0" d="M68.49,105.03l2.8,0.92c-0.01-0.01-0.01-0.02-0.02-0.04c-0.01-0.03-0.02-0.05-0.03-0.08l-2.72-0.9
						C68.51,104.96,68.5,105,68.49,105.03z"/>
				</g>
			</g>
			<g>
				<g>
					<path class="st0" d="M68.41,105.3l3.11,1.19c-0.02-0.04-0.03-0.07-0.05-0.11l-3.03-1.17C68.43,105.24,68.42,105.27,68.41,105.3
						z"/>
				</g>
			</g>
			<g>
				<g>
					<path class="st0" d="M68.32,105.55l3.43,1.49l0,0c-0.01-0.03-0.03-0.06-0.04-0.09l-3.37-1.46
						C68.34,105.51,68.33,105.53,68.32,105.55z"/>
				</g>
			</g>
			<g>
				<g>
					<path class="st0" d="M71.18,107.19C71.17,107.2,71.17,107.2,71.18,107.19l0.8,0.39l0.02-0.03c-0.01-0.01-0.01-0.02-0.02-0.04
						l-0.78-0.37C71.19,107.16,71.19,107.17,71.18,107.19z"/>
				</g>
				<g>
					<path class="st0" d="M68.23,105.8l2.7,1.28c0-0.01,0-0.01,0.01-0.02c0-0.01,0-0.03,0-0.05l-2.68-1.28
						C68.24,105.76,68.23,105.78,68.23,105.8z"/>
				</g>
			</g>
			<g>
				<g>
					<path class="st0" d="M71.64,107.8c-0.01,0.01-0.01,0.02-0.02,0.03l0.57,0.29l0.02-0.04l-0.57-0.29
						C71.64,107.79,71.64,107.8,71.64,107.8z"/>
				</g>
				<g>
					<path class="st0" d="M70.49,107.21c-0.01,0.01-0.02,0.02-0.03,0.03l0.92,0.47c0-0.01,0.01-0.03,0.02-0.04c0,0,0,0,0,0
						l-0.91-0.47C70.49,107.2,70.49,107.2,70.49,107.21z"/>
				</g>
				<g>
					<path class="st0" d="M68.12,106.04l0.74,0.38c0,0,0-0.01,0-0.01c0.01-0.01,0.02-0.02,0.03-0.03l-0.75-0.38
						C68.14,106.01,68.13,106.02,68.12,106.04z"/>
				</g>
				<g>
					<path class="st0" d="M69.11,106.54l1.12,0.57c0-0.02,0.01-0.03,0.02-0.05l-1.12-0.57C69.12,106.51,69.12,106.53,69.11,106.54z"
						/>
				</g>
			</g>
			<g>
				<g>
					<path class="st0" d="M71.23,108.02l1.18,0.64l0.02-0.03l-1.17-0.64C71.25,108,71.24,108.01,71.23,108.02z"/>
				</g>
				<g>
					<path class="st0" d="M71.01,107.86l-0.72-0.4c0,0.01-0.01,0.02-0.01,0.04l0.72,0.4C71,107.88,71.01,107.87,71.01,107.86z"/>
				</g>
				<g>
					<path class="st0" d="M70.03,107.36c0.01-0.01,0.02-0.02,0.02-0.03l-0.66-0.36c0,0,0,0,0,0c-0.01,0.01-0.02,0.02-0.03,0.03
						L70.03,107.36C70.03,107.36,70.03,107.36,70.03,107.36z"/>
				</g>
				<g>
					<path class="st0" d="M68.01,106.26l1.12,0.61c0-0.01,0.01-0.02,0.01-0.04l-1.12-0.61C68.03,106.24,68.02,106.25,68.01,106.26z"
						/>
				</g>
			</g>
			<g>
				<g>
					<path class="st0" d="M72.05,108.88l0.57,0.33l0.01-0.02l-0.57-0.33C72.06,108.86,72.06,108.87,72.05,108.88z"/>
				</g>
				<g>
					<path class="st0" d="M71.84,108.72l-0.6-0.35c0,0,0,0.01,0,0.01c0,0-0.01,0.01-0.01,0.01l0.6,0.34
						C71.82,108.73,71.83,108.73,71.84,108.72z"/>
				</g>
				<g>
					<path class="st0" d="M70.99,108.24c0,0,0.01-0.01,0.01-0.01L70.58,108c-0.01,0.01-0.01,0.01-0.02,0.02l0.42,0.24
						C70.98,108.25,70.98,108.25,70.99,108.24z"/>
				</g>
				<g>
					<path class="st0" d="M70.34,107.86l-0.47-0.27c0,0.01,0,0.01-0.01,0.02c0,0,0,0-0.01,0.01l0.47,0.27
						C70.34,107.87,70.34,107.87,70.34,107.86z"/>
				</g>
				<g>
					<path class="st0" d="M68.76,106.96c0,0-0.01,0.01-0.01,0.01l0.88,0.51c0,0,0-0.01,0-0.01c0-0.01,0.01-0.01,0.01-0.01
						l-0.88-0.51C68.76,106.95,68.76,106.95,68.76,106.96z"/>
				</g>
				<g>
					<path class="st0" d="M68.51,106.82c0,0,0.01-0.01,0.01-0.01l-0.55-0.32l-0.01,0.02l0.55,0.32
						C68.51,106.83,68.51,106.82,68.51,106.82z"/>
				</g>
			</g>
		</g>
		<g>
			<g>
				<g>
					<path class="st0" d="M70.4,103.74l-1.78-0.01c0,0.05-0.01,0.09-0.02,0.14l1.8,0.01C70.39,103.84,70.4,103.79,70.4,103.74z"/>
				</g>
			</g>
			<g>
				<g>
					<path class="st0" d="M70.57,103.21l-1.94,0.2c0,0.04,0,0.09,0,0.13l1.88-0.19C70.53,103.3,70.55,103.26,70.57,103.21z"/>
				</g>
			</g>
			<g>
				<g>
					<path class="st0" d="M70.78,102.68l-2.18,0.41c0,0.04,0.01,0.08,0.01,0.12l2.11-0.4C70.75,102.77,70.77,102.73,70.78,102.68z"
						/>
				</g>
			</g>
			<g>
				<g>
					<path class="st0" d="M71.03,102.14l-2.46,0.65c0.01,0.04,0.01,0.07,0.02,0.11l2.38-0.63
						C70.99,102.23,71.01,102.19,71.03,102.14z"/>
				</g>
			</g>
			<g>
				<g>
					<path class="st0" d="M71.28,101.6C71.28,101.59,71.28,101.59,71.28,101.6l-2.77,0.91c0.01,0.03,0.01,0.06,0.02,0.09l2.69-0.89
						C71.25,101.67,71.27,101.63,71.28,101.6z"/>
				</g>
			</g>
			<g>
				<g>
					<path class="st0" d="M71.04,101.24c0.02,0.03,0.02,0.05,0.02,0.08l0.42-0.16c0.01-0.04,0.03-0.07,0.04-0.11L71.04,101.24
						C71.03,101.24,71.03,101.24,71.04,101.24z"/>
				</g>
				<g>
					<path class="st0" d="M70.79,101.38c-0.01-0.02-0.01-0.03-0.02-0.05l-2.33,0.9c0.01,0.03,0.01,0.05,0.02,0.08l2.35-0.9
						C70.81,101.4,70.8,101.39,70.79,101.38z"/>
				</g>
			</g>
			<g>
				<g>
					<path class="st0" d="M71.73,100.51l-3.36,1.46c0.01,0.02,0.02,0.05,0.02,0.07l3.3-1.43C71.7,100.58,71.71,100.54,71.73,100.51z
						"/>
				</g>
			</g>
			<g>
				<g>
					<path class="st0" d="M70.51,100.65l-2.24,1.07c0.01,0.02,0.01,0.04,0.02,0.06l2.22-1.06
						C70.51,100.69,70.51,100.67,70.51,100.65z"/>
				</g>
				<g>
					<path class="st0" d="M70.77,100.6l1.14-0.54c0.01-0.03,0.02-0.06,0.04-0.09l-1.23,0.58C70.73,100.56,70.75,100.58,70.77,100.6z
						"/>
				</g>
			</g>
			<g>
				<g>
					<path class="st0" d="M71.2,99.98l0.97-0.5c0.01-0.02,0.02-0.04,0.03-0.06l-0.01-0.01l-1.05,0.54
						C71.16,99.96,71.18,99.97,71.2,99.98z"/>
				</g>
				<g>
					<path class="st0" d="M70.98,100.04l-0.98,0.5c0.01,0.02,0.01,0.04,0.01,0.05l0.96-0.49C70.97,100.08,70.97,100.06,70.98,100.04
						z"/>
				</g>
				<g>
					<path class="st0" d="M69.74,100.67l-1.57,0.81c0.01,0.02,0.01,0.03,0.02,0.05l1.59-0.82C69.76,100.7,69.75,100.69,69.74,100.67
						z"/>
				</g>
			</g>
			<g>
				<g>
					<path class="st0" d="M71.67,99.32l0.76-0.41l-0.02-0.03l-0.76,0.42C71.65,99.3,71.66,99.31,71.67,99.32z"/>
				</g>
				<g>
					<path class="st0" d="M70.44,99.99C70.44,99.99,70.44,99.99,70.44,99.99l0.99-0.53c-0.01-0.01-0.01-0.03-0.01-0.04l-1,0.55
						C70.43,99.97,70.43,99.98,70.44,99.99z"/>
				</g>
				<g>
					<path class="st0" d="M69.07,100.7c0.01,0.01,0.01,0.02,0.01,0.03l1.12-0.61c-0.01-0.01-0.01-0.03-0.01-0.04L69.07,100.7
						C69.07,100.7,69.07,100.7,69.07,100.7z"/>
				</g>
				<g>
					<path class="st0" d="M68.83,100.84c0,0,0-0.01,0-0.01l-0.77,0.42c0.01,0.01,0.01,0.02,0.02,0.03l0.77-0.42
						C68.84,100.86,68.83,100.85,68.83,100.84z"/>
				</g>
			</g>
			<g>
				<g>
					<path class="st0" d="M65.98,99.1l0.87-1.52c-0.01,0-0.02,0-0.03,0c-0.05,0-0.08-0.02-0.1-0.05l-0.87,1.53
						C65.88,99.06,65.93,99.08,65.98,99.1z"/>
				</g>
			</g>
			<g>
				<g>
					<path class="st0" d="M66.26,99.25l1.17-1.62c-0.05-0.01-0.1-0.01-0.15-0.02l-1.13,1.57C66.19,99.2,66.23,99.23,66.26,99.25z"/>
				</g>
			</g>
			<g>
				<g>
					<path class="st0" d="M66.51,99.44L68,97.71c-0.05-0.01-0.09-0.01-0.14-0.02l-1.44,1.68C66.45,99.39,66.48,99.42,66.51,99.44z"
						/>
				</g>
			</g>
			<g>
				<g>
					<path class="st0" d="M66.74,99.64l1.83-1.84c-0.04-0.01-0.09-0.01-0.13-0.02l-1.78,1.79C66.69,99.59,66.72,99.62,66.74,99.64z"
						/>
				</g>
			</g>
			<g>
				<g>
					<path class="st0" d="M66.95,99.84l2.19-1.96c-0.01,0-0.03,0-0.04,0c-0.03,0-0.06-0.01-0.09-0.01l-2.14,1.91
						C66.91,99.8,66.93,99.82,66.95,99.84z"/>
				</g>
			</g>
			<g>
				<g>
					<path class="st0" d="M67.15,100.05l2.59-2.09c-0.04,0-0.08-0.01-0.12-0.01l-2.53,2.04C67.11,100.01,67.13,100.03,67.15,100.05z
						"/>
				</g>
			</g>
			<g>
				<g>
					<path class="st0" d="M67.33,100.25l3-2.23l0,0c-0.03,0-0.07-0.01-0.1-0.01l-2.95,2.19C67.29,100.22,67.31,100.24,67.33,100.25z
						"/>
				</g>
			</g>
			<g>
				<g>
					<path class="st0" d="M70.17,98.6c0,0,0,0.01,0,0.01l0.73-0.5l-0.02-0.03c-0.01,0-0.03,0-0.04,0l-0.71,0.49
						C70.15,98.57,70.16,98.59,70.17,98.6z"/>
				</g>
				<g>
					<path class="st0" d="M67.49,100.46l2.46-1.69c0,0-0.01-0.01-0.01-0.01c-0.01-0.01-0.03-0.01-0.04-0.03l-2.45,1.69
						C67.46,100.43,67.48,100.45,67.49,100.46z"/>
				</g>
			</g>
			<g>
				<g>
					<path class="st0" d="M70.93,98.51c0.01,0.01,0.01,0.02,0.01,0.03l0.54-0.35l-0.03-0.04l-0.53,0.34
						C70.92,98.5,70.93,98.5,70.93,98.51z"/>
				</g>
				<g>
					<path class="st0" d="M69.84,99.21c0.01,0.01,0.01,0.03,0.01,0.04l0.87-0.56c-0.01-0.01-0.02-0.02-0.03-0.04c0,0,0,0,0,0
						L69.84,99.21C69.83,99.2,69.83,99.2,69.84,99.21z"/>
				</g>
				<g>
					<path class="st0" d="M67.64,100.67l0.7-0.45c0,0-0.01,0-0.01-0.01c-0.01-0.01-0.01-0.03-0.01-0.04l-0.71,0.46
						C67.62,100.64,67.63,100.66,67.64,100.67z"/>
				</g>
				<g>
					<path class="st0" d="M68.57,100.07l1.05-0.68c-0.01-0.01-0.02-0.02-0.03-0.04l-1.05,0.68
						C68.55,100.04,68.57,100.05,68.57,100.07z"/>
				</g>
			</g>
			<g>
				<g>
					<path class="st0" d="M70.91,98.97l1.15-0.7l-0.02-0.03l-1.14,0.69C70.91,98.95,70.91,98.96,70.91,98.97z"/>
				</g>
				<g>
					<path class="st0" d="M70.66,99.08l-0.7,0.43c0.01,0.01,0.02,0.02,0.03,0.03l0.7-0.43C70.68,99.1,70.67,99.09,70.66,99.08z"/>
				</g>
				<g>
					<path class="st0" d="M69.74,99.68c-0.01-0.01-0.01-0.02-0.01-0.03l-0.64,0.39c0,0,0,0,0,0c0.01,0.01,0.01,0.02,0.01,0.04
						L69.74,99.68C69.75,99.68,69.74,99.68,69.74,99.68z"/>
				</g>
				<g>
					<path class="st0" d="M67.78,100.88l1.09-0.67c-0.01-0.01-0.02-0.02-0.03-0.03l-1.09,0.66
						C67.77,100.85,67.78,100.87,67.78,100.88z"/>
				</g>
			</g>
			<g>
				<g>
					<path class="st0" d="M72.07,98.69l0.57-0.33l-0.01-0.02l-0.57,0.33C72.06,98.67,72.06,98.68,72.07,98.69z"/>
				</g>
				<g>
					<path class="st0" d="M71.82,98.8l-0.6,0.35c0,0,0.01,0.01,0.01,0.01c0,0,0,0.01,0,0.01l0.6-0.34
						C71.83,98.81,71.82,98.8,71.82,98.8z"/>
				</g>
				<g>
					<path class="st0" d="M70.99,99.29c0,0,0-0.01,0-0.01l-0.41,0.24c0,0.01,0.01,0.02,0.01,0.03L71,99.3
						C70.99,99.3,70.99,99.3,70.99,99.29z"/>
				</g>
				<g>
					<path class="st0" d="M70.33,99.66l-0.47,0.27c0,0.01,0.01,0.01,0.01,0.01c0,0,0,0.01,0,0.01l0.47-0.27
						C70.34,99.67,70.33,99.67,70.33,99.66z"/>
				</g>
				<g>
					<path class="st0" d="M68.76,100.58c0,0,0,0.01,0,0.01l0.88-0.51c0,0,0,0-0.01-0.01c0-0.01,0-0.01-0.01-0.02l-0.88,0.51
						C68.75,100.57,68.75,100.58,68.76,100.58z"/>
				</g>
				<g>
					<path class="st0" d="M68.51,100.72c0,0,0-0.01,0-0.01l-0.55,0.32l0.01,0.02l0.55-0.32C68.52,100.73,68.52,100.73,68.51,100.72z
						"/>
				</g>
			</g>
		</g>
		<g>
			<g>
				<circle class="st0" cx="63.22" cy="103.77" r="3.17"/>
			</g>
			<g>
				<path class="st0" d="M66.16,103.77c0-1.62-1.32-2.94-2.94-2.94c-1.62,0-2.94,1.32-2.94,2.94c0,1.62,1.32,2.94,2.94,2.94
					C64.84,106.71,66.16,105.39,66.16,103.77z"/>
			</g>
			<g>
				<g>
					<g>
						<path class="st0" d="M63.11,101.29c0.04,0,0.07-0.01,0.11-0.01c0.55,0,1.06,0.18,1.47,0.49c0-0.05,0.03-0.1,0.08-0.12
							c-0.43-0.32-0.97-0.51-1.55-0.51c-0.01,0-0.02,0-0.03,0C63.19,101.2,63.17,101.26,63.11,101.29z"/>
					</g>
					<g>
						<path class="st0" d="M65.79,103.95c-0.04,0-0.07-0.02-0.09-0.04c-0.08,1.3-1.16,2.34-2.48,2.34c-1.37,0-2.49-1.12-2.49-2.49
							c0-1.3,1-2.37,2.28-2.48c-0.06-0.02-0.09-0.07-0.09-0.13c-1.31,0.15-2.32,1.26-2.32,2.61c0,1.45,1.18,2.63,2.63,2.63
							c1.39,0,2.53-1.09,2.62-2.45C65.82,103.95,65.81,103.95,65.79,103.95z"/>
					</g>
					<g>
						<path class="st0" d="M64.87,101.91c0.3,0.27,0.54,0.62,0.69,1.01c0.02-0.03,0.06-0.06,0.11-0.06c0.01,0,0.01,0,0.02,0
							c-0.15-0.41-0.4-0.78-0.73-1.06C64.95,101.85,64.92,101.9,64.87,101.91z"/>
					</g>
					<g>
						<path class="st0" d="M65.62,103.14c0.05,0.18,0.08,0.37,0.08,0.57c0.02-0.02,0.05-0.03,0.09-0.03c0.02,0,0.04,0,0.05,0.01
							c-0.01-0.2-0.04-0.39-0.09-0.58c-0.02,0.02-0.05,0.04-0.1,0.04C65.65,103.14,65.64,103.14,65.62,103.14z"/>
					</g>
				</g>
				<g>
					<g>
						<path class="st0" d="M64.54,102.12c0.01-0.04,0.03-0.08,0.07-0.1c-0.2-0.16-0.42-0.28-0.66-0.36c0,0.04-0.03,0.08-0.06,0.11
							C64.12,101.85,64.34,101.97,64.54,102.12z"/>
					</g>
					<g>
						<path class="st0" d="M65,102.43c-0.02,0.03-0.06,0.06-0.1,0.06c0.27,0.35,0.43,0.79,0.43,1.27c0,1.16-0.95,2.11-2.11,2.11
							c-1.16,0-2.11-0.95-2.11-2.11c0-1.16,0.95-2.11,2.11-2.11c0.15,0,0.29,0.02,0.43,0.05c-0.02-0.04-0.01-0.09,0.01-0.12
							c-0.14-0.03-0.28-0.05-0.43-0.05c-1.23,0-2.23,1-2.23,2.23c0,1.23,1,2.23,2.23,2.23c1.23,0,2.23-1,2.23-2.23
							C65.45,103.27,65.28,102.81,65,102.43z"/>
					</g>
				</g>
				<g>
					<g>
						<path class="st0" d="M63.95,102.21c0-0.04,0.02-0.07,0.04-0.09c-0.15-0.07-0.32-0.13-0.49-0.15c0.01,0.03,0,0.07-0.02,0.1
							C63.66,102.09,63.81,102.14,63.95,102.21z"/>
					</g>
					<g>
						<path class="st0" d="M64.22,102.24c0,0.04-0.02,0.07-0.05,0.09c0.18,0.12,0.34,0.27,0.46,0.45c0.02-0.03,0.04-0.05,0.08-0.06
							C64.58,102.53,64.41,102.37,64.22,102.24z"/>
					</g>
					<g>
						<path class="st0" d="M64.85,102.94c-0.02,0.02-0.05,0.04-0.09,0.04c0.09,0.18,0.16,0.38,0.18,0.59
							c0.03-0.02,0.07-0.02,0.1-0.01c0,0,0,0,0,0C65.02,103.34,64.95,103.13,64.85,102.94z"/>
					</g>
					<g>
						<path class="st0" d="M65.02,103.85c0,0-0.01,0-0.01,0c0,0,0,0,0,0c-0.02,0-0.04-0.01-0.05-0.01c-0.04,0.92-0.8,1.66-1.73,1.66
							c-0.95,0-1.73-0.78-1.73-1.73c0-0.94,0.75-1.7,1.68-1.73c-0.01-0.02-0.01-0.05-0.01-0.08c0-0.01,0.01-0.01,0.01-0.02
							c-0.99,0.03-1.79,0.84-1.79,1.83c0,1.01,0.82,1.83,1.83,1.83c0.98,0,1.78-0.78,1.83-1.74
							C65.04,103.86,65.03,103.86,65.02,103.85z"/>
					</g>
				</g>
				<g>
					<g>
						<path class="st0" d="M63.65,102.49c0.22,0.07,0.42,0.2,0.57,0.37c0.02-0.02,0.05-0.04,0.07-0.04c-0.16-0.18-0.37-0.32-0.6-0.4
							C63.68,102.44,63.67,102.47,63.65,102.49z"/>
					</g>
					<g>
						<path class="st0" d="M64.62,103.76c0.02,0,0.03,0,0.04,0.01c0-0.17-0.03-0.32-0.08-0.47c-0.02,0.01-0.03,0.01-0.05,0.01
							c-0.01,0-0.02,0-0.03-0.01c0.05,0.15,0.09,0.3,0.09,0.47C64.58,103.76,64.6,103.76,64.62,103.76z"/>
					</g>
					<g>
						<path class="st0" d="M64.62,104.04c-0.03,0-0.05-0.01-0.07-0.02c-0.12,0.62-0.67,1.1-1.33,1.1c-0.74,0-1.35-0.61-1.35-1.35
							s0.61-1.35,1.35-1.35c0.07,0,0.14,0.01,0.21,0.02c-0.01-0.03-0.01-0.06,0-0.09c-0.07-0.01-0.14-0.02-0.21-0.02
							c-0.79,0-1.43,0.64-1.43,1.43c0,0.79,0.64,1.43,1.43,1.43c0.7,0,1.28-0.5,1.41-1.17C64.62,104.04,64.62,104.04,64.62,104.04z"
							/>
					</g>
				</g>
				<g>
					<g>
						<path class="st0" d="M63.22,102.8c0.03,0,0.06,0,0.1,0c0-0.02,0-0.04,0-0.07c-0.03,0-0.07,0-0.1,0c-0.28,0-0.54,0.11-0.73,0.3
							c0.02,0.01,0.03,0.03,0.04,0.06C62.71,102.91,62.95,102.8,63.22,102.8z"/>
					</g>
					<g>
						<path class="st0" d="M64.17,103.35c-0.01,0.02-0.03,0.03-0.06,0.04c0.05,0.12,0.08,0.25,0.08,0.39c0,0.1-0.01,0.19-0.04,0.28
							c0.02,0,0.04,0.01,0.06,0.02c0.03-0.1,0.05-0.2,0.05-0.3C64.26,103.62,64.22,103.48,64.17,103.35z"/>
					</g>
					<g>
						<path class="st0" d="M64.02,103.12c-0.12-0.14-0.27-0.26-0.44-0.32c0,0.02-0.01,0.04-0.02,0.06c0.16,0.06,0.3,0.16,0.41,0.29
							C63.98,103.14,64,103.13,64.02,103.12z"/>
					</g>
					<g>
						<path class="st0" d="M64.04,104.29c-0.17,0.27-0.48,0.45-0.82,0.45c-0.54,0-0.97-0.44-0.97-0.97c0-0.18,0.05-0.35,0.14-0.49
							c-0.01,0-0.01,0-0.02,0c-0.01,0-0.02-0.01-0.04-0.01c0,0-0.01,0-0.01-0.01c-0.09,0.15-0.13,0.32-0.13,0.51
							c0,0.57,0.47,1.04,1.04,1.04c0.37,0,0.7-0.2,0.88-0.49C64.08,104.31,64.06,104.3,64.04,104.29z"/>
					</g>
				</g>
				<g>
					<g>
						<path class="st0" d="M63.74,104.04c0.01,0.01,0.03,0.02,0.03,0.04c0.05-0.09,0.08-0.2,0.08-0.31c0-0.04-0.01-0.08-0.01-0.12
							c-0.01,0.01-0.03,0.02-0.04,0.03c0,0.03,0.01,0.06,0.01,0.09C63.81,103.87,63.79,103.96,63.74,104.04z"/>
					</g>
					<g>
						<path class="st0" d="M63.56,104.25c-0.1,0.07-0.22,0.11-0.34,0.11c-0.12,0-0.23-0.04-0.33-0.1c0,0.02-0.01,0.03-0.01,0.05
							c0.1,0.06,0.21,0.1,0.34,0.1c0.14,0,0.27-0.05,0.38-0.13C63.59,104.27,63.57,104.26,63.56,104.25z"/>
					</g>
					<g>
						<path class="st0" d="M63.22,103.13c-0.05,0-0.11,0.01-0.16,0.02c0.01,0.01,0.01,0.03,0.01,0.05c0.05-0.01,0.1-0.02,0.15-0.02
							c0.12,0,0.23,0.04,0.32,0.1c0.01-0.01,0.02-0.03,0.03-0.04C63.47,103.17,63.35,103.13,63.22,103.13z"/>
					</g>
					<g>
						<path class="st0" d="M62.85,103.31c-0.01-0.01-0.02-0.02-0.03-0.04c-0.14,0.12-0.24,0.29-0.24,0.49
							c0,0.13,0.04,0.26,0.11,0.36c0.01-0.01,0.03-0.01,0.05-0.02c-0.07-0.1-0.11-0.21-0.11-0.34
							C62.63,103.58,62.71,103.42,62.85,103.31z"/>
					</g>
				</g>
				<g>
					<g>
						<path class="st0" d="M63.22,104.01c-0.13,0-0.24-0.11-0.24-0.24s0.11-0.24,0.24-0.24c0.13,0,0.24,0.11,0.24,0.24
							S63.35,104.01,63.22,104.01z M63.22,103.55c-0.12,0-0.21,0.1-0.21,0.21c0,0.12,0.1,0.21,0.21,0.21c0.12,0,0.21-0.1,0.21-0.21
							C63.44,103.65,63.34,103.55,63.22,103.55z"/>
					</g>
				</g>
			</g>
		</g>
		<g>
			<path class="st0" d="M67.41,104.83c-0.11,0.04-0.2,0.1-0.24,0.16c0,0,0.02-0.1,0.04-0.21c0.01-0.1,0.02-0.21,0.02-0.21
				c0,0.01,0.01,0.02,0.01,0.02s0.04,0.05,0.13,0.06c0.07,0.01,0.19-0.08,0.27-0.26c0.07-0.17,0.09-0.34,0.09-0.34
				s-0.13,0.03-0.27,0.1c-0.11,0.05-0.18,0.12-0.21,0.19c0,0,0-0.11,0-0.21c0-0.03,0-0.05,0-0.08c0-0.02,0-0.05,0-0.07
				c0-0.04,0-0.07,0-0.07c0.01,0.01,0.01,0.02,0.01,0.02s0.05,0.04,0.14,0.04c0.08,0,0.18-0.1,0.23-0.3
				c0.04-0.18,0.04-0.34,0.04-0.34s-0.12,0.05-0.25,0.14c-0.1,0.07-0.16,0.15-0.19,0.22c0,0-0.01-0.1-0.03-0.21
				c-0.01-0.05-0.01-0.1-0.02-0.14c-0.01-0.04-0.01-0.06-0.01-0.06c0.01,0.01,0.01,0.02,0.01,0.02s0.05,0.04,0.14,0.02
				c0.07-0.01,0.16-0.13,0.19-0.33c0.01-0.09,0.01-0.18,0.01-0.24c0-0.06-0.01-0.1-0.01-0.1s-0.11,0.06-0.23,0.17
				c-0.09,0.08-0.14,0.17-0.16,0.24c0,0-0.01-0.03-0.02-0.08c-0.01-0.05-0.03-0.11-0.05-0.17c-0.02-0.06-0.04-0.12-0.05-0.17
				c-0.01-0.05-0.03-0.08-0.03-0.08c0.02-0.02,0.05-0.04,0.07-0.1c0.03-0.08-0.01-0.23-0.14-0.37c-0.12-0.13-0.24-0.2-0.24-0.2
				s-0.01,0.14,0.01,0.31c0.01,0.18,0.08,0.31,0.15,0.35c0.05,0.03,0.09,0.03,0.11,0.03c0,0,0.01,0.02,0.02,0.04
				c0.01,0.03,0.02,0.06,0.03,0.1c0.02,0.07,0.04,0.14,0.04,0.14c-0.05-0.06-0.14-0.1-0.26-0.11c-0.15-0.02-0.28,0-0.28,0
				s0.02,0.03,0.04,0.07c0.03,0.04,0.07,0.1,0.12,0.17c0.1,0.14,0.23,0.2,0.3,0.18c0.09-0.02,0.12-0.07,0.12-0.07s0-0.01,0.01-0.02
				c0,0,0.01,0.03,0.02,0.06c0.01,0.04,0.02,0.09,0.03,0.14c0.01,0.05,0.02,0.1,0.03,0.14c0.01,0.04,0.01,0.06,0.01,0.06
				c-0.04-0.06-0.13-0.12-0.24-0.15c-0.15-0.04-0.28-0.03-0.28-0.03s0.01,0.03,0.04,0.08c0.02,0.05,0.06,0.11,0.1,0.18
				c0.04,0.07,0.09,0.13,0.14,0.17c0.05,0.04,0.09,0.06,0.13,0.05c0.09-0.01,0.13-0.06,0.13-0.06s0-0.01,0.01-0.02
				c0,0,0,0.03,0.01,0.06c0,0.04,0.01,0.09,0.01,0.14c0,0.05,0.01,0.1,0.01,0.14c0,0.04,0,0.07,0,0.07
				c-0.03-0.07-0.11-0.13-0.22-0.18c-0.15-0.06-0.27-0.07-0.27-0.07s0.01,0.03,0.02,0.08c0.02,0.05,0.04,0.12,0.07,0.19
				c0.07,0.16,0.17,0.25,0.25,0.25c0.09,0,0.13-0.04,0.13-0.04s0.01-0.01,0.01-0.02c0,0,0,0.03,0,0.07c0,0.04-0.01,0.09-0.01,0.14
				c0,0.05-0.01,0.1-0.01,0.14c0,0.04-0.01,0.06-0.01,0.06c-0.03-0.07-0.09-0.15-0.19-0.21c-0.14-0.08-0.26-0.1-0.26-0.1
				s0,0.03,0.01,0.08c0.01,0.05,0.03,0.12,0.05,0.2c0.04,0.16,0.13,0.27,0.2,0.29c0.09,0.02,0.14-0.02,0.14-0.02
				s0.01-0.01,0.01-0.02c0,0,0,0.03-0.01,0.06c-0.01,0.04-0.02,0.09-0.03,0.14c-0.03,0.1-0.06,0.2-0.06,0.2
				c-0.02-0.08-0.07-0.16-0.15-0.23c-0.06-0.05-0.12-0.08-0.16-0.11c-0.04-0.02-0.07-0.04-0.07-0.04s0,0.01,0,0.02
				c0,0.01,0,0.03,0,0.06c0,0.05,0,0.12,0.01,0.2c0.01,0.09,0.03,0.16,0.06,0.21c0.03,0.05,0.06,0.09,0.1,0.1
				c0.08,0.03,0.14,0,0.14,0s0.01,0,0.02-0.01c0,0-0.04,0.1-0.08,0.19c-0.02,0.05-0.04,0.1-0.06,0.13
				c-0.02,0.03-0.03,0.06-0.03,0.06c0-0.08-0.04-0.17-0.12-0.25c-0.11-0.12-0.22-0.18-0.22-0.18s-0.01,0.03-0.01,0.08
				c0,0.05-0.01,0.12-0.02,0.19c-0.01,0.16,0.03,0.29,0.1,0.33c0.08,0.05,0.14,0.03,0.14,0.03s0.01,0,0.02-0.01
				c0,0-0.01,0.02-0.03,0.06c-0.02,0.03-0.05,0.08-0.08,0.12c-0.03,0.04-0.06,0.08-0.08,0.11c-0.02,0.03-0.04,0.05-0.04,0.05
				c0.01-0.08,0-0.17-0.06-0.27c-0.08-0.13-0.18-0.22-0.18-0.22s-0.01,0.03-0.03,0.07c-0.02,0.05-0.04,0.11-0.06,0.18
				c-0.02,0.08-0.03,0.15-0.03,0.21c0,0.06,0.02,0.11,0.05,0.13c0.06,0.06,0.13,0.06,0.13,0.06s0.01,0,0.02-0.01
				c0,0-0.02,0.02-0.05,0.05c-0.03,0.03-0.06,0.07-0.1,0.1c-0.04,0.03-0.08,0.07-0.11,0.1c-0.03,0.03-0.05,0.04-0.05,0.04
				c0.03-0.07,0.03-0.17,0-0.28c-0.02-0.07-0.06-0.13-0.08-0.18c-0.03-0.04-0.04-0.07-0.04-0.07s-0.02,0.03-0.04,0.07
				c-0.03,0.04-0.06,0.1-0.1,0.17c-0.04,0.08-0.06,0.15-0.07,0.21c-0.01,0.06,0,0.11,0.02,0.14c0.05,0.07,0.11,0.08,0.11,0.08
				s0.01,0,0.02,0c0,0-0.02,0.02-0.05,0.04c-0.03,0.02-0.08,0.05-0.12,0.08c-0.04,0.03-0.09,0.05-0.12,0.08
				c-0.03,0.02-0.06,0.03-0.06,0.03c0.04-0.07,0.06-0.16,0.05-0.28c-0.02-0.15-0.08-0.27-0.08-0.27s-0.02,0.02-0.06,0.06
				c-0.03,0.04-0.08,0.09-0.13,0.15c-0.1,0.13-0.14,0.27-0.1,0.34c0.04,0.08,0.1,0.1,0.1,0.1s0.01,0,0.02,0c0,0-0.02,0.01-0.06,0.03
				c-0.03,0.02-0.08,0.04-0.13,0.06c-0.09,0.04-0.19,0.08-0.19,0.08c0.05-0.06,0.09-0.15,0.09-0.27c0-0.16-0.03-0.28-0.03-0.28
				s-0.03,0.02-0.07,0.05c-0.04,0.03-0.1,0.08-0.15,0.14c-0.12,0.12-0.18,0.25-0.15,0.32c0.03,0.08,0.09,0.11,0.09,0.11
				s0.01,0,0.02,0c0,0-0.02,0.01-0.06,0.02c-0.04,0.01-0.09,0.03-0.14,0.04c-0.05,0.02-0.1,0.03-0.14,0.04
				c-0.04,0.01-0.06,0.02-0.06,0.02c0.06-0.05,0.1-0.14,0.12-0.26c0.02-0.15,0-0.28,0-0.28s-0.12,0.06-0.24,0.16
				c-0.14,0.11-0.21,0.23-0.19,0.3c0.02,0.09,0.07,0.12,0.07,0.12s0.01,0,0.02,0.01c0,0-0.2,0.04-0.4,0.08
				c-0.1,0.02-0.2,0.03-0.28,0.04c-0.05,0-0.08,0.01-0.11,0.01h-0.1c-0.02,0-0.06,0-0.11-0.01c-0.08-0.01-0.18-0.02-0.28-0.04
				c-0.2-0.03-0.4-0.08-0.4-0.08c0.01,0,0.02-0.01,0.02-0.01s0.05-0.03,0.07-0.12c0.02-0.08-0.05-0.19-0.19-0.3
				c-0.13-0.1-0.24-0.16-0.24-0.16s-0.02,0.13,0,0.28c0.02,0.12,0.06,0.2,0.12,0.26c0,0-0.03-0.01-0.06-0.02
				c-0.04-0.01-0.09-0.02-0.14-0.04c-0.05-0.01-0.1-0.03-0.14-0.04c-0.04-0.01-0.06-0.02-0.06-0.02c0.01,0,0.02,0,0.02,0
				s0.06-0.03,0.09-0.11c0.03-0.07-0.03-0.2-0.15-0.32c-0.06-0.06-0.11-0.1-0.15-0.14c-0.04-0.03-0.07-0.05-0.07-0.05
				s-0.03,0.12-0.03,0.28c0,0.12,0.04,0.21,0.09,0.27c0,0-0.1-0.04-0.19-0.08c-0.05-0.02-0.09-0.04-0.13-0.06
				c-0.04-0.02-0.06-0.03-0.06-0.03c0.01,0,0.02,0,0.02,0s0.06-0.02,0.1-0.1c0.03-0.07,0-0.2-0.1-0.34
				c-0.05-0.06-0.09-0.12-0.13-0.15c-0.03-0.04-0.06-0.06-0.06-0.06s-0.05,0.11-0.08,0.27c-0.02,0.12,0.01,0.21,0.05,0.28
				c0,0-0.02-0.01-0.06-0.03c-0.03-0.02-0.08-0.05-0.12-0.08c-0.04-0.03-0.09-0.06-0.12-0.08c-0.03-0.02-0.05-0.04-0.05-0.04
				c0.01,0,0.02,0,0.02,0s0.06-0.01,0.11-0.08c0.02-0.03,0.03-0.08,0.02-0.14c-0.01-0.06-0.03-0.13-0.07-0.21
				c-0.04-0.07-0.07-0.13-0.1-0.17c-0.03-0.04-0.04-0.07-0.04-0.07s-0.02,0.03-0.04,0.07c-0.03,0.04-0.06,0.11-0.08,0.18
				c-0.04,0.11-0.03,0.21,0,0.28c0,0-0.02-0.02-0.05-0.04c-0.03-0.03-0.07-0.06-0.11-0.1c-0.04-0.03-0.07-0.07-0.1-0.1
				c-0.03-0.03-0.05-0.05-0.05-0.05c0.01,0,0.02,0.01,0.02,0.01s0.06,0,0.13-0.06c0.03-0.03,0.04-0.07,0.05-0.13
				c0.01-0.06,0-0.13-0.03-0.21c-0.02-0.08-0.04-0.14-0.06-0.18c-0.01-0.05-0.03-0.07-0.03-0.07s-0.09,0.08-0.18,0.22
				c-0.06,0.1-0.07,0.2-0.06,0.27c0,0-0.02-0.02-0.04-0.05c-0.02-0.03-0.06-0.07-0.08-0.11c-0.03-0.04-0.06-0.09-0.08-0.12
				c-0.02-0.03-0.03-0.06-0.03-0.06c0.01,0.01,0.02,0.01,0.02,0.01s0.06,0.02,0.14-0.03c0.07-0.04,0.11-0.17,0.1-0.33
				c0-0.08-0.01-0.14-0.02-0.19c-0.01-0.05-0.01-0.08-0.01-0.08s-0.11,0.06-0.22,0.18c-0.08,0.09-0.12,0.18-0.12,0.25
				c0,0-0.01-0.02-0.03-0.06c-0.02-0.03-0.04-0.08-0.06-0.13c-0.04-0.1-0.08-0.19-0.08-0.19c0.01,0.01,0.02,0.01,0.02,0.01
				s0.06,0.03,0.14,0c0.04-0.01,0.07-0.05,0.1-0.1c0.03-0.05,0.04-0.12,0.06-0.21c0.01-0.08,0.01-0.15,0.01-0.2
				c0-0.03,0-0.05,0-0.06c0-0.01,0-0.02,0-0.02s-0.03,0.01-0.07,0.04c-0.04,0.02-0.1,0.06-0.16,0.11c-0.09,0.07-0.14,0.16-0.15,0.23
				c0,0-0.03-0.1-0.06-0.2c-0.02-0.05-0.03-0.1-0.03-0.14c-0.01-0.04-0.01-0.06-0.01-0.06c0.01,0.01,0.01,0.02,0.01,0.02
				s0.05,0.04,0.14,0.02c0.07-0.01,0.16-0.12,0.2-0.29c0.02-0.08,0.04-0.15,0.05-0.2c0.01-0.05,0.01-0.08,0.01-0.08
				s-0.12,0.03-0.26,0.1c-0.1,0.06-0.17,0.13-0.19,0.21c0,0,0-0.03-0.01-0.06c0-0.04-0.01-0.09-0.01-0.14c0-0.05-0.01-0.1-0.01-0.14
				c0-0.04,0-0.07,0-0.07c0.01,0.01,0.01,0.02,0.01,0.02s0.05,0.04,0.13,0.04c0.07,0,0.18-0.1,0.25-0.25
				c0.03-0.07,0.06-0.14,0.07-0.19c0.02-0.05,0.02-0.08,0.02-0.08s-0.13,0.01-0.27,0.07c-0.11,0.04-0.19,0.11-0.22,0.18
				c0,0,0-0.03,0-0.07c0-0.04,0.01-0.09,0.01-0.14c0-0.05,0.01-0.1,0.01-0.14c0-0.04,0.01-0.06,0.01-0.06
				c0,0.01,0.01,0.02,0.01,0.02s0.04,0.05,0.13,0.06c0.04,0,0.08-0.01,0.13-0.05c0.05-0.04,0.1-0.09,0.14-0.17
				c0.04-0.07,0.07-0.13,0.1-0.18c0.02-0.05,0.04-0.08,0.04-0.08s-0.13-0.01-0.28,0.03c-0.11,0.03-0.2,0.08-0.24,0.15
				c0,0,0-0.03,0.01-0.06c0.01-0.04,0.02-0.09,0.03-0.14c0.01-0.05,0.02-0.1,0.03-0.14c0.01-0.04,0.02-0.06,0.02-0.06
				c0,0.01,0.01,0.02,0.01,0.02s0.03,0.05,0.12,0.07c0.07,0.02,0.2-0.05,0.3-0.18c0.05-0.06,0.09-0.12,0.12-0.17
				c0.03-0.04,0.04-0.07,0.04-0.07s-0.13-0.02-0.28,0c-0.11,0.01-0.2,0.06-0.26,0.11c0,0,0.02-0.07,0.04-0.14
				c0.01-0.03,0.02-0.07,0.03-0.1c0.01-0.03,0.02-0.04,0.02-0.04c0.02,0,0.06-0.01,0.11-0.03c0.07-0.04,0.13-0.17,0.15-0.35
				c0.01-0.17,0.01-0.31,0.01-0.31s-0.12,0.07-0.24,0.2c-0.13,0.14-0.17,0.3-0.14,0.37c0.02,0.05,0.05,0.08,0.07,0.1
				c0,0-0.01,0.03-0.03,0.08c-0.01,0.05-0.03,0.11-0.05,0.17c-0.02,0.06-0.03,0.12-0.05,0.17c-0.01,0.05-0.02,0.08-0.02,0.08
				c-0.02-0.07-0.07-0.16-0.16-0.24c-0.12-0.11-0.23-0.17-0.23-0.17s-0.01,0.04-0.01,0.1c0,0.06,0,0.15,0.01,0.24
				c0.03,0.2,0.11,0.31,0.19,0.33c0.09,0.01,0.14-0.02,0.14-0.02s0.01-0.01,0.01-0.02c0,0-0.01,0.03-0.01,0.06
				c-0.01,0.04-0.02,0.09-0.02,0.14c-0.01,0.1-0.03,0.21-0.03,0.21c-0.03-0.07-0.09-0.15-0.19-0.22c-0.13-0.09-0.25-0.14-0.25-0.14
				s0,0.16,0.04,0.34c0.05,0.2,0.15,0.3,0.23,0.3c0.09,0,0.14-0.04,0.14-0.04s0.01-0.01,0.01-0.02c0,0,0,0.03,0,0.07
				c0,0.02,0,0.04,0,0.07c0,0.02,0,0.05,0,0.08c0,0.11,0,0.21,0,0.21c-0.04-0.07-0.11-0.14-0.21-0.19c-0.14-0.07-0.27-0.1-0.27-0.1
				s0.03,0.16,0.09,0.34c0.08,0.19,0.2,0.27,0.27,0.26c0.09-0.01,0.13-0.06,0.13-0.06s0-0.01,0.01-0.02c0,0,0.01,0.11,0.02,0.21
				c0.02,0.1,0.04,0.21,0.04,0.21c-0.05-0.06-0.13-0.12-0.24-0.16c-0.08-0.02-0.15-0.04-0.2-0.05c-0.05-0.01-0.08-0.01-0.08-0.01
				s0,0.01,0.01,0.03c0,0.02,0.01,0.04,0.03,0.07c0.02,0.06,0.06,0.14,0.11,0.22c0.03,0.04,0.05,0.08,0.08,0.11
				c0.03,0.03,0.06,0.05,0.09,0.07c0.06,0.04,0.11,0.05,0.14,0.04c0.08-0.02,0.12-0.08,0.12-0.08s0-0.01,0.01-0.02
				c0,0,0.03,0.1,0.06,0.2c0.02,0.05,0.03,0.1,0.04,0.14c0.01,0.04,0.02,0.06,0.02,0.06c-0.03-0.03-0.07-0.05-0.11-0.07
				c-0.04-0.02-0.09-0.04-0.15-0.05c-0.15-0.03-0.28-0.02-0.28-0.02s0.02,0.04,0.05,0.09c0.02,0.03,0.03,0.06,0.06,0.1
				c0.03,0.03,0.05,0.07,0.08,0.11c0.13,0.16,0.27,0.2,0.34,0.17c0.08-0.04,0.1-0.1,0.1-0.1s0-0.01,0-0.02c0,0,0.01,0.02,0.02,0.06
				c0.02,0.04,0.04,0.08,0.06,0.13c0.01,0.02,0.02,0.05,0.03,0.07c0.01,0.02,0.02,0.04,0.03,0.06c0.02,0.03,0.03,0.06,0.03,0.06
				c-0.06-0.04-0.17-0.07-0.28-0.07c-0.16,0-0.28,0.03-0.28,0.03s0.02,0.04,0.07,0.09c0.04,0.05,0.11,0.12,0.18,0.18
				c0.16,0.13,0.31,0.15,0.37,0.1c0.03-0.03,0.05-0.06,0.06-0.08c0.01-0.02,0.01-0.04,0.01-0.04s0-0.01,0-0.02c0,0,0,0.01,0.01,0.02
				c0.01,0.01,0.02,0.02,0.03,0.04c0.02,0.03,0.06,0.07,0.09,0.11c0.07,0.08,0.14,0.16,0.14,0.16c-0.07-0.03-0.17-0.03-0.29-0.01
				c-0.15,0.03-0.27,0.09-0.27,0.09s0.03,0.03,0.08,0.07c0.05,0.04,0.13,0.09,0.21,0.14c0.19,0.1,0.33,0.08,0.38,0.02
				c0.06-0.07,0.05-0.13,0.05-0.13s0-0.01-0.01-0.02c0,0,0.02,0.02,0.05,0.04c0.03,0.03,0.07,0.06,0.11,0.09
				c0.08,0.07,0.17,0.13,0.17,0.13c-0.08-0.01-0.18,0-0.28,0.05c-0.15,0.06-0.25,0.14-0.25,0.14s0.04,0.02,0.09,0.05
				c0.03,0.01,0.06,0.03,0.1,0.05c0.04,0.02,0.08,0.03,0.13,0.04c0.2,0.06,0.34,0.02,0.38-0.05c0.04-0.08,0.03-0.14,0.03-0.14
				s0-0.01-0.01-0.02c0,0,0.02,0.02,0.06,0.04c0.03,0.02,0.08,0.05,0.12,0.07c0.05,0.03,0.09,0.05,0.13,0.07
				c0.03,0.02,0.06,0.03,0.06,0.03c-0.08,0-0.17,0.03-0.27,0.1c-0.13,0.09-0.22,0.18-0.22,0.18s0.04,0.02,0.1,0.03
				c0.06,0.02,0.15,0.04,0.24,0.05c0.2,0.03,0.33-0.04,0.36-0.11c0.03-0.08,0.01-0.14,0.01-0.14s0-0.01-0.01-0.02
				c0,0,0.1,0.04,0.19,0.08c0.1,0.04,0.2,0.07,0.2,0.07c-0.08,0.01-0.17,0.05-0.26,0.13c-0.12,0.11-0.19,0.21-0.19,0.21
				s0.16,0.04,0.34,0.04c0.2,0,0.32-0.08,0.34-0.15c0.02-0.09-0.01-0.14-0.01-0.14s-0.01-0.01-0.02-0.02c0,0,0.03,0.01,0.06,0.02
				c0.04,0.01,0.09,0.02,0.14,0.04c0.05,0.01,0.1,0.03,0.14,0.04c0.04,0.01,0.06,0.01,0.06,0.01c-0.07,0.02-0.16,0.07-0.24,0.16
				c-0.1,0.12-0.16,0.23-0.16,0.23s0.16,0.02,0.34,0c0.2-0.03,0.31-0.11,0.32-0.19c0.01-0.09-0.02-0.14-0.02-0.14
				s-0.01-0.01-0.02-0.01c0,0,0.15,0.03,0.29,0.05c0.15,0.02,0.3,0.03,0.3,0.03h0.06c0,0,0.15-0.01,0.3-0.03
				c0.15-0.02,0.29-0.05,0.29-0.05c-0.01,0.01-0.02,0.01-0.02,0.01s-0.04,0.05-0.02,0.14c0.01,0.08,0.12,0.16,0.32,0.19
				c0.18,0.02,0.34,0,0.34,0s-0.06-0.11-0.16-0.23c-0.08-0.09-0.16-0.14-0.24-0.16c0,0,0.03-0.01,0.06-0.01
				c0.04-0.01,0.09-0.02,0.14-0.04c0.05-0.01,0.1-0.03,0.14-0.04c0.04-0.01,0.06-0.02,0.06-0.02c-0.01,0.01-0.02,0.02-0.02,0.02
				s-0.03,0.06-0.01,0.14c0.02,0.07,0.14,0.15,0.34,0.15c0.18,0,0.34-0.04,0.34-0.04s-0.07-0.11-0.19-0.21
				c-0.09-0.08-0.18-0.12-0.26-0.13c0,0,0.1-0.04,0.2-0.07c0.1-0.04,0.19-0.08,0.19-0.08c-0.01,0.01-0.01,0.02-0.01,0.02
				s-0.02,0.06,0.01,0.14c0.03,0.07,0.16,0.13,0.36,0.11c0.09-0.01,0.18-0.03,0.24-0.05c0.06-0.02,0.1-0.03,0.1-0.03
				s-0.09-0.09-0.22-0.18c-0.1-0.07-0.19-0.09-0.27-0.1c0,0,0.02-0.01,0.06-0.03c0.03-0.02,0.08-0.04,0.13-0.07
				c0.05-0.03,0.09-0.05,0.12-0.07c0.03-0.02,0.06-0.04,0.06-0.04c-0.01,0.01-0.01,0.02-0.01,0.02s-0.02,0.06,0.03,0.14
				c0.04,0.07,0.18,0.11,0.38,0.05c0.05-0.01,0.09-0.03,0.13-0.04c0.04-0.02,0.07-0.03,0.1-0.05c0.06-0.03,0.09-0.05,0.09-0.05
				s-0.1-0.08-0.25-0.14c-0.11-0.05-0.21-0.06-0.28-0.05c0,0,0.09-0.06,0.17-0.13c0.04-0.03,0.08-0.07,0.11-0.09
				c0.03-0.03,0.05-0.04,0.05-0.04c-0.01,0.01-0.01,0.02-0.01,0.02s0,0.06,0.05,0.13c0.05,0.06,0.2,0.07,0.38-0.02
				c0.09-0.04,0.16-0.1,0.21-0.14c0.05-0.04,0.08-0.07,0.08-0.07s-0.12-0.05-0.27-0.09c-0.12-0.03-0.22-0.02-0.29,0.01
				c0,0,0.07-0.08,0.14-0.16c0.03-0.04,0.06-0.08,0.09-0.11c0.01-0.02,0.02-0.03,0.03-0.04c0.01-0.01,0.01-0.02,0.01-0.02
				c0,0.01,0,0.02,0,0.02s0,0.02,0.01,0.04c0.01,0.02,0.03,0.05,0.06,0.08c0.06,0.05,0.21,0.03,0.37-0.1
				c0.07-0.06,0.14-0.13,0.18-0.18c0.04-0.05,0.07-0.09,0.07-0.09s-0.13-0.03-0.28-0.03c-0.12,0-0.22,0.03-0.28,0.07
				c0,0,0.01-0.02,0.03-0.06c0.01-0.02,0.02-0.04,0.03-0.06c0.01-0.02,0.02-0.05,0.03-0.07c0.02-0.05,0.05-0.09,0.06-0.13
				c0.01-0.04,0.02-0.06,0.02-0.06c0,0.01,0,0.02,0,0.02s0.02,0.06,0.1,0.1c0.07,0.03,0.2-0.01,0.34-0.17
				c0.03-0.04,0.06-0.07,0.08-0.11c0.02-0.03,0.04-0.07,0.06-0.1c0.03-0.06,0.05-0.09,0.05-0.09s-0.13-0.01-0.28,0.02
				c-0.06,0.01-0.11,0.03-0.15,0.05c-0.05,0.02-0.08,0.04-0.11,0.07c0,0,0.01-0.02,0.02-0.06c0.02-0.04,0.03-0.09,0.04-0.14
				c0.03-0.1,0.06-0.2,0.06-0.2c0,0.01,0.01,0.02,0.01,0.02s0.03,0.06,0.12,0.08c0.04,0.01,0.09,0,0.14-0.04
				c0.03-0.02,0.06-0.04,0.09-0.07c0.03-0.03,0.05-0.07,0.08-0.11c0.05-0.08,0.08-0.16,0.11-0.22c0.01-0.03,0.02-0.05,0.03-0.07
				c0-0.02,0.01-0.03,0.01-0.03s-0.03,0-0.08,0.01C67.55,104.79,67.49,104.8,67.41,104.83z"/>
		</g>
	</g>
</g>
</svg>
