<?xml version="1.0" encoding="utf-8"?>
<!-- Generator: Adobe Illustrator 23.0.3, SVG Export Plug-In . SVG Version: 6.00 Build 0)  -->
<svg version="1.1" id="Layer_1" xmlns="http://www.w3.org/2000/svg" xmlns:xlink="http://www.w3.org/1999/xlink" x="0px" y="0px"
	 viewBox="0 0 145.95 199.13" style="enable-background:new 0 0 145.95 199.13;" xml:space="preserve">
<style type="text/css">
	.st0{fill:#00A5A7;}
	.st1{fill:#FFFFFF;}
	.st2{opacity:0.29;}
	.st3{opacity:0.31;}
</style>
<g>
	<g>
		<path class="st0" d="M122.99,0H22.96C10.29,0,0,10.29,0,22.96v153.2c0,12.67,10.29,22.96,22.96,22.96h100.03
			c12.65,0,22.96-10.29,22.96-22.96V22.96C145.95,10.29,135.64,0,122.99,0z M138.94,176.16c0,8.79-7.16,15.95-15.95,15.95H22.96
			c-8.81,0-15.97-7.16-15.97-15.95V22.96c0-8.81,7.16-15.95,15.97-15.95h100.03c8.79,0,15.95,7.14,15.95,15.95V176.16z"/>
	</g>
	<path class="st1" d="M123.84,194.29H22.11c-9.7,0-17.56-7.86-17.56-17.56V22.4c0-9.7,7.86-17.56,17.56-17.56h101.73
		c9.7,0,17.56,7.86,17.56,17.56v154.32C141.4,186.42,133.54,194.29,123.84,194.29z"/>
	<g>
		<path class="st0" d="M39.37,0v18.4c0,0.58,0.05,1.16,0.15,1.72c0.82,4.86,5.04,8.55,10.13,8.55h46.67c5.07,0,9.3-3.7,10.11-8.55
			c0.11-0.56,0.16-1.14,0.16-1.72V0H39.37z M99.57,18.4c0,0.63-0.18,1.23-0.51,1.72c-0.56,0.92-1.59,1.54-2.75,1.54H49.64
			c-1.18,0-2.19-0.62-2.75-1.54c-0.33-0.49-0.51-1.09-0.51-1.72V7.01h53.19V18.4z"/>
	</g>
	<g>
		<path class="st0" d="M99.57,16.6v1.79c0,0.63-0.18,1.23-0.51,1.72h23.76v156.64H23.11V20.12h23.78c-0.33-0.49-0.51-1.09-0.51-1.72
			V16.6H19.61v163.66h106.71V16.6H99.57z"/>
	</g>
	<g>
		<path class="st0" d="M43.63,55.19h-7.55c-3.51,0-6.37-2.86-6.37-6.37v-7.55c0-3.51,2.86-6.37,6.37-6.37h7.55
			c3.51,0,6.37,2.86,6.37,6.37v7.55C49.99,52.34,47.14,55.19,43.63,55.19z M36.08,38.42c-1.58,0-2.86,1.28-2.86,2.86v7.55
			c0,1.58,1.28,2.86,2.86,2.86h7.55c1.58,0,2.86-1.28,2.86-2.86v-7.55c0-1.58-1.28-2.86-2.86-2.86H36.08z"/>
	</g>
	<g>
		<path class="st0" d="M113.39,66.92H32.55c-0.97,0-1.75-0.78-1.75-1.75s0.78-1.75,1.75-1.75h80.85c0.97,0,1.75,0.78,1.75,1.75
			S114.36,66.92,113.39,66.92z"/>
	</g>
	<g>
		<path class="st0" d="M113.39,79.46H32.55c-0.97,0-1.75-0.78-1.75-1.75s0.78-1.75,1.75-1.75h80.85c0.97,0,1.75,0.78,1.75,1.75
			S114.36,79.46,113.39,79.46z"/>
	</g>
	<g>
		<path class="st0" d="M113.39,92.01H32.55c-0.97,0-1.75-0.78-1.75-1.75s0.78-1.75,1.75-1.75h80.85c0.97,0,1.75,0.78,1.75,1.75
			S114.36,92.01,113.39,92.01z"/>
	</g>
	<g>
		<path class="st0" d="M113.39,104.56H32.55c-0.97,0-1.75-0.78-1.75-1.75s0.78-1.75,1.75-1.75h80.85c0.97,0,1.75,0.78,1.75,1.75
			S114.36,104.56,113.39,104.56z"/>
	</g>
	<g>
		<path class="st0" d="M113.39,117.11H32.55c-0.97,0-1.75-0.78-1.75-1.75s0.78-1.75,1.75-1.75h80.85c0.97,0,1.75,0.78,1.75,1.75
			S114.36,117.11,113.39,117.11z"/>
	</g>
	<g>
		<path class="st0" d="M113.39,129.66H32.55c-0.97,0-1.75-0.78-1.75-1.75c0-0.97,0.78-1.75,1.75-1.75h80.85
			c0.97,0,1.75,0.78,1.75,1.75C115.15,128.87,114.36,129.66,113.39,129.66z"/>
	</g>
	<g>
		<g class="st2">
			<polygon class="st0" points="87.93,162.65 78.9,161.63 82.53,153.29 78.9,144.96 87.93,143.94 93.33,136.63 98.74,143.94 
				107.77,144.96 104.14,153.29 107.77,161.63 98.74,162.65 93.33,169.96 			"/>
		</g>
		<g class="st3">
			
				<ellipse transform="matrix(0.9999 -0.0103 0.0103 0.9999 -1.5793 0.9728)" class="st0" cx="93.33" cy="153.29" rx="7.88" ry="7.88"/>
		</g>
		<g>
			<path class="st0" d="M97.99,153.16c0,2.58-2.09,4.68-4.68,4.68c-2.58,0-4.68-2.09-4.68-4.68c0-2.58,2.09-4.68,4.68-4.68
				C95.9,148.49,97.99,150.58,97.99,153.16z M97.65,153.16c0-2.39-1.95-4.34-4.34-4.34c-2.39,0-4.34,1.95-4.34,4.34
				c0,2.39,1.95,4.34,4.34,4.34C95.71,157.5,97.65,155.56,97.65,153.16z"/>
		</g>
		<g>
			<path class="st0" d="M87.93,162.65l-9.03-1.02l3.63-8.33l-3.63-8.33l9.03-1.02l5.4-7.31l5.4,7.31l9.03,1.02l-3.63,8.33l3.63,8.33
				l-9.03,1.02l-5.4,7.31L87.93,162.65z M88.1,144.23l-8.75,0.99l3.52,8.07l-3.52,8.07l8.75,0.99l5.23,7.08l5.23-7.08l8.75-0.99
				l-3.52-8.07l3.52-8.07l-8.75-0.99l-5.23-7.08L88.1,144.23z"/>
		</g>
		<g>
			<path class="st0" d="M93.33,161.48c-4.52,0-8.19-3.67-8.19-8.19c0-4.52,3.67-8.19,8.19-8.19s8.19,3.67,8.19,8.19
				C101.52,157.81,97.85,161.48,93.33,161.48z M93.33,145.42c-4.35,0-7.88,3.53-7.88,7.88c0,4.35,3.53,7.88,7.88,7.88
				s7.88-3.53,7.88-7.88C101.21,148.94,97.69,145.42,93.33,145.42z"/>
		</g>
		<g>
			<g>
				<g>
					<path class="st0" d="M98.59,143.99l-1.33,2.27c0.06,0.04,0.11,0.08,0.17,0.12l1.34-2.3C98.71,144.06,98.65,144.03,98.59,143.99
						z"/>
				</g>
			</g>
			<g>
				<g>
					<path class="st0" d="M98.04,143.38l-1.18,2.62c0.06,0.03,0.11,0.06,0.17,0.1l1.15-2.55C98.12,143.5,98.08,143.44,98.04,143.38z
						"/>
				</g>
			</g>
			<g>
				<g>
					<path class="st0" d="M97.52,142.71l-1.08,3.09c0.05,0.02,0.11,0.05,0.16,0.08l1.05-3C97.6,142.82,97.56,142.77,97.52,142.71z"
						/>
				</g>
			</g>
			<g>
				<g>
					<path class="st0" d="M97.01,142l-0.98,3.62c0.05,0.02,0.1,0.04,0.15,0.06l0.95-3.51C97.09,142.12,97.05,142.06,97.01,142z"/>
				</g>
			</g>
			<g>
				<g>
					<path class="st0" d="M96.5,141.27C96.5,141.27,96.5,141.27,96.5,141.27l-0.88,4.21c0.05,0.01,0.09,0.03,0.14,0.04l0.86-4.1
						C96.57,141.37,96.53,141.32,96.5,141.27z"/>
				</g>
			</g>
			<g>
				<g>
					<path class="st0" d="M95.86,141.32c0.05,0,0.08,0.02,0.11,0.04l0.1-0.65c-0.03-0.04-0.07-0.09-0.1-0.13L95.86,141.32
						C95.85,141.33,95.85,141.32,95.86,141.32z"/>
				</g>
				<g>
					<path class="st0" d="M95.86,141.74c-0.03,0-0.05-0.01-0.07-0.01l-0.57,3.64c0.04,0.01,0.08,0.02,0.12,0.03l0.58-3.67
						C95.89,141.73,95.88,141.74,95.86,141.74z"/>
				</g>
			</g>
			<g>
				<g>
					<path class="st0" d="M95.44,139.91l-0.62,5.37c0.04,0.01,0.07,0.01,0.11,0.02l0.61-5.27C95.5,139.98,95.47,139.95,95.44,139.91
						z"/>
				</g>
			</g>
			<g>
				<g>
					<path class="st0" d="M94.72,141.56l-0.29,3.65c0.03,0,0.06,0.01,0.09,0.01l0.29-3.62C94.77,141.59,94.74,141.58,94.72,141.56z"
						/>
				</g>
				<g>
					<path class="st0" d="M94.84,141.2l0.15-1.86c-0.03-0.04-0.06-0.07-0.08-0.11l-0.16,2C94.77,141.21,94.8,141.2,94.84,141.2z"/>
				</g>
			</g>
			<g>
				<g>
					<path class="st0" d="M94.37,140.19l0.08-1.6c-0.02-0.03-0.04-0.05-0.05-0.08l-0.02,0l-0.09,1.73
						C94.31,140.22,94.34,140.2,94.37,140.19z"/>
				</g>
				<g>
					<path class="st0" d="M94.28,140.51l-0.08,1.62c0.03,0.01,0.05,0.02,0.07,0.03l0.08-1.59C94.32,140.56,94.3,140.53,94.28,140.51
						z"/>
				</g>
				<g>
					<path class="st0" d="M94.18,142.56l-0.13,2.6c0.02,0,0.05,0,0.07,0.01l0.13-2.63C94.23,142.55,94.2,142.56,94.18,142.56z"/>
				</g>
			</g>
			<g>
				<g>
					<path class="st0" d="M93.87,139.1l0.03-1.27l-0.06,0l-0.03,1.28C93.83,139.1,93.85,139.1,93.87,139.1z"/>
				</g>
				<g>
					<path class="st0" d="M93.82,141.16C93.82,141.16,93.82,141.16,93.82,141.16l0.05-1.66c-0.02,0-0.04,0-0.06-0.01l-0.04,1.68
						C93.78,141.17,93.8,141.16,93.82,141.16z"/>
				</g>
				<g>
					<path class="st0" d="M93.72,143.44c0.02,0,0.03,0.01,0.05,0.01l0.04-1.88c-0.02,0-0.04-0.01-0.06-0.01L93.72,143.44
						C93.72,143.44,93.72,143.44,93.72,143.44z"/>
				</g>
				<g>
					<path class="st0" d="M93.72,143.85c-0.01,0-0.01,0-0.02,0l-0.03,1.29c0.02,0,0.04,0,0.06,0l0.03-1.3
						C93.75,143.85,93.74,143.85,93.72,143.85z"/>
				</g>
			</g>
			<g>
				<g>
					<path class="st0" d="M89.38,146.21l-1.31-2.23c-0.01,0.01-0.02,0.02-0.02,0.04c-0.04,0.06-0.09,0.09-0.14,0.09l1.31,2.24
						C89.28,146.3,89.33,146.26,89.38,146.21z"/>
				</g>
			</g>
			<g>
				<g>
					<path class="st0" d="M89.79,145.96l-1.21-2.69c-0.04,0.06-0.09,0.12-0.13,0.18l1.17,2.6
						C89.68,146.02,89.73,145.99,89.79,145.96z"/>
				</g>
			</g>
			<g>
				<g>
					<path class="st0" d="M90.22,145.78l-1.11-3.18c-0.04,0.05-0.09,0.11-0.13,0.16l1.08,3.08
						C90.11,145.82,90.17,145.8,90.22,145.78z"/>
				</g>
			</g>
			<g>
				<g>
					<path class="st0" d="M90.65,145.63l-1-3.7c-0.04,0.05-0.08,0.1-0.12,0.15l0.97,3.59C90.55,145.67,90.6,145.65,90.65,145.63z"/>
				</g>
			</g>
			<g>
				<g>
					<path class="st0" d="M91.06,145.52l-0.89-4.25c-0.01,0.02-0.02,0.03-0.03,0.05c-0.03,0.03-0.05,0.07-0.08,0.1l0.86,4.14
						C90.97,145.54,91.02,145.53,91.06,145.52z"/>
				</g>
			</g>
			<g>
				<g>
					<path class="st0" d="M91.46,145.41l-0.77-4.85c-0.03,0.05-0.07,0.09-0.1,0.14l0.75,4.74
						C91.38,145.43,91.42,145.42,91.46,145.41z"/>
				</g>
			</g>
			<g>
				<g>
					<path class="st0" d="M91.86,145.34l-0.63-5.48l-0.01,0c-0.03,0.04-0.06,0.08-0.09,0.12l0.62,5.38
						C91.79,145.35,91.82,145.35,91.86,145.34z"/>
				</g>
			</g>
			<g>
				<g>
					<path class="st0" d="M91.85,140.49c0.01,0,0.01,0,0.02,0l-0.1-1.31l-0.05,0c-0.01,0.02-0.02,0.03-0.03,0.05l0.1,1.27
						C91.8,140.49,91.82,140.49,91.85,140.49z"/>
				</g>
				<g>
					<path class="st0" d="M92.25,145.29l-0.35-4.39c-0.01,0-0.02,0-0.03,0.01c-0.02,0.01-0.04,0.02-0.06,0.03l0.35,4.37
						C92.19,145.29,92.22,145.29,92.25,145.29z"/>
				</g>
			</g>
			<g>
				<g>
					<path class="st0" d="M92.29,139.44c0.02,0,0.03,0.01,0.05,0.01l-0.05-0.95l-0.07,0l0.05,0.94
						C92.27,139.45,92.28,139.44,92.29,139.44z"/>
				</g>
				<g>
					<path class="st0" d="M92.37,141.36c0.02,0,0.04,0.01,0.06,0.01l-0.08-1.53c-0.02,0.01-0.04,0.01-0.07,0.01c0,0,0,0-0.01,0
						l0.07,1.51C92.36,141.36,92.37,141.36,92.37,141.36z"/>
				</g>
				<g>
					<path class="st0" d="M92.62,145.24l-0.06-1.23c-0.01,0-0.01,0-0.02,0c-0.02,0-0.04-0.01-0.06-0.01l0.06,1.24
						C92.57,145.25,92.6,145.24,92.62,145.24z"/>
				</g>
				<g>
					<path class="st0" d="M92.54,143.61l-0.09-1.85c-0.02,0.01-0.05,0.01-0.07,0.02l0.09,1.85
						C92.49,143.61,92.52,143.61,92.54,143.61z"/>
				</g>
			</g>
			<g>
				<g>
					<path class="st0" d="M92.87,139.81l-0.05-1.98l-0.06,0l0.05,1.97C92.83,139.8,92.85,139.8,92.87,139.81z"/>
				</g>
				<g>
					<path class="st0" d="M92.82,140.21l0.03,1.22c0.02-0.01,0.04-0.01,0.06-0.01l-0.03-1.22C92.86,140.2,92.84,140.2,92.82,140.21z
						"/>
				</g>
				<g>
					<path class="st0" d="M92.91,141.82c-0.02,0-0.04-0.01-0.05-0.01l0.03,1.11c0,0,0,0,0,0c0.02,0,0.04,0.01,0.06,0.01
						L92.91,141.82C92.91,141.82,92.91,141.82,92.91,141.82z"/>
				</g>
				<g>
					<path class="st0" d="M92.99,145.21l-0.04-1.89c-0.02,0.01-0.04,0.01-0.06,0.01l0.04,1.88
						C92.95,145.22,92.97,145.22,92.99,145.21z"/>
				</g>
			</g>
			<g>
				<g>
					<path class="st0" d="M93.36,138.12v-0.97h-0.04v0.98C93.33,138.12,93.34,138.12,93.36,138.12z"/>
				</g>
				<g>
					<path class="st0" d="M93.31,138.52v1.02c0.01,0,0.01,0,0.02,0c0.01,0,0.01,0,0.02,0v-1.02
						C93.34,138.52,93.33,138.52,93.31,138.52z"/>
				</g>
				<g>
					<path class="st0" d="M93.33,139.95c-0.01,0-0.01,0-0.02,0v0.71c0.02,0,0.03,0,0.04,0.01v-0.72
						C93.35,139.95,93.34,139.95,93.33,139.95z"/>
				</g>
				<g>
					<path class="st0" d="M93.31,141.06v0.79c0.01,0,0.02-0.01,0.03-0.01c0,0,0.01,0,0.01,0v-0.8
						C93.34,141.06,93.33,141.06,93.31,141.06z"/>
				</g>
				<g>
					<path class="st0" d="M93.33,143.75c0.01,0,0.01,0,0.02,0v-1.49c0,0-0.01,0-0.01,0c-0.01,0-0.02,0-0.03-0.01v1.5
						C93.32,143.75,93.33,143.75,93.33,143.75z"/>
				</g>
				<g>
					<path class="st0" d="M93.33,144.17c-0.01,0-0.01,0-0.02,0v0.95h0.04v-0.95C93.35,144.16,93.34,144.17,93.33,144.17z"/>
				</g>
			</g>
		</g>
		<g>
			<g>
				<g>
					<path class="st0" d="M88.01,144.02l1.3,2.29c0.06-0.03,0.13-0.06,0.19-0.08l-1.32-2.31C88.14,143.96,88.08,143.99,88.01,144.02
						z"/>
				</g>
			</g>
			<g>
				<g>
					<path class="st0" d="M87.22,144.2l1.68,2.34c0.06-0.03,0.11-0.07,0.17-0.1l-1.63-2.27C87.36,144.19,87.29,144.19,87.22,144.2z"
						/>
				</g>
			</g>
			<g>
				<g>
					<path class="st0" d="M86.38,144.31l2.13,2.48c0.05-0.03,0.1-0.07,0.14-0.1l-2.07-2.41C86.51,144.3,86.44,144.31,86.38,144.31z"
						/>
				</g>
			</g>
			<g>
				<g>
					<path class="st0" d="M85.5,144.4l2.65,2.66c0.04-0.03,0.08-0.07,0.13-0.1l-2.56-2.58C85.64,144.39,85.57,144.4,85.5,144.4z"/>
				</g>
			</g>
			<g>
				<g>
					<path class="st0" d="M84.61,144.48C84.61,144.48,84.61,144.48,84.61,144.48l3.21,2.87c0.03-0.03,0.07-0.06,0.1-0.1l-3.12-2.79
						C84.74,144.47,84.68,144.47,84.61,144.48z"/>
				</g>
			</g>
			<g>
				<g>
					<path class="st0" d="M84.34,145.06c0.02-0.04,0.06-0.06,0.09-0.08l-0.51-0.42c-0.06,0.01-0.11,0.02-0.17,0.02L84.34,145.06
						C84.34,145.06,84.34,145.06,84.34,145.06z"/>
				</g>
				<g>
					<path class="st0" d="M84.7,145.27c-0.01,0.02-0.03,0.04-0.05,0.05l2.87,2.32c0.03-0.03,0.06-0.06,0.09-0.09l-2.89-2.34
						C84.71,145.23,84.71,145.25,84.7,145.27z"/>
				</g>
			</g>
			<g>
				<g>
					<path class="st0" d="M82.9,144.71l4.34,3.22c0.02-0.03,0.05-0.05,0.07-0.08l-4.26-3.17C83,144.7,82.95,144.71,82.9,144.71z"/>
				</g>
			</g>
			<g>
				<g>
					<path class="st0" d="M83.98,146.16l3.02,2.08c0.02-0.02,0.04-0.05,0.06-0.07l-2.99-2.06
						C84.03,146.13,84.01,146.15,83.98,146.16z"/>
				</g>
				<g>
					<path class="st0" d="M83.72,145.88l-1.54-1.06c-0.05,0.01-0.09,0.01-0.14,0.02l1.65,1.14
						C83.7,145.94,83.71,145.91,83.72,145.88z"/>
				</g>
			</g>
			<g>
				<g>
					<path class="st0" d="M82.62,145.78l-1.35-0.87c-0.03,0-0.06,0-0.09,0.01l-0.01,0.02l1.46,0.94
						C82.61,145.84,82.61,145.81,82.62,145.78z"/>
				</g>
				<g>
					<path class="st0" d="M82.85,146.02l1.36,0.88c0.02-0.02,0.04-0.04,0.06-0.05l-1.34-0.86
						C82.91,146.01,82.88,146.01,82.85,146.02z"/>
				</g>
				<g>
					<path class="st0" d="M84.58,147.13l2.19,1.41c0.01-0.02,0.03-0.04,0.04-0.06l-2.22-1.43
						C84.59,147.08,84.59,147.11,84.58,147.13z"/>
				</g>
			</g>
			<g>
				<g>
					<path class="st0" d="M81.42,145.66L80.34,145l-0.03,0.05l1.1,0.67C81.41,145.7,81.42,145.68,81.42,145.66z"/>
				</g>
				<g>
					<path class="st0" d="M83.18,146.74C83.18,146.74,83.18,146.74,83.18,146.74l-1.41-0.87c-0.01,0.02-0.02,0.03-0.04,0.04
						l1.43,0.87C83.17,146.77,83.17,146.76,83.18,146.74z"/>
				</g>
				<g>
					<path class="st0" d="M85.11,147.97c0.01-0.02,0.02-0.03,0.03-0.04l-1.6-0.98c-0.01,0.02-0.03,0.03-0.04,0.04L85.11,147.97
						C85.11,147.97,85.11,147.97,85.11,147.97z"/>
				</g>
				<g>
					<path class="st0" d="M85.47,148.17c0,0.01-0.01,0.01-0.01,0.01l1.11,0.67c0.01-0.02,0.02-0.03,0.03-0.05l-1.11-0.68
						C85.48,148.15,85.47,148.16,85.47,148.17z"/>
				</g>
			</g>
			<g>
				<g>
					<path class="st0" d="M85.34,153.11l-2.58,0.02c0.01,0.01,0.01,0.03,0.02,0.04c0.03,0.06,0.03,0.12,0.01,0.17l2.6-0.02
						C85.36,153.25,85.35,153.18,85.34,153.11z"/>
				</g>
			</g>
			<g>
				<g>
					<path class="st0" d="M85.32,152.63l-2.93-0.3c0.03,0.07,0.06,0.13,0.09,0.2l2.84,0.29C85.32,152.76,85.32,152.69,85.32,152.63z
						"/>
				</g>
			</g>
			<g>
				<g>
					<path class="st0" d="M85.38,152.17l-3.31-0.63c0.02,0.06,0.05,0.13,0.07,0.19l3.21,0.61
						C85.36,152.28,85.37,152.22,85.38,152.17z"/>
				</g>
			</g>
			<g>
				<g>
					<path class="st0" d="M85.47,151.73l-3.7-0.98c0.02,0.06,0.05,0.12,0.07,0.18l3.6,0.95C85.45,151.83,85.46,151.78,85.47,151.73z
						"/>
				</g>
			</g>
			<g>
				<g>
					<path class="st0" d="M85.57,151.31l-4.13-1.36c0.01,0.02,0.02,0.04,0.02,0.05c0.02,0.04,0.03,0.08,0.05,0.12l4.02,1.32
						C85.55,151.4,85.56,151.35,85.57,151.31z"/>
				</g>
			</g>
			<g>
				<g>
					<path class="st0" d="M85.69,150.91l-4.58-1.76c0.02,0.05,0.05,0.11,0.07,0.16l4.48,1.72
						C85.66,150.99,85.68,150.95,85.69,150.91z"/>
				</g>
			</g>
			<g>
				<g>
					<path class="st0" d="M85.82,150.53l-5.07-2.19l0,0.01c0.02,0.05,0.04,0.09,0.06,0.14l4.97,2.15
						C85.8,150.6,85.81,150.56,85.82,150.53z"/>
				</g>
			</g>
			<g>
				<g>
					<path class="st0" d="M81.61,148.11c0-0.01,0.01-0.01,0.01-0.01l-1.18-0.56l-0.02,0.05c0.01,0.02,0.02,0.04,0.02,0.05l1.15,0.55
						C81.59,148.16,81.6,148.14,81.61,148.11z"/>
				</g>
				<g>
					<path class="st0" d="M85.97,150.17l-3.98-1.89c0,0.01,0,0.02-0.01,0.03c0,0.02,0,0.04-0.01,0.07l3.96,1.88
						C85.94,150.22,85.96,150.19,85.97,150.17z"/>
				</g>
			</g>
			<g>
				<g>
					<path class="st0" d="M80.93,147.21c0.01-0.02,0.02-0.03,0.03-0.04l-0.84-0.43l-0.03,0.07l0.84,0.43
						C80.92,147.22,80.92,147.22,80.93,147.21z"/>
				</g>
				<g>
					<path class="st0" d="M82.63,148.09c0.01-0.02,0.03-0.03,0.04-0.04l-1.36-0.7c0,0.02-0.01,0.04-0.02,0.07c0,0,0,0,0,0l1.34,0.69
						C82.63,148.1,82.63,148.1,82.63,148.09z"/>
				</g>
				<g>
					<path class="st0" d="M86.12,149.82l-1.09-0.56c0,0.01,0,0.01-0.01,0.02c-0.01,0.02-0.03,0.03-0.04,0.05l1.11,0.57
						C86.1,149.86,86.11,149.84,86.12,149.82z"/>
				</g>
				<g>
					<path class="st0" d="M84.66,149.07l-1.65-0.84c0,0.02-0.01,0.05-0.02,0.07l1.65,0.84C84.64,149.12,84.65,149.09,84.66,149.07z"
						/>
				</g>
			</g>
			<g>
				<g>
					<path class="st0" d="M81.54,146.89l-1.74-0.95l-0.03,0.05l1.73,0.95C81.51,146.92,81.52,146.9,81.54,146.89z"/>
				</g>
				<g>
					<path class="st0" d="M81.86,147.13l1.07,0.58c0-0.02,0.01-0.04,0.02-0.06l-1.07-0.58C81.87,147.09,81.86,147.11,81.86,147.13z"
						/>
				</g>
				<g>
					<path class="st0" d="M83.3,147.86c-0.01,0.02-0.02,0.03-0.04,0.04l0.97,0.53c0,0,0,0,0,0c0.01-0.02,0.02-0.03,0.04-0.04
						L83.3,147.86C83.3,147.86,83.3,147.86,83.3,147.86z"/>
				</g>
				<g>
					<path class="st0" d="M86.28,149.48l-1.66-0.91c0,0.02-0.01,0.04-0.02,0.06l1.65,0.9C86.26,149.52,86.27,149.5,86.28,149.48z"/>
				</g>
			</g>
			<g>
				<g>
					<path class="st0" d="M80.32,145.62l-0.84-0.49l-0.02,0.04l0.85,0.49C80.31,145.65,80.31,145.64,80.32,145.62z"/>
				</g>
				<g>
					<path class="st0" d="M80.64,145.86l0.89,0.51c0-0.01,0-0.01,0.01-0.02c0-0.01,0.01-0.01,0.01-0.02l-0.88-0.51
						C80.66,145.84,80.65,145.85,80.64,145.86z"/>
				</g>
				<g>
					<path class="st0" d="M81.89,146.56c0,0.01-0.01,0.01-0.01,0.02l0.61,0.35c0.01-0.01,0.02-0.02,0.03-0.03l-0.62-0.36
						C81.9,146.54,81.9,146.55,81.89,146.56z"/>
				</g>
				<g>
					<path class="st0" d="M82.84,147.13l0.69,0.4c0-0.01,0-0.02,0.01-0.03c0,0,0.01-0.01,0.01-0.01l-0.69-0.4
						C82.85,147.1,82.85,147.12,82.84,147.13z"/>
				</g>
				<g>
					<path class="st0" d="M85.18,148.46c0-0.01,0.01-0.01,0.01-0.02l-1.29-0.75c0,0,0,0.01,0,0.01c-0.01,0.01-0.01,0.01-0.02,0.02
						l1.3,0.75C85.18,148.47,85.18,148.46,85.18,148.46z"/>
				</g>
				<g>
					<path class="st0" d="M85.54,148.67c0,0.01-0.01,0.01-0.01,0.02l0.82,0.47l0.02-0.04l-0.82-0.47
						C85.55,148.65,85.55,148.66,85.54,148.67z"/>
				</g>
			</g>
		</g>
		<g>
			<g>
				<g>
					<path class="st0" d="M82.76,153.2l2.63,0.02c0.01-0.07,0.01-0.14,0.02-0.21l-2.66-0.02C82.77,153.06,82.77,153.13,82.76,153.2z
						"/>
				</g>
			</g>
			<g>
				<g>
					<path class="st0" d="M82.51,153.98l2.86-0.29c0-0.06,0-0.13,0-0.19l-2.78,0.28C82.57,153.85,82.54,153.92,82.51,153.98z"/>
				</g>
			</g>
			<g>
				<g>
					<path class="st0" d="M82.19,154.77l3.21-0.61c-0.01-0.06-0.01-0.12-0.01-0.17l-3.12,0.59
						C82.24,154.64,82.22,154.7,82.19,154.77z"/>
				</g>
			</g>
			<g>
				<g>
					<path class="st0" d="M81.83,155.56l3.63-0.96c-0.01-0.05-0.02-0.1-0.02-0.16l-3.52,0.93C81.89,155.44,81.86,155.5,81.83,155.56
						z"/>
				</g>
			</g>
			<g>
				<g>
					<path class="st0" d="M81.45,156.37C81.45,156.37,81.45,156.37,81.45,156.37l4.09-1.34c-0.01-0.05-0.02-0.09-0.03-0.14
						l-3.98,1.31C81.51,156.26,81.48,156.32,81.45,156.37z"/>
				</g>
			</g>
			<g>
				<g>
					<path class="st0" d="M81.82,156.9c-0.02-0.04-0.03-0.08-0.02-0.12l-0.62,0.24c-0.02,0.05-0.04,0.1-0.06,0.16L81.82,156.9
						C81.82,156.9,81.82,156.9,81.82,156.9z"/>
				</g>
				<g>
					<path class="st0" d="M82.18,156.69c0.01,0.02,0.02,0.04,0.02,0.07l3.44-1.32c-0.01-0.04-0.02-0.08-0.03-0.12l-3.47,1.33
						C82.15,156.66,82.17,156.67,82.18,156.69z"/>
				</g>
			</g>
			<g>
				<g>
					<path class="st0" d="M80.8,157.97l4.96-2.15c-0.01-0.03-0.02-0.07-0.03-0.1l-4.87,2.11C80.84,157.88,80.82,157.92,80.8,157.97z
						"/>
				</g>
			</g>
			<g>
				<g>
					<path class="st0" d="M82.59,157.77l3.31-1.57c-0.01-0.03-0.02-0.06-0.03-0.09l-3.28,1.56C82.59,157.7,82.6,157.74,82.59,157.77
						z"/>
				</g>
				<g>
					<path class="st0" d="M82.22,157.84l-1.69,0.8c-0.02,0.04-0.03,0.08-0.05,0.13l1.81-0.86
						C82.26,157.89,82.24,157.87,82.22,157.84z"/>
				</g>
			</g>
			<g>
				<g>
					<path class="st0" d="M81.58,158.75l-1.43,0.73c-0.01,0.03-0.03,0.06-0.04,0.08l0.01,0.02l1.54-0.79
						C81.63,158.79,81.61,158.78,81.58,158.75z"/>
				</g>
				<g>
					<path class="st0" d="M81.9,158.67l1.44-0.74c-0.01-0.03-0.01-0.05-0.01-0.08l-1.41,0.73C81.92,158.61,81.92,158.65,81.9,158.67
						z"/>
				</g>
				<g>
					<path class="st0" d="M83.73,157.73l2.32-1.19c-0.01-0.02-0.02-0.04-0.03-0.07l-2.35,1.2C83.7,157.69,83.72,157.71,83.73,157.73
						z"/>
				</g>
			</g>
			<g>
				<g>
					<path class="st0" d="M80.88,159.73l-1.12,0.61l0.03,0.05l1.13-0.62C80.91,159.76,80.9,159.74,80.88,159.73z"/>
				</g>
				<g>
					<path class="st0" d="M82.7,158.75C82.7,158.74,82.7,158.74,82.7,158.75l-1.46,0.79c0.01,0.02,0.02,0.04,0.02,0.06l1.47-0.81
						C82.72,158.77,82.71,158.76,82.7,158.75z"/>
				</g>
				<g>
					<path class="st0" d="M84.72,157.69c-0.01-0.02-0.01-0.03-0.02-0.05l-1.65,0.9c0.01,0.02,0.01,0.04,0.02,0.06L84.72,157.69
						C84.72,157.69,84.72,157.69,84.72,157.69z"/>
				</g>
				<g>
					<path class="st0" d="M85.08,157.48c0,0.01,0,0.01,0.01,0.02l1.14-0.62c-0.01-0.02-0.02-0.03-0.03-0.05l-1.14,0.63
						C85.06,157.46,85.07,157.47,85.08,157.48z"/>
				</g>
			</g>
			<g>
				<g>
					<path class="st0" d="M89.29,160.06l-1.28,2.24c0.01,0,0.03,0,0.04,0c0.07,0,0.12,0.03,0.15,0.07l1.28-2.26
						C89.42,160.11,89.36,160.09,89.29,160.06z"/>
				</g>
			</g>
			<g>
				<g>
					<path class="st0" d="M88.87,159.83l-1.72,2.39c0.07,0.01,0.15,0.02,0.22,0.02l1.67-2.32C88.97,159.9,88.92,159.87,88.87,159.83
						z"/>
				</g>
			</g>
			<g>
				<g>
					<path class="st0" d="M88.49,159.55l-2.2,2.55c0.07,0.01,0.14,0.02,0.2,0.03l2.13-2.47C88.58,159.63,88.54,159.59,88.49,159.55z
						"/>
				</g>
			</g>
			<g>
				<g>
					<path class="st0" d="M88.16,159.26l-2.7,2.72c0.06,0.01,0.13,0.02,0.19,0.03l2.63-2.64C88.24,159.33,88.2,159.29,88.16,159.26z
						"/>
				</g>
			</g>
			<g>
				<g>
					<path class="st0" d="M87.85,158.96l-3.24,2.9c0.02,0,0.04,0,0.06,0.01c0.04,0.01,0.08,0.01,0.13,0.02l3.15-2.82
						C87.91,159.02,87.88,158.99,87.85,158.96z"/>
				</g>
			</g>
			<g>
				<g>
					<path class="st0" d="M87.56,158.66l-3.82,3.09c0.06,0.01,0.11,0.01,0.17,0.02l3.73-3.02
						C87.61,158.72,87.59,158.69,87.56,158.66z"/>
				</g>
			</g>
			<g>
				<g>
					<path class="st0" d="M87.3,158.35l-4.43,3.29l0,0.01c0.05,0.01,0.1,0.01,0.15,0.02l4.35-3.23
						C87.34,158.41,87.32,158.38,87.3,158.35z"/>
				</g>
			</g>
			<g>
				<g>
					<path class="st0" d="M83.1,160.79c0-0.01,0-0.01-0.01-0.01l-1.08,0.74l0.03,0.04c0.02,0,0.04,0,0.06,0.01l1.05-0.72
						C83.13,160.83,83.11,160.81,83.1,160.79z"/>
				</g>
				<g>
					<path class="st0" d="M87.06,158.04l-3.63,2.5c0.01,0.01,0.01,0.01,0.02,0.02c0.02,0.01,0.04,0.02,0.05,0.04l3.61-2.49
						C87.09,158.09,87.07,158.07,87.06,158.04z"/>
				</g>
			</g>
			<g>
				<g>
					<path class="st0" d="M81.97,160.93c-0.01-0.02-0.01-0.03-0.02-0.05l-0.8,0.51l0.04,0.06l0.79-0.51
						C81.99,160.94,81.98,160.94,81.97,160.93z"/>
				</g>
				<g>
					<path class="st0" d="M83.59,159.9c-0.01-0.02-0.01-0.04-0.02-0.06l-1.29,0.83c0.02,0.01,0.03,0.03,0.05,0.05c0,0,0,0,0,0.01
						l1.27-0.82C83.6,159.9,83.59,159.9,83.59,159.9z"/>
				</g>
				<g>
					<path class="st0" d="M86.83,157.74l-1.03,0.67c0,0,0.01,0.01,0.01,0.01c0.01,0.02,0.01,0.04,0.02,0.06l1.04-0.67
						C86.86,157.78,86.84,157.76,86.83,157.74z"/>
				</g>
				<g>
					<path class="st0" d="M85.45,158.63l-1.55,1c0.02,0.01,0.04,0.03,0.05,0.06l1.55-1C85.48,158.67,85.47,158.65,85.45,158.63z"/>
				</g>
			</g>
			<g>
				<g>
					<path class="st0" d="M82,160.24l-1.69,1.03l0.03,0.05l1.68-1.02C82.01,160.28,82.01,160.26,82,160.24z"/>
				</g>
				<g>
					<path class="st0" d="M82.37,160.09l1.04-0.63c-0.01-0.01-0.03-0.03-0.04-0.04l-1.04,0.63
						C82.35,160.06,82.36,160.07,82.37,160.09z"/>
				</g>
				<g>
					<path class="st0" d="M83.73,159.2c0.01,0.02,0.01,0.03,0.02,0.05l0.95-0.58c0,0,0,0,0,0c-0.01-0.02-0.01-0.04-0.02-0.05
						L83.73,159.2C83.72,159.2,83.73,159.2,83.73,159.2z"/>
				</g>
				<g>
					<path class="st0" d="M86.62,157.43L85,158.42c0.01,0.01,0.03,0.03,0.04,0.04l1.61-0.98C86.64,157.47,86.63,157.45,86.62,157.43
						z"/>
				</g>
			</g>
			<g>
				<g>
					<path class="st0" d="M80.3,160.67l-0.84,0.49l0.02,0.04l0.85-0.49C80.31,160.69,80.31,160.68,80.3,160.67z"/>
				</g>
				<g>
					<path class="st0" d="M80.66,160.5l0.89-0.51c0-0.01-0.01-0.01-0.01-0.02c0-0.01,0-0.01-0.01-0.02l-0.88,0.51
						C80.65,160.48,80.66,160.49,80.66,160.5z"/>
				</g>
				<g>
					<path class="st0" d="M81.89,159.77c0,0.01,0,0.01,0.01,0.02l0.61-0.35c-0.01-0.01-0.01-0.03-0.01-0.04l-0.62,0.36
						C81.88,159.76,81.89,159.76,81.89,159.77z"/>
				</g>
				<g>
					<path class="st0" d="M82.86,159.23l0.69-0.4c-0.01-0.01-0.01-0.01-0.02-0.02c0,0,0-0.01,0-0.01l-0.69,0.4
						C82.85,159.21,82.86,159.22,82.86,159.23z"/>
				</g>
				<g>
					<path class="st0" d="M85.18,157.87c0-0.01,0-0.01-0.01-0.02l-1.29,0.75c0,0,0.01,0.01,0.01,0.01c0.01,0.01,0.01,0.02,0.01,0.03
						l1.3-0.75C85.19,157.88,85.19,157.88,85.18,157.87z"/>
				</g>
				<g>
					<path class="st0" d="M85.54,157.66c0,0.01,0,0.01,0.01,0.02l0.82-0.47l-0.02-0.04l-0.82,0.47
						C85.53,157.65,85.54,157.66,85.54,157.66z"/>
				</g>
			</g>
		</g>
		<g>
			<g>
				<g>
					<path class="st0" d="M88.08,162.34l1.33-2.27c-0.06-0.04-0.11-0.08-0.17-0.12l-1.34,2.3C87.96,162.26,88.02,162.3,88.08,162.34
						z"/>
				</g>
			</g>
			<g>
				<g>
					<path class="st0" d="M88.63,162.94l1.18-2.62c-0.06-0.03-0.11-0.06-0.17-0.1l-1.15,2.55
						C88.55,162.83,88.59,162.89,88.63,162.94z"/>
				</g>
			</g>
			<g>
				<g>
					<path class="st0" d="M89.15,163.61l1.08-3.09c-0.05-0.02-0.11-0.05-0.16-0.08l-1.05,3C89.07,163.51,89.11,163.56,89.15,163.61z
						"/>
				</g>
			</g>
			<g>
				<g>
					<path class="st0" d="M89.66,164.32l0.98-3.62c-0.05-0.02-0.1-0.04-0.15-0.06l-0.95,3.51
						C89.58,164.21,89.62,164.27,89.66,164.32z"/>
				</g>
			</g>
			<g>
				<g>
					<path class="st0" d="M90.17,165.06C90.17,165.06,90.17,165.06,90.17,165.06l0.88-4.21c-0.05-0.01-0.09-0.03-0.14-0.04
						l-0.86,4.1C90.1,164.95,90.14,165.01,90.17,165.06z"/>
				</g>
			</g>
			<g>
				<g>
					<path class="st0" d="M90.81,165c-0.05,0-0.08-0.02-0.11-0.04l-0.1,0.65c0.03,0.04,0.07,0.09,0.1,0.13L90.81,165
						C90.82,165,90.82,165,90.81,165z"/>
				</g>
				<g>
					<path class="st0" d="M90.81,164.59c0.03,0,0.05,0.01,0.07,0.01l0.57-3.64c-0.04-0.01-0.08-0.02-0.12-0.03l-0.58,3.67
						C90.77,164.59,90.79,164.59,90.81,164.59z"/>
				</g>
			</g>
			<g>
				<g>
					<path class="st0" d="M91.23,166.42l0.62-5.37c-0.04-0.01-0.07-0.01-0.11-0.02l-0.61,5.27
						C91.17,166.34,91.2,166.38,91.23,166.42z"/>
				</g>
			</g>
			<g>
				<g>
					<path class="st0" d="M91.95,164.77l0.29-3.65c-0.03,0-0.06-0.01-0.09-0.01l-0.29,3.62C91.9,164.74,91.93,164.75,91.95,164.77z"
						/>
				</g>
				<g>
					<path class="st0" d="M91.83,165.13l-0.15,1.86c0.03,0.04,0.06,0.07,0.08,0.11l0.16-2C91.9,165.12,91.87,165.13,91.83,165.13z"
						/>
				</g>
			</g>
			<g>
				<g>
					<path class="st0" d="M92.3,166.14l-0.08,1.6c0.02,0.03,0.04,0.05,0.05,0.08l0.02,0l0.09-1.73
						C92.36,166.11,92.33,166.13,92.3,166.14z"/>
				</g>
				<g>
					<path class="st0" d="M92.39,165.82l0.08-1.62c-0.03-0.01-0.05-0.02-0.07-0.03l-0.08,1.59
						C92.35,165.77,92.37,165.79,92.39,165.82z"/>
				</g>
				<g>
					<path class="st0" d="M92.49,163.76l0.13-2.6c-0.02,0-0.05,0-0.07-0.01l-0.13,2.63C92.44,163.77,92.46,163.77,92.49,163.76z"/>
				</g>
			</g>
			<g>
				<g>
					<path class="st0" d="M92.79,167.23l-0.03,1.27l0.06,0l0.03-1.28C92.84,167.22,92.82,167.23,92.79,167.23z"/>
				</g>
				<g>
					<path class="st0" d="M92.85,165.17C92.85,165.17,92.85,165.17,92.85,165.17l-0.05,1.66c0.02,0,0.04,0,0.06,0.01l0.04-1.68
						C92.88,165.16,92.87,165.17,92.85,165.17z"/>
				</g>
				<g>
					<path class="st0" d="M92.95,162.89c-0.02,0-0.03-0.01-0.05-0.01l-0.04,1.88c0.02,0,0.04,0.01,0.06,0.01L92.95,162.89
						C92.95,162.89,92.95,162.89,92.95,162.89z"/>
				</g>
				<g>
					<path class="st0" d="M92.95,162.47c0.01,0,0.01,0,0.02,0l0.03-1.29c-0.02,0-0.04,0-0.06,0l-0.03,1.3
						C92.92,162.48,92.93,162.47,92.95,162.47z"/>
				</g>
			</g>
			<g>
				<g>
					<path class="st0" d="M97.28,160.12l1.31,2.23c0.01-0.01,0.02-0.02,0.02-0.04c0.04-0.06,0.09-0.09,0.14-0.09l-1.31-2.24
						C97.39,160.02,97.34,160.07,97.28,160.12z"/>
				</g>
			</g>
			<g>
				<g>
					<path class="st0" d="M96.88,160.37l1.21,2.69c0.04-0.06,0.09-0.12,0.13-0.18l-1.17-2.6C96.99,160.31,96.93,160.34,96.88,160.37
						z"/>
				</g>
			</g>
			<g>
				<g>
					<path class="st0" d="M96.45,160.55l1.11,3.18c0.04-0.05,0.09-0.11,0.13-0.16l-1.08-3.08C96.56,160.51,96.5,160.53,96.45,160.55
						z"/>
				</g>
			</g>
			<g>
				<g>
					<path class="st0" d="M96.02,160.69l1,3.7c0.04-0.05,0.08-0.1,0.12-0.15l-0.97-3.59C96.12,160.66,96.07,160.68,96.02,160.69z"/>
				</g>
			</g>
			<g>
				<g>
					<path class="st0" d="M95.61,160.81l0.89,4.25c0.01-0.02,0.02-0.03,0.03-0.05c0.03-0.03,0.05-0.07,0.08-0.1l-0.86-4.14
						C95.7,160.79,95.65,160.8,95.61,160.81z"/>
				</g>
			</g>
			<g>
				<g>
					<path class="st0" d="M95.2,160.91l0.77,4.85c0.03-0.05,0.07-0.09,0.1-0.14l-0.75-4.74C95.29,160.9,95.24,160.9,95.2,160.91z"/>
				</g>
			</g>
			<g>
				<g>
					<path class="st0" d="M94.81,160.99l0.63,5.48l0.01,0c0.03-0.04,0.06-0.08,0.09-0.12l-0.62-5.38
						C94.88,160.97,94.84,160.98,94.81,160.99z"/>
				</g>
			</g>
			<g>
				<g>
					<path class="st0" d="M94.82,165.84c-0.01,0-0.01,0-0.02,0l0.1,1.31l0.05,0c0.01-0.02,0.02-0.03,0.03-0.05l-0.1-1.27
						C94.87,165.83,94.85,165.84,94.82,165.84z"/>
				</g>
				<g>
					<path class="st0" d="M94.42,161.04l0.35,4.39c0.01,0,0.02,0,0.03-0.01c0.02-0.01,0.04-0.02,0.06-0.03l-0.35-4.37
						C94.48,161.03,94.45,161.04,94.42,161.04z"/>
				</g>
			</g>
			<g>
				<g>
					<path class="st0" d="M94.38,166.89c-0.02,0-0.03-0.01-0.05-0.01l0.05,0.95l0.07,0l-0.05-0.94
						C94.4,166.88,94.39,166.89,94.38,166.89z"/>
				</g>
				<g>
					<path class="st0" d="M94.29,164.97c-0.02,0-0.04-0.01-0.06-0.01l0.08,1.53c0.02-0.01,0.04-0.01,0.07-0.01c0,0,0,0,0.01,0
						l-0.07-1.51C94.3,164.97,94.3,164.97,94.29,164.97z"/>
				</g>
				<g>
					<path class="st0" d="M94.04,161.09l0.06,1.23c0.01,0,0.01,0,0.02,0c0.02,0,0.04,0.01,0.06,0.01l-0.06-1.24
						C94.09,161.08,94.07,161.08,94.04,161.09z"/>
				</g>
				<g>
					<path class="st0" d="M94.13,162.72l0.09,1.85c0.02-0.01,0.05-0.01,0.07-0.02l-0.09-1.85
						C94.18,162.72,94.15,162.72,94.13,162.72z"/>
				</g>
			</g>
			<g>
				<g>
					<path class="st0" d="M93.8,166.52l0.05,1.98l0.06,0l-0.05-1.97C93.84,166.53,93.82,166.52,93.8,166.52z"/>
				</g>
				<g>
					<path class="st0" d="M93.85,166.12l-0.03-1.22c-0.02,0.01-0.04,0.01-0.06,0.01l0.03,1.22
						C93.81,166.13,93.83,166.12,93.85,166.12z"/>
				</g>
				<g>
					<path class="st0" d="M93.76,164.5c0.02,0,0.04,0.01,0.05,0.01l-0.03-1.11c0,0,0,0,0,0c-0.02,0-0.04-0.01-0.06-0.01L93.76,164.5
						C93.76,164.5,93.76,164.5,93.76,164.5z"/>
				</g>
				<g>
					<path class="st0" d="M93.68,161.11l0.04,1.89c0.02-0.01,0.04-0.01,0.06-0.01l-0.04-1.88
						C93.71,161.11,93.69,161.11,93.68,161.11z"/>
				</g>
			</g>
			<g>
				<g>
					<path class="st0" d="M93.31,168.21v0.97h0.04v-0.98C93.34,168.2,93.33,168.2,93.31,168.21z"/>
				</g>
				<g>
					<path class="st0" d="M93.36,167.81v-1.02c-0.01,0-0.01,0-0.02,0c-0.01,0-0.01,0-0.02,0v1.02
						C93.33,167.8,93.34,167.81,93.36,167.81z"/>
				</g>
				<g>
					<path class="st0" d="M93.34,166.38c0.01,0,0.01,0,0.02,0v-0.71c-0.02,0-0.03,0-0.04-0.01v0.72
						C93.32,166.38,93.33,166.38,93.34,166.38z"/>
				</g>
				<g>
					<path class="st0" d="M93.36,165.27v-0.79c-0.01,0-0.02,0.01-0.03,0.01c0,0-0.01,0-0.01,0v0.8
						C93.33,165.27,93.34,165.27,93.36,165.27z"/>
				</g>
				<g>
					<path class="st0" d="M93.34,162.58c-0.01,0-0.01,0-0.02,0v1.49c0,0,0.01,0,0.01,0c0.01,0,0.02,0,0.03,0.01v-1.5
						C93.35,162.57,93.34,162.58,93.34,162.58z"/>
				</g>
				<g>
					<path class="st0" d="M93.34,162.16c0.01,0,0.01,0,0.02,0v-0.95h-0.04v0.95C93.32,162.16,93.33,162.16,93.34,162.16z"/>
				</g>
			</g>
		</g>
		<g>
			<g>
				<g>
					<path class="st0" d="M98.66,162.3l-1.3-2.29c-0.06,0.03-0.13,0.06-0.19,0.08l1.32,2.31C98.53,162.37,98.59,162.33,98.66,162.3z
						"/>
				</g>
			</g>
			<g>
				<g>
					<path class="st0" d="M99.45,162.12l-1.68-2.34c-0.06,0.03-0.11,0.07-0.17,0.1l1.63,2.27
						C99.31,162.14,99.38,162.13,99.45,162.12z"/>
				</g>
			</g>
			<g>
				<g>
					<path class="st0" d="M100.29,162.01l-2.13-2.48c-0.05,0.03-0.1,0.07-0.14,0.1l2.07,2.41
						C100.16,162.03,100.22,162.02,100.29,162.01z"/>
				</g>
			</g>
			<g>
				<g>
					<path class="st0" d="M101.16,161.93l-2.65-2.66c-0.04,0.03-0.08,0.07-0.13,0.1l2.56,2.58
						C101.03,161.94,101.1,161.93,101.16,161.93z"/>
				</g>
			</g>
			<g>
				<g>
					<path class="st0" d="M102.05,161.85C102.06,161.85,102.06,161.85,102.05,161.85l-3.21-2.87c-0.03,0.03-0.07,0.06-0.1,0.1
						l3.12,2.79C101.93,161.86,101.99,161.85,102.05,161.85z"/>
				</g>
			</g>
			<g>
				<g>
					<path class="st0" d="M102.33,161.27c-0.02,0.04-0.06,0.06-0.09,0.08l0.51,0.42c0.06-0.01,0.11-0.02,0.17-0.02L102.33,161.27
						C102.33,161.26,102.33,161.26,102.33,161.27z"/>
				</g>
				<g>
					<path class="st0" d="M101.97,161.06c0.01-0.02,0.03-0.04,0.05-0.05l-2.87-2.32c-0.03,0.03-0.06,0.06-0.09,0.09l2.89,2.34
						C101.95,161.1,101.96,161.08,101.97,161.06z"/>
				</g>
			</g>
			<g>
				<g>
					<path class="st0" d="M103.77,161.61l-4.34-3.22c-0.02,0.03-0.05,0.05-0.07,0.08l4.26,3.17
						C103.66,161.63,103.71,161.62,103.77,161.61z"/>
				</g>
			</g>
			<g>
				<g>
					<path class="st0" d="M102.69,160.17l-3.02-2.08c-0.02,0.02-0.04,0.05-0.06,0.07l2.99,2.06
						C102.64,160.19,102.66,160.18,102.69,160.17z"/>
				</g>
				<g>
					<path class="st0" d="M102.94,160.45l1.54,1.06c0.05-0.01,0.09-0.01,0.14-0.02l-1.65-1.14
						C102.97,160.39,102.96,160.42,102.94,160.45z"/>
				</g>
			</g>
			<g>
				<g>
					<path class="st0" d="M104.05,160.55l1.35,0.87c0.03,0,0.06,0,0.09-0.01l0.01-0.02l-1.46-0.94
						C104.06,160.48,104.06,160.51,104.05,160.55z"/>
				</g>
				<g>
					<path class="st0" d="M103.82,160.31l-1.36-0.88c-0.02,0.02-0.04,0.04-0.06,0.05l1.34,0.86
						C103.76,160.32,103.79,160.31,103.82,160.31z"/>
				</g>
				<g>
					<path class="st0" d="M102.09,159.19l-2.19-1.41c-0.01,0.02-0.03,0.04-0.04,0.06l2.22,1.43
						C102.08,159.24,102.08,159.22,102.09,159.19z"/>
				</g>
			</g>
			<g>
				<g>
					<path class="st0" d="M105.24,160.66l1.09,0.66l0.03-0.05l-1.1-0.67C105.26,160.63,105.25,160.64,105.24,160.66z"/>
				</g>
				<g>
					<path class="st0" d="M103.49,159.58C103.49,159.59,103.48,159.59,103.49,159.58l1.41,0.87c0.01-0.02,0.02-0.03,0.04-0.04
						l-1.43-0.87C103.5,159.55,103.5,159.57,103.49,159.58z"/>
				</g>
				<g>
					<path class="st0" d="M101.56,158.36c-0.01,0.02-0.02,0.03-0.03,0.04l1.6,0.98c0.01-0.02,0.03-0.03,0.04-0.04L101.56,158.36
						C101.56,158.36,101.56,158.36,101.56,158.36z"/>
				</g>
				<g>
					<path class="st0" d="M101.2,158.15c0-0.01,0.01-0.01,0.01-0.01l-1.11-0.67c-0.01,0.02-0.02,0.03-0.03,0.05l1.11,0.68
						C101.19,158.18,101.19,158.17,101.2,158.15z"/>
				</g>
			</g>
			<g>
				<g>
					<path class="st0" d="M101.33,153.22l2.58-0.02c-0.01-0.01-0.01-0.03-0.02-0.04c-0.03-0.06-0.03-0.12-0.01-0.17l-2.6,0.02
						C101.3,153.08,101.32,153.15,101.33,153.22z"/>
				</g>
			</g>
			<g>
				<g>
					<path class="st0" d="M101.34,153.7l2.93,0.3c-0.03-0.07-0.06-0.13-0.09-0.2l-2.84-0.29
						C101.35,153.57,101.35,153.63,101.34,153.7z"/>
				</g>
			</g>
			<g>
				<g>
					<path class="st0" d="M101.29,154.16l3.31,0.63c-0.02-0.06-0.05-0.13-0.07-0.19l-3.21-0.61
						C101.31,154.05,101.3,154.1,101.29,154.16z"/>
				</g>
			</g>
			<g>
				<g>
					<path class="st0" d="M101.2,154.6l3.7,0.98c-0.02-0.06-0.05-0.12-0.07-0.18l-3.6-0.95C101.22,154.5,101.21,154.55,101.2,154.6z
						"/>
				</g>
			</g>
			<g>
				<g>
					<path class="st0" d="M101.09,155.02l4.13,1.36c-0.01-0.02-0.02-0.04-0.02-0.05c-0.02-0.04-0.03-0.08-0.05-0.12l-4.02-1.32
						C101.12,154.93,101.11,154.97,101.09,155.02z"/>
				</g>
			</g>
			<g>
				<g>
					<path class="st0" d="M100.98,155.42l4.58,1.76c-0.02-0.05-0.05-0.11-0.07-0.16l-4.48-1.72
						C101.01,155.34,100.99,155.38,100.98,155.42z"/>
				</g>
			</g>
			<g>
				<g>
					<path class="st0" d="M100.85,155.8l5.07,2.19l0-0.01c-0.02-0.05-0.04-0.09-0.06-0.14l-4.97-2.15
						C100.87,155.73,100.86,155.76,100.85,155.8z"/>
				</g>
			</g>
			<g>
				<g>
					<path class="st0" d="M105.06,158.21c0,0.01-0.01,0.01-0.01,0.01l1.18,0.56l0.02-0.05c-0.01-0.02-0.02-0.04-0.02-0.05
						l-1.15-0.55C105.08,158.17,105.07,158.19,105.06,158.21z"/>
				</g>
				<g>
					<path class="st0" d="M100.7,156.16l3.98,1.89c0-0.01,0-0.02,0.01-0.03c0-0.02,0-0.04,0.01-0.07l-3.96-1.88
						C100.72,156.1,100.71,156.13,100.7,156.16z"/>
				</g>
			</g>
			<g>
				<g>
					<path class="st0" d="M105.74,159.12c-0.01,0.02-0.02,0.03-0.03,0.04l0.84,0.43l0.03-0.07l-0.84-0.43
						C105.75,159.1,105.75,159.11,105.74,159.12z"/>
				</g>
				<g>
					<path class="st0" d="M104.04,158.24c-0.01,0.02-0.03,0.03-0.04,0.04l1.36,0.7c0-0.02,0.01-0.04,0.02-0.07c0,0,0,0,0,0
						l-1.34-0.69C104.04,158.22,104.04,158.23,104.04,158.24z"/>
				</g>
				<g>
					<path class="st0" d="M100.55,156.51l1.09,0.56c0-0.01,0-0.01,0.01-0.02c0.01-0.02,0.03-0.03,0.04-0.05l-1.11-0.57
						C100.57,156.47,100.56,156.49,100.55,156.51z"/>
				</g>
				<g>
					<path class="st0" d="M102.01,157.26l1.65,0.84c0-0.02,0.01-0.05,0.02-0.07l-1.65-0.84
						C102.03,157.21,102.02,157.23,102.01,157.26z"/>
				</g>
			</g>
			<g>
				<g>
					<path class="st0" d="M105.13,159.44l1.74,0.95l0.03-0.05l-1.73-0.95C105.16,159.41,105.15,159.43,105.13,159.44z"/>
				</g>
				<g>
					<path class="st0" d="M104.81,159.2l-1.07-0.58c0,0.02-0.01,0.04-0.02,0.06l1.07,0.58C104.8,159.23,104.81,159.22,104.81,159.2z
						"/>
				</g>
				<g>
					<path class="st0" d="M103.37,158.47c0.01-0.02,0.02-0.03,0.04-0.04l-0.97-0.53c0,0,0,0,0,0c-0.01,0.02-0.02,0.03-0.04,0.04
						L103.37,158.47C103.37,158.47,103.36,158.47,103.37,158.47z"/>
				</g>
				<g>
					<path class="st0" d="M100.39,156.84l1.66,0.91c0-0.02,0.01-0.04,0.02-0.06l-1.65-0.9C100.41,156.81,100.4,156.83,100.39,156.84
						z"/>
				</g>
			</g>
			<g>
				<g>
					<path class="st0" d="M106.35,160.7l0.84,0.49l0.02-0.04l-0.85-0.49C106.36,160.68,106.36,160.69,106.35,160.7z"/>
				</g>
				<g>
					<path class="st0" d="M106.03,160.47l-0.89-0.51c0,0.01,0,0.01-0.01,0.02c0,0.01-0.01,0.01-0.01,0.02l0.88,0.51
						C106.01,160.49,106.02,160.48,106.03,160.47z"/>
				</g>
				<g>
					<path class="st0" d="M104.78,159.77c0-0.01,0.01-0.01,0.01-0.02l-0.61-0.35c-0.01,0.01-0.02,0.02-0.03,0.03l0.62,0.36
						C104.77,159.78,104.77,159.78,104.78,159.77z"/>
				</g>
				<g>
					<path class="st0" d="M103.83,159.2l-0.69-0.4c0,0.01,0,0.02-0.01,0.03c0,0-0.01,0.01-0.01,0.01l0.69,0.4
						C103.82,159.22,103.82,159.21,103.83,159.2z"/>
				</g>
				<g>
					<path class="st0" d="M101.49,157.87c0,0.01-0.01,0.01-0.01,0.02l1.29,0.75c0,0,0-0.01,0-0.01c0.01-0.01,0.01-0.01,0.02-0.02
						l-1.3-0.75C101.49,157.86,101.49,157.86,101.49,157.87z"/>
				</g>
				<g>
					<path class="st0" d="M101.13,157.66c0-0.01,0.01-0.01,0.01-0.02l-0.82-0.47l-0.02,0.04l0.82,0.47
						C101.12,157.68,101.12,157.67,101.13,157.66z"/>
				</g>
			</g>
		</g>
		<g>
			<g>
				<g>
					<path class="st0" d="M103.91,153.12l-2.63-0.02c-0.01,0.07-0.01,0.14-0.02,0.21l2.66,0.02
						C103.9,153.27,103.9,153.2,103.91,153.12z"/>
				</g>
			</g>
			<g>
				<g>
					<path class="st0" d="M104.15,152.35l-2.86,0.29c0,0.06,0,0.13,0,0.19l2.78-0.28C104.1,152.48,104.13,152.41,104.15,152.35z"/>
				</g>
			</g>
			<g>
				<g>
					<path class="st0" d="M104.48,151.56l-3.21,0.61c0.01,0.06,0.01,0.12,0.01,0.17l3.12-0.59
						C104.43,151.69,104.45,151.63,104.48,151.56z"/>
				</g>
			</g>
			<g>
				<g>
					<path class="st0" d="M104.84,150.76l-3.63,0.96c0.01,0.05,0.02,0.1,0.02,0.16l3.52-0.93
						C104.78,150.89,104.81,150.83,104.84,150.76z"/>
				</g>
			</g>
			<g>
				<g>
					<path class="st0" d="M105.22,149.95C105.22,149.95,105.22,149.95,105.22,149.95l-4.09,1.34c0.01,0.05,0.02,0.09,0.03,0.14
						l3.98-1.31C105.16,150.07,105.19,150.01,105.22,149.95z"/>
				</g>
			</g>
			<g>
				<g>
					<path class="st0" d="M104.85,149.43c0.02,0.04,0.03,0.08,0.02,0.12l0.62-0.24c0.02-0.05,0.04-0.1,0.06-0.16L104.85,149.43
						C104.85,149.42,104.85,149.43,104.85,149.43z"/>
				</g>
				<g>
					<path class="st0" d="M104.49,149.63c-0.01-0.02-0.02-0.05-0.02-0.07l-3.44,1.32c0.01,0.04,0.02,0.08,0.03,0.12l3.47-1.33
						C104.51,149.66,104.5,149.65,104.49,149.63z"/>
				</g>
			</g>
			<g>
				<g>
					<path class="st0" d="M105.87,148.36l-4.96,2.15c0.01,0.03,0.02,0.07,0.03,0.1l4.87-2.11
						C105.83,148.45,105.85,148.4,105.87,148.36z"/>
				</g>
			</g>
			<g>
				<g>
					<path class="st0" d="M104.08,148.56l-3.31,1.57c0.01,0.03,0.02,0.06,0.03,0.09l3.28-1.56
						C104.07,148.62,104.07,148.59,104.08,148.56z"/>
				</g>
				<g>
					<path class="st0" d="M104.45,148.48l1.69-0.8c0.02-0.04,0.03-0.08,0.05-0.13l-1.81,0.86
						C104.4,148.43,104.43,148.45,104.45,148.48z"/>
				</g>
			</g>
			<g>
				<g>
					<path class="st0" d="M105.09,147.57l1.43-0.73c0.01-0.03,0.03-0.06,0.04-0.08l-0.01-0.02l-1.54,0.79
						C105.04,147.54,105.06,147.55,105.09,147.57z"/>
				</g>
				<g>
					<path class="st0" d="M104.77,147.65l-1.44,0.74c0.01,0.03,0.01,0.05,0.01,0.08l1.41-0.73
						C104.74,147.71,104.75,147.68,104.77,147.65z"/>
				</g>
				<g>
					<path class="st0" d="M102.94,148.59l-2.32,1.19c0.01,0.02,0.02,0.04,0.03,0.07l2.35-1.2
						C102.97,148.63,102.95,148.62,102.94,148.59z"/>
				</g>
			</g>
			<g>
				<g>
					<path class="st0" d="M105.78,146.6l1.12-0.61l-0.03-0.05l-1.13,0.62C105.76,146.57,105.77,146.58,105.78,146.6z"/>
				</g>
				<g>
					<path class="st0" d="M103.97,147.58C103.97,147.58,103.97,147.59,103.97,147.58l1.46-0.79c-0.01-0.02-0.02-0.04-0.02-0.06
						l-1.47,0.81C103.95,147.55,103.96,147.56,103.97,147.58z"/>
				</g>
				<g>
					<path class="st0" d="M101.95,148.64c0.01,0.02,0.01,0.03,0.02,0.05l1.65-0.9c-0.01-0.02-0.01-0.04-0.02-0.06L101.95,148.64
						C101.95,148.64,101.95,148.64,101.95,148.64z"/>
				</g>
				<g>
					<path class="st0" d="M101.59,148.85c0-0.01,0-0.01-0.01-0.02l-1.14,0.62c0.01,0.02,0.02,0.03,0.03,0.05l1.14-0.63
						C101.61,148.87,101.6,148.86,101.59,148.85z"/>
				</g>
			</g>
			<g>
				<g>
					<path class="st0" d="M97.38,146.27l1.28-2.24c-0.01,0-0.03,0-0.04,0c-0.07,0-0.12-0.03-0.15-0.07l-1.28,2.26
						C97.25,146.22,97.31,146.24,97.38,146.27z"/>
				</g>
			</g>
			<g>
				<g>
					<path class="st0" d="M97.8,146.49l1.72-2.39c-0.07-0.01-0.14-0.02-0.22-0.02l-1.67,2.32C97.69,146.42,97.75,146.46,97.8,146.49
						z"/>
				</g>
			</g>
			<g>
				<g>
					<path class="st0" d="M98.17,146.77l2.2-2.55c-0.07-0.01-0.14-0.02-0.2-0.03l-2.13,2.47C98.08,146.7,98.13,146.74,98.17,146.77z
						"/>
				</g>
			</g>
			<g>
				<g>
					<path class="st0" d="M98.51,147.07l2.7-2.72c-0.06-0.01-0.13-0.02-0.19-0.03l-2.63,2.64C98.43,147,98.47,147.04,98.51,147.07z"
						/>
				</g>
			</g>
			<g>
				<g>
					<path class="st0" d="M98.82,147.37l3.24-2.9c-0.02,0-0.04,0-0.06-0.01c-0.04-0.01-0.08-0.01-0.13-0.02l-3.16,2.82
						C98.75,147.3,98.79,147.34,98.82,147.37z"/>
				</g>
			</g>
			<g>
				<g>
					<path class="st0" d="M99.11,147.67l3.82-3.09c-0.06-0.01-0.11-0.01-0.17-0.02l-3.73,3.02
						C99.06,147.61,99.08,147.64,99.11,147.67z"/>
				</g>
			</g>
			<g>
				<g>
					<path class="st0" d="M99.37,147.98l4.43-3.29l0-0.01c-0.05-0.01-0.1-0.01-0.15-0.02l-4.35,3.23
						C99.33,147.92,99.35,147.95,99.37,147.98z"/>
				</g>
			</g>
			<g>
				<g>
					<path class="st0" d="M103.57,145.54c0,0.01,0,0.01,0.01,0.02l1.08-0.74l-0.03-0.04c-0.02,0-0.04,0-0.06-0.01l-1.05,0.72
						C103.54,145.5,103.56,145.51,103.57,145.54z"/>
				</g>
				<g>
					<path class="st0" d="M99.61,148.28l3.63-2.5c-0.01-0.01-0.01-0.01-0.02-0.02c-0.02-0.01-0.04-0.02-0.05-0.04l-3.61,2.49
						C99.58,148.23,99.59,148.26,99.61,148.28z"/>
				</g>
			</g>
			<g>
				<g>
					<path class="st0" d="M104.7,145.4c0.01,0.02,0.01,0.03,0.02,0.05l0.8-0.51l-0.04-0.06l-0.79,0.51
						C104.68,145.38,104.69,145.39,104.7,145.4z"/>
				</g>
				<g>
					<path class="st0" d="M103.08,146.43c0.01,0.02,0.01,0.04,0.02,0.06l1.29-0.83c-0.02-0.01-0.03-0.03-0.05-0.05c0,0,0,0,0-0.01
						l-1.27,0.82C103.07,146.42,103.07,146.42,103.08,146.43z"/>
				</g>
				<g>
					<path class="st0" d="M99.84,148.59l1.03-0.67c0,0-0.01-0.01-0.01-0.01c-0.01-0.02-0.01-0.04-0.02-0.06l-1.04,0.67
						C99.81,148.55,99.83,148.57,99.84,148.59z"/>
				</g>
				<g>
					<path class="st0" d="M101.22,147.7l1.55-1c-0.02-0.01-0.04-0.03-0.05-0.06l-1.55,1C101.19,147.66,101.2,147.68,101.22,147.7z"
						/>
				</g>
			</g>
			<g>
				<g>
					<path class="st0" d="M104.67,146.08l1.69-1.03l-0.03-0.05l-1.68,1.02C104.66,146.05,104.66,146.06,104.67,146.08z"/>
				</g>
				<g>
					<path class="st0" d="M104.3,146.24l-1.04,0.63c0.01,0.01,0.03,0.03,0.04,0.04l1.04-0.63
						C104.32,146.27,104.31,146.26,104.3,146.24z"/>
				</g>
				<g>
					<path class="st0" d="M102.94,147.13c-0.01-0.02-0.01-0.03-0.02-0.05l-0.95,0.58c0,0,0,0,0,0c0.01,0.02,0.01,0.04,0.02,0.05
						L102.94,147.13C102.94,147.13,102.94,147.13,102.94,147.13z"/>
				</g>
				<g>
					<path class="st0" d="M100.05,148.89l1.62-0.98c-0.01-0.01-0.03-0.03-0.04-0.04l-1.61,0.98
						C100.03,148.86,100.04,148.88,100.05,148.89z"/>
				</g>
			</g>
			<g>
				<g>
					<path class="st0" d="M106.37,145.66l0.84-0.49l-0.02-0.04l-0.85,0.49C106.35,145.64,106.36,145.65,106.37,145.66z"/>
				</g>
				<g>
					<path class="st0" d="M106.01,145.82l-0.89,0.51c0,0.01,0.01,0.01,0.01,0.02c0,0.01,0,0.01,0.01,0.02l0.88-0.51
						C106.02,145.85,106.01,145.84,106.01,145.82z"/>
				</g>
				<g>
					<path class="st0" d="M104.78,146.56c0-0.01,0-0.01-0.01-0.02l-0.61,0.35c0.01,0.01,0.01,0.03,0.01,0.04l0.62-0.36
						C104.79,146.57,104.78,146.56,104.78,146.56z"/>
				</g>
				<g>
					<path class="st0" d="M103.8,147.09l-0.69,0.4c0.01,0.01,0.01,0.01,0.02,0.02c0,0,0,0.01,0,0.01l0.69-0.4
						C103.82,147.12,103.81,147.11,103.8,147.09z"/>
				</g>
				<g>
					<path class="st0" d="M101.49,148.46c0,0.01,0,0.01,0.01,0.02l1.29-0.75c0,0-0.01-0.01-0.01-0.01
						c-0.01-0.01-0.01-0.02-0.01-0.03l-1.3,0.75C101.48,148.45,101.48,148.45,101.49,148.46z"/>
				</g>
				<g>
					<path class="st0" d="M101.13,148.66c0-0.01,0-0.01-0.01-0.02l-0.82,0.47l0.02,0.04l0.82-0.47
						C101.14,148.67,101.13,148.67,101.13,148.66z"/>
				</g>
			</g>
		</g>
		<g>
			<g>
				<circle class="st0" cx="93.31" cy="153.16" r="4.68"/>
			</g>
			<g>
				<path class="st0" d="M97.65,153.16c0-2.39-1.95-4.34-4.34-4.34c-2.39,0-4.34,1.95-4.34,4.34c0,2.39,1.95,4.34,4.34,4.34
					C95.71,157.5,97.65,155.56,97.65,153.16z"/>
			</g>
			<g>
				<g>
					<g>
						<path class="st0" d="M93.16,149.5c0.05,0,0.1-0.01,0.16-0.01c0.81,0,1.56,0.27,2.17,0.72c0.01-0.07,0.04-0.14,0.12-0.17
							c-0.64-0.47-1.43-0.75-2.29-0.75c-0.02,0-0.03,0-0.05,0C93.27,149.37,93.24,149.46,93.16,149.5z"/>
					</g>
					<g>
						<path class="st0" d="M97.11,153.43c-0.06,0-0.1-0.02-0.14-0.05c-0.11,1.92-1.71,3.45-3.66,3.45c-2.02,0-3.67-1.65-3.67-3.67
							c0-1.92,1.48-3.5,3.36-3.65c-0.09-0.03-0.14-0.11-0.14-0.19c-1.93,0.22-3.43,1.86-3.43,3.85c0,2.14,1.74,3.88,3.88,3.88
							c2.05,0,3.73-1.6,3.86-3.62C97.16,153.43,97.14,153.43,97.11,153.43z"/>
					</g>
					<g>
						<path class="st0" d="M95.75,150.42c0.45,0.4,0.8,0.91,1.01,1.49c0.03-0.05,0.08-0.08,0.16-0.08c0.01,0,0.02,0.01,0.03,0.01
							c-0.22-0.61-0.6-1.15-1.07-1.57C95.87,150.34,95.82,150.4,95.75,150.42z"/>
					</g>
					<g>
						<path class="st0" d="M96.86,152.23c0.07,0.27,0.11,0.55,0.12,0.84c0.03-0.03,0.07-0.05,0.13-0.05c0.03,0,0.06,0.01,0.08,0.02
							c-0.01-0.29-0.05-0.58-0.13-0.85c-0.03,0.04-0.08,0.06-0.14,0.06C96.9,152.24,96.88,152.24,96.86,152.23z"/>
					</g>
				</g>
				<g>
					<g>
						<path class="st0" d="M95.26,150.74c0.01-0.06,0.04-0.12,0.1-0.15c-0.29-0.23-0.62-0.41-0.98-0.53
							c-0.01,0.06-0.04,0.12-0.1,0.16C94.64,150.33,94.97,150.51,95.26,150.74z"/>
					</g>
					<g>
						<path class="st0" d="M95.94,151.19c-0.03,0.05-0.08,0.09-0.15,0.09c0.4,0.52,0.64,1.17,0.64,1.88c0,1.72-1.4,3.11-3.11,3.11
							c-1.72,0-3.11-1.4-3.11-3.11c0-1.72,1.4-3.11,3.11-3.11c0.22,0,0.43,0.03,0.63,0.07c-0.02-0.06-0.02-0.13,0.01-0.18
							c-0.21-0.04-0.42-0.07-0.64-0.07c-1.81,0-3.29,1.48-3.29,3.29c0,1.81,1.48,3.29,3.29,3.29c1.81,0,3.29-1.48,3.29-3.29
							C96.6,152.42,96.36,151.74,95.94,151.19z"/>
					</g>
				</g>
				<g>
					<g>
						<path class="st0" d="M94.4,150.86c0-0.05,0.03-0.1,0.06-0.14c-0.23-0.11-0.47-0.18-0.72-0.23c0.01,0.05,0.01,0.1-0.02,0.15
							C93.96,150.68,94.18,150.76,94.4,150.86z"/>
					</g>
					<g>
						<path class="st0" d="M94.79,150.91c-0.01,0.05-0.03,0.1-0.07,0.13c0.27,0.18,0.5,0.4,0.68,0.66c0.02-0.05,0.06-0.08,0.12-0.09
							C95.32,151.33,95.07,151.09,94.79,150.91z"/>
					</g>
					<g>
						<path class="st0" d="M95.72,151.94c-0.03,0.04-0.08,0.06-0.14,0.06c0.14,0.27,0.23,0.56,0.26,0.87
							c0.05-0.03,0.1-0.04,0.15-0.02c0,0,0,0,0,0C95.96,152.53,95.87,152.22,95.72,151.94z"/>
					</g>
					<g>
						<path class="st0" d="M95.96,153.29c-0.01,0-0.01,0-0.02-0.01c0,0,0,0,0,0c-0.03,0-0.06-0.01-0.08-0.02
							c-0.05,1.36-1.17,2.45-2.55,2.45c-1.41,0-2.55-1.15-2.55-2.55c0-1.38,1.1-2.51,2.48-2.55c-0.01-0.04-0.02-0.08-0.01-0.12
							c0-0.01,0.01-0.02,0.02-0.03c-1.46,0.04-2.64,1.23-2.64,2.7c0,1.49,1.21,2.7,2.7,2.7c1.45,0,2.63-1.14,2.7-2.58
							C96,153.29,95.98,153.29,95.96,153.29z"/>
					</g>
				</g>
				<g>
					<g>
						<path class="st0" d="M93.94,151.27c0.33,0.11,0.61,0.3,0.84,0.55c0.03-0.03,0.07-0.05,0.11-0.06
							c-0.24-0.27-0.55-0.48-0.89-0.6C93.99,151.2,93.97,151.24,93.94,151.27z"/>
					</g>
					<g>
						<path class="st0" d="M95.37,153.15c0.02,0,0.04,0.01,0.06,0.01c0-0.24-0.05-0.48-0.12-0.7c-0.02,0.01-0.05,0.02-0.08,0.02
							c-0.02,0-0.03-0.01-0.05-0.01c0.08,0.22,0.13,0.45,0.13,0.69C95.33,153.16,95.35,153.15,95.37,153.15z"/>
					</g>
					<g>
						<path class="st0" d="M95.37,153.56c-0.04,0-0.07-0.01-0.1-0.03c-0.17,0.92-0.99,1.62-1.96,1.62c-1.1,0-1.99-0.89-1.99-1.99
							c0-1.1,0.89-1.99,1.99-1.99c0.11,0,0.21,0.01,0.31,0.03c-0.01-0.04-0.01-0.08-0.01-0.13c-0.1-0.01-0.2-0.02-0.3-0.02
							c-1.17,0-2.12,0.95-2.12,2.12c0,1.17,0.95,2.12,2.12,2.12c1.03,0,1.89-0.74,2.08-1.72C95.39,153.56,95.38,153.56,95.37,153.56
							z"/>
					</g>
				</g>
				<g>
					<g>
						<path class="st0" d="M93.31,151.73c0.05,0,0.09,0,0.14,0.01c0-0.03,0-0.07,0-0.1c-0.05,0-0.1-0.01-0.15-0.01
							c-0.42,0-0.8,0.17-1.07,0.44c0.03,0.02,0.04,0.05,0.05,0.08C92.55,151.89,92.92,151.73,93.31,151.73z"/>
					</g>
					<g>
						<path class="st0" d="M94.71,152.54c-0.02,0.02-0.05,0.04-0.08,0.05c0.08,0.17,0.12,0.37,0.12,0.57c0,0.14-0.02,0.28-0.06,0.41
							c0.04,0,0.07,0.02,0.09,0.04c0.04-0.14,0.07-0.29,0.07-0.45C94.84,152.94,94.79,152.73,94.71,152.54z"/>
					</g>
					<g>
						<path class="st0" d="M94.5,152.21c-0.17-0.21-0.4-0.38-0.66-0.48c0,0.03-0.01,0.06-0.03,0.09c0.24,0.09,0.44,0.24,0.6,0.43
							C94.44,152.23,94.47,152.21,94.5,152.21z"/>
					</g>
					<g>
						<path class="st0" d="M94.52,153.93c-0.25,0.4-0.7,0.67-1.21,0.67c-0.79,0-1.43-0.64-1.43-1.43c0-0.27,0.07-0.52,0.2-0.73
							c-0.01,0-0.02,0-0.03,0c-0.02,0-0.03-0.01-0.05-0.01c-0.01,0-0.01-0.01-0.02-0.01c-0.13,0.22-0.2,0.48-0.2,0.75
							c0,0.84,0.69,1.53,1.53,1.53c0.55,0,1.03-0.29,1.3-0.72C94.58,153.96,94.55,153.95,94.52,153.93z"/>
					</g>
				</g>
				<g>
					<g>
						<path class="st0" d="M94.09,153.57c0.02,0.01,0.04,0.03,0.05,0.05c0.08-0.14,0.12-0.29,0.12-0.45c0-0.06-0.01-0.11-0.02-0.17
							c-0.02,0.02-0.04,0.03-0.06,0.04c0.01,0.04,0.01,0.09,0.01,0.13C94.19,153.31,94.15,153.44,94.09,153.57z"/>
					</g>
					<g>
						<path class="st0" d="M93.82,153.87c-0.14,0.1-0.32,0.16-0.51,0.16c-0.18,0-0.34-0.05-0.48-0.14c0,0.02-0.01,0.05-0.02,0.07
							c0.15,0.09,0.32,0.15,0.5,0.15c0.21,0,0.4-0.07,0.56-0.19C93.85,153.91,93.84,153.89,93.82,153.87z"/>
					</g>
					<g>
						<path class="st0" d="M93.31,152.22c-0.08,0-0.16,0.01-0.23,0.03c0.01,0.02,0.01,0.04,0.01,0.07c0.07-0.02,0.14-0.03,0.22-0.03
							c0.18,0,0.34,0.05,0.48,0.14c0.01-0.02,0.03-0.04,0.05-0.05C93.69,152.28,93.51,152.22,93.31,152.22z"/>
					</g>
					<g>
						<path class="st0" d="M92.76,152.49c-0.02-0.02-0.03-0.04-0.04-0.06c-0.21,0.17-0.35,0.43-0.35,0.73c0,0.2,0.06,0.38,0.16,0.53
							c0.02-0.01,0.04-0.02,0.07-0.03c-0.1-0.14-0.16-0.32-0.16-0.5C92.44,152.89,92.57,152.65,92.76,152.49z"/>
					</g>
				</g>
				<g>
					<g>
						<path class="st0" d="M93.31,153.52c-0.2,0-0.36-0.16-0.36-0.36c0-0.2,0.16-0.36,0.36-0.36c0.2,0,0.36,0.16,0.36,0.36
							C93.67,153.36,93.51,153.52,93.31,153.52z M93.31,152.85c-0.17,0-0.32,0.14-0.32,0.32c0,0.17,0.14,0.32,0.32,0.32
							c0.17,0,0.32-0.14,0.32-0.32C93.63,152.99,93.49,152.85,93.31,152.85z"/>
					</g>
				</g>
			</g>
		</g>
		<g>
			<path class="st0" d="M99.49,154.73c-0.17,0.05-0.29,0.14-0.36,0.23c0,0,0.03-0.15,0.06-0.31c0.02-0.15,0.03-0.31,0.03-0.31
				c0.01,0.02,0.01,0.03,0.01,0.03s0.06,0.07,0.19,0.09c0.11,0.01,0.28-0.11,0.4-0.39c0.1-0.26,0.13-0.49,0.13-0.49
				s-0.19,0.04-0.4,0.15c-0.16,0.08-0.26,0.18-0.32,0.28c0,0,0-0.16,0-0.31c0-0.04,0-0.08,0-0.11c0-0.04,0-0.07-0.01-0.1
				c0-0.06-0.01-0.1-0.01-0.1c0.01,0.02,0.02,0.03,0.02,0.03s0.07,0.06,0.2,0.06c0.11,0,0.26-0.15,0.34-0.44
				c0.06-0.27,0.06-0.5,0.06-0.5s-0.18,0.07-0.37,0.2c-0.14,0.1-0.23,0.22-0.27,0.32c0,0-0.02-0.15-0.04-0.31
				c-0.01-0.08-0.02-0.15-0.03-0.21c-0.01-0.06-0.02-0.1-0.02-0.1c0.01,0.02,0.02,0.03,0.02,0.03s0.08,0.05,0.21,0.03
				c0.11-0.02,0.24-0.19,0.28-0.48c0.01-0.13,0.01-0.26,0.01-0.35c0-0.09-0.01-0.15-0.01-0.15s-0.16,0.09-0.34,0.25
				c-0.13,0.12-0.21,0.25-0.23,0.35c0,0-0.01-0.05-0.03-0.12c-0.02-0.07-0.04-0.16-0.07-0.25c-0.03-0.09-0.06-0.18-0.08-0.25
				c-0.02-0.07-0.04-0.11-0.04-0.11c0.03-0.02,0.07-0.07,0.1-0.14c0.04-0.11-0.02-0.34-0.21-0.55c-0.18-0.19-0.36-0.3-0.36-0.3
				s-0.01,0.21,0.01,0.45c0.02,0.27,0.11,0.46,0.22,0.52c0.07,0.04,0.13,0.05,0.17,0.05c0,0,0.01,0.03,0.02,0.06
				c0.01,0.04,0.03,0.09,0.04,0.14c0.03,0.1,0.06,0.21,0.06,0.21c-0.08-0.08-0.21-0.15-0.38-0.17c-0.23-0.03-0.41,0.01-0.41,0.01
				s0.03,0.04,0.07,0.11c0.04,0.07,0.1,0.15,0.18,0.25c0.15,0.2,0.34,0.3,0.45,0.27c0.13-0.03,0.18-0.11,0.18-0.11s0-0.01,0.01-0.03
				c0,0,0.01,0.04,0.02,0.09c0.01,0.06,0.03,0.13,0.04,0.21c0.01,0.08,0.03,0.15,0.04,0.21c0.01,0.06,0.01,0.1,0.01,0.1
				c-0.06-0.09-0.19-0.17-0.36-0.21c-0.22-0.05-0.41-0.04-0.41-0.04s0.02,0.04,0.05,0.11c0.03,0.07,0.09,0.16,0.14,0.26
				c0.06,0.11,0.14,0.19,0.21,0.25c0.07,0.05,0.14,0.08,0.2,0.08c0.13-0.01,0.19-0.09,0.19-0.09s0.01-0.01,0.01-0.03
				c0,0,0.01,0.04,0.01,0.1c0,0.06,0.01,0.13,0.01,0.21c0,0.08,0.01,0.15,0.01,0.21c0,0.06,0,0.1,0,0.1
				c-0.05-0.1-0.16-0.2-0.32-0.26c-0.21-0.08-0.4-0.1-0.4-0.1s0.01,0.05,0.04,0.12c0.03,0.07,0.07,0.17,0.11,0.28
				c0.1,0.23,0.25,0.37,0.36,0.38c0.13,0.01,0.2-0.06,0.2-0.06s0.01-0.01,0.02-0.03c0,0,0,0.04,0,0.1
				c-0.01,0.06-0.01,0.13-0.02,0.21c-0.01,0.08-0.01,0.15-0.02,0.21c-0.01,0.06-0.01,0.1-0.01,0.1c-0.04-0.11-0.14-0.22-0.29-0.3
				c-0.2-0.11-0.38-0.15-0.38-0.15s0,0.05,0.02,0.12c0.01,0.07,0.04,0.18,0.07,0.29c0.06,0.24,0.19,0.4,0.3,0.42
				c0.13,0.03,0.2-0.03,0.2-0.03s0.01-0.01,0.02-0.03c0,0-0.01,0.04-0.02,0.09c-0.01,0.06-0.02,0.13-0.05,0.21
				c-0.04,0.15-0.08,0.3-0.08,0.3c-0.02-0.11-0.1-0.24-0.23-0.34c-0.09-0.07-0.18-0.12-0.24-0.16c-0.06-0.03-0.11-0.05-0.11-0.05
				s0,0.01,0,0.03c0,0.02,0,0.05,0,0.09c0,0.07,0,0.18,0.02,0.29c0.02,0.13,0.04,0.23,0.08,0.31c0.04,0.08,0.09,0.13,0.14,0.15
				c0.12,0.05,0.21,0.01,0.21,0.01s0.01-0.01,0.03-0.02c0,0-0.06,0.14-0.11,0.29c-0.03,0.07-0.06,0.14-0.08,0.19
				c-0.03,0.05-0.04,0.09-0.04,0.09c0-0.11-0.05-0.25-0.17-0.38c-0.16-0.17-0.32-0.27-0.32-0.27s-0.01,0.05-0.02,0.12
				c-0.01,0.08-0.02,0.17-0.02,0.29c-0.01,0.24,0.05,0.43,0.15,0.49c0.11,0.07,0.2,0.05,0.2,0.05s0.01,0,0.03-0.02
				c0,0-0.02,0.03-0.05,0.08c-0.03,0.05-0.08,0.11-0.12,0.17c-0.04,0.06-0.09,0.12-0.13,0.17c-0.04,0.05-0.06,0.08-0.06,0.08
				c0.02-0.11,0-0.26-0.09-0.4c-0.12-0.2-0.26-0.32-0.26-0.32s-0.02,0.04-0.04,0.11c-0.02,0.07-0.06,0.16-0.08,0.27
				c-0.03,0.12-0.04,0.22-0.04,0.31c0.01,0.09,0.03,0.16,0.07,0.2c0.09,0.09,0.19,0.09,0.19,0.09s0.01,0,0.03-0.01
				c0,0-0.03,0.03-0.07,0.07c-0.04,0.04-0.09,0.1-0.15,0.15c-0.06,0.05-0.11,0.1-0.16,0.14c-0.04,0.04-0.07,0.06-0.07,0.06
				c0.05-0.1,0.05-0.25,0-0.41c-0.04-0.11-0.08-0.2-0.12-0.26c-0.04-0.07-0.06-0.1-0.06-0.1s-0.02,0.04-0.06,0.1
				c-0.04,0.06-0.09,0.15-0.14,0.25c-0.06,0.11-0.09,0.21-0.1,0.3c-0.01,0.09,0,0.16,0.03,0.21c0.08,0.11,0.17,0.12,0.17,0.12
				s0.01,0,0.03,0c0,0-0.03,0.02-0.08,0.06c-0.05,0.03-0.11,0.07-0.18,0.12c-0.06,0.04-0.13,0.08-0.18,0.11
				c-0.05,0.03-0.08,0.05-0.08,0.05c0.06-0.1,0.09-0.24,0.07-0.41c-0.03-0.23-0.11-0.4-0.11-0.4s-0.03,0.03-0.08,0.09
				c-0.05,0.06-0.12,0.13-0.19,0.23c-0.15,0.2-0.2,0.39-0.15,0.49c0.06,0.12,0.15,0.15,0.15,0.15s0.01,0,0.03,0
				c0,0-0.03,0.02-0.09,0.04c-0.05,0.03-0.12,0.06-0.19,0.09c-0.14,0.06-0.28,0.12-0.28,0.12c0.07-0.09,0.13-0.22,0.13-0.39
				c0-0.23-0.05-0.41-0.05-0.41s-0.04,0.03-0.1,0.08c-0.06,0.05-0.14,0.12-0.22,0.2c-0.18,0.18-0.26,0.36-0.22,0.47
				c0.04,0.12,0.13,0.16,0.13,0.16s0.01,0,0.03,0.01c0,0-0.04,0.01-0.09,0.03c-0.05,0.02-0.13,0.04-0.2,0.06
				c-0.07,0.02-0.15,0.04-0.2,0.06c-0.06,0.02-0.09,0.03-0.09,0.03c0.08-0.08,0.15-0.21,0.18-0.38c0.03-0.23,0-0.41,0-0.41
				s-0.17,0.09-0.36,0.24c-0.21,0.16-0.3,0.33-0.28,0.44c0.03,0.13,0.11,0.18,0.11,0.18s0.01,0,0.03,0.01c0,0-0.29,0.07-0.59,0.11
				c-0.15,0.02-0.3,0.04-0.41,0.05c-0.07,0.01-0.12,0.01-0.16,0.01h-0.14c-0.03,0-0.09-0.01-0.16-0.01
				c-0.11-0.01-0.26-0.03-0.41-0.05c-0.3-0.05-0.59-0.11-0.59-0.11c0.02,0,0.03-0.01,0.03-0.01s0.08-0.05,0.11-0.18
				c0.03-0.11-0.07-0.29-0.28-0.44c-0.19-0.15-0.36-0.24-0.36-0.24s-0.03,0.18,0,0.41c0.02,0.17,0.09,0.3,0.18,0.38
				c0,0-0.04-0.01-0.09-0.03c-0.06-0.01-0.13-0.04-0.2-0.06c-0.07-0.02-0.15-0.05-0.2-0.06c-0.05-0.02-0.09-0.03-0.09-0.03
				c0.02,0,0.03-0.01,0.03-0.01s0.09-0.04,0.13-0.16c0.04-0.11-0.04-0.29-0.22-0.47c-0.08-0.08-0.17-0.15-0.22-0.2
				c-0.06-0.05-0.1-0.08-0.1-0.08s-0.05,0.18-0.05,0.41c0,0.17,0.05,0.31,0.13,0.39c0,0-0.14-0.06-0.28-0.12
				c-0.07-0.03-0.14-0.06-0.19-0.09c-0.05-0.03-0.09-0.04-0.09-0.04c0.02,0,0.03,0,0.03,0s0.09-0.03,0.15-0.15
				c0.05-0.1,0-0.3-0.15-0.49c-0.07-0.09-0.14-0.17-0.19-0.23c-0.05-0.06-0.08-0.09-0.08-0.09s-0.08,0.17-0.11,0.4
				c-0.03,0.17,0.01,0.31,0.07,0.41c0,0-0.03-0.02-0.08-0.05c-0.05-0.03-0.12-0.07-0.18-0.11c-0.06-0.04-0.13-0.08-0.18-0.12
				c-0.05-0.03-0.08-0.06-0.08-0.06c0.02,0,0.03,0,0.03,0s0.09-0.01,0.17-0.12c0.03-0.05,0.05-0.12,0.03-0.21
				c-0.01-0.09-0.05-0.19-0.1-0.3c-0.05-0.1-0.1-0.19-0.14-0.25c-0.04-0.06-0.06-0.1-0.06-0.1s-0.03,0.04-0.06,0.1
				c-0.04,0.07-0.08,0.16-0.12,0.26c-0.05,0.16-0.05,0.31,0,0.41c0,0-0.03-0.02-0.07-0.06c-0.04-0.04-0.1-0.09-0.16-0.14
				c-0.06-0.05-0.11-0.11-0.15-0.15c-0.04-0.04-0.07-0.07-0.07-0.07c0.02,0.01,0.03,0.01,0.03,0.01s0.09,0,0.19-0.09
				c0.04-0.04,0.07-0.11,0.07-0.2c0.01-0.09,0-0.2-0.04-0.31c-0.03-0.11-0.06-0.2-0.08-0.27c-0.02-0.07-0.04-0.11-0.04-0.11
				s-0.14,0.12-0.26,0.32c-0.09,0.15-0.11,0.29-0.09,0.4c0,0-0.02-0.03-0.06-0.08c-0.03-0.05-0.08-0.1-0.13-0.17
				c-0.04-0.06-0.09-0.13-0.12-0.17c-0.03-0.05-0.05-0.08-0.05-0.08c0.02,0.01,0.03,0.02,0.03,0.02s0.09,0.02,0.2-0.05
				c0.1-0.06,0.16-0.25,0.15-0.49c0-0.11-0.02-0.21-0.02-0.29c-0.01-0.08-0.02-0.12-0.02-0.12s-0.16,0.1-0.32,0.27
				c-0.12,0.13-0.17,0.26-0.17,0.38c0,0-0.02-0.03-0.04-0.09c-0.03-0.05-0.06-0.12-0.08-0.19c-0.06-0.14-0.11-0.29-0.11-0.29
				c0.02,0.01,0.03,0.02,0.03,0.02s0.09,0.04,0.21-0.01c0.05-0.02,0.1-0.07,0.14-0.15c0.04-0.08,0.06-0.18,0.08-0.31
				c0.02-0.12,0.02-0.22,0.02-0.29c0-0.04,0-0.07,0-0.09c0-0.02,0-0.03,0-0.03s-0.04,0.02-0.11,0.05c-0.07,0.03-0.15,0.09-0.24,0.16
				c-0.13,0.1-0.21,0.23-0.23,0.34c0,0-0.04-0.15-0.08-0.3c-0.02-0.07-0.04-0.15-0.05-0.21c-0.01-0.06-0.02-0.09-0.02-0.09
				c0.01,0.02,0.02,0.03,0.02,0.03s0.08,0.05,0.2,0.03c0.11-0.02,0.24-0.18,0.3-0.42c0.03-0.11,0.06-0.22,0.07-0.29
				c0.01-0.07,0.02-0.12,0.02-0.12s-0.18,0.04-0.38,0.15c-0.15,0.08-0.24,0.2-0.29,0.3c0,0,0-0.04-0.01-0.1
				c-0.01-0.06-0.01-0.13-0.02-0.21c-0.01-0.08-0.01-0.15-0.02-0.21c0-0.06,0-0.1,0-0.1c0.01,0.02,0.02,0.03,0.02,0.03
				s0.07,0.06,0.2,0.06c0.11,0,0.27-0.14,0.36-0.38c0.04-0.11,0.08-0.21,0.11-0.28c0.03-0.07,0.04-0.12,0.04-0.12
				s-0.19,0.02-0.4,0.1c-0.16,0.06-0.28,0.16-0.32,0.26c0,0,0-0.04,0-0.1c0-0.06,0.01-0.13,0.01-0.21c0-0.08,0.01-0.15,0.01-0.21
				c0-0.06,0.01-0.1,0.01-0.1c0.01,0.02,0.01,0.03,0.01,0.03s0.06,0.07,0.19,0.09c0.06,0.01,0.12-0.02,0.2-0.08
				c0.07-0.05,0.15-0.14,0.21-0.25c0.06-0.1,0.11-0.2,0.14-0.26c0.03-0.07,0.05-0.11,0.05-0.11s-0.19-0.01-0.41,0.04
				c-0.17,0.04-0.29,0.12-0.36,0.21c0,0,0-0.04,0.01-0.1c0.01-0.06,0.03-0.13,0.04-0.21c0.01-0.08,0.03-0.15,0.04-0.21
				c0.01-0.06,0.02-0.09,0.02-0.09c0,0.02,0.01,0.03,0.01,0.03s0.05,0.08,0.18,0.11c0.11,0.03,0.29-0.07,0.45-0.27
				c0.07-0.09,0.14-0.18,0.18-0.25c0.04-0.07,0.07-0.11,0.07-0.11s-0.19-0.03-0.41-0.01c-0.17,0.02-0.3,0.09-0.38,0.17
				c0,0,0.03-0.1,0.06-0.21c0.02-0.05,0.03-0.1,0.04-0.14c0.01-0.04,0.02-0.06,0.02-0.06c0.04,0,0.1-0.01,0.17-0.05
				c0.1-0.06,0.2-0.25,0.22-0.52c0.02-0.25,0.01-0.45,0.01-0.45s-0.18,0.1-0.36,0.3c-0.19,0.21-0.25,0.44-0.21,0.55
				c0.03,0.08,0.07,0.12,0.1,0.14c0,0-0.02,0.04-0.04,0.11c-0.02,0.07-0.05,0.16-0.08,0.25c-0.03,0.09-0.05,0.18-0.07,0.25
				c-0.02,0.07-0.03,0.12-0.03,0.12c-0.03-0.11-0.1-0.24-0.23-0.35c-0.18-0.16-0.34-0.25-0.34-0.25s-0.01,0.06-0.01,0.15
				c0,0.09,0,0.22,0.01,0.35c0.04,0.3,0.17,0.46,0.28,0.48c0.13,0.02,0.21-0.03,0.21-0.03s0.01-0.01,0.02-0.03
				c0,0-0.01,0.04-0.02,0.1c-0.01,0.06-0.03,0.13-0.03,0.21c-0.02,0.15-0.04,0.31-0.04,0.31c-0.04-0.11-0.13-0.22-0.27-0.32
				c-0.19-0.13-0.37-0.2-0.37-0.2s0,0.24,0.06,0.5c0.08,0.29,0.23,0.44,0.34,0.44c0.13,0,0.2-0.06,0.2-0.06s0.01-0.01,0.02-0.03
				c0,0,0,0.04-0.01,0.1c0,0.03,0,0.06-0.01,0.1c0,0.04,0,0.08,0,0.11c0,0.16,0,0.31,0,0.31c-0.05-0.1-0.16-0.2-0.32-0.28
				c-0.21-0.11-0.4-0.15-0.4-0.15s0.04,0.24,0.13,0.49c0.12,0.28,0.29,0.41,0.4,0.39c0.13-0.02,0.19-0.09,0.19-0.09
				s0.01-0.01,0.01-0.03c0,0,0.01,0.16,0.03,0.31c0.03,0.15,0.06,0.31,0.06,0.31c-0.07-0.09-0.19-0.18-0.36-0.23
				c-0.11-0.04-0.21-0.06-0.29-0.07c-0.07-0.01-0.12-0.02-0.12-0.02s0,0.01,0.01,0.04c0.01,0.03,0.02,0.06,0.04,0.11
				c0.04,0.09,0.09,0.21,0.16,0.33c0.04,0.06,0.08,0.12,0.12,0.17c0.04,0.05,0.09,0.08,0.13,0.11c0.08,0.05,0.16,0.07,0.21,0.05
				c0.12-0.04,0.17-0.12,0.17-0.12s0-0.01,0.01-0.03c0,0,0.04,0.15,0.09,0.3c0.02,0.07,0.04,0.15,0.06,0.2
				c0.02,0.05,0.04,0.09,0.04,0.09c-0.04-0.04-0.1-0.07-0.17-0.1c-0.06-0.03-0.14-0.05-0.22-0.07c-0.23-0.04-0.42-0.03-0.42-0.03
				s0.02,0.05,0.07,0.14c0.02,0.04,0.05,0.09,0.08,0.14c0.04,0.05,0.08,0.1,0.12,0.16c0.2,0.23,0.39,0.3,0.5,0.25
				c0.12-0.06,0.15-0.15,0.15-0.15s0-0.01,0-0.03c0,0,0.01,0.04,0.04,0.09c0.02,0.05,0.06,0.12,0.09,0.19
				c0.02,0.03,0.03,0.07,0.05,0.1c0.02,0.03,0.04,0.06,0.05,0.09c0.03,0.05,0.05,0.08,0.05,0.08c-0.1-0.06-0.24-0.1-0.42-0.1
				c-0.23,0-0.42,0.04-0.42,0.04s0.04,0.05,0.1,0.13c0.06,0.08,0.16,0.17,0.26,0.27c0.24,0.2,0.46,0.22,0.55,0.15
				c0.05-0.04,0.08-0.08,0.1-0.12c0.02-0.03,0.02-0.06,0.02-0.06s0-0.01,0-0.03c0,0,0.01,0.01,0.02,0.02
				c0.01,0.01,0.02,0.03,0.04,0.06c0.04,0.05,0.08,0.11,0.13,0.17c0.1,0.12,0.2,0.24,0.2,0.24c-0.11-0.04-0.26-0.05-0.43-0.01
				c-0.23,0.05-0.4,0.13-0.4,0.13s0.04,0.04,0.12,0.11c0.08,0.06,0.19,0.14,0.31,0.2c0.28,0.14,0.49,0.12,0.56,0.03
				c0.08-0.1,0.08-0.19,0.08-0.19s0-0.01-0.01-0.03c0,0,0.03,0.03,0.07,0.07c0.04,0.04,0.1,0.09,0.16,0.14
				c0.12,0.1,0.25,0.19,0.25,0.19c-0.11-0.02-0.26,0-0.42,0.07c-0.21,0.1-0.37,0.21-0.37,0.21s0.05,0.03,0.14,0.08
				c0.04,0.02,0.09,0.05,0.15,0.07c0.06,0.02,0.12,0.04,0.19,0.06c0.29,0.08,0.5,0.03,0.56-0.07c0.07-0.11,0.04-0.2,0.04-0.2
				s0-0.01-0.02-0.03c0,0,0.03,0.02,0.08,0.05c0.05,0.03,0.12,0.07,0.18,0.11c0.07,0.04,0.14,0.07,0.19,0.1
				c0.05,0.03,0.09,0.04,0.09,0.04c-0.11,0-0.26,0.04-0.4,0.14c-0.19,0.13-0.32,0.27-0.32,0.27s0.06,0.02,0.15,0.05
				c0.09,0.02,0.21,0.06,0.35,0.07c0.3,0.04,0.49-0.06,0.53-0.16c0.05-0.12,0.01-0.21,0.01-0.21s-0.01-0.01-0.02-0.03
				c0,0,0.14,0.06,0.29,0.12c0.14,0.06,0.29,0.11,0.29,0.11c-0.11,0.02-0.25,0.08-0.38,0.2c-0.17,0.16-0.28,0.31-0.28,0.31
				s0.23,0.06,0.5,0.05c0.3,0,0.48-0.12,0.51-0.23c0.03-0.13-0.01-0.21-0.01-0.21s-0.01-0.01-0.02-0.02c0,0,0.04,0.01,0.09,0.03
				c0.06,0.02,0.13,0.04,0.21,0.06c0.08,0.02,0.15,0.04,0.21,0.05c0.06,0.01,0.09,0.02,0.09,0.02c-0.11,0.03-0.24,0.11-0.35,0.24
				c-0.15,0.18-0.24,0.34-0.24,0.34s0.23,0.03,0.5-0.01c0.29-0.04,0.46-0.17,0.48-0.28c0.02-0.13-0.04-0.21-0.04-0.21
				s-0.01-0.01-0.03-0.02c0,0,0.22,0.04,0.43,0.07c0.22,0.03,0.44,0.04,0.44,0.04h0.09c0,0,0.22-0.01,0.44-0.04
				c0.22-0.03,0.43-0.07,0.43-0.07c-0.02,0.01-0.03,0.02-0.03,0.02s-0.06,0.08-0.04,0.21c0.02,0.11,0.18,0.24,0.48,0.28
				c0.27,0.04,0.5,0.01,0.5,0.01s-0.09-0.17-0.24-0.34c-0.11-0.13-0.24-0.21-0.35-0.24c0,0,0.04-0.01,0.09-0.02
				c0.06-0.01,0.13-0.03,0.21-0.05c0.07-0.02,0.15-0.04,0.21-0.06c0.06-0.02,0.09-0.03,0.09-0.03c-0.02,0.01-0.02,0.02-0.02,0.02
				s-0.05,0.08-0.01,0.21c0.03,0.11,0.21,0.22,0.51,0.23c0.27,0,0.5-0.05,0.5-0.05s-0.11-0.16-0.28-0.31
				c-0.13-0.12-0.26-0.18-0.38-0.2c0,0,0.15-0.05,0.29-0.11c0.14-0.06,0.29-0.12,0.29-0.12c-0.01,0.02-0.02,0.03-0.02,0.03
				s-0.04,0.09,0.01,0.21c0.04,0.1,0.24,0.19,0.53,0.16c0.14-0.01,0.26-0.05,0.35-0.07c0.09-0.03,0.15-0.05,0.15-0.05
				s-0.13-0.14-0.32-0.27c-0.15-0.1-0.29-0.14-0.4-0.14c0,0,0.04-0.02,0.09-0.04c0.05-0.03,0.12-0.06,0.19-0.1
				c0.07-0.04,0.13-0.08,0.18-0.11c0.05-0.03,0.08-0.05,0.08-0.05c-0.01,0.02-0.02,0.03-0.02,0.03s-0.02,0.09,0.04,0.2
				c0.06,0.1,0.26,0.16,0.56,0.07c0.07-0.02,0.13-0.04,0.19-0.06c0.06-0.02,0.11-0.05,0.15-0.07c0.09-0.04,0.14-0.08,0.14-0.08
				s-0.15-0.11-0.37-0.21c-0.16-0.07-0.31-0.09-0.42-0.07c0,0,0.13-0.09,0.25-0.19c0.06-0.05,0.12-0.1,0.16-0.14
				c0.04-0.04,0.07-0.07,0.07-0.07c-0.01,0.02-0.01,0.03-0.01,0.03s-0.01,0.09,0.08,0.19c0.07,0.08,0.29,0.11,0.56-0.03
				c0.13-0.07,0.23-0.14,0.31-0.2c0.08-0.06,0.12-0.11,0.12-0.11s-0.17-0.08-0.4-0.13c-0.17-0.04-0.32-0.03-0.43,0.01
				c0,0,0.1-0.12,0.2-0.24c0.05-0.06,0.1-0.12,0.13-0.17c0.02-0.02,0.03-0.04,0.04-0.06c0.01-0.01,0.02-0.02,0.02-0.02
				c0,0.02,0,0.03,0,0.03s0,0.02,0.02,0.06c0.02,0.03,0.04,0.08,0.1,0.12c0.09,0.07,0.3,0.04,0.55-0.15
				c0.11-0.09,0.2-0.19,0.26-0.27c0.06-0.08,0.1-0.13,0.1-0.13s-0.19-0.04-0.42-0.04c-0.17,0-0.32,0.04-0.42,0.1
				c0,0,0.02-0.03,0.05-0.08c0.01-0.03,0.03-0.05,0.05-0.09c0.02-0.03,0.03-0.07,0.05-0.1c0.03-0.07,0.07-0.14,0.09-0.19
				c0.02-0.05,0.04-0.09,0.04-0.09c0,0.02,0,0.03,0,0.03s0.04,0.09,0.15,0.15c0.1,0.05,0.3-0.02,0.5-0.25
				c0.05-0.05,0.09-0.11,0.12-0.16c0.04-0.05,0.06-0.1,0.08-0.14c0.04-0.08,0.07-0.14,0.07-0.14s-0.19-0.01-0.42,0.03
				c-0.09,0.01-0.16,0.04-0.22,0.07c-0.07,0.03-0.12,0.06-0.17,0.1c0,0,0.01-0.04,0.04-0.09c0.02-0.05,0.04-0.13,0.06-0.2
				c0.04-0.15,0.08-0.3,0.08-0.3c0,0.02,0.01,0.03,0.01,0.03s0.05,0.08,0.17,0.12c0.05,0.02,0.13,0,0.21-0.05
				c0.04-0.03,0.09-0.06,0.13-0.11c0.04-0.05,0.08-0.1,0.12-0.17c0.07-0.12,0.12-0.24,0.16-0.33c0.02-0.04,0.03-0.08,0.04-0.11
				c0.01-0.03,0.01-0.04,0.01-0.04s-0.05,0-0.12,0.02C99.71,154.67,99.61,154.69,99.49,154.73z"/>
		</g>
	</g>
	<path class="st1" d="M95.21,25.33H50.74c-4.08,0-7.38-3.31-7.38-7.38V5.02h59.23v12.93C102.59,22.03,99.29,25.33,95.21,25.33z"/>
</g>
</svg>
