<?xml version="1.0" encoding="utf-8"?>
<!-- Generator: Adobe Illustrator 23.0.3, SVG Export Plug-In . SVG Version: 6.00 Build 0)  -->
<svg version="1.1" id="Layer_1" xmlns="http://www.w3.org/2000/svg" xmlns:xlink="http://www.w3.org/1999/xlink" x="0px" y="0px"
	 viewBox="0 0 238.83 192.4" style="enable-background:new 0 0 238.83 192.4;" xml:space="preserve">
<style type="text/css">
	.st0{fill:#00A5A7;}
	.st1{fill:#005254;}
	.st2{fill:#FFFFFF;}
	.st3{fill:#007D7E;}
</style>
<g>
	<rect x="34.25" y="15.4" class="st0" width="13.97" height="41.73"/>
	<rect x="52.8" y="0" class="st0" width="13.97" height="57.13"/>
	<polygon class="st1" points="27.29,190.35 27.29,59.32 90.44,30.9 90.44,190.88 	"/>
	<polygon class="st1" points="87.28,190.35 87.28,59.32 150.43,30.9 150.43,190.88 	"/>
	<polygon class="st1" points="147.28,190.35 147.28,59.32 210.42,30.9 210.42,190.88 	"/>
	<rect y="137.81" class="st0" width="238.83" height="54.59"/>
	<rect x="43.28" y="77.28" class="st2" width="11.86" height="19.86"/>
	<rect x="8.91" y="148.19" class="st3" width="5.19" height="28.88"/>
	<rect x="20.29" y="148.19" class="st3" width="5.19" height="28.88"/>
	<rect x="31.66" y="148.19" class="st3" width="5.19" height="28.88"/>
	<rect x="43.03" y="148.19" class="st3" width="5.19" height="28.88"/>
	<rect x="54.41" y="148.19" class="st3" width="5.19" height="28.88"/>
	<rect x="65.78" y="148.19" class="st3" width="5.19" height="28.88"/>
	<rect x="77.15" y="148.19" class="st3" width="5.19" height="28.88"/>
	<rect x="88.53" y="148.19" class="st3" width="5.19" height="28.88"/>
	<rect x="99.9" y="148.19" class="st3" width="5.19" height="28.88"/>
	<rect x="111.27" y="148.19" class="st3" width="5.19" height="28.88"/>
	<rect x="122.65" y="148.19" class="st3" width="5.19" height="28.88"/>
	<rect x="134.02" y="148.19" class="st3" width="5.19" height="28.88"/>
	<rect x="145.39" y="148.19" class="st3" width="5.19" height="28.88"/>
	<rect x="156.77" y="148.19" class="st3" width="5.19" height="28.88"/>
	<rect x="168.14" y="148.19" class="st3" width="5.19" height="28.88"/>
	<rect x="179.51" y="148.19" class="st3" width="5.19" height="28.88"/>
	<rect x="190.89" y="148.19" class="st3" width="5.19" height="28.88"/>
	<rect x="202.26" y="148.19" class="st3" width="5.19" height="28.88"/>
	<rect x="213.63" y="148.19" class="st3" width="5.19" height="28.88"/>
	<rect x="225.01" y="148.19" class="st3" width="5.19" height="28.88"/>
	<rect x="61.98" y="77.28" class="st0" width="11.86" height="19.86"/>
	<rect x="43.28" y="108.11" class="st0" width="11.86" height="19.86"/>
	<rect x="61.98" y="108.11" class="st0" width="11.86" height="19.86"/>
	<rect x="103.43" y="77.28" class="st2" width="11.86" height="19.86"/>
	<rect x="122.13" y="77.28" class="st0" width="11.86" height="19.86"/>
	<rect x="103.43" y="108.11" class="st0" width="11.86" height="19.86"/>
	<rect x="122.13" y="108.11" class="st0" width="11.86" height="19.86"/>
	<rect x="159.88" y="77.28" class="st0" width="11.86" height="19.86"/>
	<rect x="178.58" y="77.28" class="st0" width="11.86" height="19.86"/>
	<rect x="159.88" y="108.11" class="st0" width="11.86" height="19.86"/>
	<rect x="178.58" y="108.11" class="st0" width="11.86" height="19.86"/>
</g>
</svg>
