<?xml version="1.0" encoding="utf-8"?>
<!-- Generator: Adobe Illustrator 23.0.3, SVG Export Plug-In . SVG Version: 6.00 Build 0)  -->
<svg version="1.1" id="Layer_1" xmlns="http://www.w3.org/2000/svg" xmlns:xlink="http://www.w3.org/1999/xlink" x="0px" y="0px"
	 viewBox="0 0 180.78 134.91" style="enable-background:new 0 0 180.78 134.91;" xml:space="preserve">
<style type="text/css">
	.st0{fill:#00A5A7;}
</style>
<g>
	<g>
		<path class="st0" d="M31.73,107.88h-5.28c-0.15,0.84-0.22,1.69-0.22,2.57c0,0.88,0.08,1.74,0.23,2.57h5.28
			c-0.23-0.82-0.36-1.68-0.36-2.57C31.37,109.56,31.5,108.7,31.73,107.88z M101.28,0H0v113.02h23.48c-0.13-0.84-0.19-1.7-0.19-2.57
			c0-0.87,0.06-1.73,0.19-2.57H5.15V5.15h96.13c3.64,0,6.59,2.96,6.59,6.59v96.14H58.49c0.13,0.84,0.19,1.7,0.19,2.57
			c0,0.87-0.06,1.73-0.19,2.57h54.52V11.74C113.02,5.27,107.75,0,101.28,0z M50.25,107.88c0.23,0.82,0.35,1.68,0.35,2.57
			c0,0.89-0.12,1.75-0.35,2.57h5.27c0.15-0.84,0.23-1.69,0.23-2.57c0-0.88-0.08-1.74-0.22-2.57H50.25z"/>
	</g>
	<g>
		<path class="st0" d="M134.87,107.88h-5.28c-0.15,0.84-0.22,1.69-0.22,2.57c0,0.88,0.08,1.74,0.23,2.57h5.27
			c-0.23-0.82-0.35-1.68-0.35-2.57C134.52,109.56,134.64,108.7,134.87,107.88z M142.54,15.97h-34.67v97.06h18.75
			c-0.13-0.84-0.19-1.7-0.19-2.57c0-0.87,0.06-1.73,0.19-2.57h-13.6V21.11h29.52c18.03,0,32.7,14.67,32.7,32.7v54.07h-13.6
			c0.13,0.84,0.19,1.7,0.19,2.57c0,0.87-0.06,1.73-0.19,2.57h18.75V53.81C180.39,32.94,163.41,15.97,142.54,15.97z M153.39,107.88
			c0.23,0.82,0.35,1.68,0.35,2.57c0,0.89-0.12,1.75-0.35,2.57h5.27c0.15-0.84,0.23-1.69,0.23-2.57c0-0.88-0.08-1.74-0.22-2.57
			H153.39z"/>
	</g>
	<g>
		<path class="st0" d="M180.39,75.08H138.5c-6.94,0-12.58-5.64-12.58-12.58V15.97h16.82c20.76,0,37.64,16.89,37.64,37.64V75.08z
			 M131.07,21.11V62.5c0,4.1,3.33,7.43,7.43,7.43h36.74V53.61c0-17.92-14.58-32.5-32.5-32.5H131.07z"/>
	</g>
	<g>
		<g>
			<g>
				
					<rect x="38.33" y="45.09" transform="matrix(0.7488 -0.6628 0.6628 0.7488 -17.6051 50.0336)" class="st0" width="37.74" height="6.3"/>
			</g>
		</g>
		<g>
			<g>
				<path class="st0" d="M86.14,39.81c-5.43,4.8-14.24,5.03-19.13-0.91c-4.46-5.42-3.13-13.38,1.69-18
					c1.84-1.76,4.65-2.27,7.07-2.73c1.63-0.31,3.11,1.01,3.01,2.67l0,0.04c-0.07,1.16-0.91,2.13-2.05,2.35
					c-1.38,0.26-3.24,0.26-4.31,1.23c-2.97,2.69-3.96,7.53-1.36,10.85c2.91,3.71,8.36,3.57,11.67,0.65
					c1.07-0.95,1.27-2.78,1.69-4.11c0.35-1.11,1.44-1.83,2.6-1.76l0,0c1.67,0.09,2.79,1.74,2.29,3.33
					C88.62,35.62,87.91,38.24,86.14,39.81z"/>
			</g>
		</g>
		<g>
			<g>
				<path class="st0" d="M45.61,75.68c5.43-4.8,6.73-13.52,1.42-19.1c-4.84-5.09-12.9-4.73-18.07-0.51
					c-1.97,1.61-2.82,4.34-3.57,6.69c-0.5,1.58,0.63,3.21,2.28,3.31l0.04,0c1.16,0.07,2.23-0.64,2.58-1.75
					c0.43-1.34,0.65-3.18,1.74-4.13c3.03-2.62,7.95-3.02,10.94-0.03c3.33,3.34,2.53,8.73-0.77,11.66c-1.07,0.95-2.92,0.93-4.29,1.18
					c-1.15,0.21-1.99,1.21-2.06,2.37l0,0c-0.11,1.67,1.38,2.98,3.03,2.68C41.15,77.64,43.83,77.25,45.61,75.68z"/>
			</g>
		</g>
	</g>
	<path class="st0" d="M63.68,107.88c-0.34-3.07-1.3-5.96-2.74-8.54c-1.06-1.9-2.39-3.63-3.92-5.15c-4.12-4.07-9.79-6.59-16.03-6.59
		c-6.24,0-11.91,2.51-16.03,6.59c-1.54,1.52-2.86,3.25-3.92,5.15c-1.44,2.58-2.4,5.47-2.74,8.54c-0.1,0.84-0.15,1.7-0.15,2.57
		s0.05,1.73,0.15,2.57c0.79,7.04,4.8,13.12,10.51,16.74c3.53,2.24,7.71,3.53,12.19,3.53c4.48,0,8.66-1.29,12.19-3.53
		c5.71-3.62,9.72-9.7,10.51-16.74c0.1-0.84,0.15-1.7,0.15-2.57S63.78,108.72,63.68,107.88z M40.99,128.15
		c-8.89,0-16.26-6.58-17.51-15.12c-0.13-0.84-0.19-1.7-0.19-2.57c0-0.87,0.06-1.73,0.19-2.57c0.47-3.21,1.8-6.13,3.74-8.54
		c1.79-2.22,4.12-4,6.77-5.15c2.15-0.93,4.51-1.44,6.99-1.44c2.48,0,4.84,0.51,6.99,1.44c2.66,1.15,4.98,2.93,6.77,5.15
		c1.95,2.41,3.28,5.34,3.74,8.54c0.13,0.84,0.19,1.7,0.19,2.57c0,0.87-0.06,1.73-0.19,2.57C57.25,121.57,49.87,128.15,40.99,128.15z
		"/>
	<g>
		<path class="st0" d="M55.52,107.88c-0.6-3.38-2.35-6.37-4.83-8.54c-2.6-2.27-5.99-3.65-9.7-3.65s-7.11,1.38-9.7,3.65
			c-2.49,2.17-4.24,5.16-4.84,8.54c-0.15,0.84-0.22,1.69-0.22,2.57c0,0.88,0.08,1.74,0.23,2.57c1.22,6.92,7.28,12.18,14.53,12.18
			c7.26,0,13.31-5.27,14.53-12.18c0.15-0.84,0.23-1.69,0.23-2.57C55.74,109.57,55.67,108.71,55.52,107.88z M40.99,120.06
			c-4.41,0-8.13-2.98-9.26-7.04c-0.23-0.82-0.36-1.68-0.36-2.57c0-0.89,0.12-1.75,0.36-2.57c1.12-4.06,4.85-7.04,9.26-7.04
			c4.41,0,8.13,2.98,9.26,7.04c0.23,0.82,0.35,1.68,0.35,2.57c0,0.89-0.12,1.75-0.35,2.57C49.12,117.08,45.4,120.06,40.99,120.06z"
			/>
	</g>
	<path class="st0" d="M166.83,107.88c-1.28-11.39-10.97-20.27-22.7-20.27c-11.73,0-21.42,8.88-22.7,20.27
		c-0.1,0.84-0.15,1.7-0.15,2.57s0.05,1.73,0.15,2.57c0.79,7.04,4.8,13.12,10.51,16.74c3.53,2.24,7.71,3.53,12.19,3.53
		c4.48,0,8.66-1.29,12.19-3.53c5.71-3.62,9.72-9.7,10.51-16.74c0.1-0.84,0.15-1.7,0.15-2.57S166.93,108.72,166.83,107.88z
		 M144.13,128.15c-8.89,0-16.26-6.58-17.51-15.12c-0.13-0.84-0.19-1.7-0.19-2.57c0-0.87,0.06-1.73,0.19-2.57
		c1.25-8.55,8.63-15.13,17.51-15.13c8.88,0,16.26,6.58,17.51,15.13c0.13,0.84,0.19,1.7,0.19,2.57c0,0.87-0.06,1.73-0.19,2.57
		C160.39,121.57,153.01,128.15,144.13,128.15z"/>
	<path class="st0" d="M158.67,107.88c-1.22-6.92-7.27-12.19-14.53-12.19c-7.26,0-13.32,5.27-14.54,12.19
		c-0.15,0.84-0.22,1.69-0.22,2.57c0,0.88,0.08,1.74,0.23,2.57c1.22,6.92,7.28,12.18,14.53,12.18c7.26,0,13.31-5.27,14.53-12.18
		c0.15-0.84,0.23-1.69,0.23-2.57C158.89,109.57,158.81,108.71,158.67,107.88z M144.13,120.06c-4.41,0-8.14-2.98-9.26-7.04
		c-0.23-0.82-0.35-1.68-0.35-2.57c0-0.89,0.12-1.75,0.35-2.57c1.12-4.06,4.85-7.04,9.26-7.04c4.41,0,8.13,2.98,9.26,7.04
		c0.23,0.82,0.35,1.68,0.35,2.57c0,0.89-0.12,1.75-0.35,2.57C152.27,117.08,148.54,120.06,144.13,120.06z"/>
	<g>
		<rect x="0.75" y="129.76" class="st0" width="180.02" height="5.15"/>
	</g>
	<path class="st0" d="M33.99,94.19c-2.66,1.15-4.98,2.93-6.77,5.15H2.57v-5.15H33.99z"/>
	<path class="st0" d="M40.99,95.69c3.71,0,7.11,1.38,9.7,3.65h-19.4C33.88,97.07,37.28,95.69,40.99,95.69z"/>
	<path class="st0" d="M110.45,94.19v5.15h-55.7c-1.79-2.22-4.12-4-6.77-5.15H110.45z"/>
</g>
</svg>
