<?xml version="1.0"?>
<svg xmlns="http://www.w3.org/2000/svg" id="Capa_1" enable-background="new 0 0 512 512" height="512px" viewBox="0 0 512 512" width="512px"><g><g><path d="m67.097 447.143c4.139 0 7.483 3.345 7.483 7.482 0 4.139-3.345 7.513-7.483 7.513h-50.004c-4.706 0-8.986-1.928-12.076-5.018-3.089-3.09-5.017-7.37-5.017-12.075v-65.198c0-4.734 1.928-8.986 5.018-12.076s7.37-5.017 12.076-5.017h133.966c4.706 0 8.986 1.927 12.076 5.017 1.332 1.305 2.438 2.863 3.26 4.564h28.659c5.272 0 5.556-.17 7.058-1.02 1.219-.681 2.807-1.587 5.528-2.863.595-.283 1.417-.681 2.268-1.105-2.126-3.203-3.402-7.03-3.402-11.169v-62.022c0-2.807.596-5.442 1.616-7.852-3.345-.907-6.577-2.013-9.666-3.316-2.806-1.191-4.365-1.899-5.669-2.467-3.034-1.304-4.621-2.013-5.868-2.267-1.56-.312-3.855-.312-8.759-.283h-11.735c-.851 1.7-1.956 3.26-3.288 4.592-3.09 3.09-7.37 5.018-12.076 5.018h-50.004c-4.138 0-7.483-3.345-7.483-7.483 0-4.167 3.345-7.513 7.483-7.513h50.004c1.134 0 2.098-.963 2.098-2.097v-65.198c0-1.134-.964-2.098-2.098-2.098h-133.969c-1.134 0-2.098.964-2.098 2.098v65.198c0 1.134.964 2.097 2.098 2.097h50.004c4.139 0 7.483 3.346 7.483 7.513 0 4.139-3.345 7.483-7.483 7.483h-50.004c-4.706 0-8.986-1.928-12.076-5.018-3.089-3.092-5.017-7.344-5.017-12.078v-65.198c0-4.706 1.928-8.985 5.018-12.075s7.37-5.018 12.076-5.018h133.966c4.706 0 8.986 1.928 12.076 5.018 1.332 1.332 2.438 2.863 3.26 4.564h30.444c3.997-8.589 11.226-16.497 20.721-22.649 7.654-4.96 16.81-8.816 26.873-11.055v-156.56c0-4.138 3.373-7.512 7.512-7.512h61.796c4.167 0 7.512 3.374 7.512 7.512 0 4.139-3.345 7.483-7.512 7.483h-54.312v83.794h142.613v-83.794h-54.313c-4.138 0-7.512-3.345-7.512-7.483s3.373-7.512 7.512-7.512h61.825c4.139 0 7.483 3.374 7.483 7.512v34.101h71.32c4.139 0 7.484 3.375 7.484 7.513 0 1.673-.539 3.203-1.446 4.451l-28.772 44.929 29.027 45.355c2.239 3.486 1.219 8.107-2.268 10.347-1.19.765-2.607 1.191-4.025 1.191h-157.608c-4.139 0-7.512-3.345-7.512-7.483v-34.13h-63.808v48.389c5.131.227 9.751 2.381 13.153 5.782 3.572 3.6 5.812 8.532 5.812 14.003 0 1.672-.227 3.288-.595 4.818h7.569c5.556 0 10.573 2.24 14.229 5.868 3.628 3.657 5.897 8.674 5.897 14.229v62.052c0 4.11-1.248 7.938-3.374 11.112 2.636 1.332 5.301 2.607 7.88 4.024 2.523 1.361 4.904 1.022 7.739 1.022h27.836c.851-1.701 1.956-3.26 3.288-4.593 3.118-3.09 7.37-5.017 12.076-5.017h133.996c4.706 0 8.958 1.927 12.047 5.017 3.118 3.09 5.018 7.37 5.018 12.075v65.198c0 4.705-1.899 8.986-5.018 12.076-3.09 3.09-7.342 5.017-12.047 5.017h-50.004c-4.139 0-7.512-3.345-7.512-7.512 0-4.139 3.373-7.483 7.512-7.483h50.004c1.105 0 2.069-.964 2.069-2.098v-65.198c0-1.133-.935-2.098-2.069-2.098h-133.997c-1.105 0-2.098.965-2.069 2.098v65.198c0 1.134.936 2.098 2.069 2.098h50.004c4.138 0 7.512 3.345 7.512 7.483 0 4.167-3.374 7.512-7.512 7.512h-50.004c-4.706 0-8.958-1.927-12.076-5.017-1.304-1.333-2.438-2.863-3.26-4.564h-15.052c-4.252 0-6.066-.652-9.751 1.418-5.188 2.947-10.914 5.271-17.037 6.916 1.105 2.381 1.729 5.017 1.729 7.795v62.052c0 5.556-2.268 10.573-5.897 14.23-3.656 3.628-8.674 5.896-14.229 5.896h-25.936v40.934c0 4.139-3.345 7.483-7.483 7.483-4.139 0-7.512-3.345-7.512-7.483v-40.934h-15.336c-6.718 0-13.238-.822-19.389-2.324-6.406-1.588-12.359-3.912-17.716-6.831-4.904-2.722-7.002-1.871-12.671-1.871h-12.926c-.822 1.7-1.928 3.231-3.26 4.563-3.09 3.09-7.37 5.018-12.076 5.018h-50.004c-4.138 0-7.483-3.374-7.483-7.513 0-4.138 3.345-7.482 7.483-7.482h50.004c1.134 0 2.098-.965 2.098-2.098v-65.198c0-1.134-.964-2.098-2.098-2.098h-133.968c-1.134 0-2.098.964-2.098 2.098v65.198c0 1.133.964 2.098 2.098 2.098h50.004zm191.483-245.399c-4.139 0-7.483-3.345-7.483-7.483 0-4.195 3.373-7.512 7.54-7.512 1.304 0 2.495-.539 3.345-1.39.85-.878 1.389-2.069 1.389-3.401 0-3.543-2.75-4.961-5.981-4.705-12.217 1.02-23.16 4.903-31.664 10.402-8.306 5.387-14.173 12.189-16.384 19.191-.737 3.401-3.742 5.924-7.342 5.924h-33.846v50.259h10.006c5.924-.027 8.731-.027 11.764.567 2.835.596 4.904 1.503 8.816 3.231 5.953 2.608 10.941 4.706 17.433 5.982 4.11.794 8.419 1.219 12.926 1.219h49.948 6.321c1.417 0 2.692-.567 3.628-1.503.907-.935 1.502-2.211 1.502-3.6v-62.052c0-1.417-.595-2.692-1.502-3.6-.964-.964-2.268-1.53-3.628-1.53h-26.788zm24.35 159.564c5.698 0 11.14-.708 16.186-1.955 8.418-2.127 14.485-7.115 20.495-8.646 2.381-.623 4.933-.425 6.945-.425h17.32v-50.26h-26.136c-9.61 0-9.865-.113-14.882-2.834-2.749-1.502-5.527-2.807-8.333-4.224-5.017-2.522-7.824-3.94-15.477-3.94h-52.414c-1.389 0-2.664.596-3.6 1.502-.936.936-1.502 2.212-1.502 3.629v62.022c0 2.807 2.296 5.131 5.102 5.131zm0 14.996h-49.976c-7.37 0-10.062 1.332-14.825 3.685-2.919 1.446-5.811 2.723-8.646 4.338-4.422 2.494-5.301 3.005-14.428 3.005h-26.901v50.229l18-.027c2.438-.029 3.77-.057 5.585.368 5.981 1.36 13.266 6.774 21.543 8.815 4.933 1.219 10.233 1.871 15.817 1.871h56.269c1.417 0 2.692-.596 3.628-1.531.907-.906 1.502-2.183 1.502-3.6v-62.052c0-1.19-.652-2.381-1.644-3.288-1.928-1.786-3.544-1.813-5.924-1.813zm55.304-262.52v26.618h136.433l-24.151-37.73c-1.616-2.409-1.729-5.612-.085-8.191l24.236-37.843h-57.629v49.634c0 4.139-3.345 7.513-7.483 7.513h-71.321z" data-original="#000000" class="active-path" data-old_color="#000000" fill="#00A5A7"/></g></g> </svg>
