<?xml version="1.0" encoding="iso-8859-1"?>
<!-- Generator: Adobe Illustrator 19.0.0, SVG Export Plug-In . SVG Version: 6.00 Build 0)  -->
<svg version="1.1" id="Capa_1" xmlns="http://www.w3.org/2000/svg" xmlns:xlink="http://www.w3.org/1999/xlink" x="0px" y="0px"
	 viewBox="0 0 512.001 512.001" style="enable-background:new 0 0 512.001 512.001;" xml:space="preserve">
<g>
	<g>
		<g>
			<path d="M508.334,237.279L263.001,23.946c-4.021-3.479-9.979-3.479-14,0L3.667,237.279c-3.354,2.927-4.552,7.625-2.99,11.792
				s5.542,6.927,9.99,6.927h53.333v224c0,5.896,4.771,10.667,10.667,10.667h362.667c5.896,0,10.667-4.771,10.667-10.667v-224h53.333
				c4.448,0,8.427-2.76,9.99-6.927S511.688,240.206,508.334,237.279z M437.334,234.665c-5.896,0-10.667,4.771-10.667,10.667v224
				H85.334v-224c0-5.896-4.771-10.667-10.667-10.667H39.188L256.001,46.133l216.813,188.531H437.334z"/>
			<path d="M245.334,202.665v10.667h-32v-10.667c0-5.896-4.771-10.667-10.667-10.667c-5.896,0-10.667,4.771-10.667,10.667v12.632
				c-9.036,3.223-16.146,10.332-19.368,19.368h-12.632c-5.896,0-10.667,4.771-10.667,10.667c0,5.896,4.771,10.667,10.667,10.667
				h10.667v32h-10.667c-5.896,0-10.667,4.771-10.667,10.667s4.771,10.667,10.667,10.667h10.667v32h-10.667
				c-5.896,0-10.667,4.771-10.667,10.667c0,5.896,4.771,10.667,10.667,10.667h12.632c3.223,9.036,10.332,16.146,19.368,19.369
				v12.631c0,5.896,4.771,10.667,10.667,10.667c5.896,0,10.667-4.771,10.667-10.667v-10.667h32v10.667
				c0,5.896,4.771,10.667,10.667,10.667s10.667-4.771,10.667-10.667v-10.667h32v10.667c0,5.896,4.771,10.667,10.667,10.667
				c5.896,0,10.667-4.771,10.667-10.667v-12.631c9.036-3.223,16.146-10.332,19.368-19.369h12.632
				c5.896,0,10.667-4.771,10.667-10.667c0-5.896-4.771-10.667-10.667-10.667h-10.667v-32h10.667c5.896,0,10.667-4.771,10.667-10.667
				s-4.771-10.667-10.667-10.667h-10.667v-32h10.667c5.896,0,10.667-4.771,10.667-10.667c0-5.896-4.771-10.667-10.667-10.667
				h-12.632c-3.223-9.036-10.332-16.146-19.368-19.368v-12.632c0-5.896-4.771-10.667-10.667-10.667
				c-5.896,0-10.667,4.771-10.667,10.667v10.667h-32v-10.667c0-5.896-4.771-10.667-10.667-10.667S245.334,196.769,245.334,202.665z
				 M309.334,234.665c5.885,0,10.667,4.781,10.667,10.667v106.667c0,5.885-4.781,10.667-10.667,10.667H202.667
				c-5.885,0-10.667-4.781-10.667-10.667V245.331c0-5.885,4.781-10.667,10.667-10.667H309.334z"/>
		</g>
	</g>
</g>
<g>
</g>
<g>
</g>
<g>
</g>
<g>
</g>
<g>
</g>
<g>
</g>
<g>
</g>
<g>
</g>
<g>
</g>
<g>
</g>
<g>
</g>
<g>
</g>
<g>
</g>
<g>
</g>
<g>
</g>
</svg>
