<?xml version="1.0" encoding="utf-8"?>
<!-- Generator: Adobe Illustrator 23.0.3, SVG Export Plug-In . SVG Version: 6.00 Build 0)  -->
<svg version="1.1" id="Layer_1" xmlns="http://www.w3.org/2000/svg" xmlns:xlink="http://www.w3.org/1999/xlink" x="0px" y="0px"
	 viewBox="0 0 179.74 258.2" style="enable-background:new 0 0 179.74 258.2;" xml:space="preserve">
<style type="text/css">
	.st0{fill:#E5E3E5;}
	.st1{fill:#FFFFFF;}
</style>
<path class="st0" d="M145.94,243.01c0,8.39-25.85,15.19-57.75,15.19c-31.89,0-57.75-6.8-57.75-15.19c0-8.39,25.85-15.2,57.75-15.2
	C120.08,227.81,145.94,234.61,145.94,243.01z"/>
<path class="st1" d="M89.87,0C40.24,0,0,40.24,0,89.87c0,53.07,89.87,155.56,89.87,155.56s89.87-98.55,89.87-155.56
	C179.74,40.24,139.5,0,89.87,0z M89.87,125.08c-21.48,0-38.89-17.41-38.89-38.89c0-21.48,17.41-38.89,38.89-38.89
	c21.48,0,38.89,17.41,38.89,38.89C128.76,107.67,111.35,125.08,89.87,125.08z"/>
</svg>
