<?xml version="1.0" encoding="utf-8"?>
<!-- Generator: Adobe Illustrator 23.0.3, SVG Export Plug-In . SVG Version: 6.00 Build 0)  -->
<svg version="1.1" id="Layer_1" xmlns="http://www.w3.org/2000/svg" xmlns:xlink="http://www.w3.org/1999/xlink" x="0px" y="0px"
	 viewBox="0 0 239.74 203.99" style="enable-background:new 0 0 239.74 203.99;" xml:space="preserve">
<style type="text/css">
	.st0{opacity:0.36;fill:#50C4CC;}
	.st1{opacity:0.3;fill:#318B8E;}
	.st2{fill:#00A5A7;}
	.st3{fill:#005254;}
	.st4{fill:#00676A;}
	.st5{fill:#007D7E;}
	.st6{fill:#013E3F;}
	.st7{opacity:0.2;fill:#2E2E4E;}
	.st8{fill:#091B36;}
	.st9{opacity:0.2;fill:#091B36;}
	.st10{opacity:0.05;}
	.st11{fill:#FFFFFF;}
	.st12{fill:#00303F;}
	.st13{opacity:0.3;fill:#11121E;}
	.st14{fill:#B6D2C3;}
	.st15{fill:#F3F3F3;}
	.st16{opacity:0.4;fill:#2E2E4E;}
</style>
<g>
	<rect class="st0" width="239.74" height="203.99"/>
	<g>
		<g>
			<path class="st1" d="M207.79,197.04c0,3.84-42.53,6.95-95,6.95c-52.47,0-95-3.11-95-6.95c0-3.84,42.53-6.95,95-6.95
				C165.26,190.1,207.79,193.21,207.79,197.04z"/>
			<rect x="17.79" y="124.76" class="st2" width="190" height="5.32"/>
			<rect x="17.79" y="127.25" class="st3" width="190" height="3.01"/>
			<rect x="31.93" y="130.09" class="st2" width="3.6" height="65.7"/>
			<rect x="190.06" y="130.09" class="st4" width="3.6" height="65.7"/>
			<rect x="35.53" y="130.09" class="st2" width="29.85" height="65.7"/>
			<rect x="65.38" y="130.09" class="st3" width="8.35" height="65.7"/>
			<rect x="193.65" y="130.09" class="st3" width="8.35" height="65.7"/>
			<rect x="39" y="133.07" class="st5" width="22.91" height="11.81"/>
			<rect x="40.6" y="135.69" class="st4" width="19.7" height="2.19"/>
			<rect x="39" y="149.35" class="st5" width="22.91" height="11.81"/>
			<rect x="40.6" y="151.97" class="st4" width="19.7" height="2.19"/>
			<rect x="39" y="165.64" class="st5" width="22.91" height="11.81"/>
			<rect x="40.6" y="168.26" class="st4" width="19.7" height="2.19"/>
			<rect x="39" y="181.92" class="st5" width="22.91" height="11.81"/>
			<rect x="40.6" y="184.54" class="st4" width="19.7" height="2.19"/>
			<rect x="160.21" y="130.09" class="st2" width="29.85" height="65.7"/>
			<rect x="163.68" y="133.07" class="st5" width="22.91" height="11.81"/>
			<rect x="165.28" y="135.69" class="st4" width="19.7" height="2.19"/>
			<rect x="163.68" y="149.35" class="st5" width="22.91" height="11.81"/>
			<rect x="165.28" y="151.97" class="st4" width="19.7" height="2.19"/>
			<rect x="163.68" y="165.64" class="st5" width="22.91" height="11.81"/>
			<rect x="165.28" y="168.26" class="st4" width="19.7" height="2.19"/>
			<rect x="163.68" y="181.92" class="st5" width="22.91" height="11.81"/>
			<rect x="165.28" y="184.54" class="st4" width="19.7" height="2.19"/>
			<rect x="109.92" y="168.37" class="st4" width="2.63" height="12.97"/>
			<rect x="109.92" y="168.37" class="st6" width="2.63" height="4.55"/>
			<path class="st6" d="M133.57,192.92v-5.58l-1.02-1.24l-21.08-4.17l-0.04-0.09l-0.2,0.04l-0.2-0.04l-0.03,0.09l-21.08,4.17
				l-1.02,1.24v5.58c-1.25,0.5-2.14,1.72-2.14,3.15c0,1.88,1.52,3.4,3.4,3.4c1.88,0,3.4-1.52,3.4-3.4c0-1.43-0.89-2.65-2.14-3.15
				v-4.55l14.05-2.78l-6.69,4.33l-0.58,1.06v1.9c-1.31,0.47-2.26,1.71-2.26,3.19c0,1.88,1.52,3.4,3.4,3.4c1.88,0,3.4-1.52,3.4-3.4
				c0-1.39-0.83-2.57-2.02-3.1v-1.31l10.51-6.79l10.51,6.79v1.31c-1.19,0.53-2.02,1.72-2.02,3.1c0,1.88,1.52,3.4,3.4,3.4
				c1.88,0,3.4-1.52,3.4-3.4c0-1.48-0.95-2.72-2.26-3.19v-1.9l-0.58-1.06l-6.69-4.33l14.05,2.78v4.55c-1.25,0.5-2.14,1.72-2.14,3.15
				c0,1.88,1.52,3.4,3.4,3.4c1.88,0,3.4-1.52,3.4-3.4C135.71,194.64,134.82,193.42,133.57,192.92z"/>
			<path class="st6" d="M113.64,185.31v-4.37c0-1.33-1.08-2.4-2.4-2.4c-1.33,0-2.4,1.08-2.4,2.4v4.37H113.64z"/>
			<path class="st3" d="M128.38,135.79c0,11.01-39.87,11.01-39.87,0v-23.71c0-11.01,8.92-19.94,19.93-19.94l0,0
				c11.01,0,19.94,8.93,19.94,19.94V135.79z"/>
			<path class="st4" d="M124.08,135.79c0,11.01-39.87,11.01-39.87,0v-23.71c0-11.01,8.93-19.94,19.93-19.94l0,0
				c11.01,0,19.93,8.93,19.93,19.94V135.79z"/>
			<path class="st3" d="M146.7,160.15c0,1.47-1.19,2.66-2.66,2.66H109.5c-1.47,0-2.66-1.19-2.66-2.66v-4.2
				c0-1.47,1.19-2.66,2.66-2.66h34.55c1.47,0,2.66,1.19,2.66,2.66V160.15z"/>
			<path class="st4" d="M124.08,160.15c0,1.47-1.19,2.66-2.66,2.66H86.87c-1.47,0-2.66-1.19-2.66-2.66v-4.2
				c0-1.47,1.19-2.66,2.66-2.66h34.55c1.47,0,2.66,1.19,2.66,2.66V160.15z"/>
			<rect x="108.45" y="162.81" class="st4" width="27.35" height="3.16"/>
			<rect x="90.57" y="162.81" class="st6" width="27.35" height="3.16"/>
			<path class="st4" d="M106.39,165.97c0,1.33,1.08,2.41,2.41,2.41h18.24c1.33,0,2.41-1.08,2.41-2.41H106.39z"/>
			<path class="st6" d="M92.62,165.97c0,1.33,1.08,2.41,2.41,2.41h18.24c1.33,0,2.41-1.08,2.41-2.41H92.62z"/>
			<path class="st3" d="M108.1,162.7v-31.94c0-1.13-0.92-2.05-2.05-2.05h-1.94c-1.13,0-2.05,0.92-2.05,2.05v31.94H108.1z"/>
			<path class="st6" d="M106.44,162.7v-31.94c0-1.13-0.92-2.05-2.05-2.05h-1.94c-1.13,0-2.05,0.92-2.05,2.05v31.94H106.44z"/>
			<rect x="152.75" y="122.51" class="st6" width="33.84" height="2.26"/>
			<rect x="157.78" y="114.48" class="st3" width="19.22" height="8.02"/>
			<rect x="157.78" y="114.48" class="st7" width="19.22" height="4.91"/>
			<rect x="156.49" y="114.48" class="st3" width="19.22" height="8.02"/>
			<rect x="149.11" y="122.51" class="st3" width="33.84" height="2.26"/>
			<g>
				<path class="st6" d="M199.05,111.27c0,3.33-2.7,6.02-6.02,6.02H143.2c-3.33,0-6.02-2.7-6.02-6.02V79.98
					c0-3.33,2.7-6.02,6.02-6.02h49.83c3.33,0,6.02,2.7,6.02,6.02V111.27z"/>
				<path class="st6" d="M193.03,73.96H143.2c-3.33,0-6.02,2.7-6.02,6.02v31.29h61.88V79.98C199.05,76.66,196.36,73.96,193.03,73.96
					z"/>
			</g>
			<polygon class="st7" points="156.49,117.29 156.49,122.51 175.71,119.43 175.71,117.29 			"/>
			<g>
				<g>
					<path class="st8" d="M34.01,121.41L22.69,99.72L42.39,89.7L44,92.49l-16.84,8.56l9.89,18.96L34.01,121.41L34.01,121.41z
						 M24.48,100.25l10.15,19.46l0.61-0.28l-9.87-18.91l16.79-8.54l-0.32-0.56L24.48,100.25L24.48,100.25z"/>
				</g>
			</g>
			<path class="st5" d="M35.23,119.51c-3.14,0-5.69,2.39-5.69,5.33h11.38C40.92,121.89,38.37,119.51,35.23,119.51z"/>
			<path class="st9" d="M36.77,119.71c-0.49-0.13-1.01-0.2-1.54-0.2c-3.14,0-5.69,2.39-5.69,5.33h3.08
				C32.62,122.39,34.38,120.34,36.77,119.71z"/>
			<path class="st5" d="M28.83,100.68c0,1.92-1.66,3.47-3.7,3.47c-2.04,0-3.7-1.55-3.7-3.47c0-1.92,1.66-3.47,3.7-3.47
				C27.17,97.21,28.83,98.77,28.83,100.68z"/>
			<path class="st8" d="M26.56,100.68c0,0.74-0.64,1.34-1.43,1.34c-0.79,0-1.43-0.6-1.43-1.34c0-0.74,0.64-1.34,1.43-1.34
				C25.92,99.34,26.56,99.94,26.56,100.68z"/>
			<g>
				<path class="st8" d="M42.59,92.41c-0.25,0-0.49-0.08-0.69-0.25l-4.03-3.48c-0.41-0.36-0.44-0.96-0.06-1.34
					c0.38-0.39,1.02-0.41,1.43-0.05l4.03,3.48c0.41,0.36,0.44,0.96,0.06,1.35C43.14,92.31,42.87,92.41,42.59,92.41L42.59,92.41z"/>
			</g>
			<path class="st5" d="M46.71,90.91l-1.66-1.43c-1.35-1.17-3.45-1.09-4.7,0.17c-1.25,1.26-1.16,3.23,0.19,4.4l1.66,1.43l3.11,8.24
				l10.41-10.57L46.71,90.91z"/>
			<polygon class="st8" points="46.71,90.91 46.06,90.35 41.68,95.04 42.2,95.49 42.45,96.15 47.21,91.04 			"/>
			<g>
				<g>
					<line class="st2" x1="49.46" y1="106.34" x2="51.17" y2="121.54"/>
					<path class="st2" d="M51.16,122.04c-0.25,0-0.46-0.19-0.49-0.44l-1.71-15.21c-0.03-0.27,0.17-0.52,0.44-0.55
						c0.27-0.03,0.52,0.17,0.55,0.44l1.71,15.21c0.03,0.27-0.17,0.52-0.44,0.55C51.2,122.04,51.18,122.04,51.16,122.04L51.16,122.04
						z"/>
				</g>
				<g>
					<path class="st2" d="M51.12,111.3c-0.08,0-0.15-0.06-0.16-0.15l-0.41-3.7l-0.94,0.11c-0.09,0.01-0.17-0.05-0.18-0.15
						c-0.01-0.09,0.06-0.17,0.15-0.18l1.27-0.14l0.45,4.03c0.01,0.09-0.06,0.17-0.15,0.18C51.13,111.3,51.12,111.3,51.12,111.3
						L51.12,111.3z"/>
				</g>
			</g>
			<g>
				<g>
					<line class="st2" x1="54.42" y1="106.37" x2="52.22" y2="121.51"/>
					<path class="st2" d="M52.22,122.01c-0.02,0-0.05,0-0.07,0c-0.27-0.04-0.46-0.29-0.42-0.56l2.2-15.15
						c0.04-0.27,0.29-0.46,0.56-0.42c0.27,0.04,0.46,0.29,0.42,0.56l-2.2,15.14C52.68,121.83,52.46,122.01,52.22,122.01
						L52.22,122.01z"/>
				</g>
				<g>
					<path class="st2" d="M54.81,111.59c-0.01,0-0.02,0-0.02,0c-0.09-0.01-0.15-0.1-0.14-0.19l0.53-3.69l-0.94-0.14
						c-0.09-0.01-0.15-0.1-0.14-0.19c0.01-0.09,0.1-0.16,0.19-0.14l1.26,0.18l-0.58,4.01C54.96,111.53,54.89,111.59,54.81,111.59
						L54.81,111.59z"/>
				</g>
			</g>
			<g>
				<polygon class="st5" points="57.01,114.79 47.21,114.79 49.4,124.76 54.81,124.76 				"/>
			</g>
			<polygon class="st3" points="47.21,114.79 49.4,124.76 52.21,124.76 50.02,114.79 			"/>
			<path class="st3" d="M197.03,111.27c0,3.33-2.7,6.02-6.02,6.02h-49.83c-3.33,0-6.02-2.7-6.02-6.02V79.98
				c0-3.33,2.7-6.02,6.02-6.02h49.83c3.33,0,6.02,2.7,6.02,6.02V111.27z"/>
			<path class="st6" d="M191.01,73.96h-49.83c-3.33,0-6.02,2.7-6.02,6.02v31.29h61.88V79.98C197.03,76.66,194.34,73.96,191.01,73.96
				z"/>
			<path class="st6" d="M167.18,113.42c0,0.62-0.51,1.13-1.13,1.13c-0.62,0-1.13-0.51-1.13-1.13s0.51-1.13,1.13-1.13
				C166.68,112.29,167.18,112.8,167.18,113.42z"/>
			<g class="st10">
				<polygon class="st11" points="135.16,96.12 157.32,73.96 152.38,73.96 135.16,91.18 				"/>
				<polygon class="st11" points="163.62,73.96 135.16,102.42 135.16,111.27 145.88,111.27 183.18,73.96 				"/>
				<path class="st11" d="M197.03,86.9v-6.92c0-1.1-0.3-2.13-0.81-3.01l-34.3,34.3h10.74L197.03,86.9z"/>
				<polygon class="st11" points="197.03,101.45 197.03,90.71 176.47,111.27 187.21,111.27 				"/>
				<path class="st11" d="M193.47,74.49c-0.75-0.34-1.58-0.53-2.45-0.53h-1.96l-37.31,37.31h4.94L193.47,74.49z"/>
			</g>
			<path class="st4" d="M191.01,75.21c2.63,0,4.77,2.14,4.77,4.77v30.03h-59.37V79.98c0-2.63,2.14-4.77,4.77-4.77H191.01
				 M191.01,73.96h-49.83c-3.33,0-6.02,2.7-6.02,6.02v31.29h61.88V79.98C197.03,76.66,194.34,73.96,191.01,73.96L191.01,73.96z"/>
			<g>
				<g>
					<g>
						<path class="st5" d="M75.68,123.21h-0.47v-7.12h0.47c1.96,0,3.56,1.6,3.56,3.56C79.24,121.62,77.65,123.21,75.68,123.21
							L75.68,123.21z M76.15,117.07v5.17c1.23-0.22,2.16-1.3,2.16-2.59C78.31,118.36,77.38,117.29,76.15,117.07L76.15,117.07z"/>
					</g>
					<path class="st5" d="M66.75,114.47v8.98c0,0.77,0.83,1.39,1.86,1.39h5.68c1.03,0,1.86-0.62,1.86-1.39v-8.98H66.75z"/>
					<g>
						<g>
							<polygon class="st12" points="76.15,118.49 66.75,118.49 66.75,118.26 76.15,118.26 76.15,118.49 							"/>
						</g>
						<g>
							<polygon class="st12" points="76.15,119.13 66.75,119.13 66.75,118.9 76.15,118.9 76.15,119.13 							"/>
						</g>
						<g>
							<polygon class="st12" points="76.15,119.77 66.75,119.77 66.75,119.54 76.15,119.54 76.15,119.77 							"/>
						</g>
						<g>
							<polygon class="st12" points="76.15,120.41 66.75,120.41 66.75,120.17 76.15,120.17 76.15,120.41 							"/>
						</g>
						<g>
							<polygon class="st12" points="76.15,121.04 66.75,121.04 66.75,120.81 76.15,120.81 76.15,121.04 							"/>
						</g>
					</g>
				</g>
				<path class="st13" d="M69.03,123.45v-8.98h-2.28v8.98c0,0.77,0.83,1.39,1.86,1.39h2.28C69.86,124.84,69.03,124.22,69.03,123.45z
					"/>
			</g>
			<g>
				<path class="st1" d="M234.2,200.58c0,0.79-5.72,1.44-12.77,1.44c-7.05,0-12.77-0.64-12.77-1.44c0-0.79,5.72-1.44,12.77-1.44
					C228.49,199.14,234.2,199.78,234.2,200.58z"/>
				<g>
					<polygon class="st14" points="217.84,169.72 216.63,170.4 214.94,172.09 215.53,173.7 217.2,175.9 220.33,174.46 
						220.69,171.89 219.85,170.97 					"/>
					<polygon class="st14" points="224.33,169.72 223.12,170.4 221.43,172.09 222.02,173.7 223.69,175.9 226.82,174.46 
						227.18,171.89 226.34,170.97 					"/>
					<polygon class="st14" points="220.99,168.76 220.14,169.24 218.96,170.43 219.37,171.56 220.54,173.1 222.74,172.09 
						223,170.29 222.41,169.64 					"/>
					<polygon class="st14" points="211.15,171.7 210.3,172.18 209.11,173.36 209.53,174.49 210.7,176.04 212.9,175.03 
						213.16,173.22 212.56,172.57 					"/>
					<polygon class="st14" points="231.36,171.7 230.51,172.18 229.32,173.36 229.74,174.49 230.91,176.04 233.11,175.03 
						233.36,173.22 232.77,172.57 					"/>
				</g>
				<g>
					<polygon class="st15" points="214.75,170.56 213.17,171.45 210.96,173.66 211.73,175.77 213.91,178.65 218.02,176.77 
						218.49,173.4 217.39,172.19 					"/>
					<polygon class="st15" points="227.17,168.76 225.59,169.66 223.38,171.87 224.15,173.97 226.33,176.85 230.44,174.97 
						230.91,171.6 229.8,170.39 					"/>
					<polygon class="st15" points="221.45,171.49 220.52,172.02 219.22,173.32 219.67,174.55 220.95,176.25 223.37,175.14 
						223.65,173.16 223,172.45 					"/>
				</g>
				<polygon class="st3" points="210.96,176.25 212.46,200.58 230.4,200.58 231.91,176.25 				"/>
				<path class="st2" d="M230.53,195.81l-0.94-1.71l0.94-1.71l0.34,0.62l0.07-1.17l-0.06-0.1l0.07-0.13l0.09-1.46l-0.52,0.94
					l-0.94-1.71l0.94-1.71l0.6,1.1l0.07-1.17l-0.32-0.58l0.4-0.73l0.09-1.46l-0.85,1.54l-0.94-1.71l0.94-1.71l0.87,1.57l0.07-1.17
					l-0.58-1.06l0.73-1.32l0.12-1.86l-0.84-1.53l0.74-1.34h-0.71l-0.38,0.69l-0.38-0.69h-0.71l0.74,1.34l-0.94,1.71l-0.94-1.71
					l0.74-1.34h-0.71l-0.38,0.69l-0.38-0.69h-0.71l0.74,1.34l-0.94,1.71l-0.94-1.71l0.74-1.34h-0.71l-0.38,0.69l-0.38-0.69h-0.71
					l0.74,1.34l-0.94,1.71l-0.94-1.71l0.74-1.34h-0.71l-0.38,0.69l-0.38-0.69h-0.71l0.74,1.34l-0.94,1.71l-0.94-1.71l0.74-1.34
					h-0.71l-0.38,0.69l-0.38-0.69h-0.71l0.74,1.34l-0.94,1.71l-0.94-1.71l0.74-1.34h-0.71l-0.38,0.69l-0.38-0.69h-0.71l0.74,1.34
					l-0.94,1.71l-0.94-1.71l0.74-1.34h-0.71l-0.38,0.69l-0.38-0.69h-0.71l0.74,1.34l-0.94,1.71l-0.94-1.71l0.74-1.34h-0.71
					l-0.38,0.69l-0.38-0.69h-0.71l0.74,1.34l-0.84,1.53l0.12,1.86l0.73,1.32l-0.58,1.06l0.07,1.17l0.87-1.57l0.94,1.71l-0.94,1.71
					l-0.85-1.54l0.09,1.46l0.4,0.73l-0.32,0.58l0.07,1.17l0.6-1.1l0.94,1.71l-0.94,1.71l-0.52-0.94l0.09,1.46l0.07,0.13l-0.06,0.1
					l0.07,1.17l0.34-0.62l0.94,1.71l-0.94,1.71l-0.19-0.34l0.11,1.79l0.08-0.14l0.94,1.71l-0.83,1.51l0.02,0.25h0.56l0.61-1.11
					l0.61,1.11h1.37l0.61-1.11l0.61,1.11h1.37l0.61-1.11l0.61,1.11h1.37l0.61-1.11l0.61,1.11h1.37l0.61-1.11l0.61,1.11h1.37
					l0.61-1.11l0.61,1.11h1.37l0.61-1.11l0.61,1.11h0.56l0.02-0.25l-0.83-1.51l0.94-1.71l0.08,0.14l0.11-1.79L230.53,195.81z
					 M230.17,191.74l-0.94,1.71l-0.94-1.71l0.94-1.71L230.17,191.74z M226.99,184.66l0.94-1.71l0.94,1.71l-0.94,1.71L226.99,184.66z
					 M228.87,189.38l-0.94,1.71l-0.94-1.71l0.94-1.71L228.87,189.38z M227.57,187.02l-0.94,1.71l-0.94-1.71l0.94-1.71L227.57,187.02
					z M226.27,189.38l-0.94,1.71l-0.94-1.71l0.94-1.71L226.27,189.38z M225.33,186.37l-0.94-1.71l0.94-1.71l0.94,1.71L225.33,186.37
					z M224.97,187.02l-0.94,1.71l-0.94-1.71l0.94-1.71L224.97,187.02z M223.67,189.38l-0.94,1.71l-0.94-1.71l0.94-1.71
					L223.67,189.38z M222.73,186.37l-0.94-1.71l0.94-1.71l0.94,1.71L222.73,186.37z M222.37,187.02l-0.94,1.71l-0.94-1.71l0.94-1.71
					L222.37,187.02z M221.08,189.38l-0.94,1.71l-0.94-1.71l0.94-1.71L221.08,189.38z M220.13,186.37l-0.94-1.71l0.94-1.71l0.94,1.71
					L220.13,186.37z M219.78,187.02l-0.94,1.71l-0.94-1.71l0.94-1.71L219.78,187.02z M218.48,189.38l-0.94,1.71l-0.94-1.71
					l0.94-1.71L218.48,189.38z M217.53,186.37l-0.94-1.71l0.94-1.71l0.94,1.71L217.53,186.37z M217.18,187.02l-0.94,1.71l-0.94-1.71
					l0.94-1.71L217.18,187.02z M214.93,186.37l-0.94-1.71l0.94-1.71l0.94,1.71L214.93,186.37z M215.88,189.38l-0.94,1.71l-0.94-1.71
					l0.94-1.71L215.88,189.38z M215.88,194.1l-0.94,1.71l-0.94-1.71l0.94-1.71L215.88,194.1z M215.29,191.74l0.94-1.71l0.94,1.71
					l-0.94,1.71L215.29,191.74z M217.53,192.39l0.94,1.71l-0.94,1.71l-0.94-1.71L217.53,192.39z M217.89,191.74l0.94-1.71l0.94,1.71
					l-0.94,1.71L217.89,191.74z M220.13,192.39l0.94,1.71l-0.94,1.71l-0.94-1.71L220.13,192.39z M220.49,191.74l0.94-1.71l0.94,1.71
					l-0.94,1.71L220.49,191.74z M222.73,192.39l0.94,1.71l-0.94,1.71l-0.94-1.71L222.73,192.39z M223.09,191.74l0.94-1.71l0.94,1.71
					l-0.94,1.71L223.09,191.74z M225.33,192.39l0.94,1.71l-0.94,1.71l-0.94-1.71L225.33,192.39z M225.69,191.74l0.94-1.71l0.94,1.71
					l-0.94,1.71L225.69,191.74z M227.93,192.39l0.94,1.71l-0.94,1.71l-0.94-1.71L227.93,192.39z M230.17,187.02l-0.94,1.71
					l-0.94-1.71l0.94-1.71L230.17,187.02z M230.53,178.23l0.94,1.71l-0.94,1.71l-0.94-1.71L230.53,178.23z M230.17,182.3l-0.94,1.71
					l-0.94-1.71l0.94-1.71L230.17,182.3z M227.93,178.23l0.94,1.71l-0.94,1.71l-0.94-1.71L227.93,178.23z M227.57,182.3l-0.94,1.71
					l-0.94-1.71l0.94-1.71L227.57,182.3z M225.33,178.23l0.94,1.71l-0.94,1.71l-0.94-1.71L225.33,178.23z M224.97,182.3l-0.94,1.71
					l-0.94-1.71l0.94-1.71L224.97,182.3z M222.73,178.23l0.94,1.71l-0.94,1.71l-0.94-1.71L222.73,178.23z M222.37,182.3l-0.94,1.71
					l-0.94-1.71l0.94-1.71L222.37,182.3z M220.13,178.23l0.94,1.71l-0.94,1.71l-0.94-1.71L220.13,178.23z M219.78,182.3l-0.94,1.71
					l-0.94-1.71l0.94-1.71L219.78,182.3z M217.53,178.23l0.94,1.71l-0.94,1.71l-0.94-1.71L217.53,178.23z M217.18,182.3l-0.94,1.71
					l-0.94-1.71l0.94-1.71L217.18,182.3z M214.93,178.23l0.94,1.71l-0.94,1.71l-0.94-1.71L214.93,178.23z M211.39,179.94l0.94-1.71
					l0.94,1.71l-0.94,1.71L211.39,179.94z M212.69,182.3l0.94-1.71l0.94,1.71l-0.94,1.71L212.69,182.3z M212.69,187.02l0.94-1.71
					l0.94,1.71l-0.94,1.71L212.69,187.02z M212.69,191.74l0.94-1.71l0.94,1.71l-0.94,1.71L212.69,191.74z M212.69,196.46l0.94-1.71
					l0.94,1.71l-0.94,1.71L212.69,196.46z M214.93,200.53l-0.94-1.71l0.94-1.71l0.94,1.71L214.93,200.53z M215.29,196.46l0.94-1.71
					l0.94,1.71l-0.94,1.71L215.29,196.46z M217.53,200.53l-0.94-1.71l0.94-1.71l0.94,1.71L217.53,200.53z M217.89,196.46l0.94-1.71
					l0.94,1.71l-0.94,1.71L217.89,196.46z M220.13,200.53l-0.94-1.71l0.94-1.71l0.94,1.71L220.13,200.53z M220.49,196.46l0.94-1.71
					l0.94,1.71l-0.94,1.71L220.49,196.46z M222.73,200.53l-0.94-1.71l0.94-1.71l0.94,1.71L222.73,200.53z M223.09,196.46l0.94-1.71
					l0.94,1.71l-0.94,1.71L223.09,196.46z M225.33,200.53l-0.94-1.71l0.94-1.71l0.94,1.71L225.33,200.53z M225.69,196.46l0.94-1.71
					l0.94,1.71l-0.94,1.71L225.69,196.46z M227.93,200.53l-0.94-1.71l0.94-1.71l0.94,1.71L227.93,200.53z M229.23,198.17l-0.94-1.71
					l0.94-1.71l0.94,1.71L229.23,198.17z"/>
				<rect x="208.66" y="174.6" class="st4" width="25.54" height="3.29"/>
				<polygon class="st16" points="231.6,181.18 231.81,177.89 211.06,177.89 211.26,181.18 				"/>
				<polygon class="st4" points="212.33,198.51 212.46,200.58 230.4,200.58 230.53,198.51 				"/>
			</g>
			<g>
				<path class="st1" d="M25.75,197.79c0,0.66-3.6,1.19-8.05,1.19c-4.44,0-8.05-0.53-8.05-1.19c0-0.66,3.6-1.19,8.05-1.19
					C22.14,196.6,25.75,197.14,25.75,197.79z"/>
				<path class="st5" d="M10.76,170.92c-1.28-4.34-2.85-8-4.11-9.84c-0.07,2.23,0.61,6.15,1.89,10.49c1.28,4.34,2.85,8,4.11,9.84
					C12.72,179.18,12.04,175.26,10.76,170.92z"/>
				<path class="st5" d="M27.04,171.57c-1.28,4.34-2.85,8-4.11,9.84c-0.07-2.23,0.61-6.15,1.89-10.49c1.28-4.34,2.85-8,4.11-9.84
					C29,163.31,28.33,167.23,27.04,171.57z"/>
				<path class="st4" d="M25.87,155.9c-1.32,2.22-2.84,6.57-3.98,11.69c-1.14,5.12-1.61,9.71-1.36,12.28
					c1.32-2.22,2.84-6.57,3.98-11.69C25.65,163.05,26.12,158.47,25.87,155.9z"/>
				<path class="st4" d="M14.39,167.59c-1.14-5.12-2.66-9.47-3.98-11.69c-0.25,2.57,0.22,7.16,1.36,12.28
					c1.14,5.12,2.67,9.47,3.98,11.69C16,177.3,15.53,172.71,14.39,167.59z"/>
				<path class="st4" d="M18.35,151.97c-0.91,2.79-1.52,7.99-1.51,13.95c0.01,5.96,0.62,11.16,1.54,13.95
					c0.91-2.79,1.52-7.99,1.51-13.95C19.88,159.96,19.27,154.76,18.35,151.97z"/>
				<path class="st2" d="M17.5,172.96c-0.57-4.79-1.57-8.91-2.57-11.06c-0.46,2.33-0.46,6.56,0.12,11.35
					c0.57,4.79,1.57,8.91,2.57,11.06C18.09,181.99,18.08,177.75,17.5,172.96z"/>
				<path class="st2" d="M21.38,161.91c-1,2.15-2,6.27-2.57,11.06c-0.57,4.79-0.58,9.03-0.12,11.35c1-2.15,2-6.27,2.57-11.06
					C21.84,168.47,21.85,164.23,21.38,161.91z"/>
				<path class="st2" d="M26.23,163.34c-1.27,2.01-2.78,5.96-3.96,10.64c-1.18,4.68-1.73,8.88-1.57,11.25
					c1.27-2,2.78-5.96,3.96-10.64C25.84,169.91,26.39,165.71,26.23,163.34z"/>
				<path class="st2" d="M13.85,173.98c-1.18-4.68-2.69-8.64-3.96-10.64c-0.16,2.37,0.39,6.57,1.57,11.25
					c1.18,4.68,2.69,8.64,3.96,10.64C15.58,182.86,15.03,178.66,13.85,173.98z"/>
				<path class="st4" d="M10.47,179.94v4.72v1.91v2.81v1.91V196c0,0.99,0.8,1.79,1.79,1.79h10.87c0.99,0,1.79-0.8,1.79-1.79v-4.72
					v-1.91v-2.81v-1.91v-4.72H10.47z"/>
				<rect x="9.65" y="177.75" class="st5" width="16.09" height="3.36"/>
				<rect x="9.65" y="180.2" class="st4" width="16.09" height="0.9"/>
				<polygon class="st16" points="24.92,184.65 24.92,181.11 10.47,181.11 10.47,184.77 10.47,186.68 10.47,187.67 				"/>
			</g>
		</g>
		<g>
			<rect x="31.93" y="130.09" class="st7" width="3.6" height="8.89"/>
			<rect x="190.06" y="130.09" class="st7" width="3.6" height="8.89"/>
		</g>
		<rect x="65.38" y="130.09" class="st7" width="8.35" height="8.89"/>
		<rect x="193.65" y="130.09" class="st7" width="8.35" height="8.89"/>
		<polygon class="st16" points="65.38,130.12 35.53,130.12 35.53,158.53 65.38,139 		"/>
		<polygon class="st16" points="190.06,130.76 160.21,130.76 160.21,159.18 190.06,139.65 		"/>
	</g>
	<g>
		<path class="st2" d="M91.91,24.2c0,2.73-3.22,4.94-7.18,4.94c-3.97,0-7.18-2.21-7.18-4.94c0-2.73,3.22-4.94,7.18-4.94
			C88.7,19.26,91.91,21.47,91.91,24.2z"/>
		<g>
			<rect x="83.71" class="st5" width="2.05" height="14.09"/>
		</g>
		<path class="st5" d="M91.58,19.94v-4.16c0-2.6-3.06-4.71-6.85-4.71c-3.78,0-6.85,2.11-6.85,4.71v4.16H91.58z"/>
		<polygon class="st4" points="91.58,19.94 77.89,19.94 71.33,24.2 71.33,25.51 98.13,25.51 98.13,24.2 		"/>
		<rect x="71.33" y="24.2" class="st5" width="26.79" height="1.31"/>
		<rect x="77.89" y="16.22" class="st4" width="13.69" height="2.33"/>
		<path class="st7" d="M87.08,11.36c-0.73-0.18-1.52-0.29-2.35-0.29c-3.78,0-6.85,2.11-6.85,4.71v4.16h4.69v-4.16
			C82.58,13.75,84.45,12.02,87.08,11.36z"/>
		<polygon class="st7" points="82.69,19.94 77.89,19.94 71.33,24.2 71.33,25.51 76.14,25.51 76.14,24.2 		"/>
		<ellipse class="st2" cx="155.01" cy="24.2" rx="7.18" ry="4.94"/>
		<g>
			<rect x="153.99" class="st5" width="2.05" height="14.09"/>
		</g>
		<g>
			<path class="st5" d="M161.86,19.94v-4.16c0-2.6-3.06-4.71-6.84-4.71s-6.85,2.11-6.85,4.71v4.16H161.86z"/>
			<polygon class="st4" points="161.86,19.94 148.17,19.94 141.62,24.2 141.62,25.51 168.41,25.51 168.41,24.2 			"/>
			<rect x="141.62" y="24.2" class="st5" width="26.79" height="1.31"/>
			<rect x="148.17" y="16.22" class="st4" width="13.69" height="2.33"/>
			<path class="st7" d="M157.36,11.36c-0.73-0.18-1.52-0.29-2.35-0.29c-3.78,0-6.85,2.11-6.85,4.71v4.16h4.69v-4.16
				C152.86,13.75,154.74,12.02,157.36,11.36z"/>
			<polygon class="st7" points="152.97,19.94 148.17,19.94 141.62,24.2 141.62,25.51 146.42,25.51 146.42,24.2 			"/>
		</g>
	</g>
</g>
</svg>
