<?xml version="1.0" encoding="utf-8"?>
<!-- Generator: Adobe Illustrator 23.0.3, SVG Export Plug-In . SVG Version: 6.00 Build 0)  -->
<svg version="1.1" id="Layer_1" xmlns="http://www.w3.org/2000/svg" xmlns:xlink="http://www.w3.org/1999/xlink" x="0px" y="0px"
	 viewBox="0 0 134.96 258.2" style="enable-background:new 0 0 134.96 258.2;" xml:space="preserve">
<style type="text/css">
	.st0{fill:#FFFFFF;}
	.st1{fill:#C7C8CA;}
</style>
<g>
	<path class="st0" d="M122.24,0H12.72C5.69,0,0,5.69,0,12.72v232.76c0,7.03,5.69,12.72,12.72,12.72h109.52
		c7.02,0,12.72-5.69,12.72-12.72V12.72C134.96,5.69,129.26,0,122.24,0z M67.47,248.74c-5.42,0-9.82-4.4-9.82-9.82
		c0-5.43,4.4-9.83,9.82-9.83c5.43,0,9.83,4.4,9.83,9.83C77.3,244.34,72.9,248.74,67.47,248.74z M132.51,219.63H2.44V15.89h130.07
		V219.63z"/>
	<g>
		<g>
			<circle class="st1" cx="39.91" cy="169.76" r="10.98"/>
		</g>
		<g>
			<circle class="st1" cx="95.05" cy="169.76" r="10.98"/>
		</g>
	</g>
	<g>
		<rect x="16.42" y="30.7" class="st1" width="102.13" height="44.94"/>
	</g>
	<g>
		<rect x="16.42" y="100.17" class="st1" width="102.13" height="3"/>
	</g>
	<g>
		<rect x="16.42" y="113.45" class="st1" width="102.13" height="3"/>
	</g>
	<g>
		<rect x="16.42" y="125.71" class="st1" width="102.13" height="3"/>
	</g>
</g>
</svg>
