<?xml version="1.0" encoding="utf-8"?>
<!-- Generator: Adobe Illustrator 23.0.3, SVG Export Plug-In . SVG Version: 6.00 Build 0)  -->
<svg version="1.1" id="Layer_1" xmlns="http://www.w3.org/2000/svg" xmlns:xlink="http://www.w3.org/1999/xlink" x="0px" y="0px"
	 viewBox="0 0 238.83 210.68" style="enable-background:new 0 0 238.83 210.68;" xml:space="preserve">
<style type="text/css">
	.st0{fill:#F0543F;}
	.st1{opacity:0.52;fill:#F0543F;}
	.st2{fill:#FFFFFF;}
	.st3{fill:#88D0D7;}
	.st4{fill:#A0DAE1;}
	.st5{fill:#8F231D;}
	.st6{fill:#A22D22;}
	.st7{fill:#00A5A7;}
	.st8{fill:#013E3F;}
	.st9{opacity:0.52;fill:#A22D22;}
	.st10{fill:#6D1413;}
	.st11{fill:#F4DA9F;}
	.st12{fill:none;stroke:#F0543F;stroke-miterlimit:10;}
	.st13{opacity:0.31;}
	.st14{fill:#861B1A;}
	.st15{opacity:0.52;fill:#00A5A7;}
	.st16{fill:#005254;}
	.st17{fill:#F2665B;}
	.st18{fill:#007D7E;}
	.st19{fill:#D5EEF4;}
</style>
<g>
	<rect x="6.11" y="69.69" class="st0" width="226.61" height="140.99"/>
	<path class="st1" d="M180.24,69.69c-10.89,13.88-22.41,27.25-35.14,39.53c-17.47,16.86-36.79,31.63-56.03,46.39
		c-19.84,15.22-39.24,30.97-58.52,46.9c-3.3,2.72-6.59,5.45-9.88,8.17h212.06V69.69H180.24z"/>
	<path class="st1" d="M199.15,121.53c-14.5,15.86-30.52,30.13-46.22,44.77c-15.88,14.8-31.67,29.7-48.05,43.95
		c-0.17,0.14-0.33,0.29-0.5,0.43h128.35V76.66C223.24,92.8,211.79,107.7,199.15,121.53z"/>
	<rect x="18.64" y="108.99" class="st2" width="130.88" height="61.51"/>
	
		<rect x="54.94" y="76.82" transform="matrix(-1.836970e-16 1 -1 -1.836970e-16 223.5791 55.4206)" class="st3" width="58.27" height="125.36"/>
	<path class="st4" d="M27.24,145.51c10.74-8.13,21.89-15.71,32.93-23.43c0.3-0.21,0.61-0.34,0.92-0.41
		c5.54-3.49,11.05-7.01,16.58-10.52H21.39v38.89C23.33,148.51,25.28,147,27.24,145.51z"/>
	<path class="st4" d="M54.87,146.01c16.99-12.36,34.61-23.84,52.5-34.87h-18.6c-9.02,5.7-18,11.46-27.03,17.13
		c-0.13,0.08-0.27,0.15-0.41,0.21c-10.44,7.28-20.94,14.47-31.09,22.15c-2.99,2.27-5.94,4.59-8.85,6.96v10.75h3.73
		C34.98,160.82,44.85,153.31,54.87,146.01z"/>
	<path class="st4" d="M105.77,148.95c9.75-6.69,19.81-12.9,29.73-19.33c3.69-2.39,7.38-4.79,11.07-7.19v-8.27
		c-8.15,5.35-16.23,10.79-24.29,16.26c-18.04,12.26-36.74,23.95-53.56,37.91h12.19C88.67,161.25,97.1,154.9,105.77,148.95z"/>
	<path class="st4" d="M110.54,164.52c12.35-9.44,24.53-19.16,36.03-29.63v-5.39c-2.39,1.56-4.79,3.11-7.18,4.66
		c-16.8,10.89-34.18,21.24-49.48,34.17h19.65C109.05,167.1,109.21,165.53,110.54,164.52z"/>
	<path class="st4" d="M115.23,168.34h31.34v-25.5C136.47,151.75,125.91,160.15,115.23,168.34z"/>
	<path class="st4" d="M88.07,146.48c17.26-11.95,34.64-23.82,52.22-35.33h-21.42c-10.71,6.52-21.33,13.19-31.9,19.97
		c-17.99,11.53-35.12,24.3-52.12,37.23h24.78C68.61,160.44,78.23,153.29,88.07,146.48z"/>
	<rect x="36.86" y="182.56" class="st5" width="26.98" height="7.69"/>
	<rect x="68.99" y="182.56" class="st6" width="26.98" height="7.69"/>
	<rect x="114.9" y="97.9" class="st6" width="26.98" height="7.69"/>
	<rect x="80.11" y="97.9" class="st5" width="26.98" height="7.69"/>
	<rect x="6.11" y="97.9" class="st6" width="18.06" height="7.69"/>
	<rect x="50.35" y="193.73" class="st6" width="26.98" height="7.69"/>
	<rect x="28.87" y="0" class="st7" width="179.7" height="40.97"/>
	
		<rect x="100.68" y="-66.49" transform="matrix(-1.836970e-16 1 -1 -1.836970e-16 139.2186 -98.0546)" class="st8" width="35.91" height="174.14"/>
	<path class="st9" d="M148.4,30.62c-5.58,2.54-11.18,5.03-16.8,7.49h74.17V2.56h-0.64C186.54,12.53,167.61,21.87,148.4,30.62z"/>
	<rect x="38.66" y="40.97" class="st8" width="6.11" height="7.02"/>
	<rect x="191.56" y="40.97" class="st8" width="6.11" height="7.02"/>
	<g>
		<path class="st7" d="M63.43,18.07c0,0.92-0.26,1.7-0.78,2.32c-0.52,0.63-1.25,1.06-2.19,1.29l2.54,5.2h1.76v1.79h-3.23l-3.18-6.7
			h-2.01v4.91h1.83v1.79h-5.96v-1.79h1.95V16.09h-1.95V14.3h5.97c1.85,0,3.19,0.3,4.01,0.91C63.02,15.81,63.43,16.76,63.43,18.07z
			 M61.19,18.03c0-0.67-0.21-1.16-0.63-1.47c-0.42-0.31-1.08-0.47-1.99-0.47h-2.22v4.08h2.09c0.94,0,1.63-0.16,2.08-0.49
			C60.96,19.37,61.19,18.81,61.19,18.03z"/>
		<path class="st7" d="M75.48,18.5v-2.4h-6.16v4.29h5.35v1.79h-5.35v4.71h6.16v-2.62h1.78v4.42H65.29v-1.79h1.85V16.09h-1.85V14.3
			h11.96v4.2H75.48z"/>
		<path class="st7" d="M86.07,15.2v-0.98h1.76v4.36h-1.76v-0.99c-0.74-1.12-1.76-1.68-3.05-1.68c-0.79,0-1.39,0.16-1.81,0.48
			c-0.42,0.32-0.63,0.78-0.63,1.37c0,0.57,0.2,1.01,0.6,1.31c0.4,0.3,1.01,0.55,1.83,0.76l1.69,0.45c1.08,0.29,1.9,0.66,2.48,1.14
			c0.58,0.47,0.95,0.97,1.13,1.5c0.18,0.53,0.26,1.12,0.26,1.77c0,1.3-0.41,2.34-1.22,3.1c-0.81,0.76-1.91,1.15-3.27,1.15
			c-1.3,0-2.49-0.48-3.56-1.43v1.19H78.7v-5.24h1.79v1.27c0.86,1.58,1.98,2.37,3.36,2.37c0.81,0,1.43-0.21,1.88-0.63
			c0.44-0.42,0.67-1,0.67-1.76c0-1.03-0.73-1.75-2.18-2.15l-1.79-0.51c-1.29-0.37-2.25-0.87-2.86-1.5
			c-0.62-0.63-0.93-1.46-0.93-2.49c0-1.27,0.37-2.25,1.12-2.94c0.75-0.7,1.78-1.04,3.1-1.04C84.01,14.06,85.08,14.44,86.07,15.2z"/>
		<path class="st7" d="M99.74,19.56v-3.46h-2.97v10.79h1.87v1.79h-5.88v-1.79h1.83V16.09h-2.95v3.46h-1.78V14.3h11.64v5.26H99.74z"
			/>
		<path class="st7" d="M110.52,16.04l3.89,10.85h1.6v1.79h-5.67v-1.79h1.88l-1.12-3.26h-5.22l-1.12,3.26h1.82v1.79h-5.71v-1.79h1.74
			l3.87-10.85h-1.73V14.3h7.47v1.74H110.52z M108.56,16.04h-0.07l-2.03,5.9h4.08L108.56,16.04z"/>
		<path class="st7" d="M119.95,16.09v7.33c0,1.29,0.25,2.24,0.74,2.83c0.49,0.6,1.22,0.9,2.17,0.9c0.97,0,1.7-0.3,2.21-0.89
			c0.51-0.59,0.76-1.53,0.76-2.82v-7.35h-1.68V14.3h5.63v1.79h-1.79v7.55c0,1.72-0.43,3.03-1.3,3.93c-0.87,0.9-2.14,1.35-3.82,1.35
			c-1.69,0-2.96-0.45-3.81-1.34c-0.85-0.89-1.27-2.25-1.27-4.06v-7.43H116V14.3h5.65v1.79H119.95z"/>
		<path class="st7" d="M141.63,18.07c0,0.92-0.26,1.7-0.78,2.32c-0.52,0.63-1.25,1.06-2.19,1.29l2.54,5.2h1.76v1.79h-3.23l-3.18-6.7
			h-2.01v4.91h1.83v1.79h-5.96v-1.79h1.95V16.09h-1.95V14.3h5.97c1.85,0,3.19,0.3,4.01,0.91C141.22,15.81,141.63,16.76,141.63,18.07
			z M139.38,18.03c0-0.67-0.21-1.16-0.63-1.47c-0.42-0.31-1.08-0.47-1.99-0.47h-2.22v4.08h2.09c0.94,0,1.63-0.16,2.08-0.49
			C139.16,19.37,139.38,18.81,139.38,18.03z"/>
		<path class="st7" d="M153.12,16.04l3.89,10.85h1.6v1.79h-5.67v-1.79h1.88l-1.12-3.26h-5.22l-1.12,3.26h1.82v1.79h-5.71v-1.79h1.74
			l3.87-10.85h-1.73V14.3h7.47v1.74H153.12z M151.15,16.04h-0.07l-2.03,5.9h4.08L151.15,16.04z"/>
		<path class="st7" d="M170.58,16.09h-2.05V14.3h5.9v1.79h-2.11v12.74h-2.23l-6.9-12.29v10.35h2.06v1.79h-5.89v-1.79h2.05V16.09
			h-2.05V14.3h4.91l6.32,11.18V16.09z"/>
		<path class="st7" d="M185.38,19.56v-3.46h-2.97v10.79h1.87v1.79h-5.88v-1.79h1.83V16.09h-2.95v3.46h-1.77V14.3h11.64v5.26H185.38z
			"/>
	</g>
	<g>
		<rect y="47.99" class="st10" width="238.83" height="22.27"/>
		<path class="st9" d="M168.65,49.52c-21.01,6.6-42.3,12.08-63.77,17.01c-5.64,1.29-11.29,2.53-16.95,3.73h150.89V47.99h-65.34
			C171.87,48.5,170.27,49.01,168.65,49.52z"/>
		<path class="st11" d="M18.64,59.07c0,2.06-1.67,3.74-3.74,3.74c-2.06,0-3.74-1.67-3.74-3.74c0-2.06,1.67-3.74,3.74-3.74
			C16.97,55.33,18.64,57,18.64,59.07z"/>
		<path class="st11" d="M37.52,59.07c0,2.06-1.67,3.74-3.74,3.74c-2.06,0-3.74-1.67-3.74-3.74c0-2.06,1.67-3.74,3.74-3.74
			C35.85,55.33,37.52,57,37.52,59.07z"/>
		<path class="st11" d="M56.41,59.07c0,2.06-1.67,3.74-3.74,3.74c-2.06,0-3.74-1.67-3.74-3.74c0-2.06,1.67-3.74,3.74-3.74
			C54.73,55.33,56.41,57,56.41,59.07z"/>
		<path class="st11" d="M75.29,59.07c0,2.06-1.67,3.74-3.74,3.74c-2.06,0-3.74-1.67-3.74-3.74c0-2.06,1.67-3.74,3.74-3.74
			C73.62,55.33,75.29,57,75.29,59.07z"/>
		<path class="st11" d="M94.18,59.07c0,2.06-1.67,3.74-3.74,3.74c-2.06,0-3.74-1.67-3.74-3.74c0-2.06,1.67-3.74,3.74-3.74
			C92.5,55.33,94.18,57,94.18,59.07z"/>
		<path class="st11" d="M113.06,59.07c0,2.06-1.67,3.74-3.74,3.74c-2.06,0-3.74-1.67-3.74-3.74c0-2.06,1.67-3.74,3.74-3.74
			C111.39,55.33,113.06,57,113.06,59.07z"/>
		<path class="st11" d="M131.94,59.07c0,2.06-1.67,3.74-3.74,3.74c-2.06,0-3.74-1.67-3.74-3.74c0-2.06,1.67-3.74,3.74-3.74
			C130.27,55.33,131.94,57,131.94,59.07z"/>
		<path class="st11" d="M150.83,59.07c0,2.06-1.67,3.74-3.74,3.74s-3.74-1.67-3.74-3.74c0-2.06,1.67-3.74,3.74-3.74
			S150.83,57,150.83,59.07z"/>
		<path class="st11" d="M169.71,59.07c0,2.06-1.67,3.74-3.74,3.74c-2.06,0-3.74-1.67-3.74-3.74c0-2.06,1.67-3.74,3.74-3.74
			C168.04,55.33,169.71,57,169.71,59.07z"/>
		<path class="st11" d="M188.6,59.07c0,2.06-1.67,3.74-3.74,3.74c-2.06,0-3.74-1.67-3.74-3.74c0-2.06,1.67-3.74,3.74-3.74
			C186.92,55.33,188.6,57,188.6,59.07z"/>
		<path class="st11" d="M207.48,59.07c0,2.06-1.67,3.74-3.74,3.74c-2.06,0-3.74-1.67-3.74-3.74c0-2.06,1.67-3.74,3.74-3.74
			C205.81,55.33,207.48,57,207.48,59.07z"/>
		<path class="st11" d="M226.37,59.07c0,2.06-1.67,3.74-3.74,3.74c-2.06,0-3.74-1.67-3.74-3.74c0-2.06,1.67-3.74,3.74-3.74
			C224.69,55.33,226.37,57,226.37,59.07z"/>
	</g>
	<g>
		<line class="st12" x1="206.72" y1="164.57" x2="206.72" y2="171.35"/>
		<g>
			<rect x="196.4" y="169.68" class="st3" width="20.71" height="8.63"/>
		</g>
	</g>
	<g class="st13">
		<rect x="44.73" y="158.48" class="st6" width="18.8" height="9.86"/>
		<rect x="36.65" y="157.22" class="st0" width="34.95" height="5.47"/>
		<polygon class="st6" points="33.48,149.81 27.37,147.65 27.37,168.34 33.48,168.34 		"/>
		<polygon class="st6" points="81.04,147.65 74.93,150.35 74.93,168.34 81.04,168.34 		"/>
	</g>
	<g class="st13">
		<rect x="105.43" y="158.48" class="st6" width="18.8" height="9.86"/>
		<rect x="97.35" y="157.22" class="st0" width="34.95" height="5.47"/>
		<polygon class="st6" points="94.17,149.81 88.06,147.65 88.06,168.34 94.17,168.34 		"/>
		<polygon class="st6" points="141.73,147.65 135.62,150.35 135.62,168.34 141.73,168.34 		"/>
	</g>
	<path class="st14" d="M228.57,85.97c0.03,0,0.05-0.43,0.05-0.62c0-2.06-1.67-3.76-3.74-3.76c-2.06,0-3.74,1.71-3.74,3.78
		c0,0.19,0.02,0.61,0.05,0.61h-5.15c0.03,0,0.05-0.43,0.05-0.62c0-2.06-1.67-3.76-3.74-3.76c-2.06,0-3.74,1.71-3.74,3.78
		c0,0.19,0.02,0.61,0.05,0.61h-5.15c0.03,0,0.05-0.43,0.05-0.62c0-2.06-1.67-3.76-3.74-3.76c-2.06,0-3.74,1.71-3.74,3.78
		c0,0.19,0.02,0.61,0.05,0.61h-5.15c0.03,0,0.05-0.43,0.05-0.62c0-2.06-1.67-3.76-3.74-3.76c-2.06,0-3.74,1.71-3.74,3.78
		c0,0.19,0.02,0.61,0.05,0.61h-5.15c0.03,0,0.05-0.43,0.05-0.62c0-2.06-1.67-3.76-3.74-3.76c-2.06,0-3.74,1.71-3.74,3.78
		c0,0.19,0.02,0.61,0.05,0.61h-5.15c0.03,0,0.05-0.43,0.05-0.62c0-2.06-1.67-3.76-3.74-3.76c-2.06,0-3.74,1.71-3.74,3.78
		c0,0.19,0.02,0.61,0.05,0.61h-5.15c0.03,0,0.05-0.43,0.05-0.62c0-2.06-1.67-3.76-3.74-3.76c-2.06,0-3.74,1.71-3.74,3.78
		c0,0.19,0.02,0.61,0.05,0.61h-5.15c0.03,0,0.05-0.43,0.05-0.62c0-2.06-1.67-3.76-3.74-3.76c-2.06,0-3.74,1.71-3.74,3.78
		c0,0.19,0.02,0.61,0.05,0.61h-5.15c0.03,0,0.05-0.43,0.05-0.62c0-2.06-1.67-3.76-3.74-3.76c-2.06,0-3.74,1.71-3.74,3.78
		c0,0.19,0.02,0.61,0.05,0.61h-5.15c0.03,0,0.05-0.43,0.05-0.62c0-2.06-1.67-3.76-3.74-3.76c-2.06,0-3.74,1.71-3.74,3.78
		c0,0.19,0.02,0.61,0.05,0.61h-5.15c0.03,0,0.05-0.43,0.05-0.62c0-2.06-1.67-3.76-3.74-3.76c-2.06,0-3.74,1.71-3.74,3.78
		c0,0.19,0.02,0.61,0.05,0.61h-5.15c0.03,0,0.05-0.43,0.05-0.62c0-2.06-1.67-3.76-3.74-3.76c-2.06,0-3.74,1.71-3.74,3.78
		c0,0.19,0.02,0.61,0.05,0.61H78.3c0.03,0,0.05-0.43,0.05-0.62c0-2.06-1.67-3.76-3.74-3.76c-2.06,0-3.74,1.71-3.74,3.78
		c0,0.19,0.02,0.61,0.05,0.61h-5.15c0.03,0,0.05-0.43,0.05-0.62c0-2.06-1.67-3.76-3.74-3.76c-2.06,0-3.74,1.71-3.74,3.78
		c0,0.19,0.02,0.61,0.05,0.61h-5.15c0.03,0,0.05-0.43,0.05-0.62c0-2.06-1.67-3.76-3.74-3.76s-3.74,1.71-3.74,3.78
		c0,0.19,0.02,0.61,0.05,0.61h-5.15c0.03,0,0.05-0.43,0.05-0.62c0-2.06-1.67-3.76-3.74-3.76c-2.06,0-3.74,1.71-3.74,3.78
		c0,0.19,0.02,0.61,0.05,0.61h-5.15c0.03,0,0.05-0.43,0.05-0.62c0-2.06-1.67-3.76-3.74-3.76c-2.06,0-3.74,1.71-3.74,3.78
		c0,0.19,0.02,0.61,0.05,0.61h-5.15c0.03,0,0.05-0.43,0.05-0.62c0-2.06-1.67-3.76-3.74-3.76c-2.06,0-3.74,1.71-3.74,3.78
		c0,0.19,0.02,0.61,0.05,0.61H0.4v7.45h237.84v-7.45H228.57z"/>
	<rect x="6.11" y="69.69" class="st0" width="226.61" height="140.99"/>
	<path class="st1" d="M180.24,69.69c-10.89,13.88-22.41,27.25-35.14,39.53c-17.47,16.86-36.79,31.63-56.03,46.39
		c-19.84,15.22-39.24,30.97-58.52,46.9c-3.3,2.72-6.59,5.45-9.88,8.17h212.06V69.69H180.24z"/>
	<path class="st1" d="M199.15,121.53c-14.5,15.86-30.52,30.13-46.22,44.77c-15.88,14.8-31.67,29.7-48.05,43.95
		c-0.17,0.14-0.33,0.29-0.5,0.43h128.35V76.66C223.24,92.8,211.79,107.7,199.15,121.53z"/>
	<rect x="18.64" y="108.99" class="st2" width="130.88" height="61.51"/>
	
		<rect x="54.94" y="76.82" transform="matrix(-1.836970e-16 1 -1 -1.836970e-16 223.5791 55.4206)" class="st3" width="58.27" height="125.36"/>
	<path class="st4" d="M27.24,145.51c10.74-8.13,21.89-15.71,32.93-23.43c0.3-0.21,0.61-0.34,0.92-0.41
		c5.54-3.49,11.05-7.01,16.58-10.52H21.39v38.89C23.33,148.51,25.28,147,27.24,145.51z"/>
	<path class="st4" d="M54.87,146.01c16.99-12.36,34.61-23.84,52.5-34.87h-18.6c-9.02,5.7-18,11.46-27.03,17.13
		c-0.13,0.08-0.27,0.15-0.41,0.21c-10.44,7.28-20.94,14.47-31.09,22.15c-2.99,2.27-5.94,4.59-8.85,6.96v10.75h3.73
		C34.98,160.82,44.85,153.31,54.87,146.01z"/>
	<path class="st4" d="M105.77,148.95c9.75-6.69,19.81-12.9,29.73-19.33c3.69-2.39,7.38-4.79,11.07-7.19v-8.27
		c-8.15,5.35-16.23,10.79-24.29,16.26c-18.04,12.26-36.74,23.95-53.56,37.91h12.19C88.67,161.25,97.1,154.9,105.77,148.95z"/>
	<path class="st4" d="M110.54,164.52c12.35-9.44,24.53-19.16,36.03-29.63v-5.39c-2.39,1.56-4.79,3.11-7.18,4.66
		c-16.8,10.89-34.18,21.24-49.48,34.17h19.65C109.05,167.1,109.21,165.53,110.54,164.52z"/>
	<path class="st4" d="M115.23,168.34h31.34v-25.5C136.47,151.75,125.91,160.15,115.23,168.34z"/>
	<path class="st4" d="M88.07,146.48c17.26-11.95,34.64-23.82,52.22-35.33h-21.42c-10.71,6.52-21.33,13.19-31.9,19.97
		c-17.99,11.53-35.12,24.3-52.12,37.23h24.78C68.61,160.44,78.23,153.29,88.07,146.48z"/>
	<rect x="36.86" y="182.56" class="st5" width="26.98" height="7.69"/>
	<rect x="68.99" y="182.56" class="st6" width="26.98" height="7.69"/>
	<rect x="114.9" y="97.9" class="st6" width="26.98" height="7.69"/>
	<rect x="80.11" y="97.9" class="st5" width="26.98" height="7.69"/>
	<rect x="6.11" y="97.9" class="st6" width="18.06" height="7.69"/>
	<rect x="50.35" y="193.73" class="st6" width="26.98" height="7.69"/>
	<g>
		<rect y="47.99" class="st10" width="238.83" height="22.27"/>
		<path class="st9" d="M168.65,49.52c-21.01,6.6-42.3,12.08-63.77,17.01c-5.64,1.29-11.29,2.53-16.95,3.73h150.89V47.99h-65.34
			C171.87,48.5,170.27,49.01,168.65,49.52z"/>
		<path class="st11" d="M18.64,59.07c0,2.06-1.67,3.74-3.74,3.74c-2.06,0-3.74-1.67-3.74-3.74c0-2.06,1.67-3.74,3.74-3.74
			C16.97,55.33,18.64,57,18.64,59.07z"/>
		<path class="st11" d="M37.52,59.07c0,2.06-1.67,3.74-3.74,3.74c-2.06,0-3.74-1.67-3.74-3.74c0-2.06,1.67-3.74,3.74-3.74
			C35.85,55.33,37.52,57,37.52,59.07z"/>
		<path class="st11" d="M56.41,59.07c0,2.06-1.67,3.74-3.74,3.74c-2.06,0-3.74-1.67-3.74-3.74c0-2.06,1.67-3.74,3.74-3.74
			C54.73,55.33,56.41,57,56.41,59.07z"/>
		<path class="st11" d="M75.29,59.07c0,2.06-1.67,3.74-3.74,3.74c-2.06,0-3.74-1.67-3.74-3.74c0-2.06,1.67-3.74,3.74-3.74
			C73.62,55.33,75.29,57,75.29,59.07z"/>
		<path class="st11" d="M94.18,59.07c0,2.06-1.67,3.74-3.74,3.74c-2.06,0-3.74-1.67-3.74-3.74c0-2.06,1.67-3.74,3.74-3.74
			C92.5,55.33,94.18,57,94.18,59.07z"/>
		<path class="st11" d="M113.06,59.07c0,2.06-1.67,3.74-3.74,3.74c-2.06,0-3.74-1.67-3.74-3.74c0-2.06,1.67-3.74,3.74-3.74
			C111.39,55.33,113.06,57,113.06,59.07z"/>
		<path class="st11" d="M131.94,59.07c0,2.06-1.67,3.74-3.74,3.74c-2.06,0-3.74-1.67-3.74-3.74c0-2.06,1.67-3.74,3.74-3.74
			C130.27,55.33,131.94,57,131.94,59.07z"/>
		<path class="st11" d="M150.83,59.07c0,2.06-1.67,3.74-3.74,3.74s-3.74-1.67-3.74-3.74c0-2.06,1.67-3.74,3.74-3.74
			S150.83,57,150.83,59.07z"/>
		<path class="st11" d="M169.71,59.07c0,2.06-1.67,3.74-3.74,3.74c-2.06,0-3.74-1.67-3.74-3.74c0-2.06,1.67-3.74,3.74-3.74
			C168.04,55.33,169.71,57,169.71,59.07z"/>
		<path class="st11" d="M188.6,59.07c0,2.06-1.67,3.74-3.74,3.74c-2.06,0-3.74-1.67-3.74-3.74c0-2.06,1.67-3.74,3.74-3.74
			C186.92,55.33,188.6,57,188.6,59.07z"/>
		<path class="st11" d="M207.48,59.07c0,2.06-1.67,3.74-3.74,3.74c-2.06,0-3.74-1.67-3.74-3.74c0-2.06,1.67-3.74,3.74-3.74
			C205.81,55.33,207.48,57,207.48,59.07z"/>
		<path class="st11" d="M226.37,59.07c0,2.06-1.67,3.74-3.74,3.74c-2.06,0-3.74-1.67-3.74-3.74c0-2.06,1.67-3.74,3.74-3.74
			C224.69,55.33,226.37,57,226.37,59.07z"/>
	</g>
	<g>
		<line class="st12" x1="206.72" y1="164.57" x2="206.72" y2="171.35"/>
		<g>
			<rect x="196.4" y="169.68" class="st3" width="20.71" height="8.63"/>
		</g>
	</g>
	<g class="st13">
		<rect x="44.73" y="158.48" class="st6" width="18.8" height="9.86"/>
		<rect x="36.65" y="157.22" class="st0" width="34.95" height="5.47"/>
		<polygon class="st6" points="33.48,149.81 27.37,147.65 27.37,168.34 33.48,168.34 		"/>
		<polygon class="st6" points="81.04,147.65 74.93,150.35 74.93,168.34 81.04,168.34 		"/>
	</g>
	<g class="st13">
		<rect x="105.43" y="158.48" class="st6" width="18.8" height="9.86"/>
		<rect x="97.35" y="157.22" class="st0" width="34.95" height="5.47"/>
		<polygon class="st6" points="94.17,149.81 88.06,147.65 88.06,168.34 94.17,168.34 		"/>
		<polygon class="st6" points="141.73,147.65 135.62,150.35 135.62,168.34 141.73,168.34 		"/>
	</g>
	<path class="st14" d="M228.57,85.97c0.03,0,0.05-0.43,0.05-0.62c0-2.06-1.67-3.76-3.74-3.76c-2.06,0-3.74,1.71-3.74,3.78
		c0,0.19,0.02,0.61,0.05,0.61h-5.15c0.03,0,0.05-0.43,0.05-0.62c0-2.06-1.67-3.76-3.74-3.76c-2.06,0-3.74,1.71-3.74,3.78
		c0,0.19,0.02,0.61,0.05,0.61h-5.15c0.03,0,0.05-0.43,0.05-0.62c0-2.06-1.67-3.76-3.74-3.76c-2.06,0-3.74,1.71-3.74,3.78
		c0,0.19,0.02,0.61,0.05,0.61h-5.15c0.03,0,0.05-0.43,0.05-0.62c0-2.06-1.67-3.76-3.74-3.76c-2.06,0-3.74,1.71-3.74,3.78
		c0,0.19,0.02,0.61,0.05,0.61h-5.15c0.03,0,0.05-0.43,0.05-0.62c0-2.06-1.67-3.76-3.74-3.76c-2.06,0-3.74,1.71-3.74,3.78
		c0,0.19,0.02,0.61,0.05,0.61h-5.15c0.03,0,0.05-0.43,0.05-0.62c0-2.06-1.67-3.76-3.74-3.76c-2.06,0-3.74,1.71-3.74,3.78
		c0,0.19,0.02,0.61,0.05,0.61h-5.15c0.03,0,0.05-0.43,0.05-0.62c0-2.06-1.67-3.76-3.74-3.76c-2.06,0-3.74,1.71-3.74,3.78
		c0,0.19,0.02,0.61,0.05,0.61h-5.15c0.03,0,0.05-0.43,0.05-0.62c0-2.06-1.67-3.76-3.74-3.76c-2.06,0-3.74,1.71-3.74,3.78
		c0,0.19,0.02,0.61,0.05,0.61h-5.15c0.03,0,0.05-0.43,0.05-0.62c0-2.06-1.67-3.76-3.74-3.76c-2.06,0-3.74,1.71-3.74,3.78
		c0,0.19,0.02,0.61,0.05,0.61h-5.15c0.03,0,0.05-0.43,0.05-0.62c0-2.06-1.67-3.76-3.74-3.76c-2.06,0-3.74,1.71-3.74,3.78
		c0,0.19,0.02,0.61,0.05,0.61h-5.15c0.03,0,0.05-0.43,0.05-0.62c0-2.06-1.67-3.76-3.74-3.76c-2.06,0-3.74,1.71-3.74,3.78
		c0,0.19,0.02,0.61,0.05,0.61h-5.15c0.03,0,0.05-0.43,0.05-0.62c0-2.06-1.67-3.76-3.74-3.76c-2.06,0-3.74,1.71-3.74,3.78
		c0,0.19,0.02,0.61,0.05,0.61H78.3c0.03,0,0.05-0.43,0.05-0.62c0-2.06-1.67-3.76-3.74-3.76c-2.06,0-3.74,1.71-3.74,3.78
		c0,0.19,0.02,0.61,0.05,0.61h-5.15c0.03,0,0.05-0.43,0.05-0.62c0-2.06-1.67-3.76-3.74-3.76c-2.06,0-3.74,1.71-3.74,3.78
		c0,0.19,0.02,0.61,0.05,0.61h-5.15c0.03,0,0.05-0.43,0.05-0.62c0-2.06-1.67-3.76-3.74-3.76s-3.74,1.71-3.74,3.78
		c0,0.19,0.02,0.61,0.05,0.61h-5.15c0.03,0,0.05-0.43,0.05-0.62c0-2.06-1.67-3.76-3.74-3.76c-2.06,0-3.74,1.71-3.74,3.78
		c0,0.19,0.02,0.61,0.05,0.61h-5.15c0.03,0,0.05-0.43,0.05-0.62c0-2.06-1.67-3.76-3.74-3.76c-2.06,0-3.74,1.71-3.74,3.78
		c0,0.19,0.02,0.61,0.05,0.61h-5.15c0.03,0,0.05-0.43,0.05-0.62c0-2.06-1.67-3.76-3.74-3.76c-2.06,0-3.74,1.71-3.74,3.78
		c0,0.19,0.02,0.61,0.05,0.61H0.4v7.45h237.84v-7.45H228.57z"/>
	<g>
		<rect x="6.11" y="69.69" class="st7" width="226.61" height="140.99"/>
		<path class="st15" d="M180.24,69.69c-10.89,13.88-22.41,27.25-35.14,39.53c-17.47,16.86-36.79,31.63-56.03,46.39
			c-19.84,15.22-39.24,30.97-58.52,46.9c-3.3,2.72-6.59,5.45-9.88,8.17h212.06V69.69H180.24z"/>
		<path class="st15" d="M199.15,121.53c-14.5,15.86-30.52,30.13-46.22,44.77c-15.88,14.8-31.67,29.7-48.05,43.95
			c-0.17,0.14-0.33,0.29-0.5,0.43h128.35V76.66C223.24,92.8,211.79,107.7,199.15,121.53z"/>
	</g>
	<rect x="18.64" y="108.99" class="st2" width="130.88" height="61.51"/>
	
		<rect x="54.94" y="76.82" transform="matrix(-1.836970e-16 1 -1 -1.836970e-16 223.5791 55.4206)" class="st7" width="58.27" height="125.36"/>
	<rect x="36.86" y="182.56" class="st16" width="26.98" height="7.69"/>
	<rect x="68.99" y="182.56" class="st16" width="26.98" height="7.69"/>
	<rect x="114.9" y="97.9" class="st16" width="26.98" height="7.69"/>
	<rect x="80.11" y="97.9" class="st16" width="26.98" height="7.69"/>
	<rect x="6.11" y="97.9" class="st16" width="18.06" height="7.69"/>
	<rect x="50.35" y="193.73" class="st16" width="26.98" height="7.69"/>
	<rect y="47.99" class="st8" width="238.83" height="22.27"/>
	<path class="st9" d="M168.65,49.52c-21.01,6.6-42.3,12.08-63.77,17.01c-5.64,1.29-11.29,2.53-16.95,3.73h150.89V47.99h-65.34
		C171.87,48.5,170.27,49.01,168.65,49.52z"/>
	<path class="st7" d="M18.64,59.07c0,2.06-1.67,3.74-3.74,3.74c-2.06,0-3.74-1.67-3.74-3.74c0-2.06,1.67-3.74,3.74-3.74
		C16.97,55.33,18.64,57,18.64,59.07z"/>
	<path class="st7" d="M37.52,59.07c0,2.06-1.67,3.74-3.74,3.74c-2.06,0-3.74-1.67-3.74-3.74c0-2.06,1.67-3.74,3.74-3.74
		C35.85,55.33,37.52,57,37.52,59.07z"/>
	<path class="st7" d="M56.41,59.07c0,2.06-1.67,3.74-3.74,3.74c-2.06,0-3.74-1.67-3.74-3.74c0-2.06,1.67-3.74,3.74-3.74
		C54.73,55.33,56.41,57,56.41,59.07z"/>
	<path class="st7" d="M75.29,59.07c0,2.06-1.67,3.74-3.74,3.74c-2.06,0-3.74-1.67-3.74-3.74c0-2.06,1.67-3.74,3.74-3.74
		C73.62,55.33,75.29,57,75.29,59.07z"/>
	<path class="st7" d="M94.18,59.07c0,2.06-1.67,3.74-3.74,3.74c-2.06,0-3.74-1.67-3.74-3.74c0-2.06,1.67-3.74,3.74-3.74
		C92.5,55.33,94.18,57,94.18,59.07z"/>
	<path class="st7" d="M113.06,59.07c0,2.06-1.67,3.74-3.74,3.74c-2.06,0-3.74-1.67-3.74-3.74c0-2.06,1.67-3.74,3.74-3.74
		C111.39,55.33,113.06,57,113.06,59.07z"/>
	<path class="st7" d="M131.94,59.07c0,2.06-1.67,3.74-3.74,3.74c-2.06,0-3.74-1.67-3.74-3.74c0-2.06,1.67-3.74,3.74-3.74
		C130.27,55.33,131.94,57,131.94,59.07z"/>
	<path class="st7" d="M150.83,59.07c0,2.06-1.67,3.74-3.74,3.74s-3.74-1.67-3.74-3.74c0-2.06,1.67-3.74,3.74-3.74
		S150.83,57,150.83,59.07z"/>
	<path class="st7" d="M169.71,59.07c0,2.06-1.67,3.74-3.74,3.74c-2.06,0-3.74-1.67-3.74-3.74c0-2.06,1.67-3.74,3.74-3.74
		C168.04,55.33,169.71,57,169.71,59.07z"/>
	<path class="st7" d="M188.6,59.07c0,2.06-1.67,3.74-3.74,3.74c-2.06,0-3.74-1.67-3.74-3.74c0-2.06,1.67-3.74,3.74-3.74
		C186.92,55.33,188.6,57,188.6,59.07z"/>
	<path class="st7" d="M207.48,59.07c0,2.06-1.67,3.74-3.74,3.74c-2.06,0-3.74-1.67-3.74-3.74c0-2.06,1.67-3.74,3.74-3.74
		C205.81,55.33,207.48,57,207.48,59.07z"/>
	<path class="st7" d="M226.37,59.07c0,2.06-1.67,3.74-3.74,3.74c-2.06,0-3.74-1.67-3.74-3.74c0-2.06,1.67-3.74,3.74-3.74
		C224.69,55.33,226.37,57,226.37,59.07z"/>
	<rect x="157.9" y="108.99" class="st2" width="57.73" height="101.69"/>
	<rect x="160.73" y="111.69" class="st6" width="51.99" height="98.99"/>
	<path class="st9" d="M192.34,150.87c-8.38,14.22-17.02,28.48-27.03,41.63c-1.48,1.94-3.02,3.85-4.58,5.73v12.45h51.99v-94.82
		C205.84,127.48,199.19,139.24,192.34,150.87z"/>
	<path class="st9" d="M212.41,149.67c-5.21,11.14-11.08,22.02-18.27,32.02c-7.16,9.97-15.64,18.69-25.07,26.53
		c-1,0.83-2.01,1.65-3.02,2.46h46.66V149C212.62,149.22,212.52,149.45,212.41,149.67z"/>
	<rect x="164.55" y="116.54" class="st3" width="44.02" height="39.93"/>
	<path class="st4" d="M175.43,116.54h-10.88v7.62C168.14,121.57,171.76,119.03,175.43,116.54z"/>
	<path class="st4" d="M198.24,155.26c-3.34,1.86-6.33-3.27-3-5.12c4.46-2.49,8.89-5.05,13.32-7.59v-13.15
		c-11.18,7.36-22.36,14.71-33.53,22.09c-3.2,2.11-6.17-3.03-3-5.12c12.16-8.04,24.35-16.04,36.52-24.06v-5.75h-22.44
		c-7.34,4.76-14.55,9.71-21.58,14.92v25h44.02v-7.09C205.13,151.36,201.7,153.33,198.24,155.26z"/>
	<path class="st3" d="M206.76,164.48"/>
	<g>
		<path class="st0" d="M209.31,164.48c0,1.41-1.14,2.55-2.55,2.55c-1.41,0-2.55-1.14-2.55-2.55c0-1.41,1.14-2.55,2.55-2.55
			C208.17,161.93,209.31,163.07,209.31,164.48z"/>
		<path class="st17" d="M208.56,164.48c0,0.99-0.81,1.8-1.8,1.8c-0.99,0-1.8-0.81-1.8-1.8c0-0.99,0.81-1.8,1.8-1.8
			C207.75,162.68,208.56,163.49,208.56,164.48z"/>
	</g>
	<rect x="157.9" y="108.99" class="st2" width="57.73" height="101.69"/>
	<rect x="160.73" y="111.69" class="st6" width="51.99" height="98.99"/>
	<path class="st9" d="M192.34,150.87c-8.38,14.22-17.02,28.48-27.03,41.63c-1.48,1.94-3.02,3.85-4.58,5.73v12.45h51.99v-94.82
		C205.84,127.48,199.19,139.24,192.34,150.87z"/>
	<path class="st9" d="M212.41,149.67c-5.21,11.14-11.08,22.02-18.27,32.02c-7.16,9.97-15.64,18.69-25.07,26.53
		c-1,0.83-2.01,1.65-3.02,2.46h46.66V149C212.62,149.22,212.52,149.45,212.41,149.67z"/>
	<rect x="164.55" y="116.54" class="st3" width="44.02" height="39.93"/>
	<path class="st4" d="M175.43,116.54h-10.88v7.62C168.14,121.57,171.76,119.03,175.43,116.54z"/>
	<path class="st4" d="M198.24,155.26c-3.34,1.86-6.33-3.27-3-5.12c4.46-2.49,8.89-5.05,13.32-7.59v-13.15
		c-11.18,7.36-22.36,14.71-33.53,22.09c-3.2,2.11-6.17-3.03-3-5.12c12.16-8.04,24.35-16.04,36.52-24.06v-5.75h-22.44
		c-7.34,4.76-14.55,9.71-21.58,14.92v25h44.02v-7.09C205.13,151.36,201.7,153.33,198.24,155.26z"/>
	<path class="st3" d="M206.76,164.48"/>
	<g>
		<path class="st0" d="M209.31,164.48c0,1.41-1.14,2.55-2.55,2.55c-1.41,0-2.55-1.14-2.55-2.55c0-1.41,1.14-2.55,2.55-2.55
			C208.17,161.93,209.31,163.07,209.31,164.48z"/>
		<path class="st17" d="M208.56,164.48c0,0.99-0.81,1.8-1.8,1.8c-0.99,0-1.8-0.81-1.8-1.8c0-0.99,0.81-1.8,1.8-1.8
			C207.75,162.68,208.56,163.49,208.56,164.48z"/>
	</g>
	<rect x="157.9" y="108.99" class="st2" width="57.73" height="101.69"/>
	<rect x="160.73" y="111.69" class="st18" width="51.99" height="98.99"/>
	<path class="st16" d="M192.34,150.87c-8.38,14.22-17.02,28.48-27.03,41.63c-1.48,1.94-3.02,3.85-4.58,5.73v12.45h51.99v-94.82
		C205.84,127.48,199.19,139.24,192.34,150.87z"/>
	<path class="st8" d="M212.41,149.67c-5.21,11.14-11.08,22.02-18.27,32.02c-7.16,9.97-15.64,18.69-25.07,26.53
		c-1,0.83-2.01,1.65-3.02,2.46h46.66V149C212.62,149.22,212.52,149.45,212.41,149.67z"/>
	<rect x="164.55" y="116.54" class="st19" width="44.02" height="39.93"/>
	<path class="st4" d="M175.43,116.54h-10.88v7.62C168.14,121.57,171.76,119.03,175.43,116.54z"/>
	<path class="st4" d="M198.24,155.26c-3.34,1.86-6.33-3.27-3-5.12c4.46-2.49,8.89-5.05,13.32-7.59v-13.15
		c-11.18,7.36-22.36,14.71-33.53,22.09c-3.2,2.11-6.17-3.03-3-5.12c12.16-8.04,24.35-16.04,36.52-24.06v-5.75h-22.44
		c-7.34,4.76-14.55,9.71-21.58,14.92v25h44.02v-7.09C205.13,151.36,201.7,153.33,198.24,155.26z"/>
	<path class="st3" d="M206.76,164.48"/>
	<path class="st18" d="M209.31,164.48c0,1.41-1.14,2.55-2.55,2.55c-1.41,0-2.55-1.14-2.55-2.55c0-1.41,1.14-2.55,2.55-2.55
		C208.17,161.93,209.31,163.07,209.31,164.48z"/>
	<path class="st7" d="M208.56,164.48c0,0.99-0.81,1.8-1.8,1.8c-0.99,0-1.8-0.81-1.8-1.8c0-0.99,0.81-1.8,1.8-1.8
		C207.75,162.68,208.56,163.49,208.56,164.48z"/>
	<g>
		<rect x="206.2" y="164.57" class="st18" width="1.05" height="6.78"/>
	</g>
	<g>
		<rect x="196.4" y="169.68" class="st7" width="20.71" height="8.63"/>
		<g>
			<path class="st2" d="M203.3,174.16c0,0.24-0.06,0.46-0.17,0.66c-0.11,0.2-0.27,0.36-0.47,0.47c-0.2,0.12-0.41,0.17-0.65,0.17
				c-0.25,0-0.47-0.06-0.67-0.17c-0.2-0.12-0.35-0.27-0.46-0.47c-0.11-0.2-0.17-0.42-0.17-0.66c0-0.25,0.05-0.47,0.17-0.67
				c0.11-0.2,0.26-0.35,0.46-0.46c0.2-0.11,0.42-0.17,0.67-0.17c0.24,0,0.46,0.06,0.66,0.18s0.35,0.28,0.46,0.47
				C203.25,173.71,203.3,173.93,203.3,174.16z M202.01,174.99c0.14,0,0.28-0.04,0.4-0.11c0.12-0.07,0.21-0.18,0.28-0.3
				c0.07-0.13,0.1-0.26,0.1-0.41c0-0.15-0.03-0.28-0.1-0.41c-0.07-0.13-0.16-0.23-0.28-0.31c-0.12-0.08-0.25-0.12-0.4-0.12
				c-0.14,0-0.28,0.04-0.4,0.11c-0.12,0.08-0.21,0.18-0.28,0.31c-0.07,0.13-0.1,0.27-0.1,0.41c0,0.15,0.03,0.28,0.1,0.41
				c0.07,0.13,0.16,0.23,0.29,0.3C201.74,174.95,201.87,174.99,202.01,174.99z"/>
			<path class="st2" d="M206.54,174.17c0,0.23-0.05,0.44-0.16,0.64c-0.11,0.2-0.25,0.36-0.43,0.47c-0.18,0.12-0.39,0.17-0.61,0.17
				c-0.33,0-0.62-0.13-0.86-0.38v0.98h0.48v0.43h-1.41v-0.43h0.45v-2.7h-0.41v-0.43h0.9v0.39c0.12-0.14,0.26-0.25,0.4-0.32
				c0.15-0.07,0.3-0.11,0.47-0.11c0.23,0,0.44,0.06,0.62,0.17c0.18,0.12,0.32,0.27,0.42,0.47
				C206.49,173.73,206.54,173.94,206.54,174.17z M205.33,175.02c0.13,0,0.26-0.04,0.36-0.12c0.11-0.08,0.19-0.18,0.25-0.32
				c0.06-0.13,0.09-0.28,0.09-0.43c0-0.15-0.03-0.29-0.1-0.42c-0.07-0.13-0.16-0.23-0.28-0.3c-0.12-0.08-0.25-0.11-0.4-0.11
				c-0.15,0-0.29,0.04-0.41,0.12c-0.12,0.08-0.22,0.19-0.28,0.32c-0.07,0.13-0.1,0.28-0.1,0.44c0,0.26,0.08,0.46,0.24,0.6
				C204.88,174.95,205.08,175.02,205.33,175.02z"/>
			<path class="st2" d="M209.51,174.28h-2.06c0.03,0.24,0.12,0.42,0.27,0.56c0.15,0.14,0.34,0.21,0.56,0.21
				c0.16,0,0.31-0.03,0.45-0.1c0.14-0.07,0.26-0.17,0.35-0.31l0.43,0.19c-0.13,0.21-0.31,0.37-0.53,0.47
				c-0.22,0.11-0.45,0.16-0.71,0.16c-0.27,0-0.5-0.06-0.71-0.17c-0.21-0.11-0.37-0.27-0.48-0.46c-0.11-0.2-0.17-0.42-0.17-0.67
				c0-0.25,0.06-0.47,0.17-0.67c0.11-0.2,0.27-0.35,0.46-0.46c0.2-0.11,0.41-0.17,0.65-0.17c0.26,0,0.49,0.06,0.68,0.17
				c0.19,0.11,0.34,0.28,0.46,0.49C209.44,173.74,209.5,173.99,209.51,174.28z M208.2,173.26c-0.18,0-0.34,0.06-0.48,0.18
				c-0.14,0.12-0.23,0.28-0.26,0.49H209c-0.05-0.2-0.14-0.36-0.29-0.49C208.56,173.32,208.39,173.26,208.2,173.26z"/>
			<path class="st2" d="M212.22,173.73v1.23h0.41v0.43h-0.9v-1.63c0-0.15-0.02-0.27-0.07-0.33c-0.04-0.07-0.12-0.1-0.22-0.1
				c-0.22,0-0.46,0.11-0.73,0.32v1.31h0.42v0.43h-1.33v-0.43h0.43v-1.6h-0.43v-0.43h0.91v0.3c0.3-0.22,0.58-0.33,0.85-0.33
				c0.22,0,0.38,0.07,0.49,0.2C212.16,173.23,212.22,173.44,212.22,173.73z"/>
		</g>
	</g>
	<g>
		<rect x="44.73" y="158.77" class="st16" width="18.8" height="9.86"/>
		<rect x="36.65" y="157.51" class="st16" width="34.95" height="5.47"/>
		<polygon class="st16" points="33.48,150.1 27.37,147.95 27.37,168.64 33.48,168.64 		"/>
		<polygon class="st16" points="81.04,147.95 74.93,150.64 74.93,168.64 81.04,168.64 		"/>
	</g>
	<g>
		<rect x="105.43" y="158.77" class="st16" width="18.8" height="9.86"/>
		<rect x="97.35" y="157.51" class="st16" width="34.95" height="5.47"/>
		<polygon class="st16" points="94.17,150.1 88.06,147.95 88.06,168.64 94.17,168.64 		"/>
		<polygon class="st16" points="141.73,147.95 135.62,150.64 135.62,168.64 141.73,168.64 		"/>
	</g>
	<path class="st8" d="M228.57,85.97c0.03,0,0.05-0.43,0.05-0.62c0-2.06-1.67-3.76-3.74-3.76c-2.06,0-3.74,1.71-3.74,3.78
		c0,0.19,0.02,0.61,0.05,0.61h-5.15c0.03,0,0.05-0.43,0.05-0.62c0-2.06-1.67-3.76-3.74-3.76c-2.06,0-3.74,1.71-3.74,3.78
		c0,0.19,0.02,0.61,0.05,0.61h-5.15c0.03,0,0.05-0.43,0.05-0.62c0-2.06-1.67-3.76-3.74-3.76c-2.06,0-3.74,1.71-3.74,3.78
		c0,0.19,0.02,0.61,0.05,0.61h-5.15c0.03,0,0.05-0.43,0.05-0.62c0-2.06-1.67-3.76-3.74-3.76c-2.06,0-3.74,1.71-3.74,3.78
		c0,0.19,0.02,0.61,0.05,0.61h-5.15c0.03,0,0.05-0.43,0.05-0.62c0-2.06-1.67-3.76-3.74-3.76c-2.06,0-3.74,1.71-3.74,3.78
		c0,0.19,0.02,0.61,0.05,0.61h-5.15c0.03,0,0.05-0.43,0.05-0.62c0-2.06-1.67-3.76-3.74-3.76c-2.06,0-3.74,1.71-3.74,3.78
		c0,0.19,0.02,0.61,0.05,0.61h-5.15c0.03,0,0.05-0.43,0.05-0.62c0-2.06-1.67-3.76-3.74-3.76c-2.06,0-3.74,1.71-3.74,3.78
		c0,0.19,0.02,0.61,0.05,0.61h-5.15c0.03,0,0.05-0.43,0.05-0.62c0-2.06-1.67-3.76-3.74-3.76c-2.06,0-3.74,1.71-3.74,3.78
		c0,0.19,0.02,0.61,0.05,0.61h-5.15c0.03,0,0.05-0.43,0.05-0.62c0-2.06-1.67-3.76-3.74-3.76c-2.06,0-3.74,1.71-3.74,3.78
		c0,0.19,0.02,0.61,0.05,0.61h-5.15c0.03,0,0.05-0.43,0.05-0.62c0-2.06-1.67-3.76-3.74-3.76c-2.06,0-3.74,1.71-3.74,3.78
		c0,0.19,0.02,0.61,0.05,0.61h-5.15c0.03,0,0.05-0.43,0.05-0.62c0-2.06-1.67-3.76-3.74-3.76c-2.06,0-3.74,1.71-3.74,3.78
		c0,0.19,0.02,0.61,0.05,0.61h-5.15c0.03,0,0.05-0.43,0.05-0.62c0-2.06-1.67-3.76-3.74-3.76c-2.06,0-3.74,1.71-3.74,3.78
		c0,0.19,0.02,0.61,0.05,0.61H78.3c0.03,0,0.05-0.43,0.05-0.62c0-2.06-1.67-3.76-3.74-3.76c-2.06,0-3.74,1.71-3.74,3.78
		c0,0.19,0.02,0.61,0.05,0.61h-5.15c0.03,0,0.05-0.43,0.05-0.62c0-2.06-1.67-3.76-3.74-3.76c-2.06,0-3.74,1.71-3.74,3.78
		c0,0.19,0.02,0.61,0.05,0.61h-5.15c0.03,0,0.05-0.43,0.05-0.62c0-2.06-1.67-3.76-3.74-3.76s-3.74,1.71-3.74,3.78
		c0,0.19,0.02,0.61,0.05,0.61h-5.15c0.03,0,0.05-0.43,0.05-0.62c0-2.06-1.67-3.76-3.74-3.76c-2.06,0-3.74,1.71-3.74,3.78
		c0,0.19,0.02,0.61,0.05,0.61h-5.15c0.03,0,0.05-0.43,0.05-0.62c0-2.06-1.67-3.76-3.74-3.76c-2.06,0-3.74,1.71-3.74,3.78
		c0,0.19,0.02,0.61,0.05,0.61h-5.15c0.03,0,0.05-0.43,0.05-0.62c0-2.06-1.67-3.76-3.74-3.76c-2.06,0-3.74,1.71-3.74,3.78
		c0,0.19,0.02,0.61,0.05,0.61H0.4v7.45h237.84v-7.45H228.57z"/>
	<polygon class="st19" points="20.72,156.35 77.37,110.36 64.29,110.36 20.72,145.75 	"/>
	<polygon class="st19" points="30.35,169.31 46.16,169.31 118.71,110.36 102.89,110.36 	"/>
	<polygon class="st19" points="70.77,169.31 84.25,169.31 146.76,117.89 146.76,110.36 143.31,110.36 	"/>
	<polygon class="st19" points="124.18,169.31 146.76,150.27 146.76,139.33 110.7,169.31 	"/>
</g>
</svg>
