<?xml version="1.0" encoding="utf-8"?>
<!-- Generator: Adobe Illustrator 23.0.3, SVG Export Plug-In . SVG Version: 6.00 Build 0)  -->
<svg version="1.1" id="Layer_1" xmlns="http://www.w3.org/2000/svg" xmlns:xlink="http://www.w3.org/1999/xlink" x="0px" y="0px"
	 viewBox="0 0 267.83 236.26" style="enable-background:new 0 0 267.83 236.26;" xml:space="preserve">
<style type="text/css">
	.st0{fill:#F0543F;}
	.st1{opacity:0.52;fill:#F0543F;}
	.st2{fill:#FFFFFF;}
	.st3{fill:#88D0D7;}
	.st4{fill:#A0DAE1;}
	.st5{fill:#8F231D;}
	.st6{fill:#A22D22;}
	.st7{fill:#00A5A7;}
	.st8{fill:#013E3F;}
	.st9{opacity:0.3;}
	.st10{fill:#6D1413;}
	.st11{opacity:0.52;fill:#A22D22;}
	.st12{fill:#F4DA9F;}
	.st13{fill:none;stroke:#F0543F;stroke-miterlimit:10;}
	.st14{opacity:0.31;}
	.st15{fill:#861B1A;}
	.st16{opacity:0.52;fill:#00A5A7;}
	.st17{fill:#005254;}
	.st18{fill:#F2665B;}
	.st19{fill:#007D7E;}
	.st20{fill:#D5EEF4;}
</style>
<g>
	<rect x="6.85" y="78.15" class="st0" width="254.13" height="158.11"/>
	<path class="st1" d="M202.12,78.15c-12.22,15.57-25.14,30.55-39.41,44.33c-19.59,18.91-41.26,35.47-62.83,52.02
		c-22.25,17.07-44.01,34.73-65.63,52.59c-3.7,3.05-7.39,6.11-11.08,9.17h237.81V78.15H202.12z"/>
	<path class="st1" d="M223.33,136.29c-16.26,17.79-34.23,33.79-51.84,50.2c-17.81,16.6-35.52,33.31-53.89,49.29
		c-0.19,0.16-0.37,0.32-0.56,0.48h143.93V85.97C250.35,104.06,237.51,120.78,223.33,136.29z"/>
	<rect x="20.9" y="122.22" class="st2" width="146.77" height="68.98"/>
	
		<rect x="61.61" y="86.15" transform="matrix(-1.836970e-16 1 -1 -1.836970e-16 250.7276 62.1498)" class="st3" width="65.35" height="140.58"/>
	<path class="st4" d="M30.55,163.18c12.05-9.12,24.55-17.62,36.93-26.28c0.34-0.24,0.69-0.38,1.04-0.46
		c6.21-3.91,12.4-7.86,18.59-11.79H23.99v43.61C26.16,166.54,28.35,164.85,30.55,163.18z"/>
	<path class="st4" d="M61.53,163.74c19.05-13.87,38.81-26.74,58.88-39.1H99.55c-10.12,6.39-20.18,12.85-30.32,19.21
		c-0.15,0.09-0.3,0.17-0.46,0.23c-11.7,8.16-23.48,16.22-34.86,24.84c-3.36,2.54-6.67,5.14-9.93,7.8v12.05h4.19
		C39.23,180.35,50.29,171.93,61.53,163.74z"/>
	<path class="st4" d="M118.61,167.04c10.93-7.5,22.21-14.47,33.34-21.68c4.14-2.68,8.28-5.37,12.41-8.06v-9.27
		c-9.13,6-18.2,12.1-27.24,18.24c-20.23,13.75-41.2,26.86-60.06,42.52h13.67C99.44,180.83,108.89,173.71,118.61,167.04z"/>
	<path class="st4" d="M123.96,184.5c13.85-10.58,27.5-21.49,40.4-33.23v-6.04c-2.68,1.74-5.37,3.49-8.05,5.23
		c-18.84,12.21-38.33,23.81-55.49,38.32h22.03C122.29,187.39,122.47,185.63,123.96,184.5z"/>
	<path class="st4" d="M129.22,188.78h35.14v-28.59C153.04,170.18,141.2,179.59,129.22,188.78z"/>
	<path class="st4" d="M98.76,164.26c19.36-13.4,38.84-26.71,58.56-39.62H133.3c-12.01,7.32-23.93,14.79-35.77,22.39
		c-20.17,12.93-39.38,27.25-58.45,41.75h27.79C76.94,179.92,87.73,171.9,98.76,164.26z"/>
	<rect x="41.33" y="204.73" class="st5" width="30.25" height="8.62"/>
	<rect x="77.36" y="204.73" class="st6" width="30.25" height="8.62"/>
	<rect x="128.85" y="109.78" class="st6" width="30.25" height="8.62"/>
	<rect x="89.84" y="109.78" class="st5" width="30.25" height="8.62"/>
	<rect x="6.85" y="109.78" class="st6" width="20.26" height="8.62"/>
	<rect x="56.46" y="217.26" class="st6" width="30.25" height="8.62"/>
	<rect x="32.38" class="st7" width="201.52" height="45.94"/>
	
		<rect x="112.91" y="-74.56" transform="matrix(-1.836970e-16 1 -1 -1.836970e-16 156.1233 -109.9617)" class="st8" width="40.27" height="195.29"/>
	<path class="st9" d="M166.42,34.34c-6.26,2.85-12.54,5.64-18.84,8.4h83.18V2.87h-0.71C209.19,14.06,187.96,24.53,166.42,34.34z"/>
	<rect x="43.35" y="45.94" class="st8" width="6.86" height="7.88"/>
	<rect x="214.82" y="45.94" class="st8" width="6.86" height="7.88"/>
	<g>
		<path class="st7" d="M71.14,20.26c0,1.03-0.29,1.9-0.88,2.61c-0.59,0.7-1.4,1.19-2.45,1.45l2.85,5.83h1.97v2.01h-3.62l-3.56-7.51
			h-2.26v5.5h2.05v2.01h-6.68v-2.01h2.18v-12.1h-2.18v-2.01h6.7c2.08,0,3.57,0.34,4.5,1.02C70.68,17.73,71.14,18.8,71.14,20.26z
			 M68.62,20.22c0-0.75-0.24-1.3-0.71-1.65c-0.47-0.35-1.22-0.52-2.24-0.52h-2.49v4.58h2.34c1.05,0,1.83-0.18,2.33-0.55
			C68.37,21.72,68.62,21.1,68.62,20.22z"/>
		<path class="st7" d="M84.64,20.74v-2.7h-6.9v4.81h6v2.01h-6v5.29h6.9v-2.94h1.99v4.96H73.22v-2.01h2.08v-12.1h-2.08v-2.01h13.41
			v4.71H84.64z"/>
		<path class="st7" d="M96.52,17.04v-1.1h1.97v4.89h-1.97v-1.11c-0.83-1.26-1.98-1.88-3.42-1.88c-0.88,0-1.56,0.18-2.03,0.54
			c-0.47,0.36-0.71,0.87-0.71,1.54c0,0.64,0.22,1.13,0.67,1.47c0.45,0.34,1.13,0.62,2.05,0.86l1.89,0.5
			c1.21,0.32,2.13,0.75,2.78,1.27c0.65,0.53,1.07,1.09,1.26,1.68c0.2,0.59,0.29,1.25,0.29,1.98c0,1.46-0.46,2.62-1.37,3.48
			c-0.91,0.86-2.14,1.28-3.67,1.28c-1.46,0-2.79-0.54-3.99-1.61v1.34h-2.01v-5.88h2.01v1.42c0.96,1.77,2.22,2.65,3.77,2.65
			c0.91,0,1.61-0.23,2.11-0.7c0.5-0.47,0.75-1.13,0.75-1.97c0-1.16-0.81-1.96-2.44-2.41l-2.01-0.57c-1.45-0.41-2.52-0.97-3.21-1.68
			c-0.69-0.71-1.04-1.64-1.04-2.79c0-1.42,0.42-2.52,1.26-3.3c0.84-0.78,2-1.17,3.47-1.17C94.21,15.77,95.41,16.19,96.52,17.04z"/>
		<path class="st7" d="M111.85,21.93v-3.89h-3.33v12.1h2.1v2.01h-6.59v-2.01h2.05v-12.1h-3.31v3.89h-1.99v-5.9h13.06v5.9H111.85z"/>
		<path class="st7" d="M123.94,17.98l4.37,12.17h1.8v2.01h-6.36v-2.01h2.11l-1.25-3.66h-5.85l-1.25,3.66h2.04v2.01h-6.4v-2.01h1.95
			l4.35-12.17h-1.94v-1.95h8.38v1.95H123.94z M121.74,17.98h-0.07l-2.28,6.61h4.58L121.74,17.98z"/>
		<path class="st7" d="M134.52,18.05v8.22c0,1.45,0.28,2.51,0.83,3.18c0.55,0.67,1.36,1.01,2.43,1.01c1.08,0,1.91-0.33,2.48-1
			c0.57-0.66,0.85-1.72,0.85-3.17v-8.24h-1.88v-2.01h6.32v2.01h-2.01v8.47c0,1.93-0.49,3.39-1.46,4.4c-0.97,1.01-2.4,1.51-4.29,1.51
			c-1.9,0-3.32-0.5-4.28-1.5c-0.95-1-1.43-2.52-1.43-4.55v-8.33h-1.99v-2.01h6.34v2.01H134.52z"/>
		<path class="st7" d="M158.82,20.26c0,1.03-0.29,1.9-0.88,2.61c-0.58,0.7-1.4,1.19-2.45,1.45l2.85,5.83h1.97v2.01h-3.62l-3.56-7.51
			h-2.26v5.5h2.06v2.01h-6.68v-2.01h2.18v-12.1h-2.18v-2.01h6.7c2.08,0,3.57,0.34,4.49,1.02C158.36,17.73,158.82,18.8,158.82,20.26z
			 M156.31,20.22c0-0.75-0.24-1.3-0.71-1.65c-0.47-0.35-1.22-0.52-2.24-0.52h-2.49v4.58h2.34c1.05,0,1.83-0.18,2.33-0.55
			C156.06,21.72,156.31,21.1,156.31,20.22z"/>
		<path class="st7" d="M171.71,17.98l4.37,12.17h1.8v2.01h-6.36v-2.01h2.11l-1.25-3.66h-5.85l-1.25,3.66h2.04v2.01h-6.4v-2.01h1.95
			l4.35-12.17h-1.94v-1.95h8.38v1.95H171.71z M169.51,17.98h-0.07l-2.28,6.61h4.58L169.51,17.98z"/>
		<path class="st7" d="M191.3,18.05H189v-2.01h6.61v2.01h-2.36v14.29h-2.5L183,18.55v11.6h2.31v2.01h-6.6v-2.01h2.3v-12.1h-2.3
			v-2.01h5.5l7.09,12.53V18.05z"/>
		<path class="st7" d="M207.89,21.93v-3.89h-3.33v12.1h2.1v2.01h-6.59v-2.01h2.05v-12.1h-3.31v3.89h-1.99v-5.9h13.06v5.9H207.89z"/>
	</g>
	<g>
		<rect y="53.82" class="st10" width="267.83" height="24.97"/>
		<path class="st11" d="M189.13,55.53c-23.56,7.41-47.43,13.55-71.52,19.07c-6.32,1.45-12.66,2.84-19,4.18h169.22V53.82h-73.28
			C192.74,54.39,190.94,54.96,189.13,55.53z"/>
		<path class="st12" d="M20.9,66.24c0,2.31-1.88,4.19-4.19,4.19c-2.31,0-4.19-1.88-4.19-4.19c0-2.31,1.88-4.19,4.19-4.19
			C19.03,62.05,20.9,63.93,20.9,66.24z"/>
		<path class="st12" d="M42.08,66.24c0,2.31-1.88,4.19-4.19,4.19c-2.31,0-4.19-1.88-4.19-4.19c0-2.31,1.88-4.19,4.19-4.19
			C40.2,62.05,42.08,63.93,42.08,66.24z"/>
		<path class="st12" d="M63.26,66.24c0,2.31-1.88,4.19-4.19,4.19c-2.31,0-4.19-1.88-4.19-4.19c0-2.31,1.88-4.19,4.19-4.19
			C61.38,62.05,63.26,63.93,63.26,66.24z"/>
		<path class="st12" d="M84.43,66.24c0,2.31-1.88,4.19-4.19,4.19c-2.31,0-4.19-1.88-4.19-4.19c0-2.31,1.88-4.19,4.19-4.19
			C82.56,62.05,84.43,63.93,84.43,66.24z"/>
		<path class="st12" d="M105.61,66.24c0,2.31-1.88,4.19-4.19,4.19c-2.31,0-4.19-1.88-4.19-4.19c0-2.31,1.88-4.19,4.19-4.19
			C103.74,62.05,105.61,63.93,105.61,66.24z"/>
		<path class="st12" d="M126.79,66.24c0,2.31-1.88,4.19-4.19,4.19c-2.31,0-4.19-1.88-4.19-4.19c0-2.31,1.88-4.19,4.19-4.19
			C124.91,62.05,126.79,63.93,126.79,66.24z"/>
		<path class="st12" d="M147.97,66.24c0,2.31-1.88,4.19-4.19,4.19c-2.31,0-4.19-1.88-4.19-4.19c0-2.31,1.88-4.19,4.19-4.19
			C146.09,62.05,147.97,63.93,147.97,66.24z"/>
		<path class="st12" d="M169.14,66.24c0,2.31-1.88,4.19-4.19,4.19c-2.31,0-4.19-1.88-4.19-4.19c0-2.31,1.88-4.19,4.19-4.19
			C167.27,62.05,169.14,63.93,169.14,66.24z"/>
		<path class="st12" d="M190.32,66.24c0,2.31-1.88,4.19-4.19,4.19c-2.31,0-4.19-1.88-4.19-4.19c0-2.31,1.88-4.19,4.19-4.19
			C188.45,62.05,190.32,63.93,190.32,66.24z"/>
		<path class="st12" d="M211.5,66.24c0,2.31-1.88,4.19-4.19,4.19c-2.31,0-4.19-1.88-4.19-4.19c0-2.31,1.88-4.19,4.19-4.19
			C209.62,62.05,211.5,63.93,211.5,66.24z"/>
		<path class="st12" d="M232.68,66.24c0,2.31-1.88,4.19-4.19,4.19c-2.31,0-4.19-1.88-4.19-4.19c0-2.31,1.88-4.19,4.19-4.19
			C230.8,62.05,232.68,63.93,232.68,66.24z"/>
		<path class="st12" d="M253.85,66.24c0,2.31-1.88,4.19-4.19,4.19c-2.31,0-4.19-1.88-4.19-4.19c0-2.31,1.88-4.19,4.19-4.19
			C251.98,62.05,253.85,63.93,253.85,66.24z"/>
	</g>
	<g>
		<line class="st13" x1="231.83" y1="184.55" x2="231.83" y2="192.15"/>
		<g>
			<rect x="220.25" y="190.29" class="st3" width="23.23" height="9.68"/>
		</g>
	</g>
	<g class="st14">
		<rect x="50.16" y="177.72" class="st6" width="21.08" height="11.06"/>
		<rect x="41.1" y="176.31" class="st0" width="39.19" height="6.13"/>
		<polygon class="st6" points="37.54,168 30.69,165.58 30.69,188.78 37.54,188.78 		"/>
		<polygon class="st6" points="90.88,165.58 84.02,168.6 84.02,188.78 90.88,188.78 		"/>
	</g>
	<g class="st14">
		<rect x="118.23" y="177.72" class="st6" width="21.08" height="11.06"/>
		<rect x="109.17" y="176.31" class="st0" width="39.19" height="6.13"/>
		<polygon class="st6" points="105.61,168 98.76,165.58 98.76,188.78 105.61,188.78 		"/>
		<polygon class="st6" points="158.94,165.58 152.09,168.6 152.09,188.78 158.94,188.78 		"/>
	</g>
	<path class="st15" d="M256.33,96.41c0.03,0,0.05-0.48,0.05-0.69c0-2.31-1.88-4.22-4.19-4.22c-2.31,0-4.19,1.92-4.19,4.24
		c0,0.22,0.02,0.68,0.05,0.68h-5.77c0.03,0,0.05-0.48,0.05-0.69c0-2.31-1.88-4.22-4.19-4.22c-2.31,0-4.19,1.92-4.19,4.24
		c0,0.22,0.02,0.68,0.05,0.68h-5.77c0.03,0,0.05-0.48,0.05-0.69c0-2.31-1.88-4.22-4.19-4.22c-2.31,0-4.19,1.92-4.19,4.24
		c0,0.22,0.02,0.68,0.05,0.68h-5.77c0.03,0,0.05-0.48,0.05-0.69c0-2.31-1.88-4.22-4.19-4.22c-2.31,0-4.19,1.92-4.19,4.24
		c0,0.22,0.02,0.68,0.05,0.68h-5.77c0.03,0,0.05-0.48,0.05-0.69c0-2.31-1.88-4.22-4.19-4.22c-2.31,0-4.19,1.92-4.19,4.24
		c0,0.22,0.02,0.68,0.05,0.68h-5.77c0.03,0,0.05-0.48,0.05-0.69c0-2.31-1.88-4.22-4.19-4.22c-2.31,0-4.19,1.92-4.19,4.24
		c0,0.22,0.02,0.68,0.05,0.68h-5.77c0.03,0,0.05-0.48,0.05-0.69c0-2.31-1.88-4.22-4.19-4.22c-2.31,0-4.19,1.92-4.19,4.24
		c0,0.22,0.02,0.68,0.05,0.68h-5.77c0.03,0,0.05-0.48,0.05-0.69c0-2.31-1.88-4.22-4.19-4.22c-2.31,0-4.19,1.92-4.19,4.24
		c0,0.22,0.02,0.68,0.05,0.68h-5.77c0.03,0,0.05-0.48,0.05-0.69c0-2.31-1.88-4.22-4.19-4.22c-2.31,0-4.19,1.92-4.19,4.24
		c0,0.22,0.02,0.68,0.05,0.68h-5.77c0.03,0,0.05-0.48,0.05-0.69c0-2.31-1.88-4.22-4.19-4.22c-2.31,0-4.19,1.92-4.19,4.24
		c0,0.22,0.02,0.68,0.05,0.68h-5.77c0.03,0,0.05-0.48,0.05-0.69c0-2.31-1.88-4.22-4.19-4.22c-2.31,0-4.19,1.92-4.19,4.24
		c0,0.22,0.02,0.68,0.05,0.68h-5.77c0.03,0,0.05-0.48,0.05-0.69c0-2.31-1.88-4.22-4.19-4.22c-2.31,0-4.19,1.92-4.19,4.24
		c0,0.22,0.02,0.68,0.05,0.68h-5.77c0.03,0,0.05-0.48,0.05-0.69c0-2.31-1.88-4.22-4.19-4.22c-2.31,0-4.19,1.92-4.19,4.24
		c0,0.22,0.02,0.68,0.05,0.68h-5.77c0.03,0,0.05-0.48,0.05-0.69c0-2.31-1.88-4.22-4.19-4.22c-2.31,0-4.19,1.92-4.19,4.24
		c0,0.22,0.02,0.68,0.05,0.68h-5.77c0.03,0,0.05-0.48,0.05-0.69c0-2.31-1.88-4.22-4.19-4.22c-2.31,0-4.19,1.92-4.19,4.24
		c0,0.22,0.02,0.68,0.05,0.68h-5.77c0.03,0,0.05-0.48,0.05-0.69c0-2.31-1.88-4.22-4.19-4.22c-2.31,0-4.19,1.92-4.19,4.24
		c0,0.22,0.02,0.68,0.05,0.68h-5.77c0.03,0,0.05-0.48,0.05-0.69c0-2.31-1.88-4.22-4.19-4.22c-2.31,0-4.19,1.92-4.19,4.24
		c0,0.22,0.02,0.68,0.05,0.68H17.6c0.03,0,0.05-0.48,0.05-0.69c0-2.31-1.88-4.22-4.19-4.22c-2.31,0-4.19,1.92-4.19,4.24
		c0,0.22,0.02,0.68,0.05,0.68H0.44v8.36h266.72v-8.36H256.33z"/>
	<rect x="6.85" y="78.15" class="st0" width="254.13" height="158.11"/>
	<path class="st1" d="M202.12,78.15c-12.22,15.57-25.14,30.55-39.41,44.33c-19.59,18.91-41.26,35.47-62.83,52.02
		c-22.25,17.07-44.01,34.73-65.63,52.59c-3.7,3.05-7.39,6.11-11.08,9.17h237.81V78.15H202.12z"/>
	<path class="st1" d="M223.33,136.29c-16.26,17.79-34.23,33.79-51.84,50.2c-17.81,16.6-35.52,33.31-53.89,49.29
		c-0.19,0.16-0.37,0.32-0.56,0.48h143.93V85.97C250.35,104.06,237.51,120.78,223.33,136.29z"/>
	<rect x="20.9" y="122.22" class="st2" width="146.77" height="68.98"/>
	
		<rect x="61.61" y="86.15" transform="matrix(-1.836970e-16 1 -1 -1.836970e-16 250.7276 62.1498)" class="st3" width="65.35" height="140.58"/>
	<path class="st4" d="M30.55,163.18c12.05-9.12,24.55-17.62,36.93-26.28c0.34-0.24,0.69-0.38,1.04-0.46
		c6.21-3.91,12.4-7.86,18.59-11.79H23.99v43.61C26.16,166.54,28.35,164.85,30.55,163.18z"/>
	<path class="st4" d="M61.53,163.74c19.05-13.87,38.81-26.74,58.88-39.1H99.55c-10.12,6.39-20.18,12.85-30.32,19.21
		c-0.15,0.09-0.3,0.17-0.46,0.23c-11.7,8.16-23.48,16.22-34.86,24.84c-3.36,2.54-6.67,5.14-9.93,7.8v12.05h4.19
		C39.23,180.35,50.29,171.93,61.53,163.74z"/>
	<path class="st4" d="M118.61,167.04c10.93-7.5,22.21-14.47,33.34-21.68c4.14-2.68,8.28-5.37,12.41-8.06v-9.27
		c-9.13,6-18.2,12.1-27.24,18.24c-20.23,13.75-41.2,26.86-60.06,42.52h13.67C99.44,180.83,108.89,173.71,118.61,167.04z"/>
	<path class="st4" d="M123.96,184.5c13.85-10.58,27.5-21.49,40.4-33.23v-6.04c-2.68,1.74-5.37,3.49-8.05,5.23
		c-18.84,12.21-38.33,23.81-55.49,38.32h22.03C122.29,187.39,122.47,185.63,123.96,184.5z"/>
	<path class="st4" d="M129.22,188.78h35.14v-28.59C153.04,170.18,141.2,179.59,129.22,188.78z"/>
	<path class="st4" d="M98.76,164.26c19.36-13.4,38.84-26.71,58.56-39.62H133.3c-12.01,7.32-23.93,14.79-35.77,22.39
		c-20.17,12.93-39.38,27.25-58.45,41.75h27.79C76.94,179.92,87.73,171.9,98.76,164.26z"/>
	<rect x="41.33" y="204.73" class="st5" width="30.25" height="8.62"/>
	<rect x="77.36" y="204.73" class="st6" width="30.25" height="8.62"/>
	<rect x="128.85" y="109.78" class="st6" width="30.25" height="8.62"/>
	<rect x="89.84" y="109.78" class="st5" width="30.25" height="8.62"/>
	<rect x="6.85" y="109.78" class="st6" width="20.26" height="8.62"/>
	<rect x="56.46" y="217.26" class="st6" width="30.25" height="8.62"/>
	<g>
		<rect y="53.82" class="st10" width="267.83" height="24.97"/>
		<path class="st11" d="M189.13,55.53c-23.56,7.41-47.43,13.55-71.52,19.07c-6.32,1.45-12.66,2.84-19,4.18h169.22V53.82h-73.28
			C192.74,54.39,190.94,54.96,189.13,55.53z"/>
		<path class="st12" d="M20.9,66.24c0,2.31-1.88,4.19-4.19,4.19c-2.31,0-4.19-1.88-4.19-4.19c0-2.31,1.88-4.19,4.19-4.19
			C19.03,62.05,20.9,63.93,20.9,66.24z"/>
		<path class="st12" d="M42.08,66.24c0,2.31-1.88,4.19-4.19,4.19c-2.31,0-4.19-1.88-4.19-4.19c0-2.31,1.88-4.19,4.19-4.19
			C40.2,62.05,42.08,63.93,42.08,66.24z"/>
		<path class="st12" d="M63.26,66.24c0,2.31-1.88,4.19-4.19,4.19c-2.31,0-4.19-1.88-4.19-4.19c0-2.31,1.88-4.19,4.19-4.19
			C61.38,62.05,63.26,63.93,63.26,66.24z"/>
		<path class="st12" d="M84.43,66.24c0,2.31-1.88,4.19-4.19,4.19c-2.31,0-4.19-1.88-4.19-4.19c0-2.31,1.88-4.19,4.19-4.19
			C82.56,62.05,84.43,63.93,84.43,66.24z"/>
		<path class="st12" d="M105.61,66.24c0,2.31-1.88,4.19-4.19,4.19c-2.31,0-4.19-1.88-4.19-4.19c0-2.31,1.88-4.19,4.19-4.19
			C103.74,62.05,105.61,63.93,105.61,66.24z"/>
		<path class="st12" d="M126.79,66.24c0,2.31-1.88,4.19-4.19,4.19c-2.31,0-4.19-1.88-4.19-4.19c0-2.31,1.88-4.19,4.19-4.19
			C124.91,62.05,126.79,63.93,126.79,66.24z"/>
		<path class="st12" d="M147.97,66.24c0,2.31-1.88,4.19-4.19,4.19c-2.31,0-4.19-1.88-4.19-4.19c0-2.31,1.88-4.19,4.19-4.19
			C146.09,62.05,147.97,63.93,147.97,66.24z"/>
		<path class="st12" d="M169.14,66.24c0,2.31-1.88,4.19-4.19,4.19c-2.31,0-4.19-1.88-4.19-4.19c0-2.31,1.88-4.19,4.19-4.19
			C167.27,62.05,169.14,63.93,169.14,66.24z"/>
		<path class="st12" d="M190.32,66.24c0,2.31-1.88,4.19-4.19,4.19c-2.31,0-4.19-1.88-4.19-4.19c0-2.31,1.88-4.19,4.19-4.19
			C188.45,62.05,190.32,63.93,190.32,66.24z"/>
		<path class="st12" d="M211.5,66.24c0,2.31-1.88,4.19-4.19,4.19c-2.31,0-4.19-1.88-4.19-4.19c0-2.31,1.88-4.19,4.19-4.19
			C209.62,62.05,211.5,63.93,211.5,66.24z"/>
		<path class="st12" d="M232.68,66.24c0,2.31-1.88,4.19-4.19,4.19c-2.31,0-4.19-1.88-4.19-4.19c0-2.31,1.88-4.19,4.19-4.19
			C230.8,62.05,232.68,63.93,232.68,66.24z"/>
		<path class="st12" d="M253.85,66.24c0,2.31-1.88,4.19-4.19,4.19c-2.31,0-4.19-1.88-4.19-4.19c0-2.31,1.88-4.19,4.19-4.19
			C251.98,62.05,253.85,63.93,253.85,66.24z"/>
	</g>
	<g>
		<line class="st13" x1="231.83" y1="184.55" x2="231.83" y2="192.15"/>
		<g>
			<rect x="220.25" y="190.29" class="st3" width="23.23" height="9.68"/>
		</g>
	</g>
	<g class="st14">
		<rect x="50.16" y="177.72" class="st6" width="21.08" height="11.06"/>
		<rect x="41.1" y="176.31" class="st0" width="39.19" height="6.13"/>
		<polygon class="st6" points="37.54,168 30.69,165.58 30.69,188.78 37.54,188.78 		"/>
		<polygon class="st6" points="90.88,165.58 84.02,168.6 84.02,188.78 90.88,188.78 		"/>
	</g>
	<g class="st14">
		<rect x="118.23" y="177.72" class="st6" width="21.08" height="11.06"/>
		<rect x="109.17" y="176.31" class="st0" width="39.19" height="6.13"/>
		<polygon class="st6" points="105.61,168 98.76,165.58 98.76,188.78 105.61,188.78 		"/>
		<polygon class="st6" points="158.94,165.58 152.09,168.6 152.09,188.78 158.94,188.78 		"/>
	</g>
	<path class="st15" d="M256.33,96.41c0.03,0,0.05-0.48,0.05-0.69c0-2.31-1.88-4.22-4.19-4.22c-2.31,0-4.19,1.92-4.19,4.24
		c0,0.22,0.02,0.68,0.05,0.68h-5.77c0.03,0,0.05-0.48,0.05-0.69c0-2.31-1.88-4.22-4.19-4.22c-2.31,0-4.19,1.92-4.19,4.24
		c0,0.22,0.02,0.68,0.05,0.68h-5.77c0.03,0,0.05-0.48,0.05-0.69c0-2.31-1.88-4.22-4.19-4.22c-2.31,0-4.19,1.92-4.19,4.24
		c0,0.22,0.02,0.68,0.05,0.68h-5.77c0.03,0,0.05-0.48,0.05-0.69c0-2.31-1.88-4.22-4.19-4.22c-2.31,0-4.19,1.92-4.19,4.24
		c0,0.22,0.02,0.68,0.05,0.68h-5.77c0.03,0,0.05-0.48,0.05-0.69c0-2.31-1.88-4.22-4.19-4.22c-2.31,0-4.19,1.92-4.19,4.24
		c0,0.22,0.02,0.68,0.05,0.68h-5.77c0.03,0,0.05-0.48,0.05-0.69c0-2.31-1.88-4.22-4.19-4.22c-2.31,0-4.19,1.92-4.19,4.24
		c0,0.22,0.02,0.68,0.05,0.68h-5.77c0.03,0,0.05-0.48,0.05-0.69c0-2.31-1.88-4.22-4.19-4.22c-2.31,0-4.19,1.92-4.19,4.24
		c0,0.22,0.02,0.68,0.05,0.68h-5.77c0.03,0,0.05-0.48,0.05-0.69c0-2.31-1.88-4.22-4.19-4.22c-2.31,0-4.19,1.92-4.19,4.24
		c0,0.22,0.02,0.68,0.05,0.68h-5.77c0.03,0,0.05-0.48,0.05-0.69c0-2.31-1.88-4.22-4.19-4.22c-2.31,0-4.19,1.92-4.19,4.24
		c0,0.22,0.02,0.68,0.05,0.68h-5.77c0.03,0,0.05-0.48,0.05-0.69c0-2.31-1.88-4.22-4.19-4.22c-2.31,0-4.19,1.92-4.19,4.24
		c0,0.22,0.02,0.68,0.05,0.68h-5.77c0.03,0,0.05-0.48,0.05-0.69c0-2.31-1.88-4.22-4.19-4.22c-2.31,0-4.19,1.92-4.19,4.24
		c0,0.22,0.02,0.68,0.05,0.68h-5.77c0.03,0,0.05-0.48,0.05-0.69c0-2.31-1.88-4.22-4.19-4.22c-2.31,0-4.19,1.92-4.19,4.24
		c0,0.22,0.02,0.68,0.05,0.68h-5.77c0.03,0,0.05-0.48,0.05-0.69c0-2.31-1.88-4.22-4.19-4.22c-2.31,0-4.19,1.92-4.19,4.24
		c0,0.22,0.02,0.68,0.05,0.68h-5.77c0.03,0,0.05-0.48,0.05-0.69c0-2.31-1.88-4.22-4.19-4.22c-2.31,0-4.19,1.92-4.19,4.24
		c0,0.22,0.02,0.68,0.05,0.68h-5.77c0.03,0,0.05-0.48,0.05-0.69c0-2.31-1.88-4.22-4.19-4.22c-2.31,0-4.19,1.92-4.19,4.24
		c0,0.22,0.02,0.68,0.05,0.68h-5.77c0.03,0,0.05-0.48,0.05-0.69c0-2.31-1.88-4.22-4.19-4.22c-2.31,0-4.19,1.92-4.19,4.24
		c0,0.22,0.02,0.68,0.05,0.68h-5.77c0.03,0,0.05-0.48,0.05-0.69c0-2.31-1.88-4.22-4.19-4.22c-2.31,0-4.19,1.92-4.19,4.24
		c0,0.22,0.02,0.68,0.05,0.68H17.6c0.03,0,0.05-0.48,0.05-0.69c0-2.31-1.88-4.22-4.19-4.22c-2.31,0-4.19,1.92-4.19,4.24
		c0,0.22,0.02,0.68,0.05,0.68H0.44v8.36h266.72v-8.36H256.33z"/>
	<g>
		<rect x="6.85" y="78.15" class="st7" width="254.13" height="158.11"/>
		<path class="st16" d="M202.12,78.15c-12.22,15.57-25.14,30.55-39.41,44.33c-19.59,18.91-41.26,35.47-62.83,52.02
			c-22.25,17.07-44.01,34.73-65.63,52.59c-3.7,3.05-7.39,6.11-11.08,9.17h237.81V78.15H202.12z"/>
		<path class="st16" d="M223.33,136.29c-16.26,17.79-34.23,33.79-51.84,50.2c-17.81,16.6-35.52,33.31-53.89,49.29
			c-0.19,0.16-0.37,0.32-0.56,0.48h143.93V85.97C250.35,104.06,237.51,120.78,223.33,136.29z"/>
	</g>
	<rect x="20.9" y="122.22" class="st2" width="146.77" height="68.98"/>
	
		<rect x="61.61" y="86.15" transform="matrix(-1.836970e-16 1 -1 -1.836970e-16 250.7276 62.1498)" class="st7" width="65.35" height="140.58"/>
	<rect x="41.33" y="204.73" class="st17" width="30.25" height="8.62"/>
	<rect x="77.36" y="204.73" class="st17" width="30.25" height="8.62"/>
	<rect x="128.85" y="109.78" class="st17" width="30.25" height="8.62"/>
	<rect x="89.84" y="109.78" class="st17" width="30.25" height="8.62"/>
	<rect x="6.85" y="109.78" class="st17" width="20.26" height="8.62"/>
	<rect x="56.46" y="217.26" class="st17" width="30.25" height="8.62"/>
	<rect y="53.82" class="st8" width="267.83" height="24.97"/>
	<path class="st9" d="M189.13,55.53c-23.56,7.41-47.43,13.55-71.52,19.07c-6.32,1.45-12.66,2.84-19,4.18h169.22V53.82h-73.28
		C192.74,54.39,190.94,54.96,189.13,55.53z"/>
	<path class="st7" d="M20.9,66.24c0,2.31-1.88,4.19-4.19,4.19c-2.31,0-4.19-1.88-4.19-4.19c0-2.31,1.88-4.19,4.19-4.19
		C19.03,62.05,20.9,63.93,20.9,66.24z"/>
	<path class="st7" d="M42.08,66.24c0,2.31-1.88,4.19-4.19,4.19c-2.31,0-4.19-1.88-4.19-4.19c0-2.31,1.88-4.19,4.19-4.19
		C40.2,62.05,42.08,63.93,42.08,66.24z"/>
	<path class="st7" d="M63.26,66.24c0,2.31-1.88,4.19-4.19,4.19c-2.31,0-4.19-1.88-4.19-4.19c0-2.31,1.88-4.19,4.19-4.19
		C61.38,62.05,63.26,63.93,63.26,66.24z"/>
	<path class="st7" d="M84.43,66.24c0,2.31-1.88,4.19-4.19,4.19c-2.31,0-4.19-1.88-4.19-4.19c0-2.31,1.88-4.19,4.19-4.19
		C82.56,62.05,84.43,63.93,84.43,66.24z"/>
	<path class="st7" d="M105.61,66.24c0,2.31-1.88,4.19-4.19,4.19c-2.31,0-4.19-1.88-4.19-4.19c0-2.31,1.88-4.19,4.19-4.19
		C103.74,62.05,105.61,63.93,105.61,66.24z"/>
	<path class="st7" d="M126.79,66.24c0,2.31-1.88,4.19-4.19,4.19c-2.31,0-4.19-1.88-4.19-4.19c0-2.31,1.88-4.19,4.19-4.19
		C124.91,62.05,126.79,63.93,126.79,66.24z"/>
	<path class="st7" d="M147.97,66.24c0,2.31-1.88,4.19-4.19,4.19c-2.31,0-4.19-1.88-4.19-4.19c0-2.31,1.88-4.19,4.19-4.19
		C146.09,62.05,147.97,63.93,147.97,66.24z"/>
	<path class="st7" d="M169.14,66.24c0,2.31-1.88,4.19-4.19,4.19c-2.31,0-4.19-1.88-4.19-4.19c0-2.31,1.88-4.19,4.19-4.19
		C167.27,62.05,169.14,63.93,169.14,66.24z"/>
	<path class="st7" d="M190.32,66.24c0,2.31-1.88,4.19-4.19,4.19c-2.31,0-4.19-1.88-4.19-4.19c0-2.31,1.88-4.19,4.19-4.19
		C188.45,62.05,190.32,63.93,190.32,66.24z"/>
	<path class="st7" d="M211.5,66.24c0,2.31-1.88,4.19-4.19,4.19c-2.31,0-4.19-1.88-4.19-4.19c0-2.31,1.88-4.19,4.19-4.19
		C209.62,62.05,211.5,63.93,211.5,66.24z"/>
	<path class="st7" d="M232.68,66.24c0,2.31-1.88,4.19-4.19,4.19c-2.31,0-4.19-1.88-4.19-4.19c0-2.31,1.88-4.19,4.19-4.19
		C230.8,62.05,232.68,63.93,232.68,66.24z"/>
	<path class="st7" d="M253.85,66.24c0,2.31-1.88,4.19-4.19,4.19c-2.31,0-4.19-1.88-4.19-4.19c0-2.31,1.88-4.19,4.19-4.19
		C251.98,62.05,253.85,63.93,253.85,66.24z"/>
	<rect x="177.07" y="122.22" class="st2" width="64.74" height="114.04"/>
	<rect x="180.25" y="125.25" class="st6" width="58.3" height="111.01"/>
	<path class="st11" d="M215.7,169.19c-9.4,15.95-19.08,31.93-30.31,46.68c-1.66,2.18-3.39,4.31-5.14,6.43v13.96h58.3V129.93
		C230.83,142.96,223.38,156.14,215.7,169.19z"/>
	<path class="st11" d="M238.21,167.84c-5.84,12.49-12.43,24.7-20.49,35.91c-8.03,11.18-17.54,20.96-28.12,29.75
		c-1.12,0.93-2.25,1.85-3.39,2.76h52.33v-69.17C238.43,167.34,238.32,167.59,238.21,167.84z"/>
	<rect x="184.53" y="130.69" class="st3" width="49.36" height="44.77"/>
	<path class="st4" d="M196.73,130.69h-12.2v8.55C188.55,136.33,192.62,133.48,196.73,130.69z"/>
	<path class="st4" d="M222.31,174.11c-3.75,2.09-7.1-3.66-3.36-5.75c5-2.79,9.97-5.66,14.94-8.51V145.1
		c-12.53,8.26-25.08,16.5-37.6,24.77c-3.59,2.37-6.92-3.4-3.36-5.75c13.64-9.01,27.31-17.99,40.96-26.99v-6.44h-25.16
		c-8.23,5.33-16.32,10.89-24.2,16.73v28.04h49.36v-7.95C230.04,169.74,226.19,171.95,222.31,174.11z"/>
	<path class="st3" d="M231.87,184.45"/>
	<g>
		<path class="st0" d="M234.73,184.45c0,1.58-1.28,2.86-2.86,2.86c-1.58,0-2.86-1.28-2.86-2.86c0-1.58,1.28-2.86,2.86-2.86
			C233.45,181.59,234.73,182.87,234.73,184.45z"/>
		<path class="st18" d="M233.88,184.45c0,1.11-0.9,2.02-2.02,2.02c-1.11,0-2.02-0.9-2.02-2.02c0-1.11,0.9-2.02,2.02-2.02
			C232.98,182.44,233.88,183.34,233.88,184.45z"/>
	</g>
	<rect x="177.07" y="122.22" class="st2" width="64.74" height="114.04"/>
	<rect x="180.25" y="125.25" class="st6" width="58.3" height="111.01"/>
	<path class="st11" d="M215.7,169.19c-9.4,15.95-19.08,31.93-30.31,46.68c-1.66,2.18-3.39,4.31-5.14,6.43v13.96h58.3V129.93
		C230.83,142.96,223.38,156.14,215.7,169.19z"/>
	<path class="st11" d="M238.21,167.84c-5.84,12.49-12.43,24.7-20.49,35.91c-8.03,11.18-17.54,20.96-28.12,29.75
		c-1.12,0.93-2.25,1.85-3.39,2.76h52.33v-69.17C238.43,167.34,238.32,167.59,238.21,167.84z"/>
	<rect x="184.53" y="130.69" class="st3" width="49.36" height="44.77"/>
	<path class="st4" d="M196.73,130.69h-12.2v8.55C188.55,136.33,192.62,133.48,196.73,130.69z"/>
	<path class="st4" d="M222.31,174.11c-3.75,2.09-7.1-3.66-3.36-5.75c5-2.79,9.97-5.66,14.94-8.51V145.1
		c-12.53,8.26-25.08,16.5-37.6,24.77c-3.59,2.37-6.92-3.4-3.36-5.75c13.64-9.01,27.31-17.99,40.96-26.99v-6.44h-25.16
		c-8.23,5.33-16.32,10.89-24.2,16.73v28.04h49.36v-7.95C230.04,169.74,226.19,171.95,222.31,174.11z"/>
	<path class="st3" d="M231.87,184.45"/>
	<g>
		<path class="st0" d="M234.73,184.45c0,1.58-1.28,2.86-2.86,2.86c-1.58,0-2.86-1.28-2.86-2.86c0-1.58,1.28-2.86,2.86-2.86
			C233.45,181.59,234.73,182.87,234.73,184.45z"/>
		<path class="st18" d="M233.88,184.45c0,1.11-0.9,2.02-2.02,2.02c-1.11,0-2.02-0.9-2.02-2.02c0-1.11,0.9-2.02,2.02-2.02
			C232.98,182.44,233.88,183.34,233.88,184.45z"/>
	</g>
	<rect x="177.07" y="122.22" class="st2" width="64.74" height="114.04"/>
	<rect x="180.25" y="125.25" class="st19" width="58.3" height="111.01"/>
	<path class="st17" d="M215.7,169.19c-9.4,15.95-19.08,31.93-30.31,46.68c-1.66,2.18-3.39,4.31-5.14,6.43v13.96h58.3V129.93
		C230.83,142.96,223.38,156.14,215.7,169.19z"/>
	<path class="st8" d="M238.21,167.84c-5.84,12.49-12.43,24.7-20.49,35.91c-8.03,11.18-17.54,20.96-28.12,29.75
		c-1.12,0.93-2.25,1.85-3.39,2.76h52.33v-69.17C238.43,167.34,238.32,167.59,238.21,167.84z"/>
	<rect x="184.53" y="130.69" class="st20" width="49.36" height="44.77"/>
	<path class="st4" d="M196.73,130.69h-12.2v8.55C188.55,136.33,192.62,133.48,196.73,130.69z"/>
	<path class="st4" d="M222.31,174.11c-3.75,2.09-7.1-3.66-3.36-5.75c5-2.79,9.97-5.66,14.94-8.51V145.1
		c-12.53,8.26-25.08,16.5-37.6,24.77c-3.59,2.37-6.92-3.4-3.36-5.75c13.64-9.01,27.31-17.99,40.96-26.99v-6.44h-25.16
		c-8.23,5.33-16.32,10.89-24.2,16.73v28.04h49.36v-7.95C230.04,169.74,226.19,171.95,222.31,174.11z"/>
	<path class="st3" d="M231.87,184.45"/>
	<path class="st19" d="M234.73,184.45c0,1.58-1.28,2.86-2.86,2.86c-1.58,0-2.86-1.28-2.86-2.86c0-1.58,1.28-2.86,2.86-2.86
		C233.45,181.59,234.73,182.87,234.73,184.45z"/>
	<path class="st7" d="M233.88,184.45c0,1.11-0.9,2.02-2.02,2.02c-1.11,0-2.02-0.9-2.02-2.02c0-1.11,0.9-2.02,2.02-2.02
		C232.98,182.44,233.88,183.34,233.88,184.45z"/>
	<g>
		<rect x="231.24" y="184.55" class="st19" width="1.17" height="7.6"/>
	</g>
	<g>
		<rect x="220.25" y="190.29" class="st7" width="23.23" height="9.68"/>
		<g>
			<path class="st2" d="M227.99,195.31c0,0.27-0.06,0.51-0.19,0.74c-0.13,0.22-0.3,0.4-0.52,0.53c-0.22,0.13-0.46,0.19-0.73,0.19
				c-0.28,0-0.53-0.07-0.75-0.19c-0.22-0.13-0.4-0.31-0.52-0.53c-0.12-0.22-0.19-0.47-0.19-0.74c0-0.28,0.06-0.53,0.19-0.75
				c0.12-0.22,0.3-0.39,0.52-0.52c0.22-0.13,0.47-0.19,0.75-0.19c0.27,0,0.52,0.07,0.74,0.2s0.39,0.31,0.52,0.53
				C227.93,194.8,227.99,195.05,227.99,195.31z M226.54,196.24c0.16,0,0.31-0.04,0.44-0.13c0.13-0.08,0.24-0.2,0.31-0.34
				c0.08-0.14,0.11-0.3,0.11-0.47c0-0.16-0.04-0.32-0.11-0.46c-0.08-0.14-0.18-0.26-0.31-0.34c-0.14-0.09-0.28-0.13-0.45-0.13
				c-0.16,0-0.31,0.04-0.44,0.13c-0.14,0.09-0.24,0.2-0.32,0.34c-0.08,0.14-0.12,0.3-0.12,0.46c0,0.16,0.04,0.32,0.12,0.46
				c0.08,0.14,0.18,0.26,0.32,0.34C226.23,196.2,226.38,196.24,226.54,196.24z"/>
			<path class="st2" d="M231.62,195.32c0,0.26-0.06,0.5-0.18,0.72c-0.12,0.22-0.28,0.4-0.49,0.53c-0.21,0.13-0.43,0.19-0.68,0.19
				c-0.37,0-0.69-0.14-0.97-0.43v1.1h0.54v0.48h-1.58v-0.48h0.5v-3.03h-0.46v-0.49h1.01v0.44c0.14-0.16,0.29-0.28,0.45-0.36
				c0.16-0.08,0.34-0.12,0.53-0.12c0.26,0,0.49,0.06,0.7,0.19c0.2,0.13,0.36,0.3,0.47,0.52
				C231.57,194.82,231.62,195.06,231.62,195.32z M230.27,196.27c0.15,0,0.29-0.04,0.41-0.13c0.12-0.09,0.22-0.21,0.28-0.36
				c0.07-0.15,0.1-0.31,0.1-0.48c0-0.17-0.04-0.33-0.11-0.47c-0.08-0.14-0.18-0.26-0.31-0.34c-0.13-0.08-0.28-0.13-0.44-0.13
				c-0.17,0-0.33,0.04-0.46,0.14c-0.14,0.09-0.24,0.21-0.32,0.36c-0.08,0.15-0.11,0.31-0.11,0.49c0,0.29,0.09,0.51,0.27,0.68
				C229.75,196.19,229.98,196.27,230.27,196.27z"/>
			<path class="st2" d="M234.95,195.44h-2.31c0.03,0.26,0.14,0.47,0.31,0.63c0.17,0.15,0.38,0.23,0.63,0.23
				c0.18,0,0.35-0.04,0.51-0.11c0.16-0.07,0.29-0.19,0.39-0.35l0.48,0.22c-0.15,0.24-0.35,0.41-0.59,0.53
				c-0.24,0.12-0.51,0.18-0.8,0.18c-0.3,0-0.56-0.06-0.79-0.19c-0.23-0.12-0.41-0.3-0.54-0.52c-0.13-0.22-0.19-0.47-0.19-0.75
				c0-0.28,0.06-0.53,0.19-0.75c0.13-0.22,0.3-0.4,0.52-0.52c0.22-0.13,0.46-0.19,0.73-0.19c0.29,0,0.54,0.06,0.76,0.19
				c0.22,0.13,0.39,0.31,0.51,0.55C234.87,194.83,234.94,195.12,234.95,195.44z M233.48,194.3c-0.2,0-0.38,0.07-0.54,0.21
				c-0.15,0.14-0.25,0.32-0.3,0.55h1.73c-0.05-0.23-0.16-0.41-0.32-0.55C233.89,194.37,233.7,194.3,233.48,194.3z"/>
			<path class="st2" d="M237.99,194.83v1.37h0.46v0.48h-1.01v-1.82c0-0.17-0.03-0.3-0.07-0.37c-0.05-0.08-0.13-0.11-0.25-0.11
				c-0.24,0-0.51,0.12-0.81,0.36v1.47h0.48v0.48h-1.5v-0.48h0.49v-1.79h-0.49v-0.49h1.02v0.33c0.34-0.25,0.66-0.37,0.95-0.37
				c0.25,0,0.43,0.08,0.55,0.23C237.93,194.27,237.99,194.51,237.99,194.83z"/>
		</g>
	</g>
	<g>
		<rect x="50.16" y="178.05" class="st17" width="21.08" height="11.06"/>
		<rect x="41.1" y="176.64" class="st17" width="39.19" height="6.13"/>
		<polygon class="st17" points="37.54,168.33 30.69,165.91 30.69,189.11 37.54,189.11 		"/>
		<polygon class="st17" points="90.88,165.91 84.02,168.94 84.02,189.11 90.88,189.11 		"/>
	</g>
	<g>
		<rect x="118.23" y="178.05" class="st17" width="21.08" height="11.06"/>
		<rect x="109.17" y="176.64" class="st17" width="39.19" height="6.13"/>
		<polygon class="st17" points="105.61,168.33 98.76,165.91 98.76,189.11 105.61,189.11 		"/>
		<polygon class="st17" points="158.94,165.91 152.09,168.94 152.09,189.11 158.94,189.11 		"/>
	</g>
	<path class="st8" d="M256.33,96.41c0.03,0,0.05-0.48,0.05-0.69c0-2.31-1.88-4.22-4.19-4.22c-2.31,0-4.19,1.92-4.19,4.24
		c0,0.22,0.02,0.68,0.05,0.68h-5.77c0.03,0,0.05-0.48,0.05-0.69c0-2.31-1.88-4.22-4.19-4.22c-2.31,0-4.19,1.92-4.19,4.24
		c0,0.22,0.02,0.68,0.05,0.68h-5.77c0.03,0,0.05-0.48,0.05-0.69c0-2.31-1.88-4.22-4.19-4.22c-2.31,0-4.19,1.92-4.19,4.24
		c0,0.22,0.02,0.68,0.05,0.68h-5.77c0.03,0,0.05-0.48,0.05-0.69c0-2.31-1.88-4.22-4.19-4.22c-2.31,0-4.19,1.92-4.19,4.24
		c0,0.22,0.02,0.68,0.05,0.68h-5.77c0.03,0,0.05-0.48,0.05-0.69c0-2.31-1.88-4.22-4.19-4.22c-2.31,0-4.19,1.92-4.19,4.24
		c0,0.22,0.02,0.68,0.05,0.68h-5.77c0.03,0,0.05-0.48,0.05-0.69c0-2.31-1.88-4.22-4.19-4.22c-2.31,0-4.19,1.92-4.19,4.24
		c0,0.22,0.02,0.68,0.05,0.68h-5.77c0.03,0,0.05-0.48,0.05-0.69c0-2.31-1.88-4.22-4.19-4.22c-2.31,0-4.19,1.92-4.19,4.24
		c0,0.22,0.02,0.68,0.05,0.68h-5.77c0.03,0,0.05-0.48,0.05-0.69c0-2.31-1.88-4.22-4.19-4.22c-2.31,0-4.19,1.92-4.19,4.24
		c0,0.22,0.02,0.68,0.05,0.68h-5.77c0.03,0,0.05-0.48,0.05-0.69c0-2.31-1.88-4.22-4.19-4.22c-2.31,0-4.19,1.92-4.19,4.24
		c0,0.22,0.02,0.68,0.05,0.68h-5.77c0.03,0,0.05-0.48,0.05-0.69c0-2.31-1.88-4.22-4.19-4.22c-2.31,0-4.19,1.92-4.19,4.24
		c0,0.22,0.02,0.68,0.05,0.68h-5.77c0.03,0,0.05-0.48,0.05-0.69c0-2.31-1.88-4.22-4.19-4.22c-2.31,0-4.19,1.92-4.19,4.24
		c0,0.22,0.02,0.68,0.05,0.68h-5.77c0.03,0,0.05-0.48,0.05-0.69c0-2.31-1.88-4.22-4.19-4.22c-2.31,0-4.19,1.92-4.19,4.24
		c0,0.22,0.02,0.68,0.05,0.68h-5.77c0.03,0,0.05-0.48,0.05-0.69c0-2.31-1.88-4.22-4.19-4.22c-2.31,0-4.19,1.92-4.19,4.24
		c0,0.22,0.02,0.68,0.05,0.68h-5.77c0.03,0,0.05-0.48,0.05-0.69c0-2.31-1.88-4.22-4.19-4.22c-2.31,0-4.19,1.92-4.19,4.24
		c0,0.22,0.02,0.68,0.05,0.68h-5.77c0.03,0,0.05-0.48,0.05-0.69c0-2.31-1.88-4.22-4.19-4.22c-2.31,0-4.19,1.92-4.19,4.24
		c0,0.22,0.02,0.68,0.05,0.68h-5.77c0.03,0,0.05-0.48,0.05-0.69c0-2.31-1.88-4.22-4.19-4.22c-2.31,0-4.19,1.92-4.19,4.24
		c0,0.22,0.02,0.68,0.05,0.68h-5.77c0.03,0,0.05-0.48,0.05-0.69c0-2.31-1.88-4.22-4.19-4.22c-2.31,0-4.19,1.92-4.19,4.24
		c0,0.22,0.02,0.68,0.05,0.68H17.6c0.03,0,0.05-0.48,0.05-0.69c0-2.31-1.88-4.22-4.19-4.22c-2.31,0-4.19,1.92-4.19,4.24
		c0,0.22,0.02,0.68,0.05,0.68H0.44v8.36h266.72v-8.36H256.33z"/>
	<polygon class="st20" points="23.24,175.34 86.76,123.76 72.09,123.76 23.24,163.44 	"/>
	<polygon class="st20" points="34.03,189.87 51.76,189.87 133.12,123.76 115.39,123.76 	"/>
	<polygon class="st20" points="79.36,189.87 94.48,189.87 164.58,132.21 164.58,123.76 160.72,123.76 	"/>
	<polygon class="st20" points="139.26,189.87 164.58,168.52 164.58,156.25 124.14,189.87 	"/>
</g>
</svg>
