<?xml version="1.0" encoding="utf-8"?>
<!-- Generator: Adobe Illustrator 23.0.3, SVG Export Plug-In . SVG Version: 6.00 Build 0)  -->
<svg version="1.1" id="Layer_1" xmlns="http://www.w3.org/2000/svg" xmlns:xlink="http://www.w3.org/1999/xlink" x="0px" y="0px"
	 viewBox="0 0 109.82 134.91" style="enable-background:new 0 0 109.82 134.91;" xml:space="preserve">
<style type="text/css">
	.st0{fill:#00A5A7;}
</style>
<g>
	<g>
		<g>
			<g>
				<g>
					<path class="st0" d="M55.14,0.01c-0.2,0.01-0.43,0.04-0.65,0.11V0.09C54.61,0.06,54.84,0.01,55.14,0.01z"/>
					<path class="st0" d="M55.3,90.17h-0.13v-0.01C55.21,90.17,55.25,90.17,55.3,90.17z"/>
					<path class="st0" d="M83.45,36v0.34h-2.55l-0.04-0.33C81.23,35.98,82.23,35.91,83.45,36z"/>
				</g>
				<g>
					<path class="st0" d="M55.3,111.53h-0.05v-0.01C55.27,111.53,55.29,111.53,55.3,111.53z"/>
					<path class="st0" d="M109.93,108.74c-0.26-0.52-6.97-12.63-39.45-14.45v-7.72c10.85-5.68,12.93-16.04,12.95-16.18l0.01-14.02
						c6.01-0.09,6.93-4.13,6.97-4.34l0.05-0.43c0.01-0.24,0.14-5.89,0-9.94c-0.05-1.49-0.66-2.81-1.77-3.78
						c-0.89-0.77-1.99-1.24-3.08-1.53h-4.7l-0.04-0.33c0.36-0.04,1.36-0.11,2.58-0.01l0.02-21.82L59.65,7.05
						c-0.19-3.23-0.95-5.27-2.33-6.33c-0.41-0.32-0.83-0.5-1.21-0.6c-0.23-0.07-0.44-0.09-0.64-0.11C55.36,0,55.25,0,55.14,0.01
						c-0.2,0.01-0.43,0.04-0.65,0.11c-0.38,0.11-0.79,0.28-1.21,0.6c-1.39,1.05-2.14,3.09-2.33,6.33l-23.83,7.13V36
						c1.23-0.09,2.24-0.02,2.61,0.01l-0.04,0.33h-4.67c-0.01,0-0.01,0-0.02,0.01c-1.1,0.27-2.2,0.75-3.08,1.52
						c-1.11,0.97-1.73,2.29-1.78,3.78c-0.14,4.05-0.01,9.7,0,9.94l0.05,0.43c0.04,0.2,0.96,4.23,6.93,4.34v13.59l0.05,0.43
						c0.02,0.14,2.1,10.51,12.95,16.18v7.72c-4.55,0.26-8.6,0.71-12.19,1.33c-0.18,0.02-0.36,0.05-0.52,0.08
						c-0.02,0-0.04,0-0.06,0.01c-3.09,0.53-5.83,1.17-8.27,1.87c-0.21,0.06-0.41,0.13-0.63,0.18c-0.01,0.01-0.02,0.01-0.02,0.01
						C4.38,102,0.86,108.36,0.66,108.74l-0.27,0.52v25.65h109.82v-25.65L109.93,108.74z M83.45,40.78c0.88,0.09,1.71,0.31,2.11,0.66
						c0.09,0.08,0.15,0.15,0.15,0.37c0.12,3.25,0.05,7.7,0.01,9.18c-0.25,0.25-0.91,0.6-2.29,0.64L83.45,40.78z M27.12,51.63
						c-1.35-0.04-2-0.39-2.25-0.64c-0.04-1.48-0.11-5.94,0.01-9.18c0-0.21,0.06-0.28,0.15-0.37c0.39-0.36,1.21-0.57,2.09-0.66V51.63
						z M17.06,130.17H5.13v-19.61c0.9-1.16,4.03-4.53,11.93-7.36V130.17z M55.3,3.04l0.44,1.61c-0.09,0.02-0.15,0.06-0.27,0.07
						c-0.11,0.01-0.23,0.01-0.34,0c-0.08-0.02-0.18-0.04-0.27-0.06L55.3,3.04z M31.85,17.71L55.3,10.7l23.44,7.01v18.64H31.85V17.71
						z M75.76,41.09l-3.84,4.8H38.67l-3.84-4.8H75.76z M31.85,69.7V44.96l4.53,5.66h37.83l4.53-5.66v24.73
						c-0.44,1.86-4.19,15.18-23.44,15.75C36.03,84.88,32.28,71.51,31.85,69.7z M65.74,88.51v7.78c-0.2,1.16-2.03,9.75-10.44,10.47
						c-8.28-0.7-10.19-9.03-10.45-10.4v-7.86c2.94,0.94,6.35,1.54,10.32,1.65c0.04,0.01,0.08,0.01,0.13,0.01
						c0.05,0,0.08,0,0.12-0.01C59.39,90.05,62.8,89.45,65.74,88.51z M21.8,130.17v-28.44c1.21-0.32,2.5-0.63,3.89-0.9v29.34H21.8z
						 M77.94,99.92v30.25H30.42v-30.16c3.03-0.45,6.42-0.79,10.19-1.01c1.45,4.96,5.7,11.94,14.64,12.52
						c0.01,0.01,0.04,0.01,0.05,0.01c0.01,0,0.02,0,0.04-0.01c8.95-0.58,13.2-7.56,14.64-12.52c2.88,0.15,5.52,0.4,7.97,0.7
						C77.94,99.77,77.94,99.84,77.94,99.92z M86.57,130.17h-3.89v-29.76c1.37,0.24,2.67,0.5,3.89,0.78V130.17z M105.47,130.17H91.31
						v-27.71c9.6,2.97,13.22,6.87,14.16,8.09V130.17z"/>
				</g>
			</g>
			<g>
				<g>
					<path class="st0" d="M29.72,36.01l-0.04,0.33h-2.57V36C28.35,35.91,29.35,35.98,29.72,36.01z"/>
					<path class="st0" d="M55.42,90.16v0.01H55.3C55.35,90.17,55.38,90.17,55.42,90.16z"/>
					<path class="st0" d="M56.11,0.09v0.02c-0.23-0.07-0.44-0.09-0.64-0.11C55.76,0.01,55.99,0.06,56.11,0.09z"/>
				</g>
				<g>
					<path class="st0" d="M55.34,111.52v0.01H55.3C55.31,111.53,55.33,111.53,55.34,111.52z"/>
				</g>
			</g>
		</g>
		<g>
			<path class="st0" d="M70.05,33.36H40.54V19.35h29.51V33.36z M45.28,28.62h20.03v-4.53H45.28V28.62z"/>
		</g>
		<g>
			<path class="st0" d="M24.98,36.35l0.01,0.01c0.01-0.01,0.01-0.01,0.02-0.01H24.98z"/>
		</g>
		<g>
			<path class="st0" d="M53.23,69.73c-0.61,0-1.21-0.23-1.68-0.69c-0.93-0.93-0.93-2.43,0-3.35l1.56-1.56v-8.02
				c0-1.31,1.06-2.37,2.37-2.37s2.37,1.06,2.37,2.37v9.98l-2.95,2.95C54.44,69.5,53.83,69.73,53.23,69.73z"/>
		</g>
		<g>
			<path class="st0" d="M54.94,79.47c-4.54,0-7.89-2.18-8.1-2.32c-1.09-0.73-1.38-2.2-0.66-3.29c0.72-1.09,2.19-1.38,3.28-0.66
				c0.24,0.16,5.32,3.36,10.58-0.02c1.1-0.7,2.57-0.38,3.27,0.72c0.71,1.1,0.38,2.57-0.72,3.27C59.91,78.9,57.27,79.47,54.94,79.47z
				"/>
		</g>
	</g>
	<g>
		<circle class="st0" cx="42.62" cy="55.1" r="2.82"/>
		<circle class="st0" cx="67.97" cy="55.1" r="2.82"/>
	</g>
</g>
</svg>
