<?xml version="1.0" encoding="utf-8"?>
<!-- Generator: Adobe Illustrator 23.0.3, SVG Export Plug-In . SVG Version: 6.00 Build 0)  -->
<svg version="1.1" id="Layer_1" xmlns="http://www.w3.org/2000/svg" xmlns:xlink="http://www.w3.org/1999/xlink" x="0px" y="0px"
	 viewBox="0 0 238.83 167.73" style="enable-background:new 0 0 238.83 167.73;" xml:space="preserve">
<style type="text/css">
	.st0{fill-rule:evenodd;clip-rule:evenodd;fill:#00A5A7;}
	.st1{fill-rule:evenodd;clip-rule:evenodd;fill:#013E3F;}
	.st2{fill-rule:evenodd;clip-rule:evenodd;fill:#00676A;}
	.st3{fill-rule:evenodd;clip-rule:evenodd;fill:#007D7E;}
	.st4{fill-rule:evenodd;clip-rule:evenodd;fill:#005254;}
</style>
<g>
	<polygon class="st0" points="0,23.49 119.42,0 238.83,23.49 238.83,167.73 0,167.73 	"/>
	<rect x="5.64" y="44.28" class="st1" width="227.01" height="123.45"/>
	<rect x="5.64" y="44.28" class="st2" width="11.95" height="123.45"/>
	<rect x="220.69" y="44.28" class="st2" width="11.95" height="123.45"/>
	<polygon class="st3" points="0,23.49 238.83,23.49 238.83,23.49 119.42,0 	"/>
	<rect x="5.64" y="44.28" class="st2" width="227.01" height="11.95"/>
	<polygon class="st1" points="17.59,56.23 37.7,68.59 37.7,167.73 17.59,167.73 	"/>
	<rect x="82.35" y="92.27" class="st0" width="32.85" height="29.45"/>
	<rect x="81.92" y="92.27" class="st0" width="33.71" height="4.9"/>
	<polygon class="st3" points="115.2,121.72 102.86,121.72 82.35,97.17 115.2,97.17 	"/>
	<polygon class="st2" points="112.38,92.27 108.76,92.27 108.76,99.05 109.54,98.68 110.25,99.02 111.22,98.45 112.38,99.05 	"/>
	<polygon class="st2" points="88.78,92.27 85.17,92.27 85.17,99.05 85.95,98.68 86.65,99.02 87.63,98.45 88.78,99.05 	"/>
	<rect x="48.2" y="92.27" class="st0" width="32.85" height="29.45"/>
	<rect x="47.77" y="92.27" class="st0" width="33.71" height="4.9"/>
	<polygon class="st3" points="81.05,121.72 68.72,121.72 48.2,97.17 81.05,97.17 	"/>
	<polygon class="st2" points="78.23,92.27 74.62,92.27 74.62,99.05 75.4,98.68 76.1,99.02 77.08,98.45 78.23,99.05 	"/>
	<polygon class="st2" points="54.64,92.27 51.03,92.27 51.03,99.05 51.81,98.68 52.51,99.02 53.48,98.45 54.64,99.05 	"/>
	<rect x="24.69" y="122.86" class="st0" width="46.49" height="44.87"/>
	<rect x="28.65" y="126.66" class="st2" width="5.84" height="36.9"/>
	<rect x="34.49" y="126.66" class="st2" width="5.84" height="36.9"/>
	<rect x="40.32" y="126.66" class="st2" width="5.84" height="36.9"/>
	<rect x="46.16" y="126.66" class="st2" width="5.84" height="36.9"/>
	<rect x="52" y="126.66" class="st2" width="5.84" height="36.9"/>
	<rect x="57.83" y="126.66" class="st2" width="5.84" height="36.9"/>
	<rect x="63.67" y="126.66" class="st2" width="3.37" height="36.9"/>
	<rect x="29.7" y="129.55" class="st3" width="2.32" height="33.28"/>
	<rect x="35.54" y="129.55" class="st3" width="2.32" height="33.28"/>
	<rect x="41.38" y="129.55" class="st3" width="2.32" height="33.28"/>
	<rect x="47.21" y="129.55" class="st3" width="2.32" height="33.28"/>
	<rect x="53.05" y="129.55" class="st3" width="2.32" height="33.28"/>
	<rect x="58.88" y="129.55" class="st3" width="2.32" height="33.28"/>
	<rect x="64.72" y="129.55" class="st3" width="2.32" height="33.28"/>
	<rect x="32.02" y="126.66" class="st0" width="2.46" height="36.9"/>
	<rect x="37.86" y="126.66" class="st0" width="2.46" height="36.9"/>
	<rect x="43.7" y="126.66" class="st0" width="2.46" height="36.9"/>
	<rect x="49.53" y="126.66" class="st0" width="2.46" height="36.9"/>
	<rect x="55.37" y="126.66" class="st0" width="2.46" height="36.9"/>
	<rect x="61.21" y="126.66" class="st0" width="2.46" height="36.9"/>
	<rect x="72.32" y="122.86" class="st0" width="46.49" height="44.87"/>
	<rect x="76.28" y="126.66" class="st2" width="5.84" height="36.9"/>
	<rect x="82.11" y="126.66" class="st2" width="5.84" height="36.9"/>
	<rect x="87.95" y="126.66" class="st2" width="5.84" height="36.9"/>
	<rect x="93.79" y="126.66" class="st2" width="5.84" height="36.9"/>
	<rect x="99.62" y="126.66" class="st2" width="5.84" height="36.9"/>
	<rect x="105.46" y="126.66" class="st2" width="5.84" height="36.9"/>
	<rect x="111.3" y="126.66" class="st2" width="3.37" height="36.9"/>
	<rect x="77.33" y="129.55" class="st3" width="2.32" height="33.28"/>
	<rect x="83.17" y="129.55" class="st3" width="2.32" height="33.28"/>
	<rect x="89" y="129.55" class="st3" width="2.32" height="33.28"/>
	<rect x="94.84" y="129.55" class="st3" width="2.32" height="33.28"/>
	<rect x="100.68" y="129.55" class="st3" width="2.32" height="33.28"/>
	<rect x="106.51" y="129.55" class="st3" width="2.32" height="33.28"/>
	<rect x="112.35" y="129.55" class="st3" width="2.32" height="33.28"/>
	<rect x="79.65" y="126.66" class="st0" width="2.46" height="36.9"/>
	<rect x="85.49" y="126.66" class="st0" width="2.46" height="36.9"/>
	<rect x="91.33" y="126.66" class="st0" width="2.46" height="36.9"/>
	<rect x="97.16" y="126.66" class="st0" width="2.46" height="36.9"/>
	<rect x="103" y="126.66" class="st0" width="2.46" height="36.9"/>
	<rect x="108.83" y="126.66" class="st0" width="2.46" height="36.9"/>
	<rect x="48.2" y="121.72" class="st2" width="66.94" height="1.14"/>
	<rect x="71.18" y="122.86" class="st2" width="1.14" height="44.87"/>
	<rect x="119.84" y="138.28" class="st0" width="32.85" height="29.45"/>
	<rect x="119.41" y="138.28" class="st0" width="33.71" height="4.9"/>
	<polygon class="st3" points="152.69,167.73 140.36,167.73 119.84,143.18 152.69,143.18 	"/>
	<polygon class="st2" points="149.87,138.28 146.26,138.28 146.26,145.06 147.04,144.7 147.74,145.03 148.72,144.46 149.87,145.06 	
		"/>
	<polygon class="st2" points="126.27,138.28 122.66,138.28 122.66,145.06 123.44,144.7 124.15,145.03 125.12,144.46 126.27,145.06 	
		"/>
	<polygon class="st4" points="17.59,56.23 37.7,68.59 200.58,68.59 220.69,56.23 	"/>
	<polygon class="st1" points="220.69,56.23 200.58,68.59 200.58,167.73 220.69,167.73 	"/>
	<rect x="153.99" y="135.21" class="st3" width="27.97" height="32.52"/>
	<rect x="153.99" y="135.21" class="st0" width="13.99" height="32.52"/>
	<g>
		<polygon class="st3" points="158.69,160.87 158.69,165.04 157.17,165.04 157.17,160.87 156.12,160.87 157.03,159.22 
			157.93,157.56 158.83,159.22 159.74,160.87 		"/>
		<polygon class="st3" points="162.78,160.87 162.78,165.04 161.27,165.04 161.27,160.87 160.22,160.87 161.12,159.22 
			162.02,157.56 162.93,159.22 163.83,160.87 		"/>
		<rect x="156.63" y="165.04" class="st3" width="6.69" height="0.6"/>
	</g>
	<g>
		<polygon class="st2" points="156.41,135.21 159.7,135.21 159.7,141.38 158.99,141.05 158.35,141.36 157.46,140.84 156.41,141.38 
					"/>
		<polygon class="st2" points="176.25,135.21 179.54,135.21 179.54,141.38 178.83,141.05 178.19,141.36 177.3,140.84 176.25,141.38 
					"/>
	</g>
	<rect x="182.55" y="142.65" class="st3" width="27.97" height="25.08"/>
	<rect x="182.55" y="142.65" class="st0" width="13.99" height="25.08"/>
	<polygon class="st3" points="187.24,160.87 187.24,165.04 185.73,165.04 185.73,160.87 184.68,160.87 185.58,159.22 186.49,157.56 
		187.39,159.22 188.29,160.87 	"/>
	<polygon class="st3" points="191.34,160.87 191.34,165.04 189.82,165.04 189.82,160.87 188.77,160.87 189.68,159.22 190.58,157.56 
		191.48,159.22 192.39,160.87 	"/>
	<rect x="185.19" y="165.04" class="st3" width="6.69" height="0.6"/>
	<g>
		<polygon class="st2" points="184.96,142.65 188.25,142.65 188.25,148.83 187.54,148.5 186.9,148.8 186.01,148.28 184.96,148.83 		
			"/>
		<polygon class="st2" points="204.81,142.65 208.1,142.65 208.1,148.83 207.39,148.5 206.75,148.8 205.86,148.28 204.81,148.83 		
			"/>
	</g>
	<rect x="181.96" y="142.65" class="st2" width="0.58" height="25.08"/>
</g>
</svg>
