<?xml version="1.0" encoding="utf-8"?>
<!-- Generator: Adobe Illustrator 23.0.3, SVG Export Plug-In . SVG Version: 6.00 Build 0)  -->
<svg version="1.1" id="Layer_1" xmlns="http://www.w3.org/2000/svg" xmlns:xlink="http://www.w3.org/1999/xlink" x="0px" y="0px"
	 viewBox="0 0 353.46 393.35" style="enable-background:new 0 0 353.46 393.35;" xml:space="preserve">
<style type="text/css">
	.st0{fill:#939598;}
	.st1{fill:#FFFFFF;}
	.st2{fill:none;stroke:#FFFFFF;stroke-miterlimit:10;}
	.st3{fill:#BDBEC0;}
	.st4{fill:#231F20;}
	.st5{fill:#00A5A7;}
	.st6{fill:#00A5A7;stroke:#231F20;stroke-miterlimit:10;}
</style>
<g>
	<g>
		<g>
			<path d="M322.77,304.5c-15.77,25.79-56.79,73.04-130.5,87.13c-10.26,1.96-20.82,1.96-31.08,0
				c-73.7-14.09-114.73-61.34-130.5-87.13C13.86,276.96-10.24,98.27,4.67,83.35c66.57-63.51,172.05-69.63,172.05-69.63
				s105.48,6.12,172.05,69.63C363.7,98.27,339.6,276.96,322.77,304.5z"/>
		</g>
	</g>
	<g>
		<g>
			<path class="st0" d="M176.73,387.63c-5.08,0-10.17-0.48-15.22-1.44c-78.82-15.02-116.98-68.58-126.79-84.63
				c-8.85-14.49-18.76-67.92-24.21-111.43C7.8,168.48-0.24,97.08,10.16,86.66c60.48-57.7,154.58-66.52,165.11-67.33
				c0.98-0.08,1.93-0.08,2.9,0c10.53,0.82,104.63,9.63,165.07,67.29c10.45,10.46,2.41,81.86-0.3,103.5
				c-5.45,43.51-15.36,96.95-24.21,111.43l0,0c-9.82,16.06-47.97,69.61-126.79,84.63C186.9,387.15,181.81,387.63,176.73,387.63z
				 M176.73,24.28c-0.35,0-0.71,0.01-1.07,0.04c-10.35,0.8-102.82,9.46-162,65.92c-4.53,4.53-5.92,37.56,1.81,99.26
				c6.48,51.73,16.37,97.76,23.52,109.45c9.54,15.61,46.65,67.69,123.46,82.33c9.48,1.81,19.09,1.81,28.56,0
				c76.8-14.63,113.92-66.71,123.46-82.33c7.14-11.69,17.03-57.71,23.52-109.45c7.73-61.7,6.34-94.73,1.77-99.3
				c-59.14-56.42-151.61-65.08-161.96-65.88C177.44,24.29,177.08,24.28,176.73,24.28z"/>
		</g>
	</g>
	<g>
		<g>
			<path class="st1" d="M304.61,278.55c-1.45,2.22-3.65,4.32-6.55,6.27c-0.09-0.04-0.17-0.07-0.26-0.11
				c-1.79-0.75-3.6-1.49-5.42-2.2c-33.47-13.2-71.78-20.81-112.54-21.12c-0.89-0.02-1.77-0.02-2.66-0.02
				c-42.11,0-81.68,7.79-116.09,21.5c-1.78,0.7-3.54,1.42-5.3,2.16c-0.02,0.01-0.03,0.01-0.05,0.02c-0.21-0.15-0.42-0.31-0.63-0.48
				c-2.72-1.87-4.79-3.89-6.19-6.02c-1.16-1.76-2.33-4.1-3.49-6.91c-0.01-0.03-0.03-0.05-0.04-0.08c-0.47-1.1-0.96-2.36-1.44-3.75
				c-0.1-0.28-0.2-0.57-0.3-0.87c-4.84-13.82-9.31-35.07-11.75-55.71c-0.01-0.09-0.02-0.18-0.03-0.26
				c-0.47-3.62-0.79-6.75-0.95-9.19c0-0.07-0.01-0.14-0.01-0.2c-0.28-3.21-0.5-6.38-0.66-9.47c-0.35-5.25-0.57-11.02-0.11-17.32
				c0.08-1.74,0.2-3.41,0.36-5c1.07-11.16,4.57-20.6,8.86-28.32c0,0,0.04-0.07,0.12-0.21c0.05-0.1,0.14-0.24,0.23-0.4
				c0.13-0.22,0.29-0.5,0.48-0.82c0.1-0.16,0.2-0.35,0.32-0.54c0.04-0.05,0.07-0.12,0.11-0.18c0.05-0.08,0.11-0.17,0.16-0.26
				c0.16-0.27,0.32-0.54,0.48-0.8c0.27-0.45,0.55-0.89,0.83-1.31c0.16-0.26,0.33-0.52,0.5-0.77c0.23-0.34,0.46-0.68,0.68-1
				c0.24-0.35,0.48-0.7,0.73-1.06c0.13-0.18,0.26-0.37,0.38-0.55c1.18-1.67,2.47-3.36,3.77-4.79c0.11-0.14,0.23-0.26,0.35-0.39
				c7.02-8.17,13.38-12.31,13.38-12.31s20.33-16.55,46.07-7.4c3.59,1.28,7.29,3.05,11.04,5.45c-5.96-12.72-7.53-23.98-3.33-26.25
				c0.15-0.08,0.29-0.15,0.45-0.2l7.14-3.88c0,0,0.01-0.01,0.03-0.02l5.3-2.88V53.71c0-15.72,14.47-28.58,32.16-28.58h31.92
				c17.69,0,32.16,12.87,32.16,28.58v27.17l5.33,2.89l7.12,3.88c0.16,0.05,0.32,0.12,0.47,0.2c4.2,2.27,2.61,13.59-3.39,26.35
				c3.8-2.44,7.52-4.24,11.15-5.53c25.77-9.19,46.11,7.38,46.11,7.38s6.15,4,13.03,11.9l0.24,0.17c2.45,2.62,4.94,6.26,6.69,9.04
				c0.37,0.58,0.71,1.12,1,1.61c0.16,0.26,0.32,0.52,0.46,0.75c0.15,0.24,0.27,0.45,0.38,0.64c0.08,0.16,0.17,0.3,0.26,0.46
				c0.11,0.18,0.19,0.34,0.25,0.44c0.02,0.05,0.05,0.09,0.08,0.14c0.01,0.01,0.02,0.03,0.02,0.03c0.01,0.01,0.01,0.01,0.01,0.01
				c0.02,0.04,0.04,0.08,0.05,0.12c0.03,0.05,0.05,0.1,0.08,0.16c0.01,0.03,0.03,0.05,0.04,0.07c4.26,7.69,7.73,17.1,8.79,28.21
				C326.13,201.94,314.87,262.93,304.61,278.55z"/>
		</g>
	</g>
	<g>
		<g>
			<path class="st0" d="M55.74,285.6l-0.4-0.27c-0.17-0.12-0.35-0.23-0.52-0.36c-2.75-1.89-4.88-3.96-6.31-6.14
				c-1.15-1.75-2.34-4.1-3.53-7l-0.05-0.12c-0.49-1.2-0.98-2.47-1.44-3.74c-0.1-0.29-0.2-0.58-0.31-0.88
				c-4.82-13.76-9.33-35.15-11.77-55.81l-0.03-0.27c-0.37-3.14-0.69-6.24-0.95-9.2l-0.01-0.25c-0.28-3.14-0.5-6.34-0.66-9.44
				c-0.33-6.3-0.36-12.15-0.11-17.37c0.08-1.74,0.2-3.43,0.36-5.03c0.96-10,3.96-19.59,8.92-28.51c0,0,0.04-0.08,0.13-0.23
				l0.27-0.48c0.12-0.21,0.27-0.46,0.44-0.74l0.13-0.23c0.06-0.1,0.12-0.21,0.19-0.32c0.04-0.06,0.07-0.11,0.1-0.17
				c0.06-0.1,0.11-0.17,0.16-0.25c0.17-0.29,0.33-0.56,0.5-0.83c0.28-0.45,0.55-0.89,0.84-1.33l0.09-0.15
				c0.14-0.21,0.27-0.43,0.42-0.63c0.26-0.38,0.47-0.69,0.68-1l1.11-1.61c1.15-1.57,2.39-3.15,3.8-4.83
				c0.11-0.14,0.24-0.27,0.36-0.41c6.97-8.12,13.41-12.35,13.47-12.39c0.16-0.14,20.8-16.59,46.51-7.45
				c3.77,1.34,7.49,3.17,11.04,5.44l0.11,0.06c0.94,0.59,1.92,1.25,2.91,1.96c0.84,0.6,2.01,1.63,3.6,3.17
				c3.2,3.11,7.96,8.18,14.17,15.1h0l0.16,0.17c1.68,1.88,3.39,3.8,5.07,5.71c0.02,0.02,0.07,0.07,0.12,0.14
				c9.92,11.23,19.31,22.32,19.4,22.43c3.96,4.42,7.82,6.74,11.46,6.9l0.61,0.01l0.61-0.01c3.62-0.16,7.48-2.49,11.45-6.91
				c0.08-0.1,9.43-11.13,19.37-22.39l0.11-0.13c1.7-1.92,3.42-3.86,5.11-5.76c6.12-6.82,10.85-11.87,14.06-15.01
				c1.67-1.63,2.96-2.78,3.86-3.42c0.91-0.65,1.76-1.23,2.59-1.75l0.17-0.11c3.64-2.34,7.43-4.22,11.25-5.58
				c25.74-9.18,46.39,7.29,46.6,7.46c0.02,0.01,6.24,4.1,13.09,11.96c2.58,2.98,4.93,6.09,6.97,9.27c0.38,0.59,0.72,1.13,1.01,1.62
				c0.16,0.26,0.32,0.52,0.46,0.75c0.15,0.24,0.28,0.45,0.39,0.65c0.07,0.12,0.13,0.23,0.19,0.34l0.07,0.11
				c0.09,0.15,0.16,0.28,0.21,0.38l0.07,0.13c0.03,0.03,0.06,0.09,0.08,0.13l0.14,0.28c4.94,8.91,7.92,18.47,8.88,28.46
				c3.15,32.72-8.51,93.88-18.5,109.1l0,0c-1.48,2.26-3.73,4.42-6.69,6.41l-0.22,0.15l-0.51-0.21c-2.08-0.87-3.79-1.57-5.42-2.2
				c-34.23-13.5-73.08-20.79-112.36-21.09c-0.89-0.02-1.77-0.02-2.65-0.02c-40.58,0-80.66,7.42-115.9,21.46
				c-1.75,0.69-3.53,1.42-5.29,2.16L55.74,285.6z M92.26,106.42c-17.46,0-29.88,9.89-30.04,10.02c-0.11,0.07-6.43,4.23-13.31,12.25
				c-0.12,0.13-0.23,0.25-0.34,0.38c-1.4,1.67-2.63,3.23-3.76,4.78l-1.1,1.59c-0.21,0.31-0.43,0.62-0.64,0.93
				c-0.19,0.27-0.31,0.47-0.44,0.67l-0.1,0.16c-0.28,0.43-0.55,0.86-0.83,1.31c-0.16,0.26-0.32,0.52-0.48,0.79
				c-0.08,0.12-0.13,0.21-0.18,0.29c-0.03,0.05-0.07,0.12-0.11,0.18l-0.31,0.52c-0.16,0.27-0.31,0.52-0.43,0.73l-0.27,0.47
				c-0.07,0.13-0.11,0.19-0.11,0.2c-4.9,8.81-7.86,18.28-8.81,28.14c-0.15,1.58-0.27,3.26-0.35,4.98
				c-0.25,5.19-0.21,11.01,0.11,17.27c0.16,3.1,0.38,6.28,0.66,9.45l0.01,0.25c0.26,2.9,0.57,5.99,0.95,9.13l0.03,0.28
				c2.43,20.58,6.93,41.89,11.73,55.59c0.1,0.3,0.2,0.58,0.3,0.87c0.45,1.25,0.94,2.51,1.44,3.73l0.05,0.11
				c1.16,2.81,2.32,5.1,3.43,6.8c1.36,2.07,3.4,4.05,6.06,5.88c0.16,0.12,0.3,0.21,0.45,0.31c1.68-0.71,3.38-1.4,5.06-2.06
				c35.36-14.09,75.56-21.53,116.27-21.53c0.89,0,1.78,0,2.67,0.02c39.39,0.3,78.37,7.62,112.71,21.16
				c1.63,0.64,3.36,1.34,5.43,2.21l0.01,0c2.74-1.88,4.82-3.89,6.19-5.98v0c9.91-15.1,21.47-75.9,18.34-108.45
				c-0.95-9.85-3.89-19.27-8.73-28.01l-0.13-0.25c-0.02-0.03-0.04-0.07-0.06-0.11c-0.06-0.08-0.1-0.15-0.12-0.22
				c-0.06-0.11-0.13-0.23-0.21-0.36l-0.07-0.11c-0.07-0.12-0.15-0.24-0.21-0.37c-0.1-0.17-0.22-0.38-0.37-0.61
				c-0.14-0.23-0.29-0.49-0.46-0.75c-0.29-0.48-0.63-1.02-1-1.6c-2.02-3.14-4.34-6.22-6.89-9.16c-6.75-7.75-12.86-11.77-12.92-11.81
				c-0.25-0.19-20.48-16.31-45.67-7.33c-3.67,1.31-7.31,3.11-10.82,5.34v0.23l-0.36,0.01c-0.83,0.52-1.68,1.09-2.59,1.74
				c-0.85,0.61-2.11,1.73-3.74,3.32c-3.2,3.12-7.91,8.16-14.01,14.96c-1.7,1.9-3.42,3.84-5.12,5.77l-0.05,0.06
				c-9.95,11.27-19.31,22.33-19.41,22.44c-4.23,4.71-8.21,7.08-12.18,7.25l-0.64,0.01l-0.63-0.01c-3.99-0.18-7.97-2.54-12.18-7.24
				c-0.1-0.12-9.49-11.21-19.44-22.48l-0.07-0.08c-1.63-1.85-3.29-3.72-4.92-5.55l-0.15-0.16c-6.26-6.99-11.06-12.1-14.25-15.2
				c-1.57-1.52-2.71-2.52-3.5-3.09c-0.93-0.67-1.85-1.29-2.74-1.85h0l-0.13-0.08c-3.52-2.25-7.2-4.07-10.94-5.4
				C102.34,107.18,97.11,106.42,92.26,106.42z"/>
		</g>
	</g>
	<g>
		<g>
			<rect x="176.28" y="147.29" class="st1" width="1" height="0.89"/>
		</g>
	</g>
	<g>
		<g>
			<path class="st0" d="M214.65,215.88c-0.08,0-0.15,0-0.22-0.01c-3-0.25-33.49-7.5-40.68-9.81c-5.77-1.86-9.44-1.77-13.33-1.66
				c-0.92,0.02-1.86,0.05-2.84,0.05c-5.44,0-13.42-1.26-26.69-4.21l-0.37-0.08l-0.02-0.37c-1.61-24.78-22.35-63.52-22.56-63.91
				c-0.13-0.24-0.04-0.55,0.2-0.68c0.24-0.13,0.55-0.04,0.68,0.2c0.21,0.39,20.85,38.93,22.65,63.94c12.98,2.88,20.8,4.1,26.1,4.1
				c0.97,0,1.9-0.03,2.81-0.05c3.97-0.11,7.72-0.21,13.66,1.71c7.47,2.41,37.95,9.56,40.46,9.77c2.83,0.24,16.16-5.12,18.38-10.87
				c0.58-1.51,0.41-6.03,0.19-11.76c-0.64-16.83-1.7-45.01,12.53-57.68c0.21-0.18,0.52-0.17,0.71,0.04s0.17,0.52-0.04,0.71
				c-13.88,12.36-12.83,40.24-12.2,56.89c0.23,6.07,0.4,10.46-0.26,12.16C231.47,210.47,218.11,215.87,214.65,215.88z"/>
		</g>
	</g>
	<g>
		<g>
			<path class="st0" d="M179.57,261.81c-12.75-8.38-22.24-14.47-28.22-16.59c-10.33-3.68-19.88-5.75-19.98-5.77l-0.39-0.08
				l-0.48-39.61l1-0.01l0.47,38.81c1.91,0.43,10.5,2.44,19.71,5.72c6.09,2.16,15.62,8.28,28.43,16.7L179.57,261.81z"/>
		</g>
	</g>
	<g>
		<g>
			<path class="st0" d="M152.82,245.52c-3.79-30.86,5.39-41.49,5.79-41.92l0.74,0.67c-0.09,0.1-9.26,10.79-5.54,41.14L152.82,245.52
				z"/>
		</g>
	</g>
	<g>
		<g>
			<path class="st0" d="M57.56,267.83c0,0,1.79,8.57,3.53,15.04c-1.78,0.7-3.54,1.42-5.3,2.16c-0.02,0.01-0.03,0.01-0.05,0.02
				c-0.21-0.15-0.42-0.31-0.63-0.48c-3.29-2.61-6.97-6.69-9.68-12.93c-0.01-0.03-0.03-0.05-0.04-0.08c-0.47-1.1-0.96-2.36-1.44-3.75
				c-0.1-0.28-0.2-0.57-0.3-0.87c-4.69-13.87-9.63-39.45-11.75-55.71c-0.01-0.09-0.02-0.18-0.03-0.26
				c-0.47-3.62-0.79-6.75-0.95-9.19c0-0.07-0.01-0.14-0.01-0.2c-0.17-2.94-0.44-6.09-0.66-9.47c-0.35-5.25-0.57-11.02-0.11-17.32
				c0.71-9.83,3.08-20.95,9.21-33.32c0,0,0.04-0.07,0.12-0.21c0.05-0.1,0.14-0.24,0.23-0.4c0.13-0.22,0.29-0.5,0.48-0.82
				c0.7-1.18,1.8-2.95,3.1-4.88c0.24-0.35,0.48-0.7,0.73-1.06c0.13-0.18,0.26-0.37,0.38-0.55c1.18-1.67,2.47-3.36,3.77-4.79
				c0.11-0.14,0.23-0.26,0.35-0.39l5.63-4.12c-0.47,0.58-8.17,9.85-9.3,12.79c0,0,7.69-7.46,9.32-8.27c0,0-10.26,9.91-11.2,23.9
				c0,0,5.47-9.08,11.18-13.28c-0.32,0.37-5.55,6.36-8.49,16.07c0,0,6.28-9.09,12.58-13.28c-0.32,0.47-10.74,15.61-12.12,30.76
				c0,0,3.96-8.15,12.12-13.74c-0.3,0.5-10.04,16.71-11.41,27.73c-0.58,3.15-2.1,8.86-1.05,12.24c0,0,12.94-0.47,16.2-0.58
				c0,0-6.53,6.52-10.61,12.7c-4.07,6.18-5.24,15.27-4.89,24.48c0.24,5.71,0.82,13.06,5.01,20.75
				C55.7,264.21,57.56,267.83,57.56,267.83z"/>
		</g>
	</g>
	<g>
		<g>
			<path class="st0" d="M322.51,201.33c-0.86,14.64-8.28,55.71-14.53,70.07c-2.85,6.56-6.77,10.73-10.18,13.32
				c-1.79-0.75-3.6-1.49-5.42-2.2c1.73-6.45,3.5-14.93,3.5-14.93s1.86-3.62,6.05-11.3c4.2-7.7,4.78-15.04,5.01-20.76
				c0.36-9.2-0.81-18.3-4.89-24.47c-4.08-6.18-10.61-12.71-10.61-12.71c3.27,0.12,16.21,0.58,16.21,0.58
				c1.05-3.38-0.47-9.09-1.05-12.24c-1.38-11.02-11.11-27.23-11.41-27.74c8.15,5.6,12.12,13.75,12.12,13.75
				c-1.39-15.16-11.8-30.3-12.12-30.77c6.29,4.2,12.58,13.29,12.58,13.29c-2.94-9.72-8.17-15.71-8.49-16.07
				c5.7,4.2,11.17,13.27,11.17,13.27c-0.93-13.99-11.19-23.9-11.19-23.9c1.63,0.82,9.32,8.28,9.32,8.28
				c-1.13-2.94-8.82-12.23-9.3-12.8l5.39,3.95l0.24,0.17c2.45,2.62,4.94,6.26,6.69,9.04c0.37,0.58,0.71,1.12,1,1.61
				c0.16,0.26,0.32,0.52,0.46,0.75c0.15,0.24,0.27,0.45,0.38,0.64c0.08,0.16,0.17,0.3,0.26,0.46c0.11,0.18,0.19,0.34,0.25,0.44
				c0.02,0.05,0.05,0.09,0.08,0.14c0.02,0.03,0.03,0.04,0.03,0.04c0.05,0.09,0.09,0.18,0.14,0.27c0.01,0.03,0.03,0.05,0.04,0.07
				C326.63,166.81,323.37,186.75,322.51,201.33z"/>
		</g>
	</g>
	<g>
		<g>
			<path class="st0" d="M115.84,150.87c0,0-4.81-3.43-9.01-6.38c0,0,6.68,7.46,7.93,12.28c1.24,4.82,1.7,12.75,1.08,13.83h-24.4
				c0,0,18.5,19.12,20.67,27.04c0.47,2.1,0.78,3.47-2.64,5.16c-3.42,1.68-24.25,18.16-26.58,26.55c0,0-1.09,2.18-1.24,3.42
				c-0.16,1.24,20.83-4.66,30-2.02c0,0-17.72,3.73-22.69,7.93c0,0,9.43-2.18,14.43,0c0,0-17.69,10.88-20.95,16.01
				c-3.26,5.13-1.87,2.64-1.87,2.64s6.99-5.91,14.45-8.7c0,0-1.24,2.18-2.02,5.75c-0.78,3.57-0.78,3.57-0.78,3.57
				s11.81-13.52,18.96-15.85c7.15-2.33,20.28-2.72,20.28-2.72s-0.12-40.64-1.27-46.29c-1.15-5.65-7.02-25.73-11.43-35.59
				L115.84,150.87z"/>
		</g>
	</g>
	<g>
		<g>
			<path class="st0" d="M239.91,142.72c0,0,9.76,5.5,18.54,6.35c0,0-16.55,12.28-18.19,21.22l-0.36,3.34c0,0,16.93-2.1,25.21,0
				c0,0-4.08,3.56-8.39,9.27c-4.31,5.71-3.5,4.72-3.5,4.72s3.32-0.99,4.78-2.33c0,0-1.05,7.81-5.19,10.72s-10.67,8.74-10.9,16.32
				c-0.23,7.58-0.17,8.08-0.17,8.08s18.26,0.85,24.01,5.6c0,0-18.74-2.56-25.85-3.34s-21.64-6.98-26.38-7.3
				c0,0,10.94-1.1,16.58-7.12c5.64-6.02,3.37-5.17,3.31-20.13C233.37,173.16,232.49,157.74,239.91,142.72z"/>
		</g>
	</g>
	<g>
		<g>
			<polygon class="st1" points="154,135.61 153.85,135.5 154.14,135.2 154.4,134.68 154.56,134.79 154.26,135.09 			"/>
		</g>
	</g>
	<g>
		<g>
			<polygon class="st1" points="199.45,135.6 198.98,134.72 199.22,135.16 198.88,134.79 199.03,134.68 199.26,135.13 199.59,135.5 
							"/>
		</g>
	</g>
	<g>
		<g>
			<path class="st0" d="M208.23,126.78v4.84c-0.3,0.28-0.62,0.58-0.98,0.92c-2.13,2.09-5.13,5.33-8.26,8.83
				c-1,1.11-2.02,2.26-3.02,3.4c-0.02,0.01-0.03,0.02-0.04,0.04c-5.93,6.72-11.43,13.23-11.43,13.23c-2.59,2.88-4.89,4.08-6.96,4.16
				l-0.37,0.01l-0.36-0.01c-2.07-0.09-4.38-1.28-6.96-4.16c0,0-5.52-6.53-11.46-13.25c-0.01-0.02-0.02-0.03-0.04-0.05
				c-1-1.12-2-2.25-2.99-3.37h-0.01c-3.2-3.57-6.27-6.9-8.41-8.97c-0.01,0-0.01,0-0.01-0.01c-0.3-0.28-0.58-0.55-0.83-0.78v-4.84
				H208.23z"/>
		</g>
	</g>
	<g>
		<g>
			<polygon class="st0" points="245.06,108.91 245.03,108.76 246.02,108.57 246.04,108.7 			"/>
		</g>
	</g>
	<g>
		<g>
			<path class="st1" d="M234.37,114.2c6-12.77,7.59-24.08,3.39-26.35c-0.15-0.08-0.3-0.15-0.47-0.2l-7.12-3.88l-5.33-2.89V53.71
				c0-15.72-14.47-28.58-32.16-28.58h-31.92c-17.69,0-32.16,12.87-32.16,28.58v27.17l-5.3,2.88c-0.02,0.01-0.03,0.02-0.03,0.02
				l-7.14,3.88c-0.16,0.05-0.3,0.12-0.45,0.2c-4.2,2.27-2.63,13.53,3.33,26.25c-3.75-2.4-7.45-4.17-11.04-5.45
				c0.96-3.92,19.77-80.62,25.33-88.19c5.7-7.77,29.2-20.21,43.41-20.21h0.06c14.2,0,37.7,12.44,43.41,20.21
				c5.56,7.58,24.42,84.49,25.33,88.21C241.9,109.96,238.17,111.76,234.37,114.2z"/>
		</g>
		<g>
			<path class="st0" d="M233.18,115.56l0.74-1.57c5.91-12.57,7.45-23.62,3.6-25.7c-0.13-0.07-0.25-0.12-0.39-0.17l-12.8-6.95V53.71
				c0-15.48-14.2-28.08-31.66-28.08h-31.92c-17.46,0-31.66,12.6-31.66,28.08v27.46l-12.73,6.92c-0.2,0.08-0.32,0.13-0.44,0.2
				c-3.85,2.08-2.33,13.09,3.54,25.6l0.73,1.56l-1.46-0.93c-3.52-2.25-7.2-4.07-10.94-5.4l-0.42-0.15l0.11-0.44
				c2.02-8.26,19.9-80.87,25.41-88.37c5.63-7.68,28.94-20.41,43.81-20.41c14.93,0,38.24,12.73,43.88,20.41
				c5.3,7.22,22.07,74.79,25.38,88.26l0.14,0.56l-0.42,0.15c-3.75,1.34-7.47,3.19-11.05,5.48L233.18,115.56z M225.34,80.57
				l12.19,6.63c0.11,0.03,0.3,0.11,0.47,0.2c4.29,2.32,3.25,12.69-2.48,25.49c3.07-1.85,6.22-3.38,9.41-4.55
				c-2.36-9.6-19.91-80.46-25.14-87.6c-5.4-7.35-28.68-20-43.01-20c-14.4,0-37.68,12.66-43.07,20
				c-5.34,7.27-23.41,80.53-25.14,87.58c3.17,1.16,6.29,2.66,9.3,4.47c-5.69-12.74-6.72-23.07-2.43-25.4
				c0.16-0.09,0.34-0.17,0.52-0.23l12.13-6.6V53.71c0-16.04,14.65-29.08,32.66-29.08h31.92c18.01,0,32.66,13.05,32.66,29.08V80.57z"
				/>
		</g>
	</g>
	<g>
		<g>
			<path class="st1" d="M186.16,117.41h-18.88c-0.92,0-1.73-0.52-2.11-1.36c-0.38-0.84-0.24-1.79,0.37-2.48l9.45-10.64
				c0.88-0.99,2.58-0.99,3.46,0l9.44,10.64c0.61,0.69,0.76,1.64,0.38,2.48C187.9,116.88,187.09,117.41,186.16,117.41z
				 M176.72,103.15c-0.38,0-0.73,0.16-0.98,0.44l-9.45,10.64c-0.35,0.4-0.43,0.92-0.21,1.41c0.22,0.48,0.67,0.77,1.2,0.77h18.88
				c0.54,0,0.99-0.29,1.21-0.78c0.22-0.48,0.13-1.01-0.22-1.4l-9.44-10.64C177.45,103.31,177.1,103.15,176.72,103.15z"/>
		</g>
	</g>
	<g>
		<g>
			<path class="st2" d="M183.55,79.15"/>
		</g>
	</g>
	<g>
		<g>
			<path class="st1" d="M139.76,134.91c-0.34,0-0.7-0.06-1.08-0.17c-3.86-1.15-9.79-8.1-14.75-17.29
				c-5.42-10.02-8.79-21.61-5.04-23.64c3.89-2.1,11.67,7.28,17.02,17.17c2.9,5.38,5.05,10.75,6.05,15.13
				c0.74,3.24,1.16,7.34-1.02,8.52l0,0C140.59,134.82,140.19,134.91,139.76,134.91z M120.07,94.53c-0.27,0-0.5,0.05-0.7,0.16
				c-2.42,1.31-0.78,10.79,5.44,22.29c4.77,8.83,10.59,15.74,14.15,16.8c0.61,0.18,1.12,0.17,1.51-0.04l0,0
				c1.23-0.66,1.42-3.43,0.52-7.41c-0.98-4.29-3.09-9.58-5.95-14.87C129.34,100.92,122.96,94.53,120.07,94.53z"/>
		</g>
	</g>
	<g>
		<g>
			<polygon class="st1" points="220.62,81.5 219.65,81.27 219.67,81.15 220.64,81.41 220.15,81.28 220.64,81.39 			"/>
		</g>
	</g>
	<g>
		<g>
			<polygon class="st1" points="132.82,81.5 132.8,81.39 133.77,81.15 133.79,81.27 			"/>
		</g>
	</g>
	<g>
		<g>
			<path class="st1" d="M224.65,81.34c-0.33-0.12-0.66-0.23-0.97-0.32l0.19-0.98c0.26,0.03,0.52,0.1,0.77,0.2
				c0.14,0.05,0.28,0.11,0.42,0.19L224.65,81.34z"/>
		</g>
	</g>
	<g>
		<g>
			<path class="st3" d="M220.6,55.77v24.24c0,1.16-0.08,2.31-0.25,3.43c-0.05,0.41-0.12,0.81-0.2,1.22
				c-5.03,2.01-11.83,8.42-17.54,16.97l-19.07-18.74h-13.66l-19.07,18.74c-5.7-8.54-12.49-14.96-17.53-16.97
				c-0.17-0.88-0.3-1.78-0.37-2.69c-0.05-0.65-0.08-1.3-0.08-1.96V55.77c0-14.78,13.61-26.89,30.24-26.89h27.28
				C207,28.88,220.6,40.99,220.6,55.77z"/>
		</g>
	</g>
	<g>
		<g>
			
				<rect x="237.19" y="87.41" transform="matrix(0.4756 -0.8797 0.8797 0.4756 47.3627 255.1749)" class="st4" width="1" height="0.9"/>
		</g>
	</g>
	<g>
		<g>
			<path class="st0" d="M108.43,108.89l-0.99-0.17c0,0,0.01-0.07,0.05-0.2l0.96,0.26L108.43,108.89z"/>
		</g>
	</g>
	<g>
		<g>
			<g>
				<path class="st0" d="M37.5,294.34l-0.62-1.19c6-3.1,12.26-6.03,18.61-8.72c1.8-0.76,3.57-1.48,5.36-2.19
					c35.38-14.09,75.6-21.54,116.33-21.54c0.89,0,1.78,0,2.67,0.02c39.41,0.3,78.41,7.62,112.77,21.17
					c1.83,0.71,3.64,1.45,5.44,2.21l0.26,0.11c6.29,2.64,12.48,5.52,18.41,8.56l-0.61,1.19c-5.9-3.03-12.06-5.89-18.31-8.52
					l-0.26-0.11c-1.78-0.75-3.59-1.48-5.41-2.19c-34.21-13.49-73.04-20.78-112.3-21.08c-0.89-0.02-1.77-0.02-2.65-0.02
					c-40.56,0-80.62,7.42-115.84,21.45c-1.78,0.7-3.54,1.42-5.28,2.16C49.7,288.34,43.47,291.26,37.5,294.34z"/>
			</g>
		</g>
	</g>
	<g>
		<g>
			<path class="st0" d="M176.78,169.67l-5.34-1.34v36.54l10.57,2.79v-39.33L176.78,169.67z M177.92,205.78l-2.39-0.66v-33.58h2.39
				V205.78z"/>
		</g>
	</g>
	<g>
		<g>
			<g>
				<path class="st5" d="M102.93,297.56c0.15,12.51-7.71,22.55-17.53,22.36c-5.04,0.02-10.09,0.04-15.13,0.06
					c0-11.88,0-23.76,0-35.64c4.91-1.66,9.84-3.2,14.81-4.63C94.72,276.71,102.79,285.06,102.93,297.56z M94.28,298.61
					c-0.06-6.05-4.18-10.17-9.12-9.04c-2.12,0.46-4.24,0.93-6.35,1.43c0.04,6.53,0.07,13.06,0.11,19.59
					c2.14-0.16,4.27-0.32,6.41-0.48C90.31,309.82,94.34,304.67,94.28,298.61z"/>
			</g>
		</g>
		<g>
			<g>
				<path class="st5" d="M108.07,274.01c9.3-1.95,18.66-3.5,28.05-4.65c0.04,4.12,0.07,8.25,0.11,12.37
					c-6.46,0.6-12.92,1.34-19.35,2.23c0.02,2.11,0.05,4.23,0.07,6.34c5.03-0.57,10.07-1.08,15.12-1.5
					c0.04,4.06,0.08,8.11,0.12,12.17c-5.04,0.26-10.08,0.57-15.11,0.92c0.02,2.11,0.05,4.23,0.07,6.34
					c6.43-0.3,12.86-0.55,19.3-0.75c0.04,4.1,0.07,8.2,0.11,12.3c-9.32,0.01-18.65,0.03-27.97,0.06
					C108.43,304.57,108.25,289.29,108.07,274.01z"/>
			</g>
		</g>
		<g>
			<g>
				<path class="st5" d="M158.39,289.42c5.36-0.17,10.72-0.26,16.08-0.27c0,7.05,0.01,14.09,0.01,21.14
					c-0.41,0.63-0.82,1.26-1.23,1.9c-3.28,5.01-8.74,8.26-14,8.26c-10.06-0.08-18.34-11.8-18.47-26.08
					c-0.13-14.28,8.03-26.97,18.24-27.57c5.39-0.29,10.53,3.08,14.05,9.04c-2.22,2.82-4.44,5.65-6.65,8.49
					c-1.86-3.14-4.56-4.87-7.35-4.76c-5.32,0.23-9.61,6.75-9.56,14.38c0.05,7.63,4.4,13.7,9.68,13.65c2.26-0.03,4.77-1.18,6.56-2.86
					c0-0.88,0-1.76-0.01-2.64c-2.43,0.03-4.86,0.06-7.29,0.11C158.43,297.94,158.41,293.68,158.39,289.42z"/>
			</g>
		</g>
		<g>
			<g>
				<path class="st5" d="M207.27,297.99c2,7.4,3.99,14.72,5.97,21.94c-3.19,0-6.37-0.01-9.56-0.01c-1.73-6.57-3.46-13.19-5.21-19.86
					c-2.93-0.08-5.86-0.14-8.79-0.19c-0.02,6.68-0.05,13.36-0.07,20.04c-2.9,0-5.8,0-8.69,0c0.02-17.64,0.05-35.28,0.07-52.92
					c6.89,0.11,13.78,0.43,20.66,0.97c6.16,0.51,11.15,8.18,11.07,16.8C212.68,290.43,210.48,295.32,207.27,297.99z M203.92,284.15
					c0.01-1.85-1.06-3.48-2.35-3.56c-3.94-0.23-7.88-0.42-11.82-0.54c-0.01,2.34-0.02,4.67-0.02,7.01c3.93,0.1,7.87,0.25,11.8,0.45
					C202.82,287.57,203.91,286.07,203.92,284.15z"/>
			</g>
		</g>
		<g>
			<g>
				<path class="st5" d="M219.67,269.87c9.39,1.26,18.73,2.92,28.01,4.99c-0.04,3.68-0.09,7.36-0.13,11.04
					c-6.4-1.08-12.83-2.02-19.27-2.8c-0.02,2.16-0.05,4.33-0.07,6.49c5.04,0.51,10.07,1.09,15.09,1.75
					c-0.04,3.73-0.09,7.46-0.13,11.19c-5.02-0.4-10.05-0.76-15.09-1.08c-0.02,2.16-0.05,4.33-0.07,6.49
					c6.43,0.26,12.86,0.58,19.28,0.94c-0.04,3.66-0.09,7.32-0.13,10.98c-9.32-0.03-18.65-0.05-27.97-0.06
					C219.34,303.15,219.51,286.51,219.67,269.87z"/>
			</g>
		</g>
		<g>
			<g>
				<path class="st5" d="M254.08,276.35c9.24,2.26,18.41,4.92,27.48,7.99c0,2.91,0,5.83,0,8.74c-6.29-1.6-12.62-3.06-18.98-4.37
					c-0.02,1.84-0.03,3.68-0.05,5.51c4.98,0.85,9.95,1.77,14.91,2.76c-0.01,3.01-0.02,6.01-0.03,9.02
					c-4.98-0.61-9.97-1.18-14.97-1.7c-0.02,1.84-0.03,3.68-0.05,5.52c6.4,0.44,12.8,0.93,19.18,1.46c0,2.9,0,5.79,0,8.69
					c-9.32-0.04-18.64-0.07-27.96-0.1C253.76,305.37,253.92,290.86,254.08,276.35z"/>
			</g>
		</g>
	</g>
	<g>
		<g>
			<g>
				<path class="st5" d="M116.49,337.28c-0.19,6.02-3.69,9.95-7.7,8.64c-2.58-0.77-5.14-1.58-7.69-2.44
					c-0.05,3.47-0.1,6.95-0.16,10.42c-1.84-1.02-3.67-2.08-5.48-3.18c0-8.08,0-16.17,0-24.25c4.61,0.04,9.22,0.07,13.83,0.1
					C113.43,326.49,116.68,331.31,116.49,337.28z M110.62,336.46c0.03-1.15-0.66-2.19-1.52-2.29c-2.62-0.31-5.23-0.64-7.84-0.99
					c-0.02,1.21-0.04,2.43-0.05,3.64c2.58,0.53,5.18,1.03,7.79,1.5C109.84,338.48,110.58,337.65,110.62,336.46z"/>
			</g>
		</g>
		<g>
			<g>
				<path class="st5" d="M136.89,350.53c1.23,6.12,2.47,12.38,3.72,18.77c-2.2-0.53-4.39-1.1-6.57-1.73
					c-1.06-5.53-2.11-10.95-3.16-16.23c-1.98-0.39-3.96-0.8-5.92-1.23c-0.15,4.8-0.31,9.6-0.46,14.4c-1.95-0.69-3.89-1.43-5.82-2.2
					c0.38-11.89,0.76-23.79,1.13-35.68c4.61,0.03,9.23,0.05,13.84,0.07c4.13-0.05,7.37,5.86,7.18,13.14
					C140.7,344.59,139.12,348.62,136.89,350.53z M134.87,339.34c0.04-1.46-0.65-2.75-1.52-2.81c-2.65-0.2-5.3-0.42-7.94-0.66
					c-0.05,1.68-0.11,3.36-0.16,5.04c2.64,0.36,5.29,0.69,7.94,1C134.06,342.01,134.82,340.86,134.87,339.34z"/>
			</g>
		</g>
		<g>
			<g>
				<path class="st5" d="M146.11,326.75c1.97,0.01,3.93,0.01,5.9,0.02c-0.3,14.85-0.6,29.71-0.9,44.56
					c-2.02-0.34-4.04-0.72-6.05-1.14C145.41,355.7,145.76,341.22,146.11,326.75z"/>
			</g>
		</g>
		<g>
			<g>
				<path class="st5" d="M165.98,373.26c-1.14-5.65-2.26-11.28-3.36-16.88c-0.07,5.48-0.13,10.96-0.2,16.45
					c-2.04-0.2-4.07-0.43-6.1-0.71c0.25-15.14,0.5-30.27,0.75-45.41c2.05,0,4.1,0.01,6.14,0.01c2,10.27,4.04,20.67,6.15,31.12
					c2.25-10.29,4.45-20.69,6.6-31.11c2.04,0,4.07,0,6.11,0c0.06,15.59,0.11,31.17,0.17,46.76c-2.04,0.06-4.09,0.08-6.13,0.06
					c0.01-5.57,0.01-11.13,0.02-16.7c-1.18,5.6-2.38,11.2-3.59,16.76C170.35,373.53,168.17,373.42,165.98,373.26z"/>
			</g>
		</g>
		<g>
			<g>
				<path class="st5" d="M187.14,326.79c6.33-0.01,12.66-0.02,18.99-0.03c0.08,3.6,0.16,7.21,0.24,10.81
					c-4.39,0.21-8.78,0.38-13.18,0.5c0.03,2.04,0.05,4.09,0.08,6.13c3.46-0.14,6.91-0.32,10.36-0.55c0.07,3.62,0.15,7.25,0.22,10.87
					c-3.47,0.37-6.95,0.67-10.44,0.89c0.03,2.04,0.05,4.09,0.08,6.13c4.48-0.34,8.94-0.84,13.39-1.47
					c0.08,3.58,0.16,7.16,0.24,10.75c-6.49,1.22-13.03,2.03-19.6,2.44C187.38,357.76,187.26,342.28,187.14,326.79z"/>
			</g>
		</g>
		<g>
			<g>
				<path class="st5" d="M228.97,348.66c1.56,5.17,3.11,10.13,4.65,14.85c-2.13,0.8-4.28,1.56-6.44,2.27
					c-1.36-4.57-2.72-9.29-4.08-14.17c-1.98,0.37-3.97,0.72-5.97,1.05c0.15,5.31,0.3,10.62,0.45,15.94c-1.99,0.52-3.99,0.99-6,1.43
					c-0.36-14.43-0.71-28.86-1.07-43.29c4.62-0.01,9.23-0.03,13.85-0.05c4.13,0.07,7.7,5.2,7.9,11.42
					C232.38,342.22,231.05,346.13,228.97,348.66z M226.32,338.76c-0.04-1.39-0.81-2.51-1.68-2.44c-2.65,0.21-5.3,0.41-7.96,0.58
					c0.05,1.86,0.1,3.71,0.16,5.57c2.66-0.27,5.32-0.56,7.97-0.89C225.68,341.48,226.37,340.22,226.32,338.76z"/>
			</g>
		</g>
		<g>
			<g>
				<path class="st5" d="M259.9,338.55c-0.05,6.5-5.13,15.28-11.65,18.9c-6.5,3.55-12.28-2.55-12.61-12.95
					c-0.33-10.36,4.98-18.64,11.84-18.37C254.39,326.47,259.95,332.08,259.9,338.55z M254.21,340.15c-0.05-3.98-2.97-6.91-6.55-6.59
					c-3.54,0.33-6.35,4.65-6.19,9.71c0.15,5.06,3.16,8.12,6.6,6.74C251.54,348.6,254.26,344.13,254.21,340.15z"/>
			</g>
		</g>
	</g>
	<g>
		<g>
			<g>
				
					<rect x="153.95" y="22.4" transform="matrix(0.8905 0.455 -0.455 0.8905 43.8122 -64.8746)" class="st1" width="5.45" height="72.35"/>
			</g>
		</g>
		<g>
			<g>
				
					<rect x="183.53" y="27.06" transform="matrix(0.8905 0.455 -0.455 0.8905 49.2962 -78.351)" class="st1" width="7.77" height="72.35"/>
			</g>
		</g>
	</g>
	<g>
		<g>
			<path class="st0" d="M224.84,53.71v28.38c-0.24,1.36-0.16,0.73-0.38,2.1c-0.21-0.07-0.42-0.12-0.65-0.14
				c-1.05-0.16-2.28,0.05-3.65,0.61c0.08-0.4,0.15-0.8,0.2-1.21c0.11-0.78,0.19-1.56,0.22-2.37c0.02-0.35,0.03-0.71,0.03-1.07V55.77
				c0-14.78-13.61-26.88-30.24-26.88h-27.28c-16.64,0-30.24,12.1-30.24,26.88v24.24c0,0.36,0.01,0.71,0.03,1.07
				c0.01,0.3,0.03,0.59,0.05,0.89c0.07,0.91,0.2,1.82,0.37,2.69c-1.66-0.67-3.14-0.86-4.32-0.47c-0.22-1.35-0.15-0.79-0.37-2.1
				V53.71c0-15.72,14.47-28.58,32.16-28.58h31.92C210.37,25.12,224.84,37.99,224.84,53.71z"/>
		</g>
	</g>
	<g>
		<g>
			<path class="st4" d="M229.07,117.22c-5.96,11.03-13.28,18.63-16.35,16.97c-3.07-1.65-0.72-11.93,5.23-22.97
				c5.96-11.02,13.28-18.62,16.35-16.97C237.37,95.91,235.02,106.2,229.07,117.22z"/>
		</g>
	</g>
	<g>
		<g>
			<path class="st4" d="M124.37,117.22c5.96,11.03,13.28,18.63,16.35,16.97c3.07-1.65,0.72-11.93-5.23-22.97
				c-5.96-11.02-13.28-18.62-16.35-16.97C116.07,95.91,118.41,106.2,124.37,117.22z"/>
		</g>
	</g>
	<g>
		<g>
			<path class="st6" d="M138.46,109.61c-7.63-14.12-17.45-23.7-22.33-21.96c-0.16,0.05-0.3,0.12-0.45,0.2
				c-4.2,2.27-2.63,13.53,3.33,26.25h0.01c0.72,1.56,1.52,3.13,2.37,4.72c7.87,14.56,18.06,24.31,22.77,21.76
				c0.24-0.13,0.46-0.28,0.65-0.47C148.61,136.65,145.93,123.44,138.46,109.61z M139.75,134.41c-2.26-0.01-5.84-3.1-9.57-8.05
				c-0.36-0.47-0.71-0.96-1.07-1.46c-0.36-0.5-0.71-1.02-1.07-1.56c-0.71-1.07-1.42-2.2-2.12-3.38c-0.16-0.26-0.3-0.51-0.45-0.77
				c-0.37-0.65-0.73-1.31-1.1-1.97c-0.52-0.97-1.01-1.93-1.49-2.88c-0.92-1.9-1.74-3.75-2.44-5.52c-0.35-0.89-0.66-1.76-0.94-2.59
				c-0.42-1.25-0.77-2.44-1.04-3.55c-1.06-4.39-0.92-7.56,0.67-8.42c3.07-1.65,10.38,5.94,16.35,16.97
				c5.95,11.03,8.3,21.31,5.23,22.97C140.43,134.34,140.11,134.41,139.75,134.41L139.75,134.41z"/>
		</g>
	</g>
	<g>
		<g>
			<path class="st5" d="M157.09,133.61l-2.87,1.55l-9.33,5.04l-0.72,0.38c0.24-0.13,0.46-0.28,0.65-0.47
				c3.79-3.47,1.1-16.67-6.36-30.51c-7.63-14.12-17.45-23.7-22.33-21.96l7.14-3.88c0,0,0.01-0.01,0.03-0.02l5.3-2.88
				c0.12-0.06,0.25-0.12,0.37-0.17c1.08-0.42,2.4-0.26,3.89,0.38c0.15,0.05,0.28,0.12,0.43,0.19c5.04,2.41,11.83,10.11,17.53,20.35
				c0.18,0.34,0.37,0.67,0.55,1C159.24,117.19,161.8,131.06,157.09,133.61z"/>
		</g>
		<g>
			<path class="st4" d="M144.41,141.02l-0.47-0.88c0.2-0.11,0.39-0.24,0.54-0.39c3.64-3.33,0.8-16.47-6.46-29.91
				c-7.37-13.62-17.1-23.36-21.72-21.73l-0.41-0.91l12.46-6.78c0.13-0.07,0.27-0.13,0.42-0.19c1.2-0.47,2.63-0.34,4.29,0.38
				c0.14,0.05,0.29,0.12,0.45,0.2c5.3,2.54,12.1,10.41,17.75,20.56l0.55,1.01c8.13,15.02,10.55,28.93,5.52,31.65v0L144.41,141.02z
				 M118.31,87.03c5.5,0.95,13.79,9.78,20.58,22.34c6.74,12.48,9.62,24.42,7.37,29.52l10.59-5.73c4.38-2.37,1.67-16.25-5.93-30.3
				l-0.55-1c-5.46-9.82-12.25-17.72-17.31-20.14c-0.14-0.07-0.26-0.13-0.39-0.18c-1.42-0.62-2.6-0.75-3.53-0.39
				c-0.1,0.04-0.21,0.09-0.32,0.15L118.31,87.03z"/>
		</g>
	</g>
	<g>
		<g>
			<path class="st6" d="M202.61,101.63l-19.07-22.48h-13.66l-19.07,22.48c0.18,0.34,0.37,0.67,0.55,1
				c7.87,14.56,10.43,28.43,5.73,30.97l-2.87,1.55c6.04,5.2,13.9,8.34,22.49,8.34c8.6,0,16.46-3.13,22.5-8.34l-2.87-1.55
				c-4.71-2.55-2.16-16.42,5.72-30.97C202.25,102.3,202.43,101.97,202.61,101.63z M186.16,116.91h-18.88
				c-1.56,0-2.39-1.84-1.36-3.01l9.45-10.64c0.72-0.81,1.99-0.81,2.71,0l9.44,10.64C188.56,115.06,187.73,116.91,186.16,116.91z"/>
		</g>
	</g>
	<g>
		<g>
			<path class="st6" d="M237.76,87.85c-0.15-0.08-0.3-0.15-0.47-0.2c-4.89-1.72-14.69,7.86-22.31,21.96
				c-7.52,13.92-10.19,27.18-6.31,30.56c0.18,0.16,0.37,0.29,0.58,0.41c4.71,2.55,14.91-7.2,22.77-21.76
				c0.84-1.55,1.62-3.09,2.33-4.61c0.01,0,0.01-0.01,0.01-0.01C240.37,101.44,241.96,90.12,237.76,87.85z M229.07,117.21
				c-0.4,0.75-0.82,1.49-1.23,2.2c-5.08,8.74-10.82,14.85-14.04,14.98c-0.4,0.03-0.77-0.05-1.08-0.22
				c-3.07-1.65-0.72-11.93,5.23-22.97c5.96-11.02,13.28-18.62,16.35-16.97C237.37,95.91,235.02,106.19,229.07,117.21z"/>
		</g>
	</g>
	<g>
		<g>
			<path class="st5" d="M237.3,87.65c-4.89-1.72-14.69,7.86-22.31,21.96c-7.52,13.92-10.19,27.18-6.31,30.56
				c0.18,0.16,0.37,0.29,0.58,0.41l-0.64-0.35l-9.41-5.08l-2.87-1.55c-4.71-2.55-2.16-16.42,5.72-30.97c0.18-0.34,0.37-0.67,0.55-1
				c5.71-10.25,12.51-17.94,17.54-20.35c0.14-0.06,0.28-0.13,0.42-0.19c1.21-0.52,2.29-0.72,3.23-0.55
				c0.23,0.03,0.44,0.08,0.65,0.16c0.13,0.05,0.25,0.1,0.37,0.16c0,0,0.01,0,0.02,0.01l5.33,2.89L237.3,87.65z"/>
		</g>
		<g>
			<path class="st4" d="M209.02,141.02l-12.91-6.98c-2.49-1.34-3.24-5.43-2.11-11.51c1.09-5.9,3.8-13.05,7.63-20.14l0.55-1
				c5.64-10.14,12.45-18.02,17.77-20.57l0.42-0.19c1.34-0.58,2.52-0.77,3.54-0.59c0.23,0.03,0.48,0.09,0.74,0.19
				c0.1,0.04,0.2,0.08,0.3,0.13h0.08l0.11,0.1l12.4,6.75l-0.4,0.91c-4.63-1.61-14.36,8.13-21.7,21.73
				c-7.32,13.56-10.14,26.71-6.42,29.95c0.15,0.13,0.3,0.24,0.5,0.35L209.02,141.02z M223.13,80.98c-0.7,0-1.48,0.19-2.35,0.57
				l-0.41,0.19c-5.06,2.42-11.85,10.33-17.32,20.14l-0.54,1c-3.78,6.99-6.45,14.04-7.52,19.84c-1.02,5.54-0.44,9.35,1.61,10.45
				l10.58,5.71c-2.25-5.09,0.62-17,7.38-29.51c6.78-12.55,15.08-21.39,20.58-22.34l-10.54-5.73c-0.1-0.05-0.19-0.1-0.3-0.13
				c-0.19-0.08-0.36-0.12-0.54-0.14C223.55,80.99,223.34,80.98,223.13,80.98z"/>
		</g>
	</g>
</g>
</svg>
